<?xml version="1.0" encoding="UTF-8"?>
<svg id="Layer_1" data-name="Layer 1" xmlns="http://www.w3.org/2000/svg" width="808.94" height="956.9" viewBox="0 0 808.94 956.9">
  <path d="m191.28,204.32c2.53.78,5.34,1.1,7.55,2.41,10.83,6.44,21.71,12.83,32.19,19.82,17.68,11.79,35.04,24.05,52.58,36.05,2.18,1.49,4.63,2.61,6.99,3.82,7.99,4.09,10.82,3.15,13.61-4.52,5.63-15.46,11.31-30.91,16.82-46.42,1.28-3.61,3.51-5.61,7.24-5.44,3.96.19,8.12.13,11.81,1.34,26.51,8.71,54.37,12.5,80.59,22.32,15.56,5.83,31.44,10.85,45.93,19.2,2.3,1.32,4.61,2.66,6.76,4.22,2.3,1.67,3.72,4.26,2.87,6.91-3.64,11.37-7.43,22.65-9.26,34.53-.57,3.73-5.87,5.3-9.97,2.84-13.8-8.28-28.92-13.3-43.91-18.79-9.33-3.42-19.29-4.5-28.3-9.29-6.06-3.22-11.08-.08-13.76,7.01-5.4,14.29-10.51,28.68-15.73,43.04-1.57,4.32-2.94,8.44-6.42,12.06-10.86,11.29-14.11,12.21-27.04,3.25-35.06-24.29-68.14-51.11-99.2-80.31-8.39-7.88-17.88-13.65-27.77-19.05-2.87-1.56-6.11-2.91-9.3-3.24-2.4-.25-5.6.57-7.38,2.12-8,7-19.8,3.76-27.86,13.12-20.89,24.25-38.01,51.19-57.42,76.47-15.91,20.71-35.08,38.14-52.45,57.34-1.49,1.65-3.85,1.19-5.17-.6-.59-.8-.67-2.69-.12-3.52,6.61-9.95,12.59-20.46,22.23-27.99,9.02-7.04,16.12-15.73,22.77-24.96,19.82-27.51,39.21-55.37,60.11-82.04,10.58-13.5,24-24.78,36.28-36.92,3.99-3.94,8.97-5.66,14.75-4.8Zm129.32,114.8c.9,1.31-.18,1.69-.28.82-.3-2.6-1.31.62,1.05-.62,1.31.55,1.4,1.46.06,1.74-1.17.24-1.55-.79-.83-1.93Zm6.78-8.78c1.77,1.03,3.03,3.34,5.64,2.29.19,1.73.03,3.6.67,5.14.71,1.69,2.68,3.17,4.3,1.87,1.7-1.35-.14-3.12-.99-4.51-.96-1.58-2.1-3.09-4.36-2.08-.61-4.67-3.08-3.85-5.9-1.99-.09-.58-.35-1.21-.22-1.74.24-.95.71-1.84,1.08-2.76-.33.15-.97.34-.96.45.13,1.17.36,2.32.72,3.33Zm15.91-63.79l-1.11.49,1.28-.28c1.57,1.73-1.02,2.29-1,3.59.27-1.28.54-2.57.83-3.81Zm-44.47,51.98c-.33.34-.67.67-1,1.01l1.41-1.05q-2.19,8.56,6.17,8.96c.83,1.04.72,1.43-.31,1.15.3-.21.59-.42.89-.62-3.17-2.56-6.25-5.19-7.15-9.44Zm38.13-13.3l-.89-.86.97.73c.73,6.02,2.66,11.59,6.57,16.3.76.91,2.2,1.25,3.33,1.85.64-1.78,2.23-3.89,1.75-5.3-1.99-5.84-6.6-9.58-11.72-12.72Zm-73.99-5.74c-.54-8.74-5.09-14.05-10.32-18.83-1.45-1.33-3.31-2.64-4.71-.13-.46.83-.08,2.73.62,3.51,4.7,5.25,9.59,10.32,14.42,15.45Zm164.57-24.97c-.3-3.37-1.81-6.05-4.7-7.85-.47-.29-1.29-.29-1.83-.09-.56.2-1.34.77-1.39,1.24-.35,3.26,3.16,8.71,5.92,8.98.59.06,1.33-1.47,2-2.27Z"/>
  <path d="m460.95,781.02c9.15.46,14.76-5.97,20.07-11.55,12.78-13.44,27.38-15.08,43.8-8.8,11.79,4.51,23.66,8.86,35.28,13.79,16.75,7.11,32.56,7.15,50.19.6,19.61-7.28,36.44-18.91,54.42-28.7,9.16-4.98,17.86-8.53,28.38-6.63,3.21.58,6.71-.48,9.96.01,11.99,1.81,20.42-4.04,27.89-12.3,4.66-5.16,5.38-8.41,2.24-14.39-4-7.65-7.95-15.36-12.59-22.63-21.84-34.25-44.82-67.52-73.94-96.35-14.56-14.42-29.89-28.49-40.9-46.26-5.6-9.04-11.14-18.02-15.94-27.57-11.33-22.54-23.47-44.67-37.57-65.69-4.39-6.54-7.38-14.01-11.43-20.8-6.81-11.42-13.85-22.7-20.99-33.91-7.22-11.33-11.45-23.99-16.63-36.22-1.89-4.47-1.27-9.02-.33-13.72,4.59-23.05,14.77-43.99,24.25-65.2.49-1.1,1.76-2.09,2.91-2.58,1.09-.46,2.7-.61,3.68-.12.99.49,2.05,1.94,2.08,3,.07,1.91-.35,3.93-1,5.76-4.67,13.11-8.66,26.37-15.14,38.92-6.08,11.76-10.2,24.8-2.52,38.07,1.88,3.25,3.96,5,7.9,3.33,8.55-3.62,17.15-7.11,25.75-10.59,8.38-3.39,13.84-10.14,19.4-16.76,1.54-1.84-.54-5.52-3.15-5.88-10.06-1.41-18.47,1.82-24.99,9.45-3.45,4.03-6.18,8.66-9.38,12.92-1.95,2.59-4.62,1.98-7.16,1.03-2.02-.76-3.76-2.66-2.64-4.44,5.68-9.04,12.57-17.81,21.52-22.97,7.76-4.47,18.07-4.08,27.24-2.71,6.44.96,9.48,6.8,11.69,12.59.83,2.17-.12,3.88-1.82,5.11-2.16,1.56-4.7,2.67-6.59,4.48-1.28,1.22-2.65,4.66-2.42,4.82,7.92,5.4,2.37,15.07,7.33,21.85,5.27,7.22,5.72,16.55.72,24.38-3.87,6.05-5.15,12.74-4.78,18.98.48,8.12-1.4,14.61-7.59,19.03-5.36,3.83-4.33,7.42-1.9,11.84,1.93,3.5,3.58,7.19,5.85,10.46,14.42,20.82,24.54,44.06,36.85,66.05,11.93,21.31,28.4,38.43,45.32,55.3,17.97,17.91,33.48,37.7,48.67,57.97,14.43,19.26,24.83,40.9,38.71,60.37,2.85,4,3.78,8.45,5.53,12.67,3.27,7.91,2.37,10.32-3.88,15.45-.51.42-1.1.76-1.62,1.17-19.75,15.45-19.76,15.94-45.02,15.34-11.12-.27-20.26,2.31-29.66,8.41-20.05,13.01-40.81,24.82-64.08,31.76-9.23,2.75-17.41,4.55-26.99,1.14-11.33-4.02-13.52-2.82-18.16,8.6-10,24.61-19.41,49.46-28.91,74.28-3.09,8.08-5.51,16.42-8.64,24.49-.89,2.29-3.03,4.23-4.94,5.94-.77.69-2.65.76-3.71.32-.99-.41-2.38-2.08-2.17-2.8,3.23-11.46,4.8-23.35,10.03-34.3,8.59-18,16.7-36.18,22.03-55.57,2.25-8.19,7.36-15.57,10.92-23.43,1.19-2.62.53-5.63-2.23-6.78-12.88-5.38-25.83-10.63-38.91-15.5-2.15-.8-5.33-.06-7.62.93-6.1,2.62-11.96,5.59-16.61,10.73-8.22,9.07-19.48,13.73-29.98,19.41-1.66.9-3.83.96-5.79,1.16-3.09.31-6.76-3.3-6.2-6.37.59-3.21,1.77-6.32,2.69-9.47,2.44-8.28,5.08-16.52,7.28-24.86,2.99-11.34,10.89-19.54,17.77-28.37,1.38-1.77,3.85-.6,5.37.69.85.72,1.8,2.55,1.45,3.28-2.3,4.76-4.75,9.47-7.5,13.98-5.22,8.55-10.25,17.19-11.74,27.28-.36,2.46.54,5.11.85,7.66-.67-1.19-1.66-.57-1.12-.02,1.86,1.87-1.38.92.86-.52Zm93.15-358.61c.48,3.85-.7,7.98,2.13,11.44,1.39,1.7,3.22,2.65,4.94,1.47,1.46-1.01,2.7-2.88,3.18-4.61.54-1.94-.37-4.01-2.76-4.31-3.01-.38-6.84,1.17-7.5-3.77-4.13-6.95-6.06-14.49-7.38-22.47-.73-4.42-1.16-7.31,2.8-10.11,5.55-3.93,9.96-8.91,11.35-15.86.51-2.54,1.44-5.64-1.21-7.31-1.24-.78-3.76-.29-5.35.41-9.52,4.18-18.94,8.6-29.17,13.29,5.57,14.47,13.61,26.61,21.92,38.53,1.27,1.82,4.69,2.14,7.05,3.32Zm13.22-26.2q-10,7.81-4.01,18.47c4.25-5.69,5.04-11.62,4.01-18.47Z"/>
  <path d="m202.04,450.44c14.61-7.87,28.28-15.6,44.3-18.99,9.5-2.01,18.24-7.92,27.13-12.44,12.4-6.31,24.76-8.15,38.31-3.16,8.67,3.19,18.01,4.26,27.48,2.71,4.63-.76,8.64-2.24,12.94-4.25,15.78-7.41,29.79-17.27,43.19-28.21,2.02-1.65,4.31-3.13,6.71-4.12,2.61-1.08,5.72-.53,7.29,1.66,2.66,3.71,4.89,7.82,6.68,12.03,1.08,2.55-.26,5.39-2.27,7.22-17.59,15.97-33.36,34.66-58.43,39.59-.65.13-1.32.3-1.91.59-4.59,2.26-11.2,2.19-12.63,8.34-1.96,8.44,5.47,10.53,11.09,14.8,4.96-6.85,9.52-13.3,14.3-19.59.64-.84,2.45-1.4,3.51-1.16,2.33.53,2.53,2.61,2.26,4.66-.09.65-.35,1.28-.6,1.89-1.36,3.33-5.42,7.34-.28,9.83,3.01,1.46,5.6-2.47,7.42-5.38.65-1.04,1.95-1.66,3.26-2.73,6.04,1.4,8.25,7.82,13.12,10.81,3.5-10.77,4.6-21.85,4.4-33.13-.04-2.02.92-4.39,3.29-3.83,1.5.35,3.48,2.41,3.68,3.91.79,5.88.89,11.71-.16,17.77-1.69,9.78-2.66,19.81-2.58,29.73.08,8.73,2.01,16.71,12.99,19.66,6.6,1.77,7.62,8.6,4.77,14.83-5.2,11.33-20.2,17.02-34.22,14.8-8.5-1.34-16.87-2.94-25.52-3.7-16.02-1.41-31.86.03-47.79.18-11.22.1-22.34-.41-33.63-2.59-11.41-2.2-22.87-5.56-35.16-4.05-9.38,1.16-18.03-3.86-25.19-10.23-1.31-1.17-2.74-4.04-2.18-5.11,1.46-2.81,4.38-2.27,6.59-.59,8.34,6.35,17.52,8.12,28.04,8.02,11.16-.11,22.59,1.46,33.44,4.16,11.2,2.79,22.09,1.44,33.73,2-1.58-6.58-6.34-9.55-9.39-13.68-5.62-7.61-5.88-10.34-.59-17.51,7.48-10.14,13.69-21.23,20.43-31.92,1.4-2.22,2.99-4.41,1.7-8.29-7.2-3.38-14.73-5.34-23.96-2.5-15.19,4.67-30.78,7.98-44.26,17.05-1.62,1.09-3.69,2.31-5.48,2.21-14.36-.82-27.14,6.56-41.02,7.77-23.63,2.07-42.66,13.4-60.04,28.46-2.5,2.17-5.12,4.24-7.91,6.01-1.73,1.1-4.08,1.11-5.38-.71-1.3-1.81-.11-3.8,1.31-5.01,19.96-16.99,41.27-31.78,67.88-35.82,13.81-2.1,26.8-7.85,40.92-8.31,2.51-.08,5.3-1.18,7.4-2.62,13.98-9.61,30.57-12.36,46.11-17.85,6.58-2.32,13.2-1.6,19.5.95,15.17,6.14,29.47.62,41.74-6.22,13.73-7.65,26.21-18.14,37.36-29.68,1.28-1.33,2-3.23,2.81-4.95.23-.49.07-1.56-.31-1.87-.92-.75-2.15-1.82-3.11-1.69-5.64.78-9.45,4.81-13.14,8.52-11.5,11.54-26.9,16.88-40.27,25.42-11.23,7.18-25.24,5.62-36.77,1.07-11.92-4.71-22-2.32-32.7,1.25-5.66,1.89-11.29,4.07-16.61,6.75-8.96,4.51-18.43,7.34-27.96,10.3-8.17,2.54-15.87,6.61-23.77,10.04-3.92,1.7-7.63,2.29-11.85-3.09Zm180.88,21.71c-.77-3.11-3.08-3.35-4.71-2.58-7.24,3.43-8.65,11.09-11.82,17.41-.32.64,1.01,2.35,1.87,3.29,1.37,1.48,2.75,1.97,5.08.96,8.94-3.9,9.17-11.77,9.58-19.08Zm-60,13.37c-.67.17-1.35.24-1.94.51-4.77,2.12-7.57,8.35-5.93,13.11.89,2.58,6.58,5.49,8.03,3.86,2.57-2.87,5.73-5.7,5.6-10.01-.11-3.7-3.23-5.45-5.75-7.48Zm71.39-.85l.62,1.52.55-1.54-1.17.02Zm-15.29,15.04c.52-.18,1.04-.36,1.56-.54-.37-.38-.7-.98-1.13-1.07-.45-.09-1,.31-1.5.49.36.37.71.75,1.07,1.12Zm8.62,19.14l-1.13-.75-.16,1.16,1.29-.41Z"/>
  <path d="m518.88,262.56c.92-10.13,6.27-18.77,9.71-27.98,6.54-17.52,9.51-35.95,15.25-53.63,1.59-4.91,1.04-8.98-2.47-12.88-1.74-1.94-3.12-4.35-4.14-6.77-6.46-15.29-14.69-29.67-22.13-44.43-6.51-12.92-12.12-26.54-17.89-39.96-2.88-6.7-5.88-13.34-8.81-20.02-1.07-2.43-2.36-4.79-3.09-7.32-.81-2.79.12-5.14,3.02-6.38,2.38-1.02,3.97.52,5.02,2.08,5.94,8.9,11.06,18.4,13.33,28.81,1.9,8.7,6.11,16.02,10.02,23.7,9.3,18.3,18.21,36.8,27.4,55.16,4.2,8.39,4.54,8.98,13.8,7.25,10.07-1.88,19.72-1.84,29.36,1.69,7.14,2.62,9.91,6.03,8.33,13.58-2.86,13.64-3.85,27.66-8.75,40.92-3.91,10.59-6.93,21.51-10.47,32.24-1.45,4.39-2.87,8.87-4.97,12.96-8.49,16.6-12.69,18.4-29.93,12.91-4.41-1.41-8.62-3.47-12.86-5.38-3.61-1.63-7.49-2.93-9.72-6.59Zm43.24-54.05c-.91-1.6-1.25-3.11-2.13-3.55-2.71-1.37-5.41-4.37-8.7-1.34-.8.74-1.54,2.83-1.12,3.37,1.05,1.36,2.76,2.98,4.26,3.05,2.47.11,4.99-.93,7.69-1.52Zm17.73-35.35c-.29-.44-.58-.88-.86-1.32-.38.35-1.02.65-1.1,1.05-.27,1.42.34,2.06,1.43,1.6.31-.13.37-.87.54-1.33Zm-39.9,72.86c-.45.26-.9.53-1.35.79.26.42.52.84.78,1.26.68-.46,1.36-.93,2.04-1.39-.49-.22-.98-.44-1.47-.65Zm20.96,6.05c-.52-1-1.04-2.01-1.56-3.01-.52.39-1.46.78-1.46,1.17,0,1.12.38,2.25.62,3.37.8-.51,1.6-1.02,2.41-1.54Z"/>
  <path d="m328.16,557.18c-11.98-1.86-23.68-2.62-35.65-1.01-9.27,1.25-18.28-2.22-27.18-4.74-.89-.25-1.79-1.99-1.92-3.13-.31-2.68,2.04-3.02,3.8-2.97,3.29.1,6.58.6,9.83,1.13,3.27.54,6.79,2.54,9.7,1.82,15.15-3.73,30.17-.04,45.23-.11,9.39-.04,18.28-2.89,26.97-6.42,3.74-1.52,7.78-2.06,11.28.81.91.75,1.73,2.11,1.81,3.25.08,1.1-.69,3.16-1.35,3.27-14.3,2.41-27.83,8.96-42.52,8.08Z"/>
</svg>