<?xml version="1.0" encoding="UTF-8"?>
<svg id="Layer_1" data-name="Layer 1" xmlns="http://www.w3.org/2000/svg" width="457.24" height="478.77" viewBox="0 0 457.24 478.77">
  <path d="m-89.67,676.52c-2.78-9.88-12.38-15.5-15.71-25.1-1-2.88-4.22-3.01-6.83-3.22-13.1-1.03-26.35-4.95-39.12,2.08-.9.5-3.62-1.16-4.73-2.47-1.48-1.76-.3-3.93,1.07-5.34,1.83-1.89,3.8-4.26,6.13-4.92,9.56-2.7,15.5-9.93,21.9-16.57,4.61-4.78,8.44-10.37,13.31-14.85,4.8-4.41,10.46-7.88,16.68-12.45-10.81-3.67-21.54-3.17-31.78-8.14.29,7.22.08,12.81-5.84,16.82-4.3,2.92-7.57,7.35-11.3,11.11-8.77-5.09-13.16,2.77-18.52,6.68-5.88,4.29-11.1,9.52-16.42,14.54-3.26,3.07-7.69,5.33-10.24,1.44-4.48-6.82-8.14-4.22-12.62-.86-9.55,7.17-19.12,14.32-28.74,21.41-7.63,5.62-9.82,5.93-17.35-.05-3.43-2.72-6.16-4.33-10.59-3.02-20.47,6.04-39.3,4.05-54.88-13.69-3.32,7.07-2.54,12.97-2.71,18.69-.25,8.29-1.58,15.86-9.91,20.27-1.61.85-2.63,2.92-3.8,4.52-2.89,3.95-2.01,7.47,1.98,9.81,4.13,2.41,8.64,2.94,13.18,3.97,11.49,2.6,21.43.73,32.24-4.47,15.6-7.51,30.71-15.74,45.62-24.44,3.43-2,6.9-4.12,10.62-5.41,8.54-2.95,17.04-4.88,21.95,6.04,1.57,3.48,4.96,4.06,8.33,4.34,20.41,1.73,40.06.74,55.4-15.6.9-.96,1.95-1.84,3.06-2.55,2.92-1.86,6.08-3.26,8.79.06,2.64,3.22.91,6.54-1.27,8.95-2.62,2.89-5.64,5.83-9.09,7.5-15.11,7.34-31.01,11.81-47.99,11.73-5.42-.03-12.24-3.93-14.88,4.9-.05.15-2.53-.09-3.63-.65-5.1-2.56-8.11-.54-7.22,4.56.77,4.43-1.47,6.34-4.13,7.99-13.53,8.38-25,19.79-39.97,26.16-7.91,3.36-14.75,9.07-20.68,15.43-7.94,8.51-14.35,17.18-6.59,29.73,3.02,4.88,4.34,11.19,3.77,17.35-.25,2.7-1.18,5.2-3.86,6.5-2.66,1.3-5.37.71-7.44-.97-3.6-2.91-6.98-6.13-10.23-9.45-4.17-4.27-8.17-8.71-12.13-13.17-1.47-1.66-1.37-3.67.13-5.29,1.5-1.63,3.71-1.97,5.39-.8,2.68,1.86,5.08,4.15,7.43,6.43,1.87,1.81,3.48,3.89,6.51,7.33,1.79-7.9-1.25-12.81-5.13-16.46-5.5-5.18-1.18-9.59-.19-14.36,4.24-.82,3.35-3.42,2.12-6.13,2.31-1.34-1.7-1.84.9-1.26,1.39.31,1.64.93.88,2.18-1.38,2.28,1.29-1-1.25-.38-.7,2.04-1.48,3.99-2.25,5.94-15.93,2.23-27.6,11.61-38.21,22.78-2.73,2.88-5.37,6.11-9.95,5.38-1.01-.16-2.51-1.46-2.57-2.31-.07-1.12.83-2.56,1.73-3.42,5.32-5.1,9.33-10.09,9.08-18.63-.23-7.75,6.1-13.14,13.28-15.77,4.62-1.7,2.56-5.24,3.62-7.89,3.65,2.75,7.59,5.18,10.84,8.34,2.44,2.37,4.55,2.19,6.87.71,12.8-8.16,25.54-16.4,38.27-24.67.43-.28.43-1.22.7-1.83,1.4.01,2.71,0,4.03-.03-1.21,0-2.42,0-3.63.01-14.14.37-26.46,6.5-39,12.07-5.75,2.56-10.83,7.72-18.08,5.43-1.21,2.51-3.38,3.56-5.99,3.53-4.97-.06-9.93-.31-14.91-.47.52-5.62,4.21-7.74,9.29-8.54,4.48-.71,11.62.95,12.7-3.36,1.7-6.78,6.74-9.03,10.88-12.82.32-.29.34-1.38.05-1.76-.71-.94-1.74-2.45-2.53-2.38-5.91.49-11.73,1.76-17.77.83-1.64-.25-4.09.8-5.25,2.09-6.21,6.82-12.42,13.68-17.98,21.01-2,2.63.7,4.53,3.6,5.21,2.66.62,5.21.73,7.6-.83q.81,9.48-6.43,9.45c-15.02-.06-15.09-.07-16.91,14.08-.85,6.59-1.84,13.21-1.95,19.83-.14,8.26,4.09,12.24,12.18,12.45,1.99.05,4.03-.04,5.97-.43,15.12-3.03,24.47,5.03,30.21,17.29,6.18,13.19,10.84,27.1,16.03,40.75,1.22,3.21-1.47,4.8-3.61,6.26-1.03.71-2.63,1.3-3.76,1.04-11.05-2.6-15.34,4.96-19.79,12.68-6.14,10.65-9.73,21.79-8.21,34.26.43,3.56,1.81,6.98,5.29,7.41,2.7.34,4.07-2.95,4.78-5.57,2.26-8.32,4.41-16.68,6.7-24.99.43-1.56,1.79-2.2,3.21-1.5,1.02.5,2.41,1.47,2.52,2.37.84,6.64.67,13.25-1.5,19.7-.85,2.51-1.58,5.14.15,7.72,6.15-2.72,7.38-8.7,8.99-14.19,3.19-10.84,6.08-21.77,8.9-32.72.85-3.28,1.49-6.68,4.6-8.44,1.51-.86,3.69-.92,5.48-.7.63.08,1.65,2.21,1.44,3.16-1.16,5.17-2.64,10.27-4.02,15.39-.52,1.92-1.26,3.81-1.57,5.77-.62,4.02,1.67,6.25,5.24,7.13,3.03.75,5-.88,5.92-3.73,2.46-7.58,4.84-15.19,7.32-22.76,1.46-4.45,3.5-8.55,7.14-11.72,3.31-2.88,8.56-1.83,9.38,2.26,1.45,7.16,2.42,14.42,3.68,21.62.69,3.95,3.31,5.43,7.13,5.12,5.37-.44,10.44-1.67,15.14-4.55,4.55-2.79,9.38-4.97,14.96-5.02,6.04-.06,12.33-1.08,13.62,7.57.45,2.98,3.4,3.58,5.85,4.67,4.23,1.89,8.25,4.27,13.37,6.98,1.57-8.4-2.87-14.88-5.75-21.81-.48-1.16.99-4.08,2.32-4.79,1.35-.72,4.28-.41,5.38.64,3.98,3.81,5.53,9.06,6.43,14.32,1.58,9.2,2.77,18.38,12.74,22.99,2.68,1.24,1.91,4.7,3.01,6.89,10.31,20.54,10.67,43.74,17.6,65.17.54,1.68.42,4.54-.63,5.56-2.51,2.43-4.43-1.51-6.91-1.53-.67,0-1.33,0-2.01-.04.09-1.27.31-2.51.25-3.73-.05-1.02-.43-2.03-.67-3.05.07,1.04.15,2.08.19,3.12.05,1.19.08,2.37.12,3.56,1.84,3.51,4.51,6.84,5.32,10.58,1.25,5.75,4.4,9.06,9.25,12.03,18.2,11.17,29.83,28.01,38.23,47.11,7.29,16.58,2.71,35.94-10.42,47.26-2.14,1.84-4.94,1.93-7.24-.13-1.58-1.42-2.16-3.45-1.04-5.31,4.43-7.33,9.37-14.42,10.46-23.35-4.99-3.04-10.32-4.35-15.05-8.56-18.36-16.28-41.2-20.46-65.01-19.16-12.57.69-25.24,1.98-37.53,4.59-13.67,2.91-25.67,10.49-37.11,18.21-8.87,5.99-8.26,8.63-.1,17.13,2.71,2.82,5.1,5.94,7.66,8.91.19,4.14,2.05,7.33,5.72,9.26.41.22,2.35-1.1,2.31-1.6-.43-5.14-2.54-8.53-8.53-7.16.66-8.91,7.3-13.71,13.21-18.95.63-.55,2.35-.03,3.49.25.39.1.95,1.22.79,1.52-3.92,7.12-2.14,13.25,1.47,20.26,3.6,6.99.96,13.94-3.67,15.75-5.64,2.21-11.66.56-15.93-4.66-2.09-2.56-3.52-5.67-5.68-8.16-2.14-2.47-4.72-4.6-7.33-6.6-.86-.66-2.7-1.03-3.54-.55-2.02,1.14-1.68,3.37-1.4,5.35.09.65.19,1.41.58,1.88,10.92,13.34,21.02,27.46,36.34,36.49,3.19,1.88,5.91,2.57,9.17.77,2.37-1.31,4.78-2.1,7.58-1.02,4.39,1.68,1.92,9.58,8.62,9.19,4.54-.26,9.11-.05,15.53-.05-4.15,3.64-6.96,5.47-8.92,7.97-2.9,3.69-6.25,3.89-10.56,3.55-6.79-.54-8.88,1.23-9.7,6.27-3.74,22.96,5.5,32.02,27.76,26.12,9.09-2.41,18.03-4.22,27.41-4.49,9.47-.28,18.47-2.4,26.07-8.63,8.03-6.59,18.07-8.4,27.68-10.63,6.64-1.54,12.55-4.2,18.53-7.09,4.72-2.28,7.07-5.91,6.69-11.15-.37-5.07-2.77-8.74-7.59-10.74-3.56-1.48-8.04-1.09-10.43-5.11,3.24-5.76,8.65-6.37,13.81-4.3,6.99,2.8,12.72,8.16,14.67,15.41,2.65,9.88,2.68,15.97-7.69,22.17-5.76,3.45-11.61,6.59-18.11,8.21-13.63,3.39-26.82,7.65-38.82,15.33-5,3.21-10.82,5.05-17.03,5.09-12.08.07-23.87,1.88-35.2,6.28-5.73,2.22-11.81,2.25-17.77,1.7-11.69-1.08-19.34-9.2-19.91-21.01-.22-4.63.47-9.3.59-13.95.11-4.6.03-9.21.03-12.47-2.45-5.02-6.21-4.69-9.26-5.38-11.63-2.63-20.73-8.27-26.38-19.29-2.07-4.04-5.66-7.37-8.85-10.75-9.94-10.54-15.02-23.63-18.3-37.22-2.66-11.04-2.79-22.48,2.88-33.13,1.56-2.93,3.44-5.91,4.04-9.08,2.32-12.17,8.02-22.48,17.23-31.46-7.47-6.04-8.72-15.39-14.95-21.52-3.84-3.77-.22-12.05-6.5-13.34-3.84-.79-8.43,2.76-12.83,3.76-3.48.79-6.24-1.63-10.17-4.56.44,14.04,5.27,24.84,14.29,33.97,3.72,3.76,7.71,7.29,11.11,11.31,1,1.19,1.21,4.18.41,5.51-1.45,2.4-4.56,3.06-7.09,2.06-2.33-.92-4.47-2.7-6.25-4.54-5.56-5.74-10.93-11.63-14.95-18.65-1.92-3.36-4.81-3.78-8.4-1.78-3.21,1.79-6.01,3.97-4.35,7.63,7.15,15.72,7.59,33.65,16.98,48.78,4.07,6.55,5.05,15.02,5.62,23.09.66,9.35,2.87,18.32,6.72,26.97,2.14,4.8,3.71,10,4.6,15.17,4.62,26.96,15.12,52.21,22.49,78.37,1.3,4.6,1.95,9.03,2.01,13.68.05,4.32-1.76,8.01-5.26,10.22-9.54,6.02-19.02,12.31-30.46,14.28-5.77.99-9.31-.61-10.94-6.04-9.17-30.47-21.97-59.72-29.54-90.77-4.23-17.35-10.93-34.11-16.67-51.09-10.01-29.64-19.07-59.56-25.83-90.12-2.6-11.76-6.69-22.95-11.6-33.83-6.06-13.43-10.27-27.36-13.67-41.64-1.99-8.37-4.76-16.56-7.24-24.82-3.06-10.2-6.76-20.24-9.16-30.59-5.44-23.44-13.79-45.77-23.57-67.68-2.96-6.63-5.15-13.7-6.85-20.77-7.32-30.47-15.73-60.53-29.63-88.81-2.92-5.95-4.86-12.37-7.38-18.52-1.22-2.98-4.35-6.2-3.78-8.64.83-3.54,3.57-7.65,6.69-9.4,6.03-3.39,10.49-9.82,19.41-8.48,4.5.68,9.7-3.59,14.64-5.46,6.58-2.49,10.07-.67,11.6,5.88.15.65.26,1.31.3,1.97,1.07,16.99,9.7,18.94,23.37,15.61,20.31-4.95,29.06-15.15,26.23-37.65-.29-2.27-2.79-2.65-4.45-.93-1.63,1.69-1.94,5.58-5.2,4.3-2.45-.97-3.56-4.05-3.2-6.82.77-5.92,1.78-11.82,2.91-17.69.69-3.56,4.46-5.35,7.48-3.53,2.23,1.35,4.49,2.98,6.08,5,3.81,4.83,4.83.45,7.09-1.57,3.66-3.26,8.2-1.9,8.85,2.46.59,3.94.8,7.95.96,11.94.34,8.77.48,8.7,11.01,10.54,1.24.22,2.61.84,3.49,1.71,1.44,1.41,2.27,3.2.29,4.97-.49.44-.95,1.12-1.52,1.23-16.22,3.08-20.06,15.32-21.86,29.23-1.25,9.64-2.84,19.23-4.32,29.13,8.01.41,8.3-7.22,12.86-9.47,1.04-.52,2.99-1.02,3.47-.53,1.26,1.32,2.79,3.27,2.67,4.84-.27,3.29-1.6,6.51-4.53,8.55-4.37,3.03-8.77,6.03-13.29,8.83-2.42,1.5-3.71,3.57-4.71,6.13-2.35,5.98-.14,11.43,5.88,12.14,9.24,1.09,18.57,1.5,27.87,1.96,4.81.24,7.39-2.15,6.95-7.23-.45-5.14.67-8.89,6.69-10.22,3.66-.81,3.83-4.95,4.71-8.11,1.04-3.74.96-8.07,5.19-10.21l-.45-.43c1.5-3.01,3.01-4.03,4.54-.02l-.39.33c13.17-8.48,14.89-21.55,12.7-35.16-1.76-10.95-.51-20.47,4.59-30.45,8.84-17.28,7.35-34.45-3.41-50.91-9.79-14.97-17.68-30.97-25.19-47.22-4.31-9.32-12.8-15.78-22.48-18.34-13.7-3.63-26.54-8.47-37.87-16.99-4.86-3.66-9.83-2.78-15.16-1.48-19.49,4.74-22.89,9.82-17.27,29.27,3.34,11.56,9.93,21.6,18.35,30.29,1.34,1.39,3.3,3.19,4.92,3.13,10.48-.36,16.01,7.34,23.15,12.89,5.14,3.99,11.78,6.02,17.67,9.08,3.51,1.82,7.04,3.7,10.22,6.01,2.31,1.68,2.88,4.65,1.43,7.11-1.45,2.45-4.33,3.74-6.71,1.65-5.61-4.93-12.93-6.7-18.88-10.75-10.16-6.91-21.32-10.82-33.28-12.36-10.73-1.38-17.25-6.63-23.21-16.02-9.04-14.23-15.75-28.61-18.93-45.31-1.9-10-2.8-19.57-1.65-29.54.84-7.26,1.27-14.56,2.2-21.81,1.43-11.09,10.38-19.52,21.74-18.9,9.15.5,18.35,2.47,27.18,5.01,3.28.95,5.56,5.37,8.26,8.19-.9-1.2.17-1.51.22-.76.18,2.62,1.41-.57-1.02.53.35-5.96-.94-12.66,1.36-17.73,6.57-14.43,2.3-27.68-3.52-40.28-2.78-6.02-3.33-9.17,1.78-13.4,2.99-2.48,5.78-5.83,7.31-9.37,8.35-19.28,23.59-31.72,40.73-42.5,7.32-4.6,14.25-9.83,21.48-14.57,3.88-2.54,7.78-5.74,12.12-6.75,15.63-3.64,30.13-10.42,45.25-15.26,15.34-4.91,31.77-3.74,47.32.39,13.44,3.57,26.19,9.65,39.56,13.55,14.42,4.21,24.22,12.92,31.22,25.94,3.51,6.52,6.79,11.89,4.68,20.27-1.87,7.45-.69,15.96.46,23.8,1.55,10.57,2.76,21.1,2.97,31.77.03,1.73.72,3.98,1.94,5.02,1.64,1.41,3.98.36,5.17-1.22,2.52-3.34,5.22-6.18,9.8-5.57,5.62.75,10.11,3.69,12.89,8.51,1.97,3.41,3,7.36,4.42,11.08,2.61,6.83,5.24,13.65,7.77,20.52,2.72,7.4,7.29,14.31,5.93,22.83-.48,2.99,1.67,4.8,3.88,6.41,1.79,1.3,1.78,2.85.96,4.91-4,10.05-3.49,11.89,4.87,14.5,14.56,4.55,29.23,8.76,43.87,13.08,7.08,2.09,13.51,5.03,19.21,10.09,8.93,7.92,18.6,15.01,27.87,22.56,4.33,3.53,3.69,7.96-1.56,11.02-4.02,2.35-8.27,4.31-12.26,6.69-4.4,2.62-3.97,5.44,1.2,8.39,1.72.98,3.9,1.26,5.41,2.45,7.57,5.93,9.21,15.01,4.06,22.91-6.36,9.75-16.08,15.69-25.88,21.13-7.71,4.28-14.24,9.78-20.28,15.95-2.73,2.79-5.06,6.22-6.74,9.75-3.09,6.47-.85,11.39,5.96,14.13,3.69,1.49,7.61,2.47,11.2,4.15,1.68.78,4.2,2.86,4.03,4.02-1.93,13.65,8.03,8.86,13.9,8.55,6.55-.34,13.01-2.41,19.5-3.82,10.54-2.29,19.5-.21,27.21,7.99,4.03,4.28,9.08,8.02,14.35,10.61,6.3,3.1,12.62,5.13,20.69,3.35,10.2-2.25,21.17-1.04,31.81-1.27,3.55-.08,6.45,1.45,8.61,4.21,1.7,2.18,2.81,4.64.53,7.04-2.08,2.19-6.04,1.96-6.59,6.39-.54,4.36-4.02,4.6-7.56,3-1.21-.54-2.59-1.06-3.42-2-5.87-6.66-12.68-5.92-20.06-3.12-2.41.91-5.35.35-7.86,1.1-8.87,2.67-11.14,10.55-5.51,18.47,8.25,11.59,6.59,21.53-6.01,27.25-12.7,5.77-25.51,11.24-37.7,18.08-1.69.95-3.69,1.55-5.62,1.86-4.66.77-8.3-6.04-12.47-2.98-2.64,1.94-2.33,6.87-7.12,8.51-13.81,4.7-26.92,11.26-42,12.04-11.44.6-21.96,4.78-31.05,12.22-5.14,4.21-10.61,8.01-16.11,11.75-2.14,1.46-4.74,2.28-7.16,3.29-5.25,2.19-6.21-7.01-12.04-4.39-3.48,1.56-7.37,3.64-11.44,1.84-1.92-.85-2.89-3.15-2.01-4.99,1.69-3.56,4.08-6.78,5.98-10.25,1.47-2.68.03-5.13-1.13-7.5,1.32-.22,1.53-.02.64.63-.09-.36-.18-.71-.28-1.07-.48,3.63-3,5.81-5.7,7.77-3.75,2.73-10.12,3.16-10.78.82-1.09-3.86,1.92-5.89,3.95-8.31,5.05-6.01,9.38-12.45,13.57-21.8-8,3.4-12.26,8.33-17.23,12.29-4.13,3.28-8.65,6.1-13.15,8.86-2.29,1.4-4.95,1.81-7.6.57-2.49-1.16-4.87-2.66-4.66-5.68.12-1.79.93-4.35,2.26-5.11,5.15-2.94,10.71-5.16,15.96-7.94,2.86-1.51,5.8-3.36,5.08-7.47,1.29.78,2,.5,2.01-.83,0-.06-.73-.24-1.08-.17-2.62.5,1.1-.63-.6,1.42-8.43-.91-17.16,1.83-25.32-2.02-1.03-.49-2.01-1.76-2.36-2.88-.86-2.73,1.6-3.52,3.23-3.42,18.12,1.07,33.26-5.65,47.15-16.75,5.61-4.48,12.16-7.91,18.58-11.23,8.72-4.5,17.61-8.21,21.46-18.68,1.67-4.54,6.65-5.96,11.79-5.1,2.69.45,5.6.21,5.84-3.35.22-3.29-3.11-3.62-5.15-4.97l.63.21Zm-231.37,499.94c-.64-3.12-1.07-6.33-3.67-8.62-2.97-15.53-5.98-31.06-8.9-46.6-2.44-13-6.87-25.37-11.78-37.59-.74-1.85-1.83-3.33-5.52-2.3,1.26,6.73,3.05,13.6,3.77,20.57,2.15,20.58,9.36,39.64,16.81,58.66,1.17,2.99,1.89,6.43,5.94,6.95-1.43,6.76-1.03,7.61,3.98,8.4-.39,1.85-1.03,3.7-1.05,5.56-.01.87,1.17,1.76,1.81,2.64.49-.94,1.58-2.08,1.35-2.78-.58-1.75-1.76-3.3-2.74-4.89Zm36.87-470.09c1.11-.56,2.35-.95,3.28-1.72.8-.66,1.94-1.97,1.74-2.62-.77-2.42-2.88-1.75-4.4-.99-3.17,1.59-1.96,3.76-.46,5.64-1.02-1.83-2.3-2.68-4.16-1.06-.1.09.3,1.07.45,1.07,1.19-.03,2.37-.2,3.55-.32Zm14.65,194.86c-4.93-.39-10.46-2.21-12.2,5.02-.11.45.48,1.44.94,1.59,6.51,2.14,8.93-2.06,10.79-7.1l1.11-.65-.65,1.14ZM12.19,728.81c.5-2.05,1.78-3.18,3.79-3.93,4.34-1.64,8.7-3.3,12.79-5.45,2.95-1.55,5.7-4.15,3.67-7.88-1.29-2.36-4.3-3.74-6.8-1.82-4.69,3.59-10.18,2.13-15.25,3.18-.11-6.41,3.66-11.08,7.02-16,2.59-3.8,1.54-7.6-1.05-10.97-2.63-3.41-6.98-5.98-10.29-3.58-7.03,5.09-13.82.97-20.65,1.07-5.25.08-8.77,1.73-10.33,7.1-2.58,8.84-5.57,17.56-8.09,26.42-.48,1.68.44,3.76.95,7.23,8.17-4.37,15.6-8.37,23.06-12.33,2.91-1.54,6.21-2.56,8.73-4.58,2.72-2.18-2.73-7.05,1.78-9.44,5.04,4.14,2.16,12.46,9.28,14.66-1.79,5.66-.38,11.06,1.33,16.41-1.37-2.25-2.58-4.6-4.13-6.73-3.56-4.9-5.67-5.57-9.32-2.74-4.01,3.1-8.72,5.79-9.13,11.71,8.23,4.67,14.99-2.95,22.64-2.34Zm-207.42-369.64c-18.6-4.17-25.29.01-33.6,21.4,9.07.95,14.68-4.68,20.73-9.7,4.48-3.72,6.52-10.1,12.86-11.74-.75-7.61,8.67-10.02,9.9-18.76-3.76,3.54-5.97,6-8.56,7.97-4.31,3.27-2.15,7.07-1.33,10.82Zm-36.45,614.73c.14-5.47-5.49-4.43-8.04-6.96-3.15-3.12-3.66-8.69-9.46-9.93-6.85,2.32-10.96,11.74-20.5,9.23-2.17-.57-2.95,2.31-3.17,4.24-.98,8.63,4.83,14.88,12.71,13.17,9.72-2.11,19.07-5.47,27.8-10.24,11.1-5.71,18.07-14.98,22.97-25.49-1.56-4.44-5.58-3.99-8.16-5.83-5.93-4.25-7.93-3.8-13.5-.01-4.81,3.27-7.79,7.39-6.49,13.28,1.39,6.33,1.29,13.2,5.85,18.55Zm46.69-360.76c6.63-.27,12.23-4.11,18.68-5.57,10.19-2.31,22.38-6.12,19.93-21.8-.35-2.27,1.36-5.2,2.82-7.34,6.35-9.33,12.46-18.89,19.6-27.59,8.99-10.94,22.6-13.32,35.43-16.63,2.56-.66,5.07,1.2,6.42,3.76,1.46,2.76.54,5.28-1.65,7.02-2.02,1.6-4.52,2.59-6.79,3.89-7.5,4.27-15.24,8.19-22.41,12.95-4.89,3.25-12.27,7.08-11.44,12.81,1.09,7.58,10.33,8.28,16.24,8.21,15.57-.18,24.89,6.48,29.81,20.98,1.56,4.6,5.4,4.79,9.42.86,9.05-8.86,18.86-16.44,30.13-22.46,5.68-3.03,10.31-8.29,14.86-13.08,3.73-3.92,2.71-8.71-1.97-11.77-2.74-1.79-5.72-3.28-8.75-4.52-3.66-1.5-7.58-2.37-11.21-3.92-3.41-1.45-3.82-5.78-.75-8.08,6.6-4.94,13.38-9.66,20.19-14.55-19.36-19.57-24.69-22.41-47.59-29.44-13.92-4.27-27.72-9.2-41.11-14.91-9.22-3.94-9.42-5.07-13.19,1.73-4.02,7.25-9.66,12.81-16.14,17.37-5.56,3.91-9.54,7.45-10.77,15.05-2.08,12.84-9.49,23.74-19.72,31.49-14.31,10.84-29.86,20.5-47.63,24.08-12.49,2.52-24.26,6.98-36.48,10.09-5.14,1.31-10.06,3.51-15.22,4.66-5.15,1.15-10.48,2.04-15.73,2.06-5.06.02-10.12-1.22-16.03-2.03-.97,14.54-6.7,27.23-10.22,39.69,2.36,3.75,5.29,3.04,7.81,3.37,4.34.56,8.51,2.72,9.05,6.69,1.4,10.16,8.56,10.61,16.01,10.71,8.69.12,17.26-.74,25.37-4.43,5.44-2.48,10.99-4.83,16.69-6.61,16.51-5.15,29.5-14.88,39.53-28.87,3.08-4.3,6.66-8.26,10.25-12.17.66-.72,2.78-.95,3.64-.43,1.57.95,3.22,2.4,3.94,4.03,2.22,5.09-4.17,9.97-.68,15.17-.92-1.13-1.71-1.15-2.32,0-.02.04.49.47.8.55,2.57.72-1.21.14,1.2-.99Zm-16.25-68.7c.49,4.47,3.24,5.4,6.77,3.71,12.99-6.23,21.82-16.38,27.08-29.69.46-1.16.65-2.61.42-3.82-.41-2.2-2.56-3.55-4.18-2.72-2.82,1.44-5.25,3.72-7.66,5.85-3.32,2.95-5.53,7.57-11.06,7.05,5.39-8.3,11.07-16.36,19.62-21.71-4.26-5.84-8.02-11.01-11.35-15.56-12.03,5.69-22.9,13.01-34.82,15.81-10.76,2.52-20.03,5.43-28.27,13.02-7,6.45-15.28,4.35-21.69-3.84-1.84-2.36-2.21-6.57-6.6-5.93-3.94,3-.98,8.02-3.52,11.16-2.76,3.41-3.27,8.95-8.96,9.68-3.4.44-4.24-4.45-2.04-13.86,1.05-4.5,2.18-9.08,4.01-13.3,4.19-9.63,8.17-10.86,18.58-6.38,2.26.97,4.55,3.47,6.59-.02,1.35-2.31,2.35-4.69,5.37-5.34,3.97-.85,5.81,1.99,8.35,4.12,5.88,4.92,7.04,4.72,10.9-.38,8.12-10.71,8.22-11.04,20.76-7.39,7.53,2.19,14.45,2.82,20.34-3.07,5.07-5.07,11.71-5.27,18.18-6.31.56-27.71.12-54.96,1.9-82.21.77-11.85-1.15-23.89-2.03-35.83-.07-.95-1.46-2.31-2.46-2.55-1.02-.25-2.72.29-3.42,1.1-3.48,4.02-6.61,8.35-10.08,12.38-10.12,11.74-21.27,21.36-37.46,24.49-9.63,1.86-18.7,6.75-27.95,10.45-41.81,16.72-84.33,28.23-129.92,18.34-3.12-.68-5.12,1.89-4.85,4.78.43,4.59,1.6,9.12,2.5,13.67,1.67,8.43,6.18,17.52,4.41,25.14-2.64,11.33,2.31,14.33,10.75,16.95,3.17.98,6.27,2.23,9.3,3.59,14.87,6.67,24.23,17.82,27.54,33.94.52,2.53,1.43,5.07,2.6,7.38,6.92,13.63,14.1,27.12,20.9,40.81,2.26,4.56,5.77,6.7,10.23,8.69,7.07,3.16,13.86,3.66,21.33,1.81,21.95-5.43,42.81-14.6,65.14-18.69,3.39-.62,5.77-2.96,7.7-5.87,2.17-3.27,4.69-6.31,7.05-9.45Zm-150.81-142.7c4.05-.26,8.71-.41,13.35-.87,24.57-2.43,48.84-5.81,70.23-19.77,13.89-9.07,28.93-16.42,40.91-28.28,3.12-3.09,4.98-6.19,3.11-10.52-3.3-7.61-4.09-15.23-1.23-23.26,1.61-4.53.45-9.26-1.08-13.71-1.9-5.53-6.15-9.8-11.63-9.41-12.49.87-25.11-1.63-37.5,1.86-5.71,1.61-11.7,2.66-17.61,3.02-10.82.67-20.72,3.95-30.51,8.34-13.92,6.25-27.16,13.8-41.54,19.29-11.09,4.24-19.67,13.43-25.88,24.02-4.94,8.42-1.28,16.76.37,25.19,3.16,16.1,9.01,25.47,34.45,24.61,1.33-.04,2.65-.29,4.57-.52Zm-126.16,244c.57,4.23.6,8.99,1.9,13.39,5.6,19.05,10.93,38.22,17.59,56.91,6.93,19.45,13.86,38.8,16.9,59.33.39,2.6.8,5.41,2.04,7.65,6.29,11.34,8.01,23.82,10.28,36.31,1.77,9.76,4.63,19.41,7.9,28.79,10.27,29.49,21,58.81,31.46,88.23,4.88,13.75,9.29,27.67,14.33,41.35,8.94,24.27,19.87,47.8,27.02,72.72,2.76,9.62,6.45,18.77,11.35,27.53,7.2,12.89,12.7,26.64,14.01,41.35,2.33,26.16,12.39,50.29,18.53,75.43.62,2.53,1.96,4.99,3.41,7.19,1.63,2.47,4.28,2.85,7.04,2.02,5.26-1.58,7.97-5.16,6.91-10.39-1.45-7.17-2.52-14.68-5.55-21.21-13.28-28.61-13.99-60.92-26.9-89.62-1.57-3.49-1.11-7.86-1.78-11.79-1.57-9.15-2.3-18.73-7.68-26.58-6.61-9.66-9.42-20.52-11.28-31.66-1-5.99-2.4-11.75-4.87-17.19-4.98-10.97-8.01-22.54-11.3-34.06-2-6.99-4.34-14.03-7.71-20.44-5.32-10.12-8.57-20.91-12.08-31.66-2.26-6.92-4.27-13.98-7.31-20.56-5.08-10.98-8.54-22.37-10.55-34.23-2.35-13.79-6.03-27.2-10.61-40.42-5.23-15.09-10.47-30.21-14.79-45.57-7.92-28.11-15.62-56.08-28.28-82.75-7.07-14.89-16.1-29.08-20.61-45.2-.17-.62-.54-1.4-1.05-1.66-1.11-.58-2.41-1.28-3.56-1.17-1.11.1-2.62.91-3.08,1.84-.85,1.71-1.06,3.74-1.65,6.12Zm55.26,61.61c-1.58,11.31,1.66,21.33,5.62,31.11,7.25,17.89,14.78,35.85,17.92,54.86,3.49,21.11,12.49,40.51,16.4,61.5,3.76,20.21,14.07,38.6,19.42,58.59,3,11.18,9.52,21.38,16.36,34.21,2.34-9.52.88-15.87.17-22.21-1.1-9.92-2.54-19.81-3.24-29.76-1.3-18.45,5.33-34.94,18.65-46.56,10.07-8.79,11.83-16.15,6.13-27.12-2.76-5.3-4.55-11.08-7.13-16.48-3.11-6.51-8.03-10.39-15.76-9.84-3.98.28-8.01.42-11.98.1-13.83-1.11-20.21-7.93-20.61-21.77-.27-9.38,1.35-18.53,3.05-27.73,1.27-6.89-.84-9.86-8.21-10.37-16.24-1.14-27.54-8.6-33.81-23.68-.72-1.73-1.98-3.24-3-4.85Zm308.07,332.26c-2.78-11.33-6.19-17.88-14.75-20.92-3.66-1.3-7.12-3.7-10.13-6.23-13-10.97-26.91-18.83-44.9-17.17-5.06.47-10.16-3.21-15.6-1.96-1.03.24-2.43,1.26-2.62,2.14-.22,1.02.44,3.1,1.16,3.33,6.78,2.19,13.3,6.15,20.9,3.75,1.76-.56,2.68.09,2.31,1.98-.23,1.2-.7,2.89-1.56,3.31-1.73.84-3.79,1.22-5.74,1.31-8.77.4-17.08-1.24-24.97-5.37-4.71-2.46-10.07-4.71-15.27-2.16-12.66,6.21-23.89,14.33-31.44,26.63-.47.76-.18,2.72.46,3.23.82.66,2.71.98,3.54.47,13.32-8.19,27.5-13.01,43.37-11.8,1.28.1,2.62-.38,3.92-.64,29.19-5.85,56.5-1.2,81.81,14.65,2.22,1.39,4.54,2.62,9.5,5.47Zm-27.55-556.42c.8-.06,1.63.14,2.01-.19,11.68-10.17,9.45-26.85,17.96-38.56.58-.8.13-2.66-.32-3.85-4.92-12.99-9.81-25.99-15-38.87-1.83-4.53-6.25-4.84-9.4-1.03-3.9,4.71-7.32,9.44-4.15,16.15,2.62,5.55,2.25,11.68,2.28,17.64.03,6.1.76,12,4.56,17,5.39,7.08,5.16,14.58,2.8,22.69-.8,2.74-3.2,5.87-.74,9.02Zm-40.51,411.69c-7.43,2.92-13.52,5.25-19.56,7.72-1.18.48-2.19,1.45-3.21,2.28-2.96,2.39-3.33,5.02-1.64,8.58,1.88,3.96,4.32,5.54,8.84,6.21,10.43,1.53,10.99,3.06,7.01,12.53-1.78,4.23-3.83,8.34-5.52,12.59-.94,2.37,1.64,5.74,3.98,5.33,3.22-.56,6.6-.92,9.54-2.22,8.99-3.99,11.95-9.02,9.62-18.82-2.56-10.77-3.4-22.06-9.05-34.2Zm-277.54-435.53c5.32-2.38,7.44-6.96,11.84-6.55,5.86.56,11.65,1.78,17.45,2.83.42.08,1.09,1.19.95,1.49-.46.96-1.12,2.39-1.91,2.53-3.87.72-8.03.45-11.65,1.76-3.5,1.27-4.1,5.42-3.27,8.51.76,2.8,3.89,3,6.62,1.98,6.82-2.54,13.71-4.91,20.38-7.79,1.35-.58,2.9-3.33,2.6-4.69-1.72-7.7-3.15-15.63-8.42-21.97-3.85-4.64-9.54-3.95-14.68-4.6-13.36-1.67-17.89,1.78-19.84,15.29-.46,3.21-.07,6.55-.07,11.21Zm377.61,251.97c-7.79,6.33-9.76,14.39-13.55,21.27-8.21,14.89-8.05,14.98-19.03,22.03q12.97-1.91,16.24,10.34c8.35-1.75,16.69-3.6,25.07-5.19,2.8-.53,5.01-1.78,6.55-4,1.08-1.56-2.73-6.75-5.66-7.33-2.51-.49-5.18-.44-7.76-.27-5.23.35-7.01-2.42-7.22-7.13-.18-3.97.14-7.49,2.06-11.36,2.56-5.15,5.34-10.78,3.31-18.36Zm-87.92,236.22c-4.12,5.59-7.32,10.55-11.15,14.95-3.14,3.61-7.52,5.93-12.34,3.71-9.12-4.19-13.15,1.18-17.51,8.37,8.12,4.88,16.23,6.68,24.74,4.43,8.87-2.34,17.79,4.73,27.19-.35-3.62-10.31-7.09-20.17-10.94-31.12Zm-114.12,97.86c6.48-8.62,13.23-12.41,12.25-21.2-.16-1.46,1.43-3.95,2.84-4.6,7.68-3.53,12.23-9.63,15.72-17.03,2.12-4.48,6.6-6.06,11.2-7.34,5.63-1.57,11.85-2.34,14.94-8.47-33.57,1.09-55.59,22.3-56.96,58.63Zm90.03-708.38c4.85-1.19,8.61-3.33,9.37-7.11,1.15-5.73,1.4-12.83-3.44-16.54-8.15-6.25-16.07-13.45-26.46-16.35-.72,1.94-1.58,3.15-1.54,4.33.36,9.59,4.71,19.14-.41,28.84-.94,1.77.38,5.2,1.51,7.42.72,1.42,2.92,2.41,4.65,2.84.82.21,2.43-1.09,3.1-2.1,4.94-7.39,4.48-14.77-.15-22.21-.39-.63.49-2.68,1.33-3.26.92-.64,2.53-.6,3.76-.38,2.8.49,4.78,2.37,5.76,4.9,2.3,5.98,3.09,12.27,2.53,19.63Zm127.3,359.82c9.89,4.47,17.17-1.48,24.97-.86,2.3.18,3.69-1.36,4.52-3.17,1.39-3.01,2.68-6.09,3.66-9.25,1.43-4.6-.65-8.01-5.5-8.42-8.42-.71-16.88-.95-26.54-1.45.72,8.08,1.94,15.34-1.11,23.14Zm-146.97-24.46c-.02-2.42-1.94-3.14-3.84-3.62-3.37-.86-6.59-.05-9.48,1.68-11.32,6.79-22.59,13.66-33.85,20.54-1.11.68-2.2,1.51-3.04,2.49-1.82,2.12-2.54,4.63-1.51,7.32,1.17,3.07,3.6,3.32,6.38,2.46,5.67-1.76,11.32-3.56,17.01-5.25,3.91-1.16,7.4-2.9,9.67-6.43,4.04-6.3,9.76-10.67,16.19-14.24,1.95-1.08,2.65-2.73,2.49-4.96Zm-77.37,238.16c-.38-5.87-.67-11.76-1.24-17.61-.1-.99-1.25-2.18-2.22-2.71-2.14-1.17-4.15.22-4.86,1.84-6.9,15.85-10.31,32.45-9.98,49.76.02,1.03,1.07,2.56,1.99,2.91.97.37,2.72,0,3.55-.72,10.15-8.88,14.23-20.08,12.76-33.47Zm-122.79-250.59c-.2-.86-.03-3.35-1.19-4.52-2.28-2.29-4.8-.44-6.88,1.06-4.85,3.49-9.5,7.25-14.43,10.61-4.79,3.26-5.07,7.41-2.95,12.14,1.35,3.02,2.93,5.95,4.55,8.84,1.3,2.32,2.84,4.61,5.88,4.64,3.58.03,6.52-1.54,8.02-4.83,3.9-8.52,6.09-17.52,7-27.95Zm184.58,238.25c-19.52,5.94-19.75,6.29-15.56,24.31.75,3.21,1.45,6.45,2.59,9.52,1.01,2.71,3.24,4.23,6.17,2.83,8.47-4.05,10.21-7.31,9.19-17-.69-6.53-1.58-13.03-2.39-19.66Zm132.01-289.03c-15.84,2.91-17.74,17.08-25.49,26.68,7.25,3.72,14.43,4.92,22.46,4.6,1.06-10.96,2-20.57,3.04-31.27Zm-60.46-187.89c-3.53,1.17-3.73,3.28-3.76,5.13-.22,13.75-.46,27.51-.27,41.27.03,2.31,1.95,4.68,3.26,6.85,1.35,2.23,5.23,2.27,6.57.38,4.08-5.79,5.78-12.96,2.94-18.69-5.47-11.06-7.55-22.78-8.74-34.93Zm-101.13,501.28c-2.79,9.24-5.31,17.28-7.6,25.39-.5,1.77-.47,3.83-.11,5.64.15.75,2.15,1.92,2.77,1.65,9.51-4.16,13.51-12.01,11.38-21.54-.87-3.89-2.38-7.34-6.44-11.14Zm138.69-188.1c.62-.08,1.26-.1,1.87-.25,8.07-2.05,11.18-8.32,12.9-15.57.22-.94-.86-2.45-1.71-3.32-1.42-1.44-3.42-2.31-5.12-.74-3.34,3.08-6.85,6.14-9.43,9.81-1.27,1.8-.87,4.96-.75,7.48.04.9,1.45,1.74,2.25,2.59Zm-221.81-320.19c-13.81-2.93-28.86,2.55-42.06-6.04-.22-.14-1.52.67-1.49.98.08,1.1.17,2.58.88,3.2,3.12,2.73,7.08,3.32,11.04,3.58,10.49.68,20.97.73,31.63-1.72ZM13.22,671.36c-2.59-6.35-7.39-10.58-12.86-13.91-1.93-1.17-5.42-1.3-6.06,2.26-.61,3.35-2.94,6.78,2.12,9.79,5.53,3.3,10.61,4.11,16.8,1.86Zm-297.45,290.38c7.45-9.99,7.06-20.19,9.93-29.34.1-.33-.74-1.33-1.22-1.39-1.11-.15-2.59-.34-3.37.23-3.82,2.78-6.42,6.39-6.94,11.32-.62,5.85-1.1,11.66,1.6,19.19Zm13.41-104.44c-2.28,7.5-4.09,13.08-5.59,18.75-.24.91.65,2.57,1.52,3.18.91.65,2.65.97,3.63.53,3.07-1.37,6.03-3.36,6.02-7.14,0-4.49.17-9.19-5.58-15.33Zm187.97-230.89c.11-.96.25-2.27.42-3.58.09-.66.33-1.3.34-1.96.05-3.58-2.39-6.68-4.04-5.23-1.31,1.16-2.74,2.76-3.04,4.36-.7,3.89-1.13,7.91-.96,11.84.1,2.26.2,5.84,4.27,5.01,1.96-.4,3.46-1.76,3.33-4.14-.11-1.98-.2-3.96-.32-6.3Zm-1.95,22.15c-5.88-.19-8.71,1.61-8.13,5.15.71,4.32,3.92,7.66,7.28,7.34,4.5-.43,6.75-3.36,7.14-7.55.42-4.54-3.07-4.71-6.29-4.94Zm24.45,85.19c1.48-3.88-.7-7.87-4.74-9.45-2.13-.83-3.46.36-3.96,2.36-1.14,4.48.61,8.31,4.39,8.78,1.48.19,3.16-1.21,4.31-1.69Zm-138.32,160.95c1.02-.72,2.4-1.22,3-2.2,1.73-2.8-.57-4.73-2.06-6.58-1.56-1.93-3.45-4-6.35-2.82-1,.41-2.17,1.71-2.29,2.71-.46,4.08,3.55,8.52,7.69,8.89ZM-29.8,662.36c-5.46-1.92-10.52-1.37-15.48.65-.41.17-.73,1.23-.62,1.79s.75,1.42,1.22,1.46c5.3.5,10.46.26,14.89-3.9Zm-188.61,205.25c-1.6.99-6.15.24-5.4,4.93.48,3.04,3.51,3.36,6.15,2.91,2.73-.46,4.86-1.89,4.29-5.08-.36-2-1.66-3.41-5.04-2.77Zm-27.93,20.45c3.2-1.26,6.75-2.61,10.24-4.11.44-.19.94-1.48.79-1.62-.83-.81-1.78-1.84-2.82-2.03-4.23-.76-7.4,1.15-9.77,4.55-.29.41-.51,1.14-.33,1.54.22.5.88.82,1.89,1.67Zm-146.6-165.5c.42.45.85,1.3,1.26,1.29,2.99-.07,5.98-.29,8.97-.53.09,0,.12-.66.19-1.01-2.97-.27-5.93-.6-8.9-.76-.48-.03-1,.66-1.51,1.01Zm48.73-24.94c-2.96-.17-4.96,1.22-5.48,4.06-.17.96.83,3.02,1.47,3.09,3.01.34,4.22-2.09,5.42-4.33.87-1.62.39-2.56-1.41-2.82Zm91.36-414.3c.57-.13,1.15-.25,1.72-.38-.47-.29-.98-.87-1.4-.81-.73.11-1.4.62-2.09.96.59.07,1.18.15,1.77.22Zm-60.36,917.26c-.58-1.44-1.27-3.15-1.96-4.87-.6,1.05-1.74,2.13-1.68,3.14.12,1.78.98,3.51,1.53,5.26.62-1.04,1.23-2.07,2.11-3.53Zm-10.42-265.37c-2.18,1.33-1.65,3.29-1.24,5.14.12.56.87,1.49,1.09,1.43,2.19-.65,2.15-2.57,1.87-4.25-.15-.89-1.18-1.64-1.72-2.33Zm-20.26,26.77c-.04.62-.12,1.23-.07,1.84,0,.09.62.13.95.19,0-.61.03-1.23-.05-1.84-.01-.1-.54-.13-.82-.19Zm128.91-65.05c-.75.6-2.18,1.19-2.31,1.98-.18,1.11.27,2.71,1.06,3.49,1.14,1.12,4.08-1.31,3.59-3.14-.25-.92-1.52-1.56-2.34-2.34Zm-3.74-400.72c1.06-.44,2.12-.88,3.18-1.32-.41-.45-.78-1.24-1.22-1.28-1.05-.09-2.12.18-3.19.3.41.77.82,1.53,1.23,2.3Zm-29.1,11.27l.72-.99-1.08-.18.36,1.17Zm184.73,138.12l-.8,1.17,1.28.16-.49-1.33Z"/>
  <path d="m277.56,218.27c-3.46,2.76-5.39,7.05-10.25,8.51-9.35,2.82-13.93,10.18-14.73,19.35-.49,5.6-2.04,10.4-5.23,14.75-6.46,8.81-14.35,16.14-15.28,28.72-.81,10.93-9.96,20.01-10.41,31.92-.19,5.08-3.24,10.04-4.94,15.07-1.06,3.14-2.33,6.26-2.98,9.49-1.55,7.64-4.63,15.3-.61,23.11,11.22-1.65,10.64-12.08,13.77-19.33,3.4-7.88,5.08-16.49,7.87-24.66,2.78-8.15,5.12-16.47,9.75-23.91,4.95-7.96,8.73-16.43,10.04-25.86,1.11-7.93,5.75-12.73,12.96-16.3,10.04-4.99,20.49-9.97,28.99-17.07,10.09-8.43,18.61-1.93,27.83-.14.28.05.68,1.06.53,1.4-.5,1.15-1.03,2.43-1.93,3.21-.95.82-2.38,1.65-3.54,1.56-21-1.55-35.14,12.98-51.55,22.05-2.11,1.16-3.82,3.9-4.69,6.28-3.78,10.36-7.17,20.86-12.18,35.66,10.34-9.06,17.19-15.07,24.05-21.07,2.01-1.75,3.96-3.58,6.09-5.18,6.42-4.81,10.87-5.82,16.14-.94,6.83,6.34,14.08,9.58,23.25,8.71,11.84,6.77,24.54,4.09,37.03,3.23,7.31-.51,8.92-2.23,9.77-9.83,1.03-9.22.53-18.51,3.15-27.68,2.27-7.91,5.04-14.54,11.95-19.9,9.54-7.39,9.11-21.19.13-29.21-2.47-2.21-5.31-4.01-7.97-6.01-3.6-2.7-8.16-4.08-8.93-9.86-1-7.55-.45-14.55,3.72-21,1.07-1.66,2.44-3.22,3.98-4.46,9.47-7.65,12.6-18.38,14.69-29.64l-.66.57c20.8-14.41,27.54-36.49,31.98-59.58,2.85-14.86-8.15-29.14-23.18-31.21-3.3-.45-6.98,0-9.84-1.35-7.08-3.33-13.13-1.59-18.54,2.91-3.63,3.02-6.95,6.05-11.83,6.9-3.4.59-6.13,2.69-7.98,5.58-2.49,3.91-4.35,8.66-9.64,9.26-5.05.57-8.08-4.13-12.36-5.73-2.45-.92-4.98-1.85-7.55-2.17-2.82-.36-5.27.99-6.34,3.75-2.48,6.41-2.85,13.19-.93,19.64,2.44,8.19,3.93,16.58,8.89,24.18,5.82,8.9,4.46,15.7-2.97,23.37-19.37,19.99-26.22,17.35-38.36-5.06-3.22-5.95-4.99-12.32-4.62-19.19.47-8.81-2.04-17.19-4.61-25.39-1.63-5.21-5.32-9.35-11.86-8.62-12.49,1.4-24.86-4.1-37.55-.08-6.03,1.91-11.59-2.19-16.73-5.21-3.56-2.09-6.73-4.31-10.88-1.49-4.38,2.98-9.42,5.35-9.99,11.58-.98,10.71.44,21.22,3.12,31.54,1.23,4.71,5.08,7.68,8.77,10.6,3.13,2.47,6.23,4.89,7.98,8.71,1.78,3.89-.83,8.25-5.22,8.44-10.37.45-19.46-4.02-28.43-8.1-8.89-4.04-15.49-.47-21.96,4.56-3.43,2.66-3.55,6.94-3.92,10.94-.33,3.54,1.8,4.72,5.69,3.14,11.83-4.8,22.63-2.28,30.02,7.21,2.55,3.27,4.06,7.16,1.9,11.12-1.96,3.6-5,5.93-9.55,6.21-6.99.43-13.03-2.16-19-5.17-1.77-.89-3.44-1.98-5.12-3.04-1.48-.93-2.69-.74-3.32.83-.47,1.17-1.16,2.68-.78,3.67.68,1.74,1.77,3.66,3.25,4.71,8.93,6.31,12.82,14.88,12.64,25.69-.04,2.56,1.35,5.11,1.86,7.71.85,4.35-2.79,7.46-7.1,5.85-3.07-1.15-6.05-2.69-8.8-4.47-9.72-6.3-18.94-8.91-28.79.35-4.22,3.97-10.92,4.67-15.16,9.35-4.48,4.95-5.35,9.14-1.23,14.01,8.63,10.19,16.66,20.7,23,32.55,2.09,3.9,6.1,6.95,9.69,9.82,12.72,10.17,22.35,22.69,29.68,37.16,2.98,5.9,5.94,11.82,10.81,16.62,1.9,1.87,2.06,4.89-.53,6.99-3.12,2.53-6.76,2.09-8.82-.71-3.53-4.79-7.12-9.91-8.98-15.46-4.65-13.92-13.58-24.21-24.97-32.83-5.89-4.46-10.62-9.88-14.69-16.15-5.06-7.8-11.04-15.02-16.74-22.39-8.03-10.37-14.27-21.02-8.34-34.82,2.54-5.91-2.58-9.83-4.78-14.44-1.89-3.96-5.09-4.95-9.58-5.49-7.5-.9-9.6-3.88-7.87-10.54,2.55-9.82,2.56-19.8,3.36-29.74,1.17-14.47,9.71-24.58,23.8-27.62,5.85-1.26,11.72-2.63,17.65-3.21,9.15-.9,11.84-7.54,13.98-14.72.53-1.79-.2-3.93-.22-5.91-.1-18.2,4.47-22.73,22.52-18.92,7.77,1.64,15.53,2.95,23.31,4.23.63-1.22,1.87-2.46,1.71-3.49-2.74-17.28,9.99-24.64,21.13-32.89,2.24-1.66,5.32-1.04,7.25,1.13,1.74,1.96,2.7,4.61,4.41,6.62,3.7,4.35,8.68,6.82,14.18,5.04,8.05-2.6,15.44-1.75,23.4.58,5.57,1.63,11.85.78,17.81,1.11,7.34.4,12.26,4.09,15.59,10.66,5,9.87,5.54,20.53,5.81,31.15.19,7.58,1.77,14.45,6.06,20.71,3.92,5.71,7.82,6.73,13.36,3.06,2.76-1.83,5.46-3.84,7.84-6.13,3.05-2.95,4.83-6.52,1.99-10.61-4.71-6.78-4.65-15.3-8.25-22.37-5.21-10.24-4.35-20.42-1.45-30.9,2.37-8.59,7.76-12.2,16.17-10.25,2.56.59,5.14,1.55,7.4,2.88,6.65,3.9,12.44,5.02,16.13-3.68,1.54-3.62,5.09-3.82,8.23-4.73,5.14-1.49,10.14-3.23,14.27-6.88,1.47-1.29,3.24-3.04,4.96-3.13,15.32-.84,31.69-.95,43.65,8.76,13.9,11.29,22.09,26.85,13.34,46.09-1.92,4.21-3.46,8.73-4.27,13.27-2.58,14.34-9.55,25.91-20.49,35.38-2.46,2.13-5.38,4.81-6.06,7.71-3.01,12.89-11.21,22.43-19.04,32.42-5.84,7.45-4.97,11,2.6,16.38,2.71,1.93,5.81,3.35,8.34,5.47,5.74,4.82,10.55,10.03,8.99,18.7-.68,3.8-.02,7.99.73,11.87.88,4.52-.47,8.05-3.88,10.57-12.42,9.17-17.28,21.34-15.5,36.55.38,3.25-.16,6.67-.64,9.95-1.55,10.57-6.56,14.75-16.91,16.01-18.9,2.3-36.94-2-55.01-6.29-1.89-.45-3.86-1.27-5.37-2.46-3.58-2.82-6.32-7-11.91-5.88-4.42.88-6.1,4.92-9.02,7.49-5.48,4.83-11.99,9.14-15.75,15.13-4.78,7.59-9.86,3.94-15.7,2.66-5.25,13.68-10.7,27.24-15.62,40.98-2.8,7.83,4.32,15.67,11.73,12.31,12.57-5.71,24.07-4.8,35.78,1.51.92.5,3.14.39,3.53-.22,3.98-6.27,10.86-4.1,16.36-5.79,4.15-1.28,7.8-6.08,12.84-2.27,3.56,2.69,3.42,7.03,4.61,10.75,2.09,6.56,7.68,8.8,13.27,11.09,2.68,1.1,5.27.73,7.46-1.14,2.85-2.43.4-4.38-.5-6.73-1.63-4.22.85-7.94,3.63-6.17,7.64,4.84,16.7,3.86,24.66,6.97,1.69.66,3.07,2.14,5,3.53-11.62,6.67-24.5,6.91-36.42,9.87-10.54,2.62-18.11-5.75-24.32-14.21-4.09-5.57-12.61-4.44-16.3,1.6-.67,1.09-.48,2.67-1.09,3.82-2.62,4.97-6.37,6.52-9.23,2.98-10.6-13.14-23.18-13.51-37.51-7.46-2.85,1.2-7.07,1.59-9.7.34-5.93-2.8-10.5-2.04-16.57.44-6.57,2.68-5.61,8.45-8.44,12.51-1.25,1.79-2.6,2.69-4.79,2.5-2.77-.24-2.74-2.52-3.21-4.32-2.59-9.95-2.56-9.87-10.26-10.02-9.95-.19-19.93-.16-29.84-.94-7.63-.61-14.3,2.52-16.89,8.36-5.53,12.48-18.27,16.84-26.19,27.95-5.19-6.49-9.38-13.04-18.35-10.37-2.43.72-5.34-.7-6.68-3.34-2.95-5.79-6.37-6.02-10.58-1.3-.85.96-2.02,1.79-3.21,2.25-1.9.74-3.9.88-5.21-1.22-1.07-1.72-2.06-3.65-.45-5.43,7.32-8.09,15.79-14.4,27.14-15.06,8.64-.5,17.34-.91,25.95-.35,5.74.37,10.82-.37,14.79-4.28,10.37-10.21,22.61-9.41,35.09-6.18,3.97,1.03,7.67,1.75,11.7,1.13,6.46-1,9.71-5.04,7.92-11.12-2.44-8.29-5.07-16.58-8.4-24.54-9.55-22.81-21.48-44.33-36.28-64.21-2.34-3.15-5.71-5.8-5.71-10.18,0-1.16.66-2.73,1.55-3.36.85-.6,2.84-.78,3.57-.2,6.3,5.03,11.94,10.96,15.31,18.17,9.82,21.01,25.9,38.86,31.29,62.09.24,1.02,1.59,2.13,2.67,2.53,2.34.88,3.87-.81,4.62-2.63,1.77-4.31,3.63-8.65,4.7-13.15,2.94-12.28,5.67-24.56,13.26-35.09,1.12-1.56,2.23-3.74,2.07-5.51-1.02-11.01,3.9-19.17,11.64-26.26,4.78-4.38,5.28-10.32,5.93-16.43,1.24-11.61,8.06-18.76,18.71-23.66,5.74-2.65,10.3-.21,15.39-.03l-.54-.11Zm-156.59-38.15c2.47-.99-1.47-2.32.88-1.05.39.21.98.64.97.94-.08,1.33-.86,1.64-2.05.87,1.41-.88,1.81.24.84.35-2.59.3.58,1.27-.64-1.1Zm49.83-67.34c1.48-.9,1.58-1.25.34-.92-.08.02.09.94.11,1.41-1.59-.64-2.48-.32-2.6.96,0,.02,1.02.33,1.22.14.43-.41.64-1.05.94-1.6Zm-27.66-2.42c1.44-2.19,2.81-4.44,4.36-6.56,1-1.37,1.23-2.73.1-2.91-.97-.15-2.9.68-3.05,1.36-.53,2.5-.49,5.11-.64,7.6-1.49.12-1.26-.85-.7-.53,2.28,1.34.28-1.6-.08,1.04Zm-20.81,42.1c6.1-.96,7.16-5.78,7.85-10.85-3.4,3.09-8.97,4.67-7.46,11.23-2.04-.07-3.86,0-1.51,2.54.37-.98.74-1.95,1.12-2.93Zm-37.09,5.95c7.23-2.07,18.2-11.74,19.99-17.93.17-.61-1.28-2.36-2.12-2.46-3.45-.42-6.57.88-8.38,3.81-3.4,5.5-6.43,11.23-9.59,16.96l.74.98-.63-1.36Zm83.43,6.8c-.44-2.7-5.71-5.35-9.85-4.83-.55.07-1.18.71-1.46,1.25-.21.4-.11,1.28.2,1.59,2.82,2.8,5.9,5.03,10.19,3.44.43-.16.62-.95.92-1.44Zm-52.26-1.6l.82-1.27-1.3-.16.48,1.43Zm27.77,36.16c.41-.31.83-.62,1.24-.93-.33-.4-.62-1.08-.99-1.12-.37-.04-.82.55-1.23.86l.98,1.2Z"/>
  <path d="m278.1,218.38c-5.33-4.53-12.4-4.3-18.49-6.75-6.21-2.5-11.68-.81-16.65,2.94-4.21,3.18-8.13,6.72-12.17,10.12-2.42,2.04-4.74,1.52-7.11-.08-2.26-1.53-4.95-3.63-4.18-6.2,3.23-10.79,1.46-22.48,6.18-32.93,1.36-3.02,2.98-5.92,4.27-8.96,1.77-4.2,1.01-9.86,5.23-12.54,5.16-3.28,11.47-2.28,17.35-2.5,3.46-.13,6.31,1.4,8.92,3.67,11.91,10.33,24.16,20.14,38.64,26.83,4.08,1.89,5.19,5.3,3.62,9.92-2.85,8.39-7.95,13.48-17.13,14.06-3.13.2-6.71-.87-9.11,2.27.07.04.61.15.61.15Zm5.96-15.23c1.15-.24,2.88,2.7,3.46-.63-1.04.28-2.08.57-2.84.96,1.04,1.86,1.48,1.99.96.53-.15-.42-1.03-.58-1.58-.86Zm-45.48-1.77c.1-.17.2-.34.37-.58-.18.32-.36.64-.53.96-.17-.31-.34-.62-.51-.93.22.18.45.36.67.55Zm-4.23-13.38c2.35.18,3.87-.93,4.73-3.06,2.93-3.74,6.72-6.92,7.62-11.97.19.12.38.25.56.37-4.47-1.79-7.58-.76-8.1,4.39-.25,2.52.25,5.11.36,7.64-2.73-.58-4.43.72-5.51,3.03l.02.94.32-1.33Zm25.27,2.48c-.23,2.54-.81,5.11-.63,7.62.43,5.98,6.28,8.72,11.35,5.51,1.98-1.25,2.44-5.45.57-6.22-4.15-1.72-9.2-1.88-11.32-6.91,3.86.53,7.73,2.52,11.59.44.9-.48,1.5-2,1.71-3.15.33-1.73-.7-2.18-2.5-1.42-3.55,1.48-6.34,4.96-10.77,4.13Zm-11.63-2c5.88-1.75,12.59-2.19,14.25-9.85.08-.36-.81-1.33-1.26-1.34-7.68-.24-10.17,5.62-12.98,11.19Z"/>
  <path d="m388.02,139.26c-4.04,1.65-7.77,1.85-10.26-2.55-1.62-2.86-2.7-6.08-4.63-8.7-4.98-6.76-7.5-6.97-16-2.14-4.79,2.72-9.16.58-9.72-4.85-.21-1.97-.67-4.14-.11-5.93,2.78-8.88,5.95-17.74,11.7-25.11,2.75-3.53,6.86-7.6,10.86-8.23,8.74-1.37,14.13-6.26,19.44-12.51,4.86-5.72,14.19-4.1,15.61,2.91,3.16,15.7,4.67,31.47-5.87,45.63-5.02,6.74-11.27,12.93-11.71,22.09.03-.03.69-.61.69-.61Zm-20.64-42.15c.16-.11.32-.22.47-.33l-1.35.49.89-.15Zm28.99-9.41c-1.07-.62-2.55-2.03-3.15-1.73-6.38,3.26-12.74,6.69-15.51,13.96-.17.44.21,1.24.56,1.7.34.45,1.14,1.07,1.44.94,6.63-2.93,12.11-7.39,16.7-12.95.31-.37-.02-1.27-.05-1.93Z"/>
  <path d="m142.97,241.69c.08-1.13-.42,2.07-4.34,3.25-1.26.38-2.49.88-3.75,1.27-5,1.54-10.35,4.24-14.77-.57-5.96-6.5-6.54-14.85-2.24-21.86,3.41-5.56,7.24-6.45,13.22-2.94,6.35,3.73,12.76,7.45,11.88,20.86Zm-15.18-3.42c2.47-.46,6.38-.78,5.93-3.83-.36-2.47-4.1-2.54-6.67-1.93-2.04.49-3.48,1.99-2.46,4.17.41.88,2.21,1.77,3.19,1.59Z"/>
  <path d="m241.87,469.35c-8.7-1-16.86,1.02-25.08,3.83-3.67,1.25-7.83,1.22-11.78,1.42-.93.05-2.49-1.2-2.74-2.13-.22-.77.91-2.71,1.68-2.85,11.59-2.16,22.73-6.76,35.07-4.92,6.42.96,13.27.67,19.67-1.87.48-.19,2.27,1.34,2.39,2.22.13.95-.74,2.39-1.61,3.04-.98.75-2.43,1.17-3.7,1.2-4.63.14-9.26.05-13.89.05Z"/>
  <path d="m185.16,425.48c-2.05,4.18-5.65,3.74-8.66,3.36-11.43-1.44-22.35-1.23-31.76,6.76-.77.66-2.63.52-3.77.13-1.08-.37-2.3-1.41-2.69-2.44-.35-.93,0-3.01.64-3.3,14.84-6.77,29.85-12.22,46.24-4.5Z"/>
  <path d="m293.78,425.22c-12.44.21-24.89.32-37.33.71-2.78.09-6.63,3.71-7.21-1.77-.25-2.36,3.32-4.01,6.04-4,11.17.02,22.33.19,33.49.52,2.83.08,4.76,1.75,4.5,5l.51-.46Z"/>
  <path d="m297.94,429.46c5.05-1.67,4.43,1.79,4.22,4.76-.02.29-.91.84-1.21.73-2.87-1.03-2.73-3.48-2.64-5.9.01-.01-.38.41-.38.41Z"/>
  <path d="m293.28,425.67c3.15-.73,4.97.21,4.68,3.77-.01.01.38-.41.37-.39-1.5-1.29-2.99-2.59-4.5-3.86-.03.03-.54.48-.54.48Z"/>
</svg>