<?xml version="1.0" encoding="UTF-8"?>
<svg id="Layer_1" data-name="Layer 1" xmlns="http://www.w3.org/2000/svg" width="1158.19" height="723.07" viewBox="0 0 1158.19 723.07">
  <path d="m951.63,105.11c.76,1.06,1.96,3.13,2.21,3.02,8.98-3.9,17.61-2.48,26.89-.24,10.26,2.48,21.1,2.68,31.7,3.64,10.27.93,18.57,3.91,25.34,13.07,5.76,7.8,13.44,14.6,22.12,19.94,4.39,2.7,7.68,7.23,11.29,11.1,1.4,1.5,1.6,3.66.26,5.34-1.4,1.75-3.51,1.74-5.39.83-3.01-1.44-5.92-3.09-9.38-1.79-.4-1.36.59-1.35.4-.75-.76,2.53,1.72-.02-.95.09,1.24,5.07,2.56,10.13,3.57,15.25.08.41-2.39,2.04-2.89,1.74-2.78-1.63-5.69-3.31-7.87-5.62-11.63-12.36-25.9-14.83-42.79-12.25-1.51,7.2,4.12,12.59,3.87,19.09-.2,5.07,5.34,5.55,8.75,6.63,11.49,3.61,19.18,11.5,25.45,21.14,3.46,5.32,2.03,9.69-4.04,12.93-1.72.92-4.14.7-5.62,1.83-1.33,1.02-2.49,3.16-2.47,4.8.02,1.83,1.36,3.68,2.27,5.46,6.11,11.99,5.16,18.8-13.09,20.25-9.71.77-20.06,1.21-28.83-4.92-4.69-3.28-11.48.9-15.76-5.78-2.58-4.04-8.79-1.34-13.06.1-8.78,2.95-17.34,6.56-26.04,9.77-1.83.68-3.85,1.09-5.79,1.13-1.16.02-2.86-.64-3.36-1.53-.45-.79.1-2.55.77-3.49,2.48-3.5,6.6-4.37,10.32-5.55,7.59-2.42,15.22-5.06,23.04-6.38,12.55-2.12,23.57-8.25,35.42-12.16,1.48-.49,2.29-1.53,1.53-3.01-.49-.98-1.96-2.34-2.69-2.18-7.09,1.54-14.17,3.2-21.17,5.13-16.64,4.6-32.97,10-47.89,18.99-2.26,1.36-5.83,1.82-6.88,3.74-6.51,11.97-17.13,9.68-27.51,8.69-4.41-.42-7.52-1.6-6.96-7.16.58-5.63-3.68-8.29-8.02-10.12-4.88-2.06-10.13-3.22-14.99-5.3-1.41-.61-2.94-3.14-2.78-4.62.16-1.46,2.15-3.21,3.74-3.92,4.63-2.09,9.07.63,13.61,1.14l-.47-.59c2.49,7.43,10.51,8.72,15.27,13.61,3.16,3.28,7.01,3.6,10.98,2.16,15.48-5.64,31.83-8.58,46.88-15.69,9.53-4.51,19.76-7.38,30.37-8.55,1.93-.21,3.99-.69,4.65-4.57-8.47-.07-16.41.51-24.5,3.29-18.66,6.41-37.54,12.19-56.31,18.29-4.36,1.42-9.08,2.13-12.49,5.67.66-6.44,3.61-11.1,10.07-13.07,1.27-.39,2.51-.84,3.78-1.22,18.95-5.68,37.92-11.26,56.81-17.12,3.6-1.12,7.89-1.21,11.05-5.84-7.49-.86-14.27-1.48-21.16.71-11.94,3.8-23.92,7.46-35.89,11.17-6.29,1.95-12.44,4.77-19.32,3.2l.38.45c1.22-5.88,6.76-6.05,10.75-7.11,19.14-5.07,37.83-12.19,57.89-13.33,1.83-.1,3.81-1.02,5.33-2.11,2.32-1.66,3.27-4.43,2.2-6.98-.62-1.47-2.66-2.89-4.31-3.26-4.63-1.03-9.09-.24-13.43,2.02-23.67,12.29-50.58,15.01-75.04,25.16-6.73,2.79-14.54,4.91-21.89-1.65-3.62-3.24-9.03-.6-10.29,4.61-1.15,4.78-5.92,8.14-4.09,14.31,1.53,5.16-4.2,7.74-7.52,10.7-13.62,12.12-13.63,14.68,1.42,23.98,4.47,2.76,9.56,4.51,14.29,6.87,2.1,1.05,5.28,1.96,3.83,5.12-.45.98-3.76,1.39-5.45.93-11.04-3.01-19.2-11.25-28.69-16.98-5.32-3.21-6.07-11.42-4.98-18.36,3.86.46,5.27-2.52,6.86-5.09.64-1.03-.3-2.3-1.76-1.96-3.86.9-7.16,2.49-4.59,7.48-7.23,3.27-12.96-.04-18-4.64-4.47-4.08-8.73-4.9-14.42-2.43-6.74,2.92-13.77,4.84-20.53-.87-2.17-1.83-5.27-.48-7.49.8-3.4,1.96-6.56,4.36-9.65,6.79-6.26,4.92-11.93,10.8-18.71,14.82-13.76,8.16-26.71,17.23-38.46,28.08-2.37,2.19-5.4,3.87-8.4,5.09-1.6.66-4.14.45-5.66-.42-3.18-1.82-1.57-4.29-.03-6.5.38-.54.82-1.12.96-1.74.49-2.09-.13-3.97-2.13-4.74-1.05-.4-2.78-.21-3.69.43-1.59,1.11-2.75,2.82-4.15,4.22-3.81,3.81-5.68,10.76-13.38,8.33-1.02-5.98,2.73-10.21,6.24-13.76,20.07-20.3,35.65-44.6,57.84-63.15,8.84-7.39,14.67-18.38,22.18-28.15-11.79,1.71-15.24,3.67-21.13,11.75-1.92,2.64-3.68,5.43-5.85,7.85-.57.63-2.54.53-3.57.08-1.09-.48-2.4-1.67-2.58-2.73-.32-1.86-.28-4.01.37-5.77,2.97-8.05,7.42-15.6,7.22-24.66-.03-1.47,2-4.12,3.34-4.3,8.79-1.22,8.62-11.31,15.08-14.82,1.31-.71,2.64-3.95,2.08-5.11-4.7-9.65,1.77-18.04,2.85-26.96,1.02-8.41,3.64-12.31,13.13-10.34,1.94.4,3.97.63,5.95.58,2.89-.08,4.85-1.73,5.89-4.4.24-.61.23-1.31.34-1.96,2.97-17.64,2.98-17.8,20.15-17,9.05.42,18.85-1.7,25.94,6.75,2.04,2.43,4.7,1.39,7.22.35,9.21-3.79,18.42-7.57,27.7-11.2,3.09-1.21,7.57-2.85,9.46-.32,7.43,9.97,14.3,3.29,20.6-.49,7.34-4.41,16.29-5.75,22.55-12.08h24c3.72,3.56,5.42,9.04,11.3,11.64,3.92-3.98,9.65-6.21,12.7-11.64h12c2.92,8.2,10.84,11.13,16.88,16.06,2.9,2.37,3.09,6.71.02,8.46-7.98,4.55-14.15,12.08-23.61,14.32-1.05-.62-1.96-1.52-3.04-1.92-1.04-.38-2.28-.33-3.41-.25-.24.02-.72,1.14-.55,1.53.84,1.97,2.62,1.6,4.19,1.32,1.16-.21,2.25-.79,3.37-1.2Zm-164.62,6.86c-1.3-.89-2.73-2.44-3.22.65.9-.38,1.8-.76,2.64-1.2,2.11-.91,3.88-2.05,3.19-4.82,5.48-.22,9.74-2.09,10.75-8.14.06-.38-.89-1.36-1.3-1.32-5.96.52-9.03,3.81-9.05,9.84-3.75,0-4.74,1.67-3.01,4.98Zm-26.12,14.18c-.72,2.46-1.45,4.91-2.17,7.37-2.59-.62-.15,2.74-1.41.39-.7-1.3-.38-1.92,1.06-2.08,2.65-.31-1.44-.38.54,1.21.48-2.17.96-4.34,1.44-6.5.48.08.95.16,1.43.24-.3-.21-.59-.41-.89-.62Zm93.13,4.94c-2.96-.28-4.1,1.22-3.97,4-2.59.06-4.5.81-4,3.98-3.22-.57-4.5.81-3.99,3.99-3.14-.48-4.18,1.16-4.03,4-2.7-.52-5.26-.06-7.38,1.65-11.67,9.4-23.32,18.84-34.88,28.39-.73.6-1.03,2.38-.75,3.4.43,1.57,1.75,1.64,3.21.99,6.98-3.11,11.07-11.47,20.01-10.99-.67,5.47-4.8,8.73-8.22,12.31-2.26,2.37-4.53,4.43-4.08,8.05-3.2.26-4.31,1.9-3.25,4.96-3.64-.38-4.16,1.79-3.82,4.66-8.32-.27-8.97.65-6.7,9.46-1.01-.84-1.92-1.89-3.06-2.46-1.6-.81-2.54-.07-2.37,1.7.01.11,1.35.37,1.83.11,1.42-.75,2.55-.63,3.56.65-.09-4.71,4.31-6.66,6.14-10.24,1.31-1.47,2.61-2.93,3.87-4.44,2.23-.82,4.13-1.86,3.4-4.78,1.29-.13,2.95.22,3.8-.46,9.89-7.86,19.85-15.66,29.35-23.96,3.29-2.88,7.54-5.83,6.99-11.36,2.93.16,4.1-1.34,3.87-4.14,2.84.39,4.48-.6,4.29-3.71,3.6.84,6.19-1.19,8.87-3.07,13.38-9.36,26.77-18.69,40.15-28.05,1.83-1.28,5.31-1.33,3.96-4.98-2.3-2.98-5.69-3.12-8.85-3.81-9.37-3.97-17.7-1.85-23.65,6.09-.32.43-.14,1.22-.2,1.85-2.24.67-3.43,2.3-4.07,4.44-5.62,0-9.71,2.4-12,7.64-2.38.36-4.21,1.27-4.06,4.12Zm-52.63,2.8c-1.01,2.09-2.01,4.18-3.02,6.27-2.43-.24-3.97.72-4.33,3.25-2.9-1.3-4.24.11-4.85,2.79-1.81.64-3.74,1.07-5.4,1.98-2.07,1.13-2.32,3.27-.9,4.88,1.67,1.89,3.65.6,4.78-.87,1.12-1.46,1.62-3.4,2.4-5.13,2.67-.06,3.78-1.5,3.6-4.1,1.42-1.13,2.84-2.25,4.21-3.44,1.02-1.71,2.04-3.43,3.02-5.08.26-.24.52-.48.78-.73.1.28.2.56.29.83-.19-.22-.39-.45-.58-.67Zm159.35,16.62c.06,1.34-1,1.72-1.4.52-.84-2.5-1.06,1.02.87-.87,3.51-.73,3.38-3.57,3.61-6.2,3.63,1.88,6.99,2.82,11.08.39,9.64-5.71,19.61-10.89,29.38-16.39,2.63-1.48,6.85-1.14,7.01-5.67.11-2.85-7.89-4.69-12.05-2.43-2.87,1.56-5.21,4.08-8.07,5.66-9.71,5.36-16.38,15.19-27.39,18.67.42,2.79-1.23,4.6-3.03,6.33Zm-162.87,4.86c-1.72,1.09-3.44,2.19-5.16,3.28l-.8.91s.31-1.23.39-1.2c1.68-1.17,3.35-2.34,5.03-3.53,3.74-1.05,3.52-3.6,2.47-6.48,5.8,2.07,10.4-.77,14.9-3.86,1.05-2.75,2.72-4.68,5.96-4.57,1.39-4.88,4.05-9.23,9.6-7.64,4.34,1.24,7.36,1.65,10.46-2.02,5.02-5.94,12.52-9.72,15.58-17.22-3.82-3.25-7.2-6.31-10.78-9.1-1.78-1.39-5.42-.05-5.29,2.37.32,5.77-3.81,8.13-7.19,11.01-5.11,4.36-9.75,8.99-12.72,15.14-1.26,2.62-1.52,4.96.25,7.33-2.52,1.15-5.01,2.32-5.72,5.39-2.11-1.73-4.19-1.96-6.64-.45-2.55,1.57-5.34,2.76-7.87,4.31-.82,2.1-1.65,4.21-2.47,6.31Zm-56.82,63.03c-1.46,1.31-2.91,2.62-4.37,3.92-1.63,1.88-3.39,3.68-4.85,5.69-.89,1.21-3,2.61-.59,4.21.27.18,1.76-1.34,2.59-2.16,2.27-2.26,4.34-4.61,2.36-8.05,2.49-.28,4.18-1.38,4.34-4.08,2.74.48,4.77-.15,5.21-3.3,11.92-4.48,19.91-13.19,25.83-24.1-9.48,7.13-21.03,12.1-25.49,24.48-2.95-.77-3.82,1.56-5.03,3.38Zm-18.96,4.8c-4.58.25-4.21,2.55-2.28,5.5-10.42-1.44-12.62.7-11.37,10.91-2.12,1.62-4.24,3.23-6.35,4.85l-1.02.06s.74-.62.72-.68c1.52-2.55,3.68-4.04,6.73-4.06,1.66-5.62,6.42-8.38,10.53-11.76.88-1.72,1.77-3.45,2.64-5.19,3.27-.73,3.83-2.79,2.76-5.64,3.7,2.17,6.21.29,8.42-2.5,1.65-2.09,1.86,1.06,1.18-1.51-.36-1.38-1.37-1.31-2.81-.16-2.05,1.64-4.2,3.15-6.22,4.82-1.64,1.43-3.63,2.67-2.93,5.38Zm190.99-105.28c1.87,1.96,3.51,1.34,4.83-.59.21-.3-.27-1.55-.7-1.73-2.71-1.15-3.5.45-3.62,2.82-3.08,1.48-3.54,3.69-1.83,6.51-2.32-1.58-4.89-2.51-7.39-.87-17.77,11.67-35.28,23.71-50.91,38.24-1.96,1.82-3.78,3.87-.76,6.48,7.71-2.59,13.97-7.59,20.15-12.58,12.93-10.44,25.69-21.09,38.36-31.84.94-2.05,2.9-3.81,1.87-6.44Zm42.78-32.64c1.32,1.33,2.83,2.5,4.63,1.19.5-.37.58-2.48.2-2.71-2.06-1.24-3.13.58-4.13,1.96.17,2.66-2.08-.16-.24,1.78.22.23.58.32.87.48-.44-.9-.88-1.79-1.32-2.69Zm72.76,55.7c-.48.44-.95.89-1.44,1.33-1.57,1.38-2.48,3.08-.99,4.85.5.6,2.56.76,3.13.25,1.66-1.47,1.31-3.44.24-5.24-.33-.56-.78-1.05-1.08-1.34.45.37.91.75,1.36,1.12-.4-.32-.81-.65-1.21-.97Zm-150.28,34.63c-2.01-1-3.89-.46-5.33.96-.78.76-.95,2.14-1.39,3.24.95-.04,2.27.29,2.78-.21,1.33-1.29,2.31-2.95,3.4-4.51.49-.3,1.07-.53,1.44-.94.17-.18-.05-.72-.1-1.1-.27.85-.54,1.7-.82,2.55Zm154.35,20.76c-2.54-.39-5.11-.64-7.61-1.21-3.36-.77-6.44-.57-9.15,1.77-3.57-9.35-5.6-10.35-11.54-5.33-3,2.54-6.12,5.14-8.37,8.3-1.93,2.71-2.26,6.3.85,8.88,2.88,2.4,8.6,1.58,10.47-1.7,1.28-2.24,1.53-5.06,2.66-7.41,1.2-2.49,3.26-4.03,6.44-3.33,1.61,3.53,3.22,6.5,7.95,3.43,2.49-1.61,5.57-2.31,8.38-3.42-2.69,3.46-5.47,6.85-7.97,10.44-.42.61.15,2.81.7,2.99,1.03.35,2.44-.06,3.59-.46,7.46-2.54,2.33-8.65,3.59-12.96Zm-77.2-32.04c3.5,1.87,6.79,3.44,10.23-.51,2.5-2.87,5.62-5.2,8.45-7.85l.17-1.18-.31,1.75c-2.73-1.49-4.81-.38-6.91,1.48-3.43,3.04-7.1,5.76-11.8,6.46l.52,1.25-.36-1.4Zm26.15-1.69c-4.97.08-8.13,3.27-11,6.7-.43.51.23,2.53.97,3.25.78.76,2.77,1.49,3.36,1.06,3.59-2.67,5.46-6.61,6.94-10.74,1.07-.43,2.15-.86,3.22-1.29-.62-.66-1.25-1.31-1.87-1.97-.54,1-1.08,1.99-1.62,2.99Zm-151.05-51.83c-6.42,1.52-12.24,4.26-17.01,8.87-.6.58-.63,2.61-.08,3.27.52.64,2.61.93,3.21.43,4.93-4.16,9.68-8.55,14.36-12.78-1.41-.38-1.38-.6.11-.65-.19.29-.39.57-.58.86Zm82.36,23.74c8.25-2.06,15.45-5.61,22.78-15.69-12.15,3.58-17.41,10.34-23.21,16.07.32.04.64.08.96.13-.27.13-.54.26-.81.39.09-.3.19-.6.28-.9Zm42.94,13.73c-3.25-.65-6.37-.88-9.48.89-7.46,4.24-14.23,9.33-19.94,15.75-1.63,1.83-4.26,4.13-.61,6.19,1.22.69,4.01.13,5.18-.9,4.9-4.31,9.4-9.07,14.18-13.53,1.5-1.4,3.39-1.58,5-.11-.57-1.61-.3-1.84.8-.68-.45.11-.9.22-1.35.34-.51-4.91,2.85-6.91,6.47-8.62-1.61.76-1.94.5-.98-.79.24.49.48.97.72,1.46Zm-146.96-36.59c-.2-.57-.28-1.54-.61-1.63-1.1-.3-2.59-.81-3.4-.33-17.79,10.39-35.28,21.24-50.65,35.09-1.79,1.61-2.64,4.45-3.47,6.87-.36,1.06.22,2.6.73,3.76,1.09,2.48,3.3,2.16,4.92,1.01,5.95-4.21,12.68-7.84,17.37-13.21,9.74-11.14,20.51-20.8,33.01-28.63.94-.59,1.41-1.93,2.09-2.93Zm163.1,8.37c-15.15.8-27.5,5.11-37.05,16.68-5.9,7.15-13.08,13.23-19.48,19.98-1.18,1.25-5.41,2.15-1.04,6.04,17.69-12.57,35.5-25.19,53.25-37.9,1.49-1.06,2.52-2.76,4.33-4.8Zm33.4,123.17c7.85.3,14.99-.65,21.59-4.12.92-.48,1.95-2.31,1.69-3.13-.54-1.73-1.69-3.43-3.01-4.72-.82-.8-2.39-1.07-3.64-1.12-7.13-.29-13.64,4.71-21.08,2.6-.37-.1-1.89,1.85-1.87,2.82.05,1.88.3,4.21,1.44,5.49,1.16,1.31,3.48,1.6,4.88,2.17Zm-110.45-150.17c4.54,1.19,6.92.36,8.95-1.51,4.34-3.99,8.7-7.97,12.9-12.1.8-.78,1.52-3.08,1.25-3.28-1.49-1.1-3.44-2.65-4.99-2.42-8.23,1.24-13.25,7.79-19.29,12.59-1.28,1.02-2.5,3.71-2.01,4.93.52,1.29,3.12,1.75,3.19,1.79Zm-5.3,96.83c10.71,2.55,19.21-2.39,28.12-3.78,3.19-.49,3.13-3.81,1.73-6.35-2.48-4.49-6.35-6.25-9.72-4.03-6.53,4.28-12.79,8.97-20.12,14.16Zm-54.13-5.94c-1.77-.32-3.88-1.43-5.3-.85-6.79,2.79-11.41,8.49-16.47,13.48-2.55,2.52-6.97,4.04-6.2,8.88.42,2.62,6.7,1.22,11.68-3.03,5.42-4.63,10.63-9.51,15.76-14.46.67-.65.34-2.33.53-4.02Zm9.52,3.78c.18,1.42.37,3.38.67,5.33.84,5.37,3.78,6.72,7.95,3.53,2.08-1.59,4.05-3.38,5.8-5.33,2.36-2.64.74-4.82-1.47-6.39-1.57-1.12-3.48-1.8-5.32-2.47-5.29-1.93-7.71-.37-7.63,5.33Zm-58.32-91.03c-.19-.57-.19-1.39-.59-1.68-3-2.23-6.33-1.67-9.46-.54-2.08.75-2.52,2.97-2.28,4.99.15,1.24.61,3.1,1.46,3.47,3.48,1.5,10.37-2.64,10.86-6.23Zm148.43,7.2c-.06-3.08-1.36-5.75-4.16-5.91-3.34-.19-6.71,1.6-7.84,4.94-1.09,3.22,1.95,4.57,4.41,5.02,3.4.62,6.54-.17,7.59-4.05Zm62.39,81.14c-.82-.66-1.65-1.9-2.54-1.94-4.3-.21-7.88,1.26-9.22,5.73-.31,1.01.41,3.26,1.13,3.49,3.09,1,9.74-3.72,10.64-7.28Zm7.46-38.63c3.26.05,9.27-6.39,8.2-8.84-.19-.43-.85-.98-1.24-.94-1.87.19-8.67,7.25-8.46,8.81.05.38.98.65,1.5.97Zm-79.13-59.03c-.42-1.17-.64-3.28-1.31-3.44-3.77-.86-3.9,2.61-4.78,4.82-.58,1.46.46,2.38,2.04,2.16,2.08-.29,3.77-1.11,4.05-3.55Zm23.06-7.27c-1.68,1.41-3.71,3.01-5.59,4.77-.37.34-.41,1.34-.24,1.91.54,1.76,1.71,2.15,3.01.97,1.9-1.74,3.71-3.58,5.47-5.47.2-.22-.01-1.15-.33-1.43-.41-.36-1.1-.39-2.33-.75Zm-113.41,124.55c0-.43.16-1.14-.03-1.25-.37-.22-1.05-.29-1.41-.08-1.44.82-1.44,1.56-.09,1.78.46.08.99-.28,1.53-.45Zm-98.15-40.73c-.63-.84-1.27-2.4-1.9-2.4-1.88,0-3.66.97-3.74,3.1-.03.68,1.26,1.75,2.16,2.07,2.4.85,3.17-.77,3.49-2.77Zm106.7-71.82c.12.47.1,1.19.38,1.35.52.28,1.36.5,1.82.26,1.64-.84,1.47-1.75-.44-2.19-.52-.12-1.17.37-1.76.58Zm28.14,4.54c-.4-.5-.9-1.48-1.18-1.42-1.18.25-2.28.81-3.42,1.26.42.48.93,1.42,1.25,1.36,1.15-.22,2.24-.77,3.35-1.21Zm-119.1,22.88c-.32-.45-.55-1.1-.98-1.28-.27-.11-1.09.42-1.22.8-.49,1.52.12,2.28,1.51,1.89.34-.1.46-.92.69-1.41Zm242.74,48.98c.08.41.02,1.03.27,1.19.39.26,1.1.44,1.48.26,1.35-.66,1.23-1.44-.31-1.88-.4-.12-.95.27-1.43.43Z"/>
  <path d="m361.99,530.93c4.08-1.65,2.51-5.34,3.17-8.33,2-9.06,2.14-9.06,14.48-9.17,2.3-.02,3.66-1.3,4.16-3.29.3-1.17.36-2.95-.32-3.71-1.17-1.31-3.47-3.22-4.46-2.81-7.55,3.05-17.3,3.48-18.96,14.35l-.02.13c-3.22-10.52-3.32-10.77,3.06-14.87,4.42-2.84,9.21-5.13,13.88-7.59,2.31-1.22,6.25-1.77,6.79-3.47,2.69-8.52,9.03-9.54,16.48-9.91,4.94-.24,7.64-2.97,9.15-8.49,2.62-9.59,7.16-17.33,19.45-18.93,9.59-1.25,17.61-8.38,25.79-13.88,2.06-10.13,9.24-10.79,17.68-10.09,2.2.18,4.64-1.99,6.91-3.21,4.3-2.31,8.87-2.21,13.52-1.74,4.66.47,6.62,4.29,4.28,8.45-1.83,3.26-6.41,5.03-5.39,9.82-15.08-4.48-27.98-.59-39.61,9.46-2.92,2.52-6.69,4.47-10.41,5.53-5.54,1.58-8.27,3.64-4.7,9.47.27.43-1.29,2.76-1.67,2.68-1.89-.41-3.7-1.26-5.47-2.09-2.4-1.13-5.33-2.83-6.65.59-1.45,3.75-6.99,4.55-6.32,9.36.14,1.02,1.34,2.28,2.36,2.72,4.23,1.86,8.44,3.57,13.31,1.58,7.99-3.25,15.71-6.71,22.43-12.41,11.54-9.79,22.38-20.56,36.28-27.23,10.33-4.37,21.09-7.57,31.46-11.94,8.88-3.74,15.59-9.3,22.78-15.49-7.99.79-15.83,2.82-23.42-.46-4.14-1.79-7.68-.19-11.47,1.23-4.34,1.63-8.84,2.93-13.35,4.03-10.42,2.56-19.94,2.1-25.91-8.72.95-.71,2.26-2.24,2.81-2.01,12.94,5.52,25.7-.01,38.45-.85,5.83-.38,11.75-1.49,17.68-2.11,11.14-1.17,22.61-1.35,32.53-8.07,2.63-1.78,6.23-2.26,9.45-3.03,17.72-4.25,33-13.78,48.66-22.47,4.83-2.68,8.22-6.68,10.23-11.84l-.5.41c3.46-3.44,4.84-7.84,5.7-12.47.48-2.58.61-5.48,4.07-5.9,13.66-1.67,9.52-13.45,12.02-21.37.53-1.67-4.95-3.31-6.69-1.73-4.39,3.99-8.9,7.63-13.94,10.89-3.37,2.18-5.2,5.09-9.84,2.85-4.01-1.93-7.74-.44-10.43,3.25-3.14,4.32-7.1,5.37-12.24,3.67-3.72-1.24-7.8-1.4-11.54-2.58-1.67-.52-3.47-2.1-4.25-3.67-1.67-3.36,1.2-4.52,3.59-5.66,1.8-.86,3.94-1.29,5.38-2.54,3.47-2.99,6.58-6.4,9.92-9.54,3.31-3.12,9.4-.32,11.84-5.27-.44-3.94-3.72-5.45-5.96-7.81-5.61-5.9-11.21-11.84-20.54-8.59-9.5,3.31-19.35,6.49-21.36,18.34-.61,3.63-1.4,6.98-5.47,6.77-8.8-.46-14.73,4.64-21.24,9.29-7.54,5.39-15.65,9.98-23.5,14.92-4.1,2.59-4.36,6.12-2.87,10.38,1.85,5.28,5.15,9.16,9.81,12.15.77.49,1.38,2.51,1,3.3-1.19,2.43-3.29,1.36-5.08.6-7.11-3.03-8.77-11.48-15.06-16.07-7.89,5.69-15.41,11.04-22.85,16.49-10.84,7.95-18.46,18.72-25.7,29.79-9.67,14.8-22.2,26.34-38.71,32.97-11.65,4.68-18.76,14.55-26.94,23.01-6.88,7.11-12.58,15.45-18.22,23.65-4.61,6.7-9.03,11.54-18.18,13.34-9.69,1.91-16.37,10.9-22.63,18.69-7.13,8.88-15.73,16.16-24.28,23.51-.6.51-2.69.31-3.15-.29-.67-.87-.96-2.55-.61-3.63,1.51-4.62,5.28-7.44,8.7-10.63,6.3-5.89,13.02-11.56,18.22-18.35,4.97-6.49,10.36-12.09,17.39-16.06,15.33-8.66,26.24-21.91,36.04-35.9,7.53-10.75,16.82-18.24,28.6-23.83,11.35-5.39,21.1-13.49,29.52-22.97,4.4-4.96,8.64-10.06,13.21-14.85,2.54-2.66,1.62-5.7,2.26-8.53,2.43-10.74,6.22-21.43,13.41-30.01,2.65-3.16,4.4-6.45,6.15-9.93,1.28-2.54.79-4.51-1.11-6.99-4.32-5.63-3.62-8.08,1.71-8.46,4.61-.33,9.27-.14,13.9,0,3.96.13,7.9.73,11.85.75,6.53.04,11.2-2.9,14.42-8.8,5.73-10.54,12.51-20.4,20.83-29.11.78-.81,2.52-1.52,3.46-1.2,2.26.75,2.4,3.08,1.5,4.75-5.36,9.82-9.69,20.4-18.95,27.53.03.02.61.79.61.79l-.38-1.15c1.19.54,2.68,1.85,3.51,1.52,10.76-4.35,23.02-6.02,30.07-17.09,6.08-9.56,15.93-14.12,26.17-16.96,8.37-2.32,16.76-2.03,23.45,6.03,9.86,11.87,23.57,15.94,38.55,16.91,8.76.56,14.35,4.83,15.19,12.38,1.93,17.34-2.52,32.16-16.76,43.91-12.3,10.14-25.11,19.13-39.4,26.18-8.94,4.41-17.7,9.29-27.48,11.48-6.39,1.43-11.19,3.72-12.1,11.01-.45,3.6-3.28,5.38-6.42,6.93-18.31,9.01-35.62,19.87-55.31,26.34-15.88,5.22-28.4,16.88-40.88,27.72-6.22,5.4-12.87,9.14-20.57,11.6-12.02,3.83-24.02,7.71-33.19,17.21-1.73,1.8-4.57,2.58-6.96,3.7-9.16,4.26-16.96,10.07-23.31,18.1-7.98,10.1-19.27,16.03-30.26,22.18-2.21,1.24-4.97,2.03-8.07-.18,4.56-6.58,14.32-6.83,17.79-14.43l-.54.28c1.59-1.6,3.18-3.2,4.77-4.8l-.23.58Zm111.93-167.87c-2.85-.73-3.94.98-4.58,3.3-.69.82-1.39,1.62-2.01,2.48-.04.06.73.93.88.86,2.12-.93,1.84-2.33.69-3.81,3.15,1.28,4.7.22,4.67-3.18,3.07-.4,4.28-2,3.27-5.04.57.32,1.29,1.05,1.69.9,12.91-4.63,24.89-10.51,31.05-23.93,1.49-.56,5.71,1.52,3.21-2.76-.59-1.01-3.18.82-2.78,3.21-17.48-1.63-27.94,6.68-32.61,23.14-1.94,1.04-3.65,2.24-3.47,4.81Zm-68.08,131.67c-.55-1.07-.82-2.6-1.69-3.13-3.95-2.38-7.37-.23-10.72,1.73-3.14,1.84-4.46,4.52-3.41,8.12.53,1.81,1.09,3.99,3.51,3.72,5.85-.64,11.41-5.51,12.31-10.45Zm196.27-160.71c.68,0,1.48.25,1.97-.04,2.93-1.74,4.86-4.32,5.19-7.73.07-.69-1.48-2.27-2.1-2.18-3.17.46-6.72,5.38-6.4,8.61.05.49.89.91,1.34,1.34Zm23.5-14.04c-.46.09-.92.19-1.38.28.11.37.21,1.05.34,1.06.46.02.93-.19,1.4-.31-.12-.34-.25-.68-.37-1.03Z"/>
  <path d="m797.95,282.58c.93,4.47,4.62,6.34,8.15,7.96,6,2.74,12.56,4.09,10.32,13.73-.75,3.22,4.11,6.47,7.52,8.61,1.67,1.05,3.57,1.48,5.47-.08,4.63-3.81,9.24-7.66,14.07-11.2,3.49-2.56,7.25-3.13,10.81.22,10.09,9.49,22.93,9.47,35.53,10.07,3.3.16,6.63-.47,9.95-.71,6.95-.5,11.69,3,13.92,9.12,4.92,13.53,14.51,25.03,16.9,39.64,1.24,7.58,7.09,8.78,13.47,9.04,4.19.17,6.19-2.02,3.94-6.06-2.77-4.98-2.64-8.62,1.61-12.22,5.02-4.25,6.2-8.27,3.86-15.48-3.04-9.4-5.31-18.86-10.39-27.54-2.01-3.44-2.95-7.17-7.15-8.95-5.57-2.36-6.13-8.38-8.5-13-1.54-2.99.46-5.14,2.79-6.46,2.67-1.51,5.85-.78,6.36,2.17.94,5.45,2.96,10.15,6.56,14.22,6.22,7.03,11.68,14.13,12.45,24.31.31,4.08,5.16,7.61,6.79,11.83,2.62,6.79,5.05,14.07-1.44,20.33-6.79,6.55-4.78,13.03-.05,19.49,1.57,2.14,3.42,4.08,5.22,6.03,2.48,2.69,3.07,5.56,1.88,9.12-2.31,6.92-4.58,13.89-6.35,20.96-2.06,8.2-8.58,13.34-12.86,20-2.59,4.04-6.35,4.54-10.4,2.54-5.11-2.52-8.62-8.82-6.92-12.98,1.24-3.03,3.32-5.73,5.17-8.48,4.24-6.31,5.82-13.27,6.01-20.8.15-6.02-1.38-10.18-7.86-11.91-5.61-1.5-8.5-5.91-10-11.45-3.88-14.26-12.94-26.13-18.6-39.59-1.08-2.56-3.39-4.57-6.32-3.59-16.06,5.42-29.74-2.74-43.96-7.54-7.45-2.52-8.69-2.47-13.87,2.75-3.9,3.94-4.81,11.35-13.12,10.32-6.52-.82-7.73-6.81-11.62-10.12-3.54-3.01-7.16-6.03-10.17-9.54-6.9-8.04-15.09-12.51-26-12.63-5.17-.06-10.44-1.94-15.46-3.61-17.49-5.84-34.96-7.98-52.72-1.15-2.44.94-5.2,1.08-7.84,1.45-2.64.37-5.9.53-6.87-2.19-1.07-3,1.76-4.38,4.32-5.49,17.78-7.75,35.95-9.08,54.58-3.53,1.91.57,3.78,1.31,5.71,1.81,2.63.68,5.48.95,7.12-1.66,1.83-2.91-.15-4.82-2.51-6.38-.55-.36-1.12-.8-1.48-1.33-1.95-2.95-1.03-5.52,2.06-5.68,10.51-.56,21.05,1.34,31.42-3.51,5.5-2.57,11.28,2.74,16.92,4.51.76.24,1.09,2.26,1.38,3.5.74,3.21-6.38,4.25-2.69,7.76,2.18,2.08,6.04,2.3,8.98,3.72,11.02,5.3,21.76,5.25,32.41-1.04,2.94-1.74,6.39-2.5,9.53-.81,1.53.83,2.97,2.75,3.4,4.44.43,1.7-.03,3.89-2.62,4.47-5.84,1.29-11.63,2.85-17.49,4.02-7.27,1.45-14.32,1.36-21.56-1.41-9.84-3.76-20.08-6.47-30.15-9.63-.29-1.79-.24-3.72-.95-5.32-.92-2.08-3.05-2.34-4.63-.95-1.79,1.57-.87,3.6.79,4.57,1.48.86,3.43.91,5.18,1.32Zm151.56,123.62c3.53-5.31,9.13-18.06,9.67-22.18.08-.62.03-1.46-.33-1.89-1.17-1.43-2.29-3.3-3.85-3.9-1.98-.76-3.82.45-3.93,2.89-.38,8.52-.67,17.05-.97,25.59l-.59-.5Zm-165.52-122.46l-.83,1.28,1.4.13-.57-1.41Z"/>
  <path d="m961.78,293.48c-6.08-.46-7.2-4.93-7.62-9.72-.38-4.3-1.38-7.35-6.56-8.23-6.92-1.17-13.2-6.5-20.81-2.94-13.99-6.04-28.22-3.01-42.67-2.11-15.34.95-30.25-7.21-33.42-22.37-.5-2.4.21-5.08.51-7.61.06-.51.85-1.33,1.28-1.31,1.24.04,2.72.09,3.62.77.94.71,1.68,2.1,1.89,3.3.94,5.28,1.58,10.9,6.81,13.72,5.83,3.15,12.12,5.71,18.95,5.14,5.27-.44,10.48-1.59,15.7-2.49,3.89-.67,8.04-2.58,11.63-.27,6.68,4.31,12.48,2.3,18.56-1.13,2.81-1.59,5.95-3.09,9.08-3.5,5.76-.76,3.16,3.56,3.55,6.29.08.57,3.51,1.34,5.08.9,10.83-3.08,21.57-6.52,32.36-9.73,3.08-.92,6.28-2.07,9.41.13-8.5,6.71-19.6,7.72-28.49,13.39-1.66,1.06-3.24,2.9-1.66,4.75,1.14,1.33,3.55,2.73,5.02,2.4,3.84-.86,7.45-2.72,11.2-4.06,7.49-2.66,14.9-5.66,22.56-7.73,8.33-2.25,8.95-1.57,14.78,8.12-10.45-4.9-19.07-2.58-26.12,6.22-1.12-.1-2.23-.31-3.33-.23-.46.03-1.25.72-1.23,1.06.1,1.44,1.18,2.15,2.41,1.37.81-.51,1.14-1.79,1.68-2.72,8.8-1.96,17.61-3.93,26.41-5.89.59-2.39,2.45-4.13,2.11-7.15-.45-4.05,2.69-5.63,6.41-4.79,3.15.71,6.27,1.85,9.2,3.22,4.12,1.93,8.61,3.87,8.35,9.61-.27,5.99-1.53,11.77-7.23,14.95-2.14,1.19-5.08.94-7.63,1.26,1.65-4.32,3.54-8.49,4.76-12.84.42-1.49-.53-3.6-1.43-5.08-.3-.5-2.62-.34-3.59.24-3.27,1.93-8.68,2.08-9.28,6.29-.78,5.44,6.34,2.8,8.15,6.05.85,1.53.93,3.48,1.37,5.23-7.42,8.62-3.62,16.25,2.08,23.72,3.19,4.18,7.25,5.76,12.19,3.62,2.99-1.29,5.92-2.87,8.6-4.72,3.74-2.58,2.83-7.18-1.73-8.91-1.83-.69-3.9-.73-5.8-1.27-1.61-.45-2.29-1.66-1.6-2.9.59-1.07,1.48-2.52,2.46-2.72,5.46-1.14,10.51.77,15.32,2.98,2.53,1.17,3.92,4.17,3.22,6.68-3.35,11.97-6.55,24.13-21.01,27.95-5.33,1.41-7.93,5.36-5.38,10.6,3.57,7.32-1.36,12.55-3.64,18.43-.96,2.48-4.81,1.98-6.48-.44-2.36-3.41-3.76-7.06-3.04-11.19.68-3.89,1.96-7.69,2.5-11.6,1.93-13.98-4.36-23.9-18.39-29.32-3.28-1.27-5.54-2.77-4.9-7.15,1.17-8.09.88-8.19-4.76-5.99-2.46.96-4.75,2.37-7.21,3.33-3.37,1.31-6.34,1-8.6-2.39-1.46-2.18-3.49-3.97-5.05-6.09-1.93-2.61-3.46-6.35-7.47-4.82-4.91,1.87-3.61,6.27-2.95,10.15l-.14-.47Z"/>
  <path d="m263.71,424.2c1.65-2,3.45-3.89,4.9-6.02,4.18-6.15,9.9-8.15,17.05-6.82,1.94.36,3.93.49,5.9.72,0,0,.56-.36.56-.36,5.08,3.01,17.12,7.33,19.75,6.88,1.99-.34,3.1-1.39,3.51-3.73,1.28-7.26,6.21-11.27,13.12-12.67,3.93-.8,7.6-1.6,10.78-4.33,2.93-2.51,6-5.45,10.38-4.44,5.19,1.19,10.76,2.89,13.23,7.75,2.79,5.48,5.47,10.64,11.74,12.17,6.71,1.64,13.6-.5,18.97-3.62,6.32-3.67,14.96-5.89,16.54-15.13,0,0-.74.58-.74.58,2.91-.28,4.66-1.71,4.75-4.78l-.64.75c8.57-.29,14.91-4.69,20.43-10.81,4.01-4.44,8.2-8.74,12.5-12.89.57-.55,2.68-.31,3.41.32.64.56.71,2.29.4,3.31-.37,1.2-1.24,2.39-2.21,3.23-12,10.45-23.8,21.16-36.17,31.15-9.32,7.52-20.12,12.23-32.21,13.87-15.08,2.04-30.05,5.05-45.18,6.61-11.91,1.23-23.46,4.31-35.21,6.2-23.12,3.72-46.39,3.86-69.55,5.51-12.64.9-24.99,2.19-37.27,5.04-1.14.26-3.13-.1-3.68-.9-1.25-1.82.11-3.36,1.59-4.61,5.33-4.5,11.41-6.86,18.41-5.99,12.56,1.56,23.4-2.11,33-10.17,2.01-1.69,4.35-3.23,6.8-4.11,5.8-2.09,4.47,2.32,4.53,5.39-1.87.64-3.54,1.49-2.84,3.93.13.45.92,1.09,1.32,1.04,2.37-.32,2.48-2.05,2.06-3.87-.13-.57-.73-1.03-1.11-1.54,3.95.64,7.89,1.28,11.91,1.85,3.26.87,7,6.46,9.16-1.15,3.03-.17,6.06-.33,9.09-.5.13,2.17,1.41,3.59,3.41,3.73,5.23.37,10.03-.85,14.04-4.8-6.64-5.53-11.74,4.07-17.92,1.58-2.91-3.35-5.74-5.3-8.25.38-3.42.43-6.85.85-10.27,1.27Zm60.6-10.77c3.86,2.01,7.38.67,10.64-1.26.11.22.21.44.32.66-3.72-2.16-7.17-1.45-10.33,1.08-.39,2.64-1.91-.79-.56,1.51.15.25.45.41.68.61-.25-.87-.5-1.74-.75-2.61Zm36.53.26c.12-6.09-2.34-10.37-6.66-13.67-3-2.29-8.9-.81-9.93,2.42-2.05,6.42,2.67,13.13,9.28,12.86,2.48-.1,4.92-1.06,7.31-1.61Z"/>
  <path d="m631.81,274.22c5.93-3.51,10.4-6.3,15.05-8.75.69-.36,2.64.6,3.25,1.48.57.82.48,2.49.05,3.52-.48,1.15-1.49,2.33-2.58,2.96-15.7,8.98-15.18,14.66-26.94-5.42-1.35-2.3-2.68-4.61-4.12-6.85-8-12.4-8.72-12.58-22.19-6.75-3.02,1.31-6.19,3.33-9.27,3.29-13.03-.17-24.64,5.08-36.44,9.2-11.81,4.12-22.37,10.26-30.94,20.31-7.61,8.92-16.77,16.78-29.14,19.68-5.06,1.19-8.73,1.44-12.37-2.78-2.48-2.87-6.77-2.91-9.02-.47-10.56,11.43-26.21,11.89-38.86,18.73-5.63,3.04-6.58,4.95-3.86,11.03,1.35,3.02,3.24,5.8,4.54,8.84.41.96-.1,2.55-.68,3.55-.19.33-2.41.11-2.94-.5-2.15-2.51-4.25-5.13-5.93-7.97-6.35-10.74-6.85-11.11-17.65-4.7-10.9,6.46-22.14,12.17-34.08,16.37-1.31.46-3.92-.77-4.95-2.02-1.42-1.72-.22-3.93,1.58-4.86,14.77-7.54,29.19-16.03,44.57-22.05,12.25-4.79,24.14-10.99,37.46-13.12,8.14-1.3,13.41-8.34,20.41-12.15,6.4-3.49,11.74-6.14,17.67.32,2.02,2.2,4.87,1.65,7.4.56,7.4-3.16,14.73-6.81,19.79-13.11,10.33-12.88,23.28-20.34,39.01-25.76,13.14-4.53,26.84-7.08,39.78-12.36,10.7-4.36,20.66-1.97,28.18,8.26,4.75,6.47,8.96,13.14,13.22,21.53Z"/>
  <path d="m193.11,680.15c.34-2.56-.08-6.3,1.36-9.06,6.73-12.94,9.89-27.62,16.97-40.01,9.8-17.12,20.58-34.19,37.24-46.21,12.05-8.69,18.54-22.38,28.64-32.85.9-.93,1.21-2.41,2.09-3.37,1.25-1.37,2.92-3.01,4.8-1.85,1.9,1.19,1.99,3.89.86,5.37-7.23,9.42-14.48,18.86-22.21,27.87-6.47,7.54-13.38,14.73-20.48,21.7-8.11,7.96-15.01,16.78-21.24,26.25-4.04,6.14-7.67,12.16-8.6,19.8-.88,7.24-4.74,13.63-7.9,20.21-2.54,5.3-3.6,11.3-5.56,16.91-.33.95-1.88,1.97-2.93,2.03-.82.05-2.07-1.17-2.49-2.12-.51-1.15-.35-2.6-.55-4.67Z"/>
  <path d="m196.7,418.92c-1.28-.96-2.01-1.25-2.27-1.78-.2-.42.1-1.16.32-1.7,1.13-2.71,3.6-3.7,6.12-4.53,19.4-6.41,37.24-17.21,57.74-20.53,2.69-.44,4.19-2.3,6.11-4.24,8.13-8.24,19.19-11,29.84-14.25,1.41-.43,3.93.87,5.14,2.13,1.55,1.61.49,3.7-1.04,5.06-4.45,3.97-8.72,8.22-13.58,11.63-5.37,3.77-11.15,7.25-18.15,7.03-18.3-.58-34.4,6.98-50.77,13.57-6.63,2.67-13.31,5.22-19.45,7.62Z"/>
  <path d="m151.46,456.51c-30.2-.22-53.6-15.81-74.68-36.15-.76-.73-1.06-3.36-.81-3.47,1.66-.79,4.05-2.07,5.24-1.43,2.83,1.54,5.01,4.21,7.65,6.16,15.57,11.54,31.59,21.95,51.59,24.35,8.7,1.04,17.15,2.27,25.5-1.53,1.76-.8,3.89-1.04,5.85-1.05,2.5-.01,5.57-.4,5.93,3.42.3,3.16-1.86,4.84-4.28,5.94-6.79,3.08-13.97,4.25-21.97,3.77Z"/>
  <path d="m631.09,362.11c-10.68.5-21.19,1.3-26.08,13.28-.44,1.07-1.43,2.49-2.37,2.68-8.48,1.67-17.6,3.15-24.4-3.19-7.23-6.74-14.1-13.69-22.65-18.87-2.05-1.24-3.19-4.08-4.55-6.31-1.33-2.18.58-5.26,3-6.15,6.72-2.46,11.1,2.84,16.54,4.6l-.55-.61c.79,7.59,6.12,12.71,10.25,18.41,2.42,3.34,6.36,4.29,10.38,4.85,4.85.68,7.32-.85,8.08-5.71.3-1.92-.09-3.94.15-5.88.6-4.94,6.16-7.53,8.24-6.39,7.51,4.12,17.49,2.18,23.42,9.71.03-.02.53-.44.53-.44Z"/>
  <path d="m785.05,251.76c-.23.33-.58,1.27-.94,1.27-16.26.22-30.15,8.52-45.14,13.09-.59.18-1.33.09-1.94-.07-.62-.17-1.62-.52-1.68-.91-.18-1.15-.42-2.69.17-3.5,3.19-4.41,7.37-7.61,12.71-9.02,7.69-2.03,15.37-3.98,22.43-7.89,4.64-2.57,9.09-.42,13.16,1.76,1.62.87,2.59,2.95,1.24,5.27Z"/>
  <path d="m556.57,380.81c1.55.45,3.56,1.07,3.57,3.44,0,1.07-.67,2.67-1.51,3.11-2.27,1.19-6.19,1.22-7,2.89-5.04,10.41-12.22,6.17-19.35,3.52-2.54-.94-2.61-3.12-1.65-4.64,2.01-3.17,3.96-6.97,8.27-7.39,5.75-.57,11.56-.63,17.68-.93Z"/>
  <path d="m307.29,396.37c5.8-6.04,11.32-12.27,15.23-19.82,3.95-7.62,13.55-7.38,19.56-12.44.8-.67,4.08.27,5.1,1.44,2.63,3.01.4,4.07-2.5,5.03-3.09,1.02-5.83,3.43-8.94,3.97-5.83,1.01-9.11,4.12-11.67,9.31-2.3,4.66-5.65,8.9-9.06,12.88-1.77,2.07-4.66,2.12-7.72-.37Z"/>
  <path d="m298.01,571.01c-.42-3.06,1.39-5.24,3.61-6.49,13.14-7.39,22.81-17.91,29.4-31.39.56-1.15,1.48-2.32,2.54-2.98.85-.52,2.64-.77,3.19-.26.82.76,1.56,2.56,1.2,3.47-4.24,10.61-11.01,19.72-19.7,26.76-5.88,4.76-11.82,10.86-20.64,10.48,0,0,.39.41.39.41Z"/>
  <path d="m647.67,288.67c-8.05,7.21-15.11,8.8-22.88,4.58-3.97-2.15-7.65-5.12-10.86-8.32-2.61-2.6-11.03-2.35-6.46-8.67,2.5-3.47,7.43,0,10.05,2.83,6.79,7.36,14.78,10.46,24.73,8.62,1.58-.29,3.38.57,5.42.96Z"/>
  <path d="m274.84,579.84c.11,2.43,2.48,4.69,0,7.32-8.63,9.11-16.99,18.47-25.68,27.52-6.38,6.65-12.91,9.4-12.66,6.25.41-5.23,5.51-6.68,8.56-9.81,10.02-10.3,19.86-20.78,29.77-31.18,0,0,.02-.1.02-.1Z"/>
  <path d="m406.9,365.81c2.14,4.23,3.48,9-.97,12-4.22,2.84-6.43,10.76-14.01,6.69,0,0,.34.38.34.38.26-.6.68-1.18.75-1.8.32-2.92-7.48-9.26,2.99-7.85,8.16,1.1,10.05-3.81,11.39-9.92l-.48.49Z"/>
  <path d="m432.6,361.64c1.09-1.61,1.82-3.78,3.32-4.75,7.48-4.81,15.12-9.37,22.82-13.81.8-.46,2.45.32,3.61.77,1.38.53,1.3,1.65-.25,2.7-9.29,6.33-17.48,14.95-30.02,14.62,0,0,.52.47.52.47Z"/>
  <path d="m570.59,348.15c-.11-9.91-9.06-11.5-14.93-16.04-.59-.46-.35-2.21-.2-3.32.06-.46.91-1.15,1.41-1.15,1.27,0,2.58.19,3.82.52,5.91,1.59,10.23,5.17,13.58,10.28,2.82,4.3,2.39,5.53-4.26,9.07.03.03.57.64.57.64Z"/>
  <path d="m391.91,384.49c.21.63.49,1.24.6,1.88.1.62.27,1.67,0,1.84-6.7,4.07-7.95,12.63-14.12,17.06-.91.65-2.59,1.23-3.4.82-2.16-1.1-1.62-3.05-.56-4.76,3.35-5.42,6.25-11.21,13.47-12.72,1.67-.35,3.01-2.33,4.43-3.64-.06-.09-.4-.47-.4-.47Z"/>
  <path d="m274.82,579.94c4.35.99,7.37-1.76,10.86-3.56,3.96-2.05,7.16-6.08,12.34-5.37,0,0-.39-.41-.39-.41-5.18,10.53-10.71,12.78-22.78,9.25,0-.02-.02.08-.02.08Z"/>
  <path d="m413.95,382.92c2.74-7.9,5.43-15.84,15.96-15.93,0,0-.38-.35-.38-.35-1.74,8.91-7.69,13.59-15.99,15.92,0,0,.4.36.4.36Z"/>
  <path d="m402.1,394.96c2.41-5.54,5.55-10.34,11.86-12.04,0,0-.4-.36-.4-.36-.01,2.86-.02,5.72-.03,8.58,0,0,.64-.75.64-.75-2.86.32-4.53,1.83-4.75,4.78,0,0,.74-.58.74-.58-2.83-.03-5.66-.06-8.5-.09l.45.46Z"/>
  <path d="m421.11,348.13c-.36,3.3-.27,3.97-.52,4.47-.7,1.41-1.98,1.71-3.19.51-1.81-1.79-3.43-3.77-5.02-5.76-.27-.34-.13-1.55.06-1.61,1.11-.36,2.52-1.01,3.41-.62,2.37,1.04,4.53,2.57,5.26,3.01Z"/>
  <path d="m555.97,372.08c1.08-1.55,2.62-2.37,4.31-1.53.6.29.55,1.89.79,2.9-1.13.26-2.25.73-3.38.75-1.61.02-2.19-.85-1.73-2.11Z"/>
  <path d="m363.65,379.21c-.92-.76-1.83-1.52-2.75-2.29,1.01-.57,2.07-1.66,3.03-1.57.94.08,1.78,1.35,2.66,2.1-.98.59-1.96,1.17-2.94,1.76Z"/>
  <path d="m357.98,534.87c-2.3-1.44-4.69-3.59-2.39-5.98,2.32-2.42,4.48.51,6.39,2.04,0,0,.23-.58.23-.58-1.59,1.6-3.18,3.2-4.77,4.8,0,0,.54-.28.54-.28Z"/>
  <path d="m886.08,219c2.52-5.78,7.35-4.54,11.97-3.96,0,0-.38-.45-.38-.45-2.53,5.85-7.37,4.63-12.03,3.94l.44.47Z"/>
  <path d="m877.96,223.16c.95-4.82,4.7-4.16,8.12-4.15,0,0-.44-.47-.44-.47-1.15,4.52-4.96,3.66-8.16,4.03l.47.59Z"/>
  <path d="m291.56,412.08c2.85-1.86.6-2.45-.84-2.97-1.27-.46-2.18.45-1.57,1.72.3.63,1.88.64,2.93.91.05-.02-.51.33-.51.33Z"/>
  <path d="m360.06,517.96c-1.18-.66-2.36-1.32-3.54-1.98.34-.12.84-.43.99-.31.88.73,1.68,1.55,2.52,2.39,0,.04.03-.09.03-.09Z"/>
  <path d="m401.65,394.51c-.17.57-.34,1.15-.51,1.72-1.35-.65-1.03-1.07.96-1.27,0,0-.45-.46-.45-.46Z"/>
  <path d="m432.08,361.17c2.1,3.2,1.32,5.05-2.55,5.48,0,0,.38.35.38.35-.45-2.49,1.31-3.8,2.75-5.3-.06-.06-.58-.53-.58-.53Z"/>
  <path d="m407.38,365.31c-1.04.32-2.08.64-3.12.96.42-3.29,1.69-.16,2.58-.4.06-.06.53-.56.53-.56Z"/>
  <path d="m961.92,293.95l.52,1.01s-.66-1.41-.66-1.44.14.44.14.44Z"/>
  <path d="m869.62,118.59c1.32-1.36,2.65-2.72,3.97-4.07,7.19.38,12.99-6.39,20.57-3.97-11.04,11.25-25.13,18.76-36.37,29.78-1.88,1.84-4.12,3.33-4.14,6.33-2.9.01-3.97,1.59-3.67,4.32-2.66.02-4.37.98-4.01,4.01-7.48,1.93-12.95,6.99-18.6,11.82-2.83,2.42-5.57,5.26-9.91,4.29-.38-5.5,4.07-7.71,7.43-10.48,4.94-4.07,10.22-7.76,12.71-14.02,2.64-.02,3.85-1.47,4.01-3.98,2.65,0,3.98-1.34,3.99-3.99,2.55-.16,3.8-1.59,3.96-4.07,2.66.01,4.03-1.28,4-3.97,2.54-.16,4.12-1.26,3.95-4.06,5.73-.05,8.86-4.08,12.1-7.93Z"/>
  <path d="m893.35,111.24c1.63-1.62,3.25-3.24,4.88-4.85-1.63,1.62-3.25,3.24-4.88,4.85Z"/>
</svg>