<?xml version="1.0" encoding="UTF-8"?>
<svg id="Layer_1" data-name="Layer 1" xmlns="http://www.w3.org/2000/svg" width="1244.37" height="881.71" viewBox="0 0 1244.37 881.71">
  <path d="m1561.14-275.12c13.5,21.59,19.98,46.28,31.86,68.67,7.7,14.51,12.37,30.68,17.8,46.31,5.89,16.98,11.36,34.07,20.12,49.9,2.88,5.21,5.74,10.7,7.13,16.42,4.17,17.14,13.29,31.75,22.21,46.56,16.14,26.8,29.61,54.95,41.56,83.84,1.01,2.45,1.17,5.32,2.47,7.56,13.83,23.76,20.25,50.55,30.89,75.62,3.1,7.31,6.55,12.82,14.46,14.8,1.26.31,2.41,1.12,3.56,1.79,9.96,5.75,19.99,11.45,19.47,25.28,5.38,6.56,3.02,11.67-2.26,17.24-17.56,18.53-25.08,41.88-30.57,66.08-.68,3,.73,4.89,3.58,6.06,9.95,4.09,15.95,14.02,26.35,17.69,2.77.98,5.43,4.25,6.7,7.11,5.63,12.74,17.28,16.71,29.02,18.34,19.01,2.64,33.48,11.46,45.43,26,4.03,4.9,7.51,10.95,14.72,13.49,2.83-7.11,5.58-13.85,8.2-20.65,2.73-7.08,4.36-13.97-1.89-20.43-1.73-1.79-3.26-4.84-3.11-7.19,1.04-16.33-10.92-24.87-20.41-34.84-2.55-2.68-5.87-4.63-9.02-7.05,4.99-4.28,8.6-1.22,12.29-.49,2.84.56,5.18,5.72,8.32,1.8,2.16-2.7.15-6.37-.66-9.55-1.62-6.38-8.51-10.18-8.08-17.84.19-3.3-4.05-4.9-6.96-6.43-7.08-3.72-13.92-8.12-21.37-10.83-13.69-4.96-22.8-15.8-33.59-24.5-.75-.6-1.17-2.74-.68-3.45.6-.88,2.26-1.24,3.52-1.43,3.61-.56,6.67,1.13,9,3.47,12.99,13.05,29.64,20.57,45.82,27.85,16.31,7.34,23.89,20.08,25.08,35.47,1.14,14.75,6.78,28.39,7.46,42.99.06,1.3.27,2.83,1,3.81,13.1,17.74,2.31,34.34-2.71,51.04-1.05,3.5-4.27,7.47-7.52,8.96-8.64,3.97-7.25,9.96-4.93,16.66.66,1.89,1.26,3.8,2.03,5.64,17.45,41.74,33.18,84.13,47.96,126.88,1.08,3.13,2.55,6.14,3.93,9.17,12.72,27.85,25.63,55.61,38.11,83.56,4.06,9.1,6.79,18.79,10.58,28.03,8.33,20.31,16.63,40.63,25.52,60.69,10.82,24.42,17.89,50.07,25.73,75.48,2.72,8.83,2.32,18.2,4.99,27.23,3.18,10.72-3.52,20.6-14.84,24.42-8.12,2.74-15.92,6.11-24,11.09-7.46-19.36-15.01-37.37-20.65-56.23-3.4-11.37-9.4-21.97-14.38-32.84-1.37-2.99-4.18-5.53-4.82-8.59-5.29-25.08-19.6-46.54-27.88-70.41-1.52-4.39-3.35-8.71-5.44-12.86-20.11-39.89-34.22-82.4-53.41-122.62-13.44-28.16-24.1-57.66-40.45-84.5-6.19-10.16-10.12-21.69-15.33-32.47-13.33-27.54-26.79-55.02-40.24-82.51-.87-1.78-2.74-3.3-3.01-5.11-2.08-13.98-15-19.55-22.55-29.24-1.89-2.43-5.5-1.43-7.15.43-6.8,7.71-14.38,5.24-21.91,2.1-10.45-4.35-20.36-10.7-31.19-13.21-10.52-2.44-18.76-9.4-29.27-11.49-6.63-1.32-11.34-7.03-15.2-12.43-5.75-8.04-13.67-12.36-22.65-15.47-10.04-3.48-19.82-7.76-30.43-9.32-6.03-.89-11.52-3.07-16.64-6.41-5.97-3.89-10.02-9.23-10.44-16.22-1.16-19.3-2.08-38.66,5.03-57.27.93-2.44,1.3-5.24,3.97-6.62.55-.28,1.33-.6,1.82-.41,1.1.42,3.06,1.43,2.98,1.7-3.29,11.25,6.67,19.82,5.59,31.5,5.75-7.25,5.41-15.58,8.63-22.56,2.99-6.49,8.46-7.76,14.43-2.93,1.36,1.1,2.71,3.43,2.5,4.98-.32,2.3-2.63,1.85-4.58,1.35-2.78-.71-5.52-.34-6.15,2.96-1.37,7.14-2.54,14.32-3.49,21.52-.5,3.77.36,6.26,5.39,4.8,1.74-.5,2.48,2.49,2.3,4.38-.57,5.96-1.81,11.89-.33,17.88.69,2.78,2.22,4.83,5.21,5.23,3.66.5,6.72-.89,8.14-4.24,1.01-2.38.91-5.2,1.51-7.78,1.18-5.08-.75-10.69,2.66-15.56,5.32,4.47,1.99,10.47,2.92,15.62.82,4.53.32,9.29,1.11,13.82.22,1.27,2.88,2.3,4.6,2.99.36.15,2.2-1.66,2.18-2.55-.13-7.31.09-14.72-1.06-21.9-.98-6.14-.24-11.93.73-17.82.17-1.05,1.34-2.62,2.2-2.73,2.48-.31,2.99,1.8,3.12,3.72.35,5.31.25,10.67.92,15.93.72,5.65,2.24,10.74,10.1,7.39,1.31-.56,3.29,1.09,3.3,3.68.02,3.98,1.18,8.01.84,11.93-.79,9.17.77,17.15,9.04,22.52,4.11,2.67,1.81,9.29,7.28,11.24,2.58.92,5.24,2.18,7.43.49,1.15-.88,1.71-3.77,1.22-5.34-3.8-12.14-5.75-24.37-6.23-37.21-.44-11.81,9.26-14.82,14.78-21.43,1.43-1.71,3.2,1.18,4.54,2.25,2.22,1.77,2.8,4.21,2.43,7.11-1.01,7.92-1.21,15.99-2.8,23.78-1.75,8.58-2.15,17.12-1.68,25.77.05.96,1.2,2.42,2.08,2.64,1.02.25,2.92-.29,3.37-1.09,1.63-2.86,2.7-6.03,4.18-8.98,1.19-2.37,2.22-6.08,4.09-6.63,10.26-3.03,16.13-10.35,21.17-19.05,1.3-2.24,7.64-1.42,9.01.89,3.1,5.2,6.58,11.11,2.34,16.65-7.18,9.39-6.53,19.81-6.27,30.49.12,4.75,1.94,7.41,6.49,8.45,2.57.59,5.09,1.43,8.55,2.43-.94-9.24.67-17.64,2.31-26.11,1.79-9.3,4.43-17.99,10.45-25.52,7.91-9.9,9.43-23.53,18.97-32.61,2.61-2.48,1.93-6.04.61-9.35-2-5.03-5.04-9.3-8.45-13.46-5.43-6.61-11.73-10.34-20.73-9.25-12.68,1.54-25.21-1.11-37.79-2.21-7.72-.67-13.65-3.6-17.5-11.15-10.4-20.4-26.53-34.49-48.32-42.15-4.9-1.72-9.14-5.26-13.84-7.67-12.86-6.6-19.16-4.21-24.85,9.14-1.01,2.37-2.11,4.7-3.32,6.97-.24.44-1.47.87-1.77.66-.91-.67-2.41-1.96-2.22-2.47,3.15-8.57,5.24-17.46,13.68-23.41,4.36-3.07,7.91-7.4,4.2-15.34-3.32-7.12,1.72-15.41,6.96-21.79,1.57-1.9,3.61-4.48,6.29-1.79,1.88,1.88,2.65,4.58,1.15,7.27-.65,1.16-1.54,2.19-2.16,3.36-4.88,9.26-4.7,9.27,3.3,17.65,1.67,1.75,4.02,4.05,1.63,6.42-1.05,1.04-3.82.18-5.72.6-1.13.25-2.24,1.18-3.05,2.08-1.07,1.2-.5,2.34,1.34,2.69,12.55,2.41,22.58,10.99,34.82,14.11,1.15.29,2.79.33,3.68-.28,2.02-1.4,1.22-3.36.36-5.24-11.81-26.01-23.58-52.04-35.38-78.06-.82-1.82-2.06-3.51-2.56-5.41-10.24-38.36-29.39-72.63-48.94-106.69-5.65-9.84-9.91-20.19-14.23-30.66-13.19-31.96-27.27-63.55-41-95.29-.79-1.83-1.35-3.82-2.44-5.46-2.77-4.14-6.46-6.73-11.78-5.48-3.89.92-7.96,1.47-11.59,3.03-13.44,5.81-27.38,10.85-39.91,18.26-18.53,10.96-38.41,17.29-59.01,22.5-12.22,3.09-24.47,6.76-35.95,11.88-10.52,4.69-17.75-3.49-26.7-4.46-5.32-.58-5.56-6.83-7.96-10.67-16.91-27.13-28.05-57.21-43.63-85.01-9.8-17.48-16.42-36.4-23.43-55.02-3.24-8.61-9.3-15.41-11.63-24.84-3.31-13.45.58-22.7,10.88-29.28,17.35-11.08,34.41-22.99,53.82-30.33,12.47-4.72,24.72-9.76,36.83-15.33,11.43-5.26,23.18-10.25,35.28-13.53,12.34-3.35,23.87-8.04,34.94-14.21,1.74-.97,3.55-1.91,5.45-2.45,23.01-6.53,44.37-17.95,67.93-22.87,3.23-.67,6.5-1.63,9.46-3.07,27.59-13.39,56.72-22.75,85.65-32.55,15.67-5.3,31.83-9.23,47.9-13.24,9.41-2.35,13.4-.52,16.75,9.27,7.12,20.8,20.02,39.05,25.95,60.32.53,1.9,1.59,3.67,2.56,5.41,11.4,20.4,19.54,42.24,28.81,63.61,7.13,16.44,11.58,33.34,16.19,50.4.83,3.08-.2,5.06-1.82,7.19-6.99,9.16-15.56,16.34-26.13,21.09-6.68,3-13.31,6.12-19.92,9.28-26.32,12.6-52.76,24.95-78.84,38.03-7.69,3.86-17.17,2.73-24.43,9.61Zm-135.04-198.64c-3.42.54-6.83,1.08-10.25,1.62-.15,1.07-.2,2.16-.46,3.19-.44,1.75,0,2.13,1.37,1.03.14-.11-.21-1.25-.61-1.52-1.22-.83-1.44-1.73-.33-2.8,3.69,1.65,7.7,4.96,9.86-1.77l.42.24Zm-136.41,206.03c.18-.35.37-.71.55-1.06-.36.18-.73.36-1.09.55,2.36,2.53,3.02,5.68,3.27,8.98,6.19,6.28,8.83,14.63,12.83,22.17,3.41,6.43,6.13,13.24,9.77,19.53,11.17,19.32,20.5,21.92,40.14,11.64,1.07-.56,2.01-1.37,3.43-2.34-17.39,2.68-29.71-5.3-39.82-17.73-2.87-3.53-5.26-7.63-7.11-11.8-3.25-7.33-7.39-14.02-12.39-20.24-2.15-2.68-4.65-1.64-7-1.13,1.99-3.74,3.43-7.31-2.58-8.56Zm138.54,39.64c-4.19.18-8.39.36-12.58.54-.34,2.65,2.53-.18.48,1.53-1.23,1.02-1.91.76-2.11-.79-.34-2.64-.16,1.33,1.56-.75,4.55,1.62,8.8.22,12.99-1.21-1.55.44-1.78.19-.7-.73l.35,1.42Zm-164.79-106.29c-.24,1.24-.59,2.47-.67,3.72-.04.57.39,1.6.75,1.68,1.65.33,2.51-.64,1.84-2.25-.44-1.07-1.56-1.85-2.37-2.76-.6-4.97-1.2-9.95-1.8-14.92-4-5.21-3.22-11.42-3.11-17.27.32-17.99,7.3-31.95,24.41-40.09,15.02-7.14,29.13-16.08,44.71-22.17,5.51-2.15,10.54-5.58,15.72-8.56,2.9-1.67,2.55-4.26,1.62-6.73,5.58,3.79,11.21,1.94,16.91.26,8.88-2.62,8.9-2.54,18.77-11.45-14,2.8-23.7,10.84-35.51,11.4-5.75,3.3-11.13,8.2-17.31,9.61-23.82,5.46-43.36,19.82-64.93,29.92-4.64,2.17-8.29,6.49-12.33,9.9-7.12,6-8.54,14.03-4.46,21.54,3.87,7.12,5.92,14.69,8.78,22.07,1.38,3.57,4.25,2.02,6.73,1.55-.69,2.47-1.67,4.9-1.98,7.41-.39,3.26.02,6.42,4.21,7.13Zm301.02,522.66c-.19,1.48-1.13,1.32-.75.63,1.27-2.32-1.42.12,1.22-.25-.6,1.18-1.47,2.3-1.76,3.55-1.32,5.54.69,11.65,2.81,8.87,2.49-3.25-.15-6.03-.77-9.01-.27-1.29-.52-2.58-.75-3.79Zm-171.74-408.03c-5.42,3.46-12.89,3.2-17.8,9.07,7.22,2.01,12.38-1.27,17.48-4.02.78-.42.09-3.57.22-5.25,1.03.69,1.98,1.63,3.11,2.02,1.54.52,2.47-.28,2.32-1.78-.02-.19-1.05-.41-1.6-.39-1.25.04-2.49.22-3.74.35Zm115.59-280.42c8.12-1.82,16.54-2.89,22.75-9.35,16.94-2.78,17.52-3.02,27.02-11.77-10.71,2.44-19.91,4.46-26.64,12.19-7.08-.42-13.94.6-20.19,4-1.3.71-1.78,2.92-2.65,4.38-1.1.29-2.67,2.16-2.81-.82.84.46,1.68.91,2.52,1.37Zm-236.49,185.8c-.77-.89-1.51-1.82-2.34-2.66-.3-.3-.82-.37-1.24-.55.21.99.19,2.64.69,2.82,1.03.37,2.35-.04,3.54-.14-2.25,3.76-2,7.46.66,10.83,3.41,4.31,3.84,11.59,11.38,11.95-.35,1.16-.72,2.32-1.03,3.49-.47,1.76.09,2.44,1.54,1.8.14-.06-.2-1.12-.25-1.71-.1-1.15-.16-2.31-.24-3.47-2.84-8.26-7.93-15.26-12.73-22.37Zm592.95,746.77c.4-1.54,1.25-1.07.69-.52-1.89,1.84,1.44.49-1.12-.25.7,1.71,2.41,3.89,1.88,5.03-1.01,2.15-3.38,3.62-5.05,5.5-2.49,2.81-2.03,5.99-.48,8.97.51.99,1.87,2.04,2.94,2.15,4.32.46,5.13-3.28,6.17-6.11,2.25-6.15,1.22-11.46-5.02-14.78Zm-290.34-958.72c6.1,1.67,11.73-.46,17.61-1.69,13.23-2.77,26.48-3.31,38.64,4.25,2.32,1.44,4.22,2.98,6.48-.78-1.16-2.07-2.26-4.47-3.74-6.61-6.91-9.93-6.92-9.8-19.07-6.55-5.77,1.54-11.62,2.93-17.52,3.77-7.96,1.12-15.15,3.95-21.86,8.22-1.19.22-2.38.46-3.57.65-1.69.27-2.44,1.17-1.56,1.74.73.48,2.3.52,2.95.03.84-.63,1.13-1.99,1.66-3.04Zm34.7,4.91c-10.8.22-20.92,3.1-31.04,6.72-26.26,9.38-52.71,18.22-79.08,27.27-18.33.47-32.55,15.08-51.17,14.86-2.31-.03-4.63,2.42-6.99,3.64-5.31,2.74-10.39,6.38-16.03,7.96-25.04,7.03-45.53,24.96-71.55,29.54-1.89.33-3.59,1.69-5.38,2.58-17.2,8.52-33.85,18.47-51.71,25.24-27.57,10.45-36.61,41.01-22.21,67.37,4.18,7.64,7.12,15.61,9.91,23.76,6.67,19.49,12.92,39.2,25.49,56.03,1.58,2.11,2.88,4.54,3.77,7.02,5,13.85,15.76,22.71,26.71,31.52,4.65,3.74,9.2,4.46,14.76,2.25,9.25-3.67,18.44-7.99,28.09-10.01,13.19-2.77,25.41-7.65,37.67-12.86,23.81-10.1,45.98-23.83,70.75-31.81,3.12-1.01,5.92-3,8.9-4.49,12.46-6.24,24.74-12.85,37.43-18.58,15.1-6.81,30.93-12.07,45.77-19.39,30.94-15.26,61.41-31.47,92.11-47.21,4.59-2.35,11.88-1.43,13.34-7.24,1.17-4.66-.6-10.22-1.67-15.25-.95-4.5-2.67-8.85-4.13-13.24-6.73-20.19-15.08-39.79-20.68-60.41-4.91-18.07-14.82-34.07-24.58-49.87-6.32-10.22-16.08-15.65-28.47-15.41Zm-66,238.38c2.9.56,4.43,1.38,5.42.96,15.14-6.5,32.56-6.94,46.16-17.63,2.5-1.97,6.2-2.35,9.2-3.77,10.21-4.8,20.69-9.17,30.42-14.8,7.52-4.35,15.03-8.25,23.18-11.38,12.39-4.76,24.4-10.61,34.87-18.99,2.87-2.3,6.91-4.34,4.88-10.2-19.92,8.95-40.16,16.92-58.05,29.55-4.46,3.15-9.51,4.61-14.32,6.8-25.95,11.83-51.74,23.99-77.56,36.1-1.15.54-2.05,1.62-4.2,3.37Zm423.32,949.7c-.18-2.04-.23-3.35-.43-4.64-.64-4.2-2.63-7.57-6.98-8.46-5.8-1.18-5.64,3.53-6.66,7.2-.68,2.43-1.6,5.05-3.21,6.9-4.09,4.73-2.95,9.7-1.47,14.79.76,2.62,2.47,4.89,5.21,5.06,1.72.11,4.03-.91,5.22-2.2,4.98-5.44,7.94-11.89,8.33-18.66Zm-277.02-406.94c7.83,7,17.43,9.78,26.54,13.36,1.26.49,3.97-.81,5.01-2.09,1.88-2.32,1.16-5.13-1.05-7.01-1.98-1.68-4.22-3.41-6.64-4.14-6.62-2.02-9.75-6.42-10.38-13.07-.25-2.62-.88-5.2-1.66-9.7-1.8,5.47-2.55,9.38-4.33,12.74-1.8,3.38-4.63,6.21-7.49,9.9Zm230.89,289.76c-.84-3.17-1.3-5.73-2.21-8.12-1.22-3.18-6.34-5.27-9.81-4.24-3.65,1.08-4.69,4-5.21,7.37-.74,4.74,1.24,8.9,2.61,13.19.86,2.68,2.49,4.31,5.55,4.24,2.9-.07,5.16-1.7,6.32-3.85,1.48-2.73,1.97-6,2.74-8.59Zm-326.01-706.98c-3.96.6-3.81,4.24-5.63,5.46-6.96,4.69-5.99,10.47-3.43,16.94,1.31,3.31,2.86,5.66,6.94,4.99,3.65-.6,5.72-2.83,6.74-6.14,2.5-8.15-.07-15.03-4.62-21.25Zm24.33,67.29c0-2.75.07-4.07-.01-5.38-.29-4.58-2.83-7.31-7.29-7.85-4.34-.53-5.55,2.98-6.29,6.14-.75,3.18-.62,6.55-1.11,9.8-.55,3.65-.02,6.82,4.08,7.52,3.51.6,6.44-1.35,8.23-4.26,1.34-2.18,1.94-4.82,2.38-5.97Zm231.86,489.53c0-1.29.09-2.6-.02-3.88-.24-2.83-1.68-4.86-4.46-5.65-2.7-.77-5,.05-6.9,2.16-5.04,5.56-4.22,12.22,2.61,18.56,1.39,1.29,3.42,1.52,4.9-.48,2.36-3.19,4.1-6.61,3.87-10.71Zm140.65,334.22c-.1-3.95.64-8.03-2.21-11.32-.8-.92-2.07-1.85-3.19-1.95-.88-.08-2.47.97-2.69,1.8-.84,3.13-.31,7.01-2,9.43-3.94,5.65-4.46,10.61.54,15.54.64.63,2.64.56,3.61.06,5.59-2.9,5.43-8.43,5.94-13.57Zm15.6,39.19c0-1.29.38-2.75-.09-3.84-.7-1.64-1.73-3.86-3.1-4.29-1.48-.46-3.62.66-5.26,1.5-1.07.54-2.04,1.68-2.58,2.79-2.13,4.37-2.4,8.75,1.03,12.65.78.89,2.21,1.67,3.35,1.69,3.34.04,6.08-4.48,6.64-10.49ZM1662.63,37.1c.48-4.54-.41-8.84-3.37-12.48-.64-.79-2.21-1.33-3.23-1.18-1.07.16-2.42,1.07-2.93,2.03-2.72,5.09-2.16,9.98,2.18,13.85,1.17,1.04,3.57,1.1,5.32.9.77-.09,1.32-1.98,2.03-3.13Zm149.74,292.86c-2.82,4.37,1.78,7.26,2.08,11.03.19,2.43,1.96,4.82,3.36,7.01.57.9,2.09,1.8,3.06,1.68,1.08-.13,2.29-1.23,2.97-2.23,2.48-3.66,2.66-7.86-.39-10.87-3.01-2.97-5.81-7.11-11.08-6.63Zm75.24,162.08c-1.92,1.18-4.07,1.82-5.12,3.26-3.15,4.33-1.66,8.81.73,12.93.4.7,2.62,1.18,3.33.72,3.96-2.55,7.07-9.66,5.63-13.56-.53-1.43-2.9-2.18-4.57-3.35Zm-331.03-696.47c-.04,4.58.42,8.31,2.54,11.73,1.24,1.99,5.14,2.36,6.56.47,3.56-4.73,3.65-9.36-.24-13.74-1.5-1.69-3.3-4.59-6.24-2.52-1.37.97-1.98,3.01-2.63,4.07Zm-14.51-43.32c-4.9.25-7.31,2.72-7.12,7.75.09,2.57.75,5.65,4.32,5.36,4.69-.37,8-5.28,6.85-9.97-.48-1.97-1.92-3.39-4.05-3.14Zm146.29,329.47c-3.2.52-5.88,4.19-5.21,6.97.87,3.61,5.5,7.59,8.07,6.61,3.7-1.41,3.71-4.66,3.19-7.91-.56-3.47-2.3-5.76-6.05-5.66Zm-50-114.13c-.64-1.79-1.21-4.11-3.56-3.1-1.37.59-2.69,2.49-3.02,4.01-.39,1.8.86,3.8,2.86,4,3.59.36,3.47-2.55,3.72-4.92Zm293.34,635.59c-3.06.69-4.98,4.52-4.06,7.77.58,2.06,1.21,2.2,2.65.62,1.74-1.92,4.27-3.41,3.92-6.41-.09-.75-1.63-1.32-2.51-1.98Zm-262.45-410.07c-.16-.64-.33-1.27-.49-1.91-.35,1.2-.81,2.38-1.01,3.61-.09.58.32,1.25.51,1.88.33-1.19.66-2.39.99-3.58Zm5.39-118.97c-.34-.54-.68-1.07-1.02-1.61-.89.73-2.22,1.29-2.57,2.22-.54,1.44.53,2.73,1.8,2.26.84-.31,1.21-1.87,1.79-2.87Zm7.32,172.8c-1,.49-2.75.88-2.83,1.48-.13,1,.61,2.84,1.36,3.07,1.95.59,3.8-.27,3.92-2.57.03-.62-1.59-1.32-2.45-1.99Zm83.24,32.22c-.51-1.04-.78-2.54-1.61-2.97-.75-.39-2.1.4-3.19.68.65,1.01,1.17,2.13,1.97,2.99,1.2,1.28,2.23.96,2.83-.69Zm-306.78-763.44c-.51-.16-1.02-.32-1.53-.48-.13.44-.26.89-.39,1.33.5.14,1.02.41,1.48.34.2-.03.29-.78.43-1.2Zm543.08,1219.37l-1.41-.24.49,1.71.92-1.47Zm-216.95-406.91l.6-1.06-.93-.17.33,1.23Zm104.11,191.44l-.7,1.06,1.17.12-.47-1.18Zm-200.04-451.68l-.68.99,1.02.16-.34-1.16Zm-284.11-530.77l.65-.92-1.05-.14.4,1.06Z"/>
  <path d="m638.52,374.95c-4.68,18.52-15.11,33.36-29.41,45.65-2.46,2.11-5.24,4.08-8.2,5.33-3.16,1.34-7.46,1.08-9.07-1.76-2.41-4.27,1.56-5.15,4.89-5.91,3.35-.77,6.76-2.42,6.67-6.23-.36-14.5-1.13-28.99-1.88-43.47-.06-1.18-1.05-2.37-1.8-3.42-.34-.48-1.21-.95-1.72-.85-1.11.22-3,.69-3.09,1.28-.87,5.73-1.44,11.52-2.19,18.21-2.34-1.62-4.76-2.38-5.2-3.76-3.05-9.54-4.13-19.34-2.68-29.34,1.05-7.27,1.89-7.71,12.76-6.64,1.88.37,4.06,1.69,5.47,1.12,4.7-1.91,7.98-5.52,11.88-14.02-7.94,6.08-12.81,9.81-17.68,13.54,2.63-6.67,4.39-13.75,11.62-20.57-7.09.95-11.83,1.65-16.59,2.21-15.71,1.83-25.98-8.21-36.61-17.15-1.82-1.53-2.88-4.56-3.32-7.06-3.35-18.83-17-29.4-31.46-39.11-5.46-3.67-11.6-6.59-17.79-8.86-15.78-5.77-29.87-14.25-42.83-24.8-3.6-2.93-7.31-5.76-11.12-8.41-9.88-6.87-20.52-8.97-32.09-4.77-3.12,1.13-6.26,2.25-9.46,3.09-12.43,3.26-24.68,4.25-36.94-1.4-6.59-3.03-13.7-4.98-20.65-7.16-7.16-2.25-14.3-2.14-21.49.47-15.11,5.49-30.5,8.04-46.76,6.07-21.16-2.57-40.88,4.42-59.53,12.97-29.56,13.54-57.32,30.44-83.47,49.89-3.61,2.68-6.94,6.36-12.08,6.32l.33.38c3.67-8.12,10.59-13.27,17.54-18.03,9.86-6.76,19.46-14.01,29.47-20.39,24.65-15.72,50.72-28.96,78.7-38,6.39-2.06,12.85-3.37,19.64-2.3,16.11,2.54,31.86,1.3,47.1-4.82,14.33-5.75,28.19-5.66,42.37,1.41,14.21,7.08,29.05,7.91,44.54,2.65,7.39-2.51,15.76-2.73,23.7-2.86,9.57-.15,18.5,3.3,25.78,9.38,15.89,13.27,33.12,23.71,52.46,31.59,23.29,9.49,42.19,25.38,53.56,48.44,4.41,8.95,10.74,14.44,19.42,18.82,7.69,3.88,14.6,3.26,20.4-1.69,16.17-13.8,32.47-27.58,47.34-42.72,11.81-12.03,16.86-28.49,22.26-44.17,7.14-20.73,13.5-41.72,20.16-62.61,1.63-5.1,3.59-9.87,7.49-13.87,10.64-10.9,21.12-21.72,33.28-31.24,13.63-10.67,28.82-18.03,44.73-20.77,28.03-4.83,56.66-6.84,85.09-.16,12.29,2.89,21.23,10.35,29.84,18.67,1.41,1.36,2.13,3.45,3.54,4.8,11.78,11.25,11.16,17.02,32.42,8.39,2.46-1,4.97-2.06,7.55-2.55,27.34-5.19,21.32-8.17,40.55,9.79,12.08,11.29,24.76,21.81,33.02,36.96,3.88,7.1,12.39,11.68,17.56,18.71,3.58,4.86,8.44,9.58,8.68,15.44.51,11.99,8.15,19.04,15.55,26.55,12.33,12.5,20.24,27.92,28.45,43.12,9.14,16.93,18.42,33.71,31.85,47.8,3.17,3.33,5.91,7.28,8.03,11.36,5.27,10.13,12.07,19.05,19.83,27.31,2.35,2.5,4.27,5.09,3.53,8.79,0,0,.43-.37.43-.37-4.73.37-6.3-3.89-9.19-6.23-1.93-1.57-4.07-3.87-6.23-4.01-17.13-1.16-23.84-13.86-30.13-26.85-3.74-7.73-3.15-8.34,7.53-13.46-5.2,13.77,4.61,21.73,11.99,30.54.4.47,2.31-.2,3.45-.56.29-.09.62-1.18.43-1.54-1.52-2.83-3.26-5.55-4.75-8.4-3.53-6.76-10.19-11.78-11.14-19.98-2.93,1.13-5.06-.22-6.83-2.33-4.67-5.55-9.41-10.99-12.7-17.63-2.63-5.32-5.93-10.46-12.53-11.73,4.76-7.94-.57-12.47-5.91-16.96,1.62,5.7,2.62,11.66,6.37,16.6,2.86,5.11,1.96,10.29-.02,15.35-.39.99-1.82,1.7-2.92,2.26-1.3.67-2.42,0-2.89-1.64-1.43-5.1-3.53-10.15-3.99-15.34-.61-6.83-4.12-11.43-9.64-14.11-4.65-2.25-6.96-4.82-7.8-10.1-.91-5.73-1.7-5.68-8.37-1.71-2.03,1.21-3.35,1.14-4.16-1.17-.21-.61-.19-1.31-.19-1.97-.03-3.05-.38-2.84-4.62-9.99-2.61-4.41-3.69-9.7-5.89-14.4-1.94-4.14-8.98-.15-10.37-6.71-1.92-9.06-5.76-17.66-4.98-27.3.65-8.06-1-15.73-4.62-23.15-3.24-6.64-6.72-12.55-12.52-17.59-8.46-7.36-15.14-16.51-24.01-23.77-6.71-5.5-12.68-6.32-20.1-4.31-2.57.7-5.23,1.31-7.59,2.47-17.79,8.69-37.42,8.46-56.34,11.57-7.52,1.24-14.16-1.92-20.71-5.72-13.75-7.97-26.85-4.25-39.13,3.83-6.77,4.45-7.8,8.05-3.74,14.95,3.48,5.9,6.03,11.84,6.05,18.69.01,3.29.35,7.19-3.16,8.81-2.06.95-4.9.2-7.39.21,1.27-3.66,2.71-7.27,3.75-10.99,1.35-4.85-.49-8.98-3.89-12.32-1.26-1.24-3.4-2.4-4.96-2.2-.96.12-2.5,3.06-2.22,4.41,1.53,7.29,2.25,14.97,7.76,20.79-1.96,4.27-4.97,7.65-8.37,10.89-8.45,8.04-8.33,8.12-19.02.02-.88-.67-2.25-.7-3.4-1.03-1.9,3.36.09,6.39.79,9.54,1.04,4.66-.61,7.8-5.41,8.78-4.57.94-6.94,3.22-6.28,8.21.43,3.27.65,6.62.48,9.91-.33,6.16-3.36,10-9.27,11.22-5.18,1.07-10.48,1.77-15.76,2.06-6.84.37-12.81,2.98-18.76,5.98-2.76,1.39-5.08.45-6.51-2.31-1.36-2.64-.97-5.05,1.34-7.01.5-.42,1.14-.67,1.73-.98,2.25-1.18,5.52-1.67,5.84-4.53.36-3.22-3.7-3.24-5.26-5.26-1.3-1.7-2.03-3.77.11-4.77,2.02-.94,4.58-.72,6.9-1.01-.86-2.39-3.18-5.75-2.35-7,4.7-6.99.83-19.35,13.26-21.57.69-.12.78-2.42,1.54-3.41,6.55-8.46,10.79-9.18,19.49-3.43,1.62,1.07,3.18,2.21,4.78,3.32,0,0,.69.92.69.92l-1.19-.4c-.36-2.57-.67-5.15-1.09-7.72-.54-3.35,1.25-4.77,4.22-4.97,1.26-.09,2.57.66,3.85.68,3.07.03,5.58,3.85,8.84,1.42.57-.42.53-2.63-.04-3.44-2.69-3.81-5.7-7.63-11.15-6.45-3.83.83-7.45,2.61-11.28,3.45-4.4.96-6.83-.19-7.76-5.66-.96-5.59-4.5-6.67-8.08-3.75-5.05,4.13-10.79,7.57-13.34,13.34-7.55-.08-6.9-8-11.76-9.89-1.56-.61-2.37-.04-3.24,1.1-7.44,9.77-2.19,19.83-.8,29.8l.46-.28c-4.55-.24-7.5-2.84-8.25-7.04-1.27-7.11-1.78-14.34-2.85-21.49-.53-3.55,1.63-7.86-3.57-11.1-2.89,5.76-6.22,11.3-8.5,17.23-2.54,6.62-1.78,14.3,3.98,18,6.77,4.35,7.71,7.97,3.58,14.16-.49.74.19,2.49.71,3.59.52,1.09,1.94.95,2.87-.52,2.94-4.65,7.59-4.26,12.1-4.38l.21-.11c-4.82,7.84-10.27,15.61-6.89,25.55,1.56,4.58-3.43,4.95-4.11,7.21-2.1,7.11-5.43,15.27-3.66,21.76,2.41,8.83-9.16,13.3-4.18,21.9,3.71,6.4,3.77,13.84,3.05,21.17-.38,3.9-.17,8.02-4.7,9.92l.33.64c.38-14.99-1.04-29.52-9.92-42.25-5.13,1.97-6.19,5.92-7.74,9.55-2.24,5.23-1.93,9.26,4.89,9.54,2.82.12,3.43,1.89,3.58,3.67.6,7.47,0,14.7-6.78,19.61-5.68,4.12-6.22,9.58-4.53,15.76l.43-.38c-5.24-2.1-10.08-5.27-15.45.72-6.48,7.23-13.91,13.61-20.85,20.44-2.51,2.46-5.13,3.84-8.62,2.23l.43.42c5.24-9.22,13.84-15.46,20.63-23.31,2.11-2.44,4.66-4.69,3.36-8.48,10.02-2.16,17.9-7.55,23.64-15.97,2.01-2.96-.44-8.3-4.16-9.64-3.19-1.14-5.03.89-5.91,3.36-1.55,4.36-2.98,8.27-7.74,10.61-4.55,2.24-4.65,7.52-5.47,12-3.44-1.37-6.58-.74-8.94,2.01-6.88,7.97-13.56,16.11-20.4,24.12-3.54,4.15-5.05,3.95-11.88-1.08-3.6-2.66-8.28-1.64-9.59,2.32-.8,2.43-2.03,5.46-1.26,7.56,4.19,11.51,2.85,23.44,3.38,35.22.08,1.87.21,3.89,3.23,4.92,8.52-4.99,11.91-14.72,17.75-22.34,2.16-2.82,4.05-5.1,7.93-3.93,0-.02-.42-.51-.42-.51Zm123.41-262.59c-.57,3.15-2.84,4.47-5.63,5.23l-1.28,6.96-.77-.57s1,0,.96-.11c-1.38-2.29-3.77-4.75,1.1-6,.46-2.86,1.37-5.29,4.91-5.08,1.88.37,1.5,1.53.48.89-2.2-1.37-.36,1.28.24-1.31Zm8.9,34.31c-1.72-.49-2.46.01-2.05,1.46.03.11,1,.11,1.42-.08,2.41-1.13-.92.62.24-1.78,1.64.04,3.91.25,1.37-2.07-.51-.47-1.59,1.19-.97,2.47Zm-22.45,13.36c-.18-.14-.36-.29-.67-.54l1.46-2.87c-.39-.14-.78-.29-1.17-.43-.21.84-.56,1.67-.56,2.51,0,.44.61.89.95,1.33Zm-108.18,135.05c-2.73.65-5.46,1.3-8.2,1.95-.15,2.64-.31,5.28-.46,7.93-2.57-.23-5.14-.46-7.71-.69.04,2.97.07,5.93.11,8.9-2.47,3.17-5.05,1.41-7.61.16l.37,1.21s-.63-.95-.55-.94c2.7-.2,5.39-.39,8.03-.61-1.29-2.87-5.62-5.55-.42-8.75,2.63.83,5.25,1.74,7.97.28-.61-2.5-3.73-5.05.33-7.39,2.81-.96,5.61-1.91,8.38-2.78-1.27.77-1.52-.32-.73-.33,2.63-.03-.5-1.41.49,1.06Zm138.63-184.37c-2.07-.88-3.35-.02-3.62,2-.07.54,1.46,1.92,1.75,1.79,1.79-.8,2.53-2.22,1.49-4.16.58-.1,1.24-.06,1.7-.35.23-.15.21-1.26.12-1.28-1.34-.37-1.83.34-1.44,2Zm-148.41,222.43c-.7.89-1.39,1.79-2.1,2.67-.97,1.19-.89,2.15.33,2.72.11.05.88-.83.97-1.35.2-1.16.16-2.36.16-3.45,1.25-.77,1.51-.61.79.49-.05-.36-.1-.72-.15-1.07Zm106.14-208.96c-.44,3.08-.9,6.16-1.26,9.25-.02.14.91.56,1.38.55.48-.02,1.18-.28,1.4-.66,1.94-3.41-.33-6.01-1.8-8.71,1.27-.54,1.58.4.8.45-2.64.15.72,1.49-.52-.87Zm-70.6,154.72c.88.82,1.64,1.95,2.69,2.34.73.27,1.85-.48,2.79-.77-.81-.52-1.58-1.37-2.44-1.48-1.15-.15-2.38.27-3.58.45.55-4.52-2.41-5.58-5.86-5.27-3.6.32-6.17,2.92-6.27,6.36-.07,2.82,3.25,3.9,5.55,4.28,2.3.38,4.83-.56,7.1-.85-.78.88-1.6,1.73-2.32,2.66-.12.15.2.64.32.97.66-1.22,1.31-2.44,1.97-3.66-3.17-.91-3.18-1.76.03-5.02Zm4.75-20.54c-6.87,6.7-7.14,7.95-2.34,11.86,1.53,1.24,3.11,2.68,4.91,3.25,1.69.53,3.94.56,5.52-.14,2.55-1.12,1.39-3.44.26-4.91-2.8-3.65-5.89-7.07-8.86-10.57,10.71.37,12.42-1.5,8.79-9.83-.46-1.07-1.7-2.37-2.69-2.47-1.03-.11-2.39.91-3.27,1.78-3.19,3.11-3.16,7.01-2.32,11.03Zm26.5-12.45c-2.48.21-5.9-.86-6.63,2.5-1.1,5.1-1.53,10.37-1.9,15.59-.06.84,1.55,1.93,2.56,2.69,1.15.87,2.42.34,2.73-1.38,1.16-6.48,2.14-12.99,3.07-19.69,1.46-4.95,3.07-9.85,4.28-14.86.44-1.81.16-3.91-2.22-4.83-1.88-.72-4.38,2.04-5.02,4.69-1.36,5.68,2.21,10.18,3.13,15.29Zm317.89-57.23c-.53,13.12,6.25,23.16,5.36,34.39-.06.78,1.68,2.26,2.76,2.47,2.15.41,3.89-1.12,4.3-3.04,2.68-12.74,2.65-24.71-12.42-33.83Zm-323.89,8.47c-8.23,13.97-10.94,26.29-11.74,39.17-.04.71,1.66,2.04,2.66,2.16.92.11,2.58-.8,2.9-1.64,1.81-4.85,2.83-10.05,5.04-14.69,3.47-7.29,2.26-14.43,1.15-24.99Zm365.78,65.98c3.78-12.94-2.67-18.81-10.92-23.47-2.48-1.4-3.26,1.35-3.59,3.05-.64,3.34-.16,7.12,3.23,8.29,5.42,1.87,8.08,5.89,11.27,12.14Zm-400.1,33.34c-.67-1.31-1.23-3.25-2.46-4.58-1.6-1.73-3.73-.92-5.05.52-1.73,1.9-3.19,4.1-4.43,6.35-1.1,2.01,1.56,5.58,3.87,5.32,4.28-.48,7.29-2.51,8.08-7.61Zm150.99-154.71c1.1-.78,3.41-2.04,5.21-3.82,1.39-1.37,2.03-3.57.2-5.15-.84-.73-2.41-.95-3.62-.89-3.8.21-6.17,2.25-6.39,6.16-.11,2.04.35,4.02,4.59,3.69Zm-11.98,32.76c-.37.67-.84,1.2-.95,1.79-.53,2.78,0,4.97,2.71,6.67,1.3.81,1.85,2.8,2.74,4.26.19-1.18.77-2.45.51-3.51-.61-2.52-1.49-5.01-2.55-7.38-.36-.81-1.6-1.23-2.45-1.83Zm-30.6-4.1c3.17.5,7.61-2.41,7.23-5.18-.36-2.63-1.9-5.14-4.99-5.37-2.99-.22-5,1.48-5.47,4.46-.43,2.71-.07,5.24,3.23,6.09Zm-133.37,148.41c-.93-.64-2.02-1.97-2.77-1.8-3.34.74-5.14,3.25-5.57,6.51-.11.8.96,2.42,1.72,2.57,3.3.68,7.12-3.67,6.62-7.28Zm114.46-174.33c3.48.42,7.51-2.78,8.02-6.42.08-.56-.14-1.21-.36-1.76-.61-1.52-1.65-1.81-3.16-1.23-3.15,1.2-5.48,3.22-6.17,6.55-.17.81,1.07,1.91,1.67,2.87Zm292.58,85.41c-.67-1.07-1.31-2.97-1.97-2.98-2.94-.04-4.9,1.86-5.36,4.65-.36,2.22,1.4,3.72,3.46,3.79,3.76.13,3.35-3.1,3.87-5.47Zm-266.62-103.05c-2.62.62-5.1,1.59-5.33,4.69-.07.93,1.26,2.85,1.73,2.78,2.59-.38,5.22-1.3,5.36-4.5.04-.96-1.13-1.97-1.76-2.97Zm72.36-1.85c.41-1.63-.17-2.84-1.83-3.01-1.85-.19-3.83-.3-5.56.21-.77.23-1.78,2.44-1.44,3.11,1.07,2.04,7.49,1.66,8.82-.3Zm-46.71-3.49c-.74-.7-1.42-1.92-2.25-2.03-2.22-.3-4.86,2.99-3.83,4.71.45.74,2.04,1.3,2.97,1.13,1.88-.34,3.03-1.74,3.11-3.81Zm75.42-1.23c2.27.3,3.5-.95,4.14-2.8.9-2.61-1.2-3.09-2.91-3.57-2.21-.61-3.43.78-3.99,2.66-.7,2.37,1,3.16,2.76,3.72Zm-15-9.86c.66-.04,1.39.08,1.96-.16,1.16-.48,2.24-1.17,3.36-1.77-.92-.69-1.76-1.79-2.78-1.99-1.91-.36-3.95-.44-5.86-.14-.8.13-1.46,1.48-2.02,2.38-.07.11.83,1.13,1.39,1.26,1.28.3,2.62.3,3.94.41Zm-50.39-6.26c-.46-.45-.84-1.08-1.4-1.34-1.83-.86-5.41,1.94-5.36,4.24.01.57.46,1.4.94,1.65,1.39.71,5.67-2.69,5.82-4.54Zm81.6,30.38c1.12-.43,3.12-.69,3.26-1.34.44-2.09-1.15-3.32-2.96-4.15-1.27-.58-2.35-.17-2.77,1.42-.53,2.05.27,3.53,2.46,4.07Zm-72.9-10.62c-.6-1.42-1.65-1.91-3.06-1.29-.51.23-.9.76-1.34,1.15.68.68,1.39,1.93,2.02,1.89.83-.05,1.59-1.12,2.38-1.75Z"/>
  <path d="m889.31,651.76c2.56-.66,5.44-.78,7.6-2.09,4.23-2.55,5.55.08,7.52,2.96,2.14,3.13,2.77,5.93.07,8.86-.89.96-1.95,1.86-3.11,2.46-12.22,6.25-21.12,15.6-27.38,27.84-3.12,6.1-7.16,7.37-13.3,5.26-15.5-5.31-29.12-13.13-36.89-28.52-1.5-2.97-2.92-6.1-5.02-8.62-16.11-19.37-19.92-43.03-23.78-66.74-1.92-11.78-4.16-23.51-6.33-35.25-3.02-16.33-6.69-32.51-6.74-49.32-.03-7.84-2.34-15.69-3.76-23.51-.75-4.12-3.47-7.18-6.34-9.96-21.34-20.64-47.23-29.22-76.45-27.55-14.21.81-24.86,8.93-32.76,20.38-8.68,12.59-17.86,24.75-28.22,36-2.25,2.44-4.38,5.15-7.09,6.96-18.95,12.65-26.05,16.56-46.59,1.16-18.47-13.85-37.73-15.04-58.39-8.68-12.13,3.73-24.34,6.53-36.92,8.17-6.7.87-12.75.08-22.19-3.7,21.11-3.86,38.51-6.85,55.5-12.17,10.65-3.33,22.4-2.69,33.72-1.89,4.66.33,7.3-1.28,8.6-6.01,3.17-11.54,6.69-22.99,10.2-34.43.74-2.42,1.35-5.64,4.87-5.25,3.68.41,3.28,3.73,2.83,6.05-1.13,5.86-2.64,11.67-4.26,17.42-.9,3.19-2.75,6.14-3.42,9.35-.93,4.51-2.1,9.32-1.41,13.72.69,4.45,6.59,3.62,9.57,6.12,1.02.86,2.05,1.72,3.14,2.47,22.36,15.28,18.71,12.36,39.36-2.21,10.42-7.35,16.56-18.98,24.47-28.82,2.08-2.6,4.48-5.01,6.17-7.84,12.61-21.04,32.25-25.61,54.95-24.74,22.01.84,41.7,7.38,59.52,20.14,1.3.93,4.32,1.4,5.13.62,1.15-1.11,1.54-3.67,1.24-5.44-.42-2.52-1.1-6.25-2.82-7.08-9.86-4.77-12.46-15.34-19.01-22.66-1.2-1.34-2.93-3.01-1.5-4.97,1.31-1.79,3.45-1.5,5.41-.87,1.26.4,2.51.87,3.78,1.24,1.37.4,2.22-.32,2.33-2.08.04-.64-.05-1.64-.44-1.9-12.87-8.16-22.53-20.06-34.37-29.42-1.54-1.22-3.02-2.65-4.13-4.25-.53-.76-.61-2.66-.07-3.16.83-.77,2.43-1.22,3.59-1.05,5.06.73,7.7,4.85,10.86,8.21,2.02,2.14,4.37,2.77,7.05,1.36-.03,0-.54,1.05-.54,1.05l1.03-.49c-.5-.44-1.15-.78-1.49-1.32-11.14-17.65-12.96-23.06-9.85-21.61,7.57,3.55,10.2,11.78,15.44,17.58,8.99,9.97,17.37,20.62,21.36,33.44,6.08,19.56,14.6,38.45,16.99,59.1.53,4.6,1.76,9.14,2.92,13.64,1.06,4.1,4.44,4.25,7.9,4.14,4.41-.13,5.46-2.8,5.25-6.56-.04-.66-.03-1.33-.12-1.99-.17-1.32.09-3.3-.67-3.84-7.01-5.03-2.11-15.64-9.66-20.3l.27.1c3.67-.23,6.42,1.42,8.2,4.47,1.62,2.78,2.53,6.19,6.75,5.8,2.46-2.25.86-4.89.96-7.41.16-3.98-3.3-10.53,3.17-10.91,3.87-.22,2.45,6.51,3.1,10.16,1.04,5.81.63,11.92,4.84,16.91,1.09,1.29,2.02,4.24,1.32,5.25-6.31,9.1-.86,17.84.33,26.72,1.03,7.67,2.1,15.38-.82,24.19-5.36-6.53-.98-12.68-2.36-18.19-1.41-5.63-1.67-12.28-10.65-10.69-1.07.19-3.62-2.29-3.81-3.76-.82-6.23-5.44-4.57-9.04-4.72-2.56-.11-3.95,2.43-2.49,3.88,6.31,6.24,7.69,16.72,17.44,20,3.37,1.13,2.97,3.88,1.22,6.22-4.4,5.87-.44,11.54.55,17.12.79,4.44,6.78,3.23,9.18,6.42l.12-.24c1.44,1.29,2.87,2.59,4.31,3.88-1.33,1.06-2.54,2.33-4.01,3.12-2.31,1.25-4.61,1.88-7.14-.09-4.15-3.23-8.69-5.7-15.18-4.57-1.49,12.5-1.1,24.15,11.5,31.73l.47-.33c-7.55,2.76-8.57,3.82-6.93,8.37,1.29,3.58,2.71,7.24,4.79,10.39,2.61,3.96,6.51,3.13,10.25,1.44l-.5.51c3.06,2.02,4.2,5.01,4.13,8.52-.12,5.33-.71,10.67-.44,15.97,1.28,24.96,12.45,43.96,34.6,57.61-.42-9.48-4.07-20.32-11.05-33.04-1.97-3.6-4.04-6.92-1.41-11.09.19-1.25.43-2.38.69-3.52.13-.57.43-1.15.39-1.7-.02-.28-.63-.52-.97-.78-.22.95-.62,1.9-.6,2.84.02,1.19.39,2.38.6,3.56-5.47-3.22-8.3-7.93-9.85-14.18-4.37-17.65-2.09-35.69-3.46-53.5-.69-8.95,4.36-17.85,4.25-27.44-.22-19.22-3.08-38.19-6.94-56.75-2.84-13.65-6.24-27.44-6.46-41.06-.32-19.54-4.39-38.89-.86-58.8,2.76-15.56.92-31.89,1.88-47.84,1.15-19.21,3.41-38.41,9.48-56.73,2.38-7.18,2.74-14.28,3.53-21.51.43-3.97.71-8.04,3.68-11.09.76-.78,2.35-1.28,3.42-1.1,1.03.16,2.44,1.21,2.71,2.15.73,2.52,1.44,5.23,1.26,7.81-.7,9.88,3.18,18.35,8.33,26.14,8.35,12.61,15.05,26.06,27.97,35.81,10.96,8.27,22.48,13.7,35.14,17.74,9.48,3.02,19.16,5.54,28.43,9.12,14.33,5.53,27.71,12.6,38.75,23.88,8.35,8.53,17.58,16.3,26.96,23.72,18.37,14.54,33.71,32.1,49.76,48.95,9.21,9.66,19.92,17.2,30.33,24.85,5.05-2.01,1.6-8.1,5.82-10.18,4.45-.62,6.28,4.51,10.42,4.87,3.26.28,6.12,1.73,9.16,3.09,6.13,2.74,10.01,7.53,14.6,11.84,4.82,4.53,10.5,8.13,15.42,12.56,2.99,2.69,5.58,5.83,9.63,6.8,2.84.68,5.9-.26,6.23-3.26.88-7.87,1.22-15.81,1.31-23.72,0-.8-3.06-2.23-4.76-2.32-2.61-.14-2.89,2.16-2.44,4.14.7,3.1,1.69,6.14,2.7,9.73-12.03-1.36-13.65-11.33-18.03-18.69,0,0-.38.34-.38.34.16-2.81,1.91-4.03,4.46-4.44l-.3.45c3.31-.27,6.65-1.01,9.91-.73,9.72.83,11.25-2.01,10.85-11.41-.36-8.55.32-17,2.61-25.54,3.91-14.64.54-27.26-13.04-36.46-7.59-5.14-14.58-11.62-14.01-22.34,0,0-.43.37-.42.37,4.04-.06,5.42,3.32,7.32,5.85,4.39,5.85,9,11.31,14.97,15.81,11.05,8.32,15.62,20.23,13.23,33.48-4.41,24.4-2.15,49.06-4.32,73.51-.47,5.25-1.21,10.59-2.78,15.59-2.35,7.49-6.9,12.18-15.89,12.29-11.97.15-23.49,3.29-34.52,8.15-1.33.59-4.21-.23-5.12-1.38-.93-1.18-1.05-4.03-.23-5.35,2.07-3.34,4.98-6.15,7.28-9.36.57-.8.58-2.7,0-3.43-.59-.74-2.43-1.2-3.36-.84-5.56,2.11-10.94,4.74-16.55,6.69-2.39.83-5.24.79-7.8.5-2.41-.27-3.11-2.82-2.19-4.45,2.72-4.79,7.4-7.37,12.32-9.43-1.62-.04-1.81-.36-.58-.97.07.48.13.96.2,1.43-7.04-3.81-14.17-2.56-21.21-.15-5.54,1.9-10.42,1.62-15-3.97,7.08-5.37,17.37-6.45,22.95-17.93-1.51-.83-3.89-2.07-6.22-3.42-2.29-1.32-4.51-2.85-7.24-1.12-3.9,2.45-7.63,5.24-11.72,7.29-4.49,2.25-10.11,1.3-10.59-1.32-.89-4.88,3.95-4.3,6.14-6.29,1.93-1.76,3.54-3.88,5.18-5.92.37-.46.63-1.53.37-1.86-.67-.85-1.84-2.17-2.5-2.02-7.64,1.85-15.21,4-22.84,5.92-2.59.65-5.41.79-6.75-2.18-1.25-2.76.15-5.23,1.99-7.2,2.65-2.83,6.68-4.38,7.84-8.59-7.8-4.6-18.98,2.92-25.39-7.05,3.81-4.51,9.49-4.61,14.32-6.52,2.83-1.12,4.89-3.29,4.02-5.88-1.01-3.03-3.57-5.75-7.05-6.32-1.78-.29-3.97.34-5.62,1.22-5.58,2.98-11.58,2.63-17.54,2.61-2.92-.01-7.89-4.89-8.11-7.55-.29-3.51,2.58-4.06,4.8-5.21,2.36-1.22,4.75-2.37,7.14-3.53,3.1-1.51,3.31-4.15,1.71-6.49-1.86-2.72-5.48-6.11-8.07-4.16-4.85,3.64-10,6.44-15.29,9.19-4.84,2.51-9.69,4.47-15.19,2.23l.31.51c-.68-2.05-.23-3.93,1.41-5.21,3.65-2.82,7.48-5.41,11.17-8.2,6.02-4.55,8.22-8.63,5.75-10.63-4.3-3.47-7.02,1.13-10.51,2.11-6.93,1.96-14.02,3.4-21.09,4.79-.9.18-2.45-.98-3.11-1.93-1.3-1.84-.66-3.79,1.13-4.93,2.22-1.42,4.7-2.42,7.01-3.68,4.61-2.51,10.08-4.66,10.65-10.64.34-3.58-11.42-12.24-16.7-12.42-3.49-.12-5.97,2.4-6.61,6.14,0,0,.62-.48.62-.48-.01,1.69-.02,3.38-.04,5.07l-.58-.48c-3.43,6.18-11.29,3.03-15.63,7.42-1.17,1.18-2.61.61-3.31-.95-.84-1.89-1.04-3.94.6-5.39,4.47-3.95,9.15-7.65,13.63-11.59,1.45-1.28,2.91-2.9,1.89-5.14-1.28-2.82-3.57-3.22-6.49-2.88-8.56,1.01-16.84,2.24-21.88,10.64-.92,1.54-2.99,2.87-4.76,3.27-1.63.37-4.22-.08-5.21-1.2-1.48-1.67-.09-3.93,1.44-5.17,1.45-1.17,3.42-1.69,5.16-2.55.23-3.64,2.1-5.52,5.76-5.48.45-1.92,1.91-4.42,1.19-5.66-3.51-6.04-13.77-6.23-18.33-.63-.36.44-.65,1.46-.4,1.79.68.89,1.82,2.33,2.48,2.19,5.25-1.15,10.39-2.31,14.89,1.89-.02,3.88-1.9,5.93-5.89,5.91-2.99-1.68-6.25-2.94-9.41-1.06-15.09,8.98-25.13,20.5-24.28,39.9,1.14,26.19,8.31,50.97,15.18,75.88,5.1,18.53,10.7,36.93,16.06,55.39,1.67,5.73,3.07,11.55,4.96,17.2,4.69,14.05,11.99,26.25,23.21,36.4,13.75,12.44,26.61,25.85,39.8,38.91,1.86,1.85,3.59,4.12,1.64,6.88-2.44,3.46-5.87,5.38-10.17,5.02-1.22-.1-2.71-.87-3.48-1.81-12.24-15.03-30.31-23.57-42.72-38.47-3.8-4.56-8.26-8.67-12.84-12.48-18.22-15.19-29.53-35.61-41.97-55.16-.84-1.32.02-3.73.09-5.64,0,0-.45.44-.45.44,1.27.35,3.08.29,3.73,1.12,8.41,10.91,16.71,21.91,24.91,32.98,1.96,2.65,2.79,6.73,5.29,8.24,5.06,3.06,6.8,9.82,14.7,11.73-14.78-26.04-17.52-54.85-27.45-81.39-11.48-30.68-16.53-62.75-17.41-95.36-.32-12.05-6.51-21.36-10.81-31.64-2.59-6.19-11.57-2.9-14.3-9.58-.95-2.33-3.29-.09-4.38,1.15-6.59,7.47-13.24,14.89-19.49,22.64-4.22,5.23-3.53,9.65,1.52,15.64.4.48,1.17.63,1.69,1.03,2.31,1.75,3.8,4.49,2.79,6.9-3.97,9.43,8.15,18.93-.39,28.17-1.72-2.33-3.36-4.3-4.32.47,0,0-.86.72-.86.72l.33-1.19c1.81-.21,3.62-.42,5.44-.63-1.14,2.64-2.29,5.27-3.4,7.88,1.69-.31,1.93,0,.75.92-.12-.51-.24-1.02-.36-1.53,1.19.53,2.34,1.4,3.57,1.53,4.9.54,6.93,2.92,5.46,7.79-.75,2.47-1.59,4.92-2.48,7.35-1.09,2.95-4.28,6.35-1.88,8.93,3.44,3.69,6.83-.4,10.18-1.85,2.34-1.01,5.3-1.65,5.53,2.29.16,2.91-1.68,4.78-4.68,5.28-.88,1.33-1.75,2.63-2.63,3.94-3.19.57-6.37,1.14-9.53,1.68,1.69-.71,2.06.51.98.57-2.6.14.44,1.14-.66-1.29,3.07-.28,6.14-.57,9.21-.85,1-1.33,2-2.66,3.01-4-1.21,3.68-3.88,7.63-3.24,10.95.79,4.12,9.09,5.65,4.18,12.56-2.66,3.75-4.68,7.85-8.87,10.18.53-4.06,1.07-8.11,1.57-12.1.06.16.17.26.27.37.12-.29.25-.58.37-.87-2.99,3.8-2.2,8.27-2.23,12.6,3.37,5.22,8.81-.66,13.28,2.91-2.93,6.89-6.08,13.98-8.92,21.19-.79,2.01.42,3.26,2.73,3.86,7.56,1.98,7.52,2.08,3.32,7.53-2.8,3.63-5.77,7.16-8.21,11.03-.92,1.46-1.15,3.92-.62,5.58.7,2.18,3.17,2,5.08,1.6,1.91-.4,3.78-1.11,5.58-1.88,1.83-.78,3.71-1.55,5.32.01,2.61,2.51.55,4.64-.75,6.92-3.46,6.1-9.77,10.84-9.15,18.9-2.74.2-5.47.42-8.2.64,2.32-3.91,4.71-7.77,6.91-11.75.99-1.79.82-4.14-1.29-4.51-1.53-.27-3.71.92-5.01,2.1-5.03,4.61-1.68,9.57-.21,14.39,2.22-3.93,4.75-3.56,7.48-.6,2.48-1.05,5.26-1.87,7.46-.19,2.36,1.8,1.97,4.58.47,6.97-4.15,6.62-8.53,13.11-12.43,19.87-.71,1.24.42,3.54.7,5.36,1.18-.38,2.41-.65,3.52-1.17,1.76-.81,3.36-2.02,5.17-2.64,2.75-.93,5.47,1.44,4.69,4.04-1.45,4.83-5.31,9.17-2.83,14.75-1.03.59-2.37.96-3.01,1.83-.91,1.25-.29,2.5,1.18,2.99.16.05.87-.89.98-1.44.26-1.23.3-2.5.43-3.76,8.5-.26,10.33,1.21,8.59,7.33-1.25,4.39-3.09,8.61-4.39,12.99-.76,2.54-.58,5.17,1.63,7.53,5.64-.29,10.43-3.99,16.38-4.58,5.61-.55,11.02-4,13.16-10.36.03-.03-.59.66-.59.66Zm164.03-186.23c-1.1,1.01-2.21,2.02-3.31,3.03.51-.05,1.35.07,1.48-.18.55-1.01.89-2.15,1.43-3.14,1.61.04,3.36,1.48,4.7-.53.02-.03-.84-.89-1.07-.8-1.12.43-2.16,1.06-3.23,1.61Zm-38.03-34.84c1.85-.47,3.8-.72,5.47-1.55.51-.25.23-2.1.3-3.22-1.06.12-2.28-.05-3.13.43-1.77.99-2.93,2.52-2.24,4.73-1.06.57-3.39-1.41-3.22,1.61.94-.67,1.88-1.34,2.81-2.01Zm-76.6,166c.62,1.27-.44,1.38-.35.66.31-2.62-1.49.38,1.06-.38.02,1.22-.12,2.46.08,3.65.33,1.99,1.12,2.2,1.8.58.16-.39-.31-1.12-.62-1.61-.64-1.01-1.36-1.96-1.96-2.9Zm-140.58-61.4c.19-1.27.49-2.54.57-3.82.52-8.72-2.93-17.02-5.42-13.76-3.54,4.62.69,8.58,1.73,12.73.42,1.67,2.33,2.97,3.56,4.44-.39.5-.99.95-1.14,1.51-1.92,7.02-1.01,9.25,4.97,11.6.88.35,2.8.12,3.11-.45,2.21-4.01.3-7.42-2.43-10.21-1.15-1.17-3.28-1.37-4.95-2.04Zm336.89-29.17c-.68-3.84-1.19-7.73-2.16-11.49-.21-.8-2.15-1.69-3.18-1.57-.94.11-2.25,1.4-2.49,2.4-1.43,5.9-.83,6.7,7.19,11.25.81,4.65,4.98,5.59,8.33,7.19,3.46,1.65,7.13,3.03,10.84,3.97,2.76.7,4.98-.88,6.12-3.54,1.16-2.71-1.18-2.97-2.78-3.7-1.75-.8-4.12-1.15-5.13-2.51-5-6.72-10.87-3.89-16.74-1.99Zm-307.59-161.86c2.96,1.79,5.87,2.7,9.05.29,7.37-5.58,15.13-10.5,23.73-14.07,2.32-.96,5.53-2.69,4.75-5.57-1.19-4.43-5.2-1.9-8.08-2.1-1.97-.14-3.93-.38-5.89-.57.95-.9,1.75-2.08,2.87-2.66,4.01-2.08,6.86-5.24,4.08-9.4-5.36-7.99-6.42-18.57-14.39-24.59-2.49,4.71-5.02,9.2-7.24,13.84-1.13,2.36-2.07,5.4.29,7.23,1.03.8,3.76-.27,5.58-.88,1.77-.6,3.78-2.12,4.95.08,1.06,2-.87,3.38-2.5,4.5-5.59,3.84-10.22,8.43-11.95,16.39,6.79-.9,12.29-5.71,18.94-5.07-7.95,7.57-15.9,15.13-23.57,22.84.15,1.08.27,2.16.47,3.22.09.45.36.86.55,1.28.33-.85,1.15-1.95.88-2.5-.47-.94-1.62-1.53-2.49-2.27Zm71.03,14.51c-6.5.67-7.56,9.31-14.14,9.75-1.62-2.49-1.71-5.34-.44-7.58,2.27-4.02,5.4-7.54,7.75-11.51.83-1.41,1.19-4.21.36-5.19-1.04-1.23-3.71-2.03-5.35-1.65-8.33,1.95-16.03,5.41-24.13,11.25,6.76,8.85,11.17,18.31,15.41,27.86,1.22,2.75,3.54,4.18,6.12,1.79,3.36-3.11,11.95-19.22,13.97-25.2l1.32-.5-.86.99Zm-69.11,17.3c1.66-1.2,3.71-2.01,4.74-3.52,10.25-15.05,22.4-27.86,39.5-35.23.69-.3,1.31-2.36.95-3.1-.43-.89-2.08-1.9-3-1.74-12.86,2.27-23.44,9.33-32.77,17.75-6.37,5.75-10.84,13.5-11.31,22.65-.05.94,1.12,1.94,1.89,3.19Zm293.15,112.83c-.52-.76-1.62-3.55-2.57-3.5-3.4.18-3.14,3.54-3.27,5.85-.11,1.99,1.63,3.43,3.72,3.04,2.27-.43,2.44-2.43,2.11-5.39Zm-313.72-6.11c-.57,1.02-1.55,2.03-1.61,3.08-.06,1.1.76,2.25,1.19,3.38.57-1.03,1.55-2.03,1.61-3.09.07-1.1-.75-2.25-1.19-3.37Zm62.81,196.12c-1.12.35-2.59.41-3.22,1.17-.4.48.45,2.01.75,3.07,1.08-.49,2.34-.78,3.21-1.53,1.3-1.11.93-2.16-.73-2.71Zm-56.9-51.53c.65,1.02,1.28,2,1.91,2.99.64-.99,1.7-1.93,1.81-2.98.11-1.09-.52-3.15-1.14-3.27-2.51-.52-2.03,1.88-2.58,3.26Zm316.42-104.99c-.88.67-1.77,1.34-2.65,2,1.06.52,2.11,1.42,3.18,1.46,1.1.04,3.18-.8,3.17-1.22-.05-2.3-2.04-2.13-3.7-2.24Z"/>
  <path d="m254.67,582.39c-6.03,4.88-12.14,5.66-17.4-.77-6.69-8.18-14.28-16.04-19.02-25.3-6.6-12.9-6.09-27.52,0-40.36,3.29-6.93,4.9-13.31,5.14-20.61.5-15.2.3-30.53,7.06-44.78,1.17-2.47,2.32-4.87,4.96-5.78.9-.31,2.92.39,3.25,1.14.74,1.7,1.3,3.83.97,5.6-2.72,14.56.66,27.49,9.55,39.23,5.9,7.79,8.81,17.81,17.63,23.41.09,2.55.88,4.44,3.95,4.15-1.8,9.66,8.02,14.8,9.2,23.34.04.32,2.37.87,3.02.43.92-.63,1.86-2.14,1.77-3.19-.52-5.97-1.79-11.75-5.79-16.55-2.23-2.67-4.73-4.56-8.47-3.76.18-3.02-1.54-3.97-4.22-3.87,1.8-4.24,3.6-8.48,5.77-13.61,12.16,2.51,21.99,8.19,29.71,17.87,2.98,3.74,5.33,7.61,6.23,12.31,3.74,19.58,7.38,39.17,11.27,58.72,1.17,5.89-.41,10.44-5.03,14.08-1.57,1.24-3.07,2.55-4.68,3.73-10.2,7.47-21.34,13.14-33.19,17.49-8.6-5.01-17.25-9.93-25.77-15.07-2.84-1.71-5.79-3.6-7.89-6.08-4.36-5.17-8.77-3.93-14.27-2.09-4.7,1.58-6.7,4.04-6.26,8.5.52,5.26,1.6,10.47,2.36,15.71.76,5.27,1.75,10.53,2.03,15.83.54,9.99,5.29,15.85,15.27,17.69,2.4.44,4.54,2.31,8.12,4.22-4.83,4.29-9.31,1.61-13.19,2.23-2.58.41-4.99,2.15-4.97,5.36.01,2.5,2.09,2.96,3.98,3.09,3.32.24,6.66.19,9.98.36,6.52.33,10.64,2.44,9.11,4.64-2.31,3.33-5.77,2.38-8.91,2.65-1.99.17-4,.17-5.98.45-19.89,2.8-24.99,10.65-20.67,31.71,2.3.07,3.71-1.23,4.14-3.28,1.33-6.34,4.5-10.4,11.02-12.8,6.2-2.28,10.83-.7,16.65,1.25,9.14,3.06,14,8.73,17.99,17.09,3.78,7.9,3.08,13.87-2.85,19.79-1.4,1.4-2.51,3.11-3.72,4.7-1.51,1.98-4.17,4.55-.15,5.89,1.97.66,4.86-1.29,7.28-2.21.5-.19,1.05-1,1.1-1.56,1.38-14.75,9.03-29.54-.56-44.22-3.87-5.93-4.62-12.51-1.72-19.08,3.25-7.35,2.12-14.3-1.23-21.15-4.04-8.26-4.57-18.05-11.27-25.2-1.28-1.36-.78-3.85,1.05-5.23,1.65-1.25,3.48-1.64,5.44-.44,3.52,2.16,6.81,4.92,7.3,9.04,1.12,9.44,6.49,17.64,7.95,26.66,1.51,9.3,7.75,11.77,14.58,13.89,7.68,2.39,15.2,3.83,21.86-3.98,4.64-5.44,11.38-9.05,16.97-13.73,6.26-5.23,11.4-10.98,10.53-20.25-.36-3.87,1.34-7.76,4.74-10.56,2.04-1.68,3.57-3.96,5.53-5.75,5.72-5.25,9.85-13.14,8.21-19.23-1.84-6.86-11.09-8.31-18.45-9.45-13.41-2.09-16.04-4.63-16.7-17.03-.25-4.61.29-9.32.98-13.9.73-4.85.94-9.12-3.77-12.37-4.9-3.37-4.09-8.24-1.74-12.49,5.65-10.19,13.19-18.89,25.51-20.08,7.59-.73,12.04-3.14,14.52-10.59,3.21-9.6,9.45-17.59,16.52-24.72,8.44-8.51,17.34-16.55,25.86-24.97,3.51-3.48,7.81-4.95,12.34-6.12,6.58-1.71,12.45-.62,12.6,2.3.25,4.7-4.1,6.75-6.59,8.95-12.87,11.32-20.29,26.23-28.61,40.62-3.43,5.93-5.2,12.29-5.78,18.93-.68,7.87-1.67,15.57,6.07,21.79,4.58,3.68,5.58,10.38,6.32,16.46,1.19,9.82-.47,18.73-8.83,24.93-16.58,12.31-25.07,30.81-36.43,47.1-1.81,2.6-3.37,6.24-3.14,9.25.66,8.4-3.9,13.75-9.29,18.9-6.26,5.97-12.94,11.56-18.71,17.97-6.59,7.32-14.47,8.86-23.54,7.43-5.06-.8-10.1-1.65-15.72-2.57-2.57,12.87,3.51,24.05,4.32,35.79.09,1.29.9,2.5,1.24,3.79,6.24,24.04-6.68,37.63-30.89,32.09-3.76-.86-6.64-1.22-8.43,2.22-11.09,21.33-16.24,43.63-9.21,67.36,1.47,4.96,4.94,9.31,7.38,14.01.88,1.69,2.19,3.89-.29,5.11-1.56.77-4.41,1.32-5.39.48-5.98-5.17-12.65-9.7-16.53-17-3.76-7.07-7.39-14.13-8.98-22.1-4.45-22.26-8.39-44.53-3.09-67.23.78-3.33.21-6.15-1.3-9.42-8.71-18.86-7.7-32.2,4.16-47.97,3.49-4.65,4.59-9.33,5.06-14.69,1.56-17.59-2.83-34.4-6.57-51.3-1.14-5.18-2.71-10.3-3.35-15.54-.77-6.28,2.34-10.08,8.44-11.48,8.15-1.87,15.82-.5,23.23,3.24,10.19,5.14,19.29,11.7,27.34,19.81,2.75,2.77,6.17,4.88,9.32,7.31,6.38-4.57,11.14-10.31,18.74-12.08,7.7-1.79,9.6-8.42,10.57-15.25.18-1.26-.3-2.64-.55-3.94-3.52-18.9-6.77-37.86-10.7-56.68-1.7-8.12-6.15-14.63-15.41-15.95,0,0,.39-.39.39-.39,1.82,2.71,3.85,5.31,5.44,8.15,10.37,18.57,4.88,33.08-15.18,40.37-19.94,7.24-30.63,3.5-41.76-14.75-2.65-4.35-5-8.88-7.79-13.86-2.28,9.83-2.07,16.83,2.46,22.19,7.53,8.91,13.14,20.31,26.38,22.8.73.14,1.11,2.13,1.65,3.26l.36-.41Zm147.08-112.79c1.66-2.57,3.9-3.55,6.87-2.49-1.01-1.77-.61-1.49.32-.28-2.54,1.14-5.07,2.28-7.55,3.34l.9.5-.55-1.07Zm-174.45,331.98l-.45.81s.04-.51.04-.51c1.56-9.14,2.82-18.35,4.76-27.41,2.26-10.51,6.83-20.03,13.88-28.29,3.44-4.03,6.63-8.27,9.92-12.43,3.6-4.55,3.92-9.76,2.76-15.14-2.22-10.32-13.05-13.54-21.2-6.91-13,10.57-17.14,25.44-17.84,40.61-.66,14.41,2.24,28.99,3.67,43.49.27,2.76,1.63,4.95,4.46,5.79Zm124.62-266.97c.86-3.45,2.05-6.42-1.48-7.29-1.61-.4-3.79.75-5.49,1.63-6.27,3.24-8.86,9.66-12.6,15.06-2.29,3.31-1.16,6.25,1.58,8.72,7.82,7.07,14.65,15.22,23.57,21.1,1.67,1.1,1.43,3.53.15,5.34-.8,1.12-1.85.98-3.23-.08-4.21-3.22-8.5-6.35-12.72-9.55-2.09-1.58-4.38-3.62-6.68-1.07-1.14,1.27-1.2,3.7-1.36,5.64-.42,5.24,2.32,8.98,6.59,11.39,3.44,1.94,7.51,2.77,10.91,4.76,9.84,5.77,18.7,6.34,26.48-3.45,3.16-3.98,10.53-5.03,9.89-11.43-.8-8.02-9.11-6.03-13.97-8.08-6.89-2.91-13.82-5.25-16.89-12.64-2.77-6.66-5.88-13.41-4.75-20.05Zm-115.82-48.94c-5.12,17.91-5.97,34.52-2.33,45.94,3.05,9.58,8.32,18.02,16.15,24.5,4.71,3.9,12,3.86,16.61.51,3.95-2.87,5.51-8.53,3.91-14.37-.35-1.27-.62-2.63-1.29-3.72-10.38-16.68-20.81-33.33-33.04-52.86Zm155.08-2.27c-7.04.33-9.62,6.62-12.95,10.79-10.09,12.64-16.29,27.11-16.17,43.71.05,6.84,2.03,9.45,8.54,11.51,5.05,1.6,8.36-.33,7.71-5.08-2.47-17.83,1.9-34.16,10.08-49.8,1.75-3.34,4.17-6.64,2.79-11.13Z"/>
  <path d="m68.94,500.55c2.14-5.99,5.3-10.34,12.64-10.51,5.16-.12,10.62-.28,14.12-5.64,1.85-2.83,4.56-1.27,6.89.12,3.84,2.3,7.59,2.79,10.11-1.72,1.48-2.65-.35-5.03-1.6-7.38-1.56-2.92-3.85-2.94-6.68-2.32-3.16.69-5.19-.14-3.84-4.04.62-1.82,2.07-4.68,1.37-5.42-8.15-8.74-1.77-14.16,4.12-19.81.95-.92,1.65-2.09,2.57-3.06,14.94-15.69,34.99-13.37,46.31,5.37.26.43.25,1.27,0,1.7-.82,1.38-2.13,1.68-3.48.76-1.63-1.11-3.64-2.09-4.62-3.66-4.54-7.33-11.41-8.38-19.12-7.88-7.87.51-11.18,6.25-14.65,12.07-1.39,2.33-2.87,4.46-2.26,7.85,9.12,2.56,17.93,1.94,26.23-3.66,1.59-1.08,3.5-1.89,5.37-2.27,1.04-.21,3.06.49,3.31,1.23.33.98-.26,2.82-1.1,3.56-6.1,5.32-12.53,9.3-21.39,8.78-5.91-.35-7.79,4.06-5.01,9.36,4.15,7.94,13.23,10.22,19.83,4.3,3.93-3.53,6.66-8.37,12.85-8.38,2.69,0,5.34-.14,7.34,2.04,1.36,1.48,2.43,4.71.84,4.89-10.03,1.14-16.4,11.09-27.02,10.72-3.82-.13-5.84,2.67-5.28,6.68.84,5.95,3.94,8.77,8.97,8.07,2.63-.37,5.19-1.24,7.81-1.64,8.82-1.34,12.61-.61,11.24,2.16-2.28,4.62-6.53,3.59-10.36,3.91-3.32.27-7.23.16-8.99,3.33-4.2,7.57-12.06,6.8-18.51,7.92-7.79,1.36-15.69,1.77-23.41,4.54,8.49,12.91,9.4,13.67,19.49,7.27,5.53-3.51,10.63-4.6,16.83-3.94,7.86.84,15.27-4.75,23.33-2.04-.04.02.15,0,.15,0-8.76,2.8-16.86,7.53-26.7,7.04-3.5-.18-7.36,2.65-10.73,4.65-6.61,3.92-7.03,7.18-1.2,12.03,15.81,13.15,31.97,25.8,49.39,36.86,9.95,6.32,21.51,10.95,27.67,22.1.94,1.7,1.78,3.54,2.12,5.41.1.56-1.6,2-2.56,2.09-2.95.28-5.18-1.66-6.59-3.81-5.32-8.07-13.19-13.19-21.24-17.68-18.63-10.41-35.1-23.79-52.25-36.27-7.62-5.55-13.83-12.21-20.03-19.15-7.49-8.4-15.48-16.37-23.61-24.14-7.06-6.74-11.38-14.55-12.04-24.35-.36-5.29-1.11-10.56-1.35-15.86-.48-10.8-3.24-20.41-9.38-29.81-11.59-17.73-6.91-29.24,13.09-36.32,1.25-.44,2.58-.65,3.83-1.08,1.81-.62,3.83-1.39,4.51,1.16.24.9-.7,2.61-1.6,3.22-2.75,1.84-5.96,3.03-8.59,5.01-7.43,5.6-10,13.39-4.87,20.84,9.12,13.23,12.08,27.77,12.51,43.27.21,7.46,2.75,14.3,5.74,20.96,4.64,4.65,9,9.62,13.87,14.03,5.65,5.12,24.12.83,27.67-6.23.53-1.06.48-2.62.21-3.84-.91-4.16-3.32-7.82-7.64-7.96-11.73-.38-23.64-1.13-34.6,4.62Z"/>
  <path d="m989.72,180.09c-1.27-3.77-5.47-1.48-7.83-3.93-2.67-2.79-5-.22-4.89,2.66.3,7.96,1.44,15.88,1.73,23.84.14,3.91-.31,8.02-1.44,11.76-2.55,8.46-10.67,13.72-18.64,10.01-10.01-4.66-23.01-1.51-30.78-11.92-.46-.62-3.53.61-5.34,1.15-.54.16-.99.85-1.33,1.39-.92,1.45-.72,2.78.7,3.24,3.11,1.02,6.3,1.82,9.46,2.68,2.5.68,5.96.48,7.36,2.09,8.28,9.55,18.77,8.4,29.49,7.04,1.24-.16,2.59.26,3.84.6.47.13,1.12.8,1.12,1.23,0,1.22.16,3.03-.54,3.55-2.06,1.55-4.45,2.68-6.8,3.8-3.52,1.67-8.27,2.28-10.39,4.99-3.05,3.89,1.53,6.91,3.72,10.1,1.43,2.08-.48,3.4-2.36,4.09-2.39.87-4.49,2.59-7.48,1.22-2.95-1.35-6.18-2.43-9.38-2.82-9.03-1.09-15.47-5.15-19.94-13.42-5.13-9.52-13.25-14.67-24.71-12.87-2.09.33-3.68-1.1-4.27-3.19-.8-2.84-.05-6.32,2.33-6.94,9.25-2.43,15.43-9.59,23.2-14.24,1.23-.73,2.1-3.73,1.6-5.13-.39-1.09-3.28-2.03-4.88-1.81-9.2,1.27-18.33,2.97-27.52,4.33-.88.13-2.64-.99-2.8-1.77-.21-1,.52-2.52,1.32-3.35,2.44-2.49,5.63-3.3,9.05-3.57,5.97-.48,11.92-1.08,17.88-1.65,4.05-.39,5.72-2.8,5.45-6.68-.4-5.89.16-12.4-8.43-13.19-.57-.05-1.48-2.17-1.29-3.15.21-1.08,1.43-2.72,2.33-2.8,11.88-1.04,23.6-2.54,33.86-9.4l-.75.75c.96-.5,2.55-.81,2.77-1.53.63-2.1-1.03-2.81-2.76-3.2l.75.68c3.98-6.75,10.3-3.93,15.6-3.15,2.49.37,4.63,2.63,3.69,7.29-1.21,5.95,6.33,10.18,9.15,5.88,5.64-8.61,6.42-.34,9.97,1.13,7.03,2.91,1.23,12.04,8.12,14.19h.05Zm-76.46,48.61l.32-1.16-.73.75c2.43,1.98,4.96,3.85,7.25,5.97,1.83,1.7,3.39,3.75,6.2,2.08.42-.25.58-1.13.67-1.74.43-2.79-.67-4.93-3.06-6.29-3.6-2.05-7.21-2.07-10.65.4Zm51.35-55.79c-3.1,9.58-6.6,17.87-11.57,25.42-2.23,3.39-3.45,7.18-2.95,11.18.21,1.67,1.36,3.83,2.74,4.66,8.27,4.93,17.03.88,18.6-8.3.66-3.87,1.83-7.68,2.19-11.56.75-8.08-.78-15.4-9.02-21.39Zm-35.19,26.13c5.53-11.88,14.33-20.73,24.76-32.52-10.18,2.45-17.07,4.06-23.93,5.79-2.62.66-5.01,1.94-5.41,4.91-.95,7.08-2.44,14.31,4.58,21.82Zm18.2,43.67c.01-4.69-3.1-7.68-8.74-8.41-3.1-.41-5.53,2.32-5.49,6.18.05,5.58,2.9,8.52,8.23,8.38,3.95-.1,5.49-2.64,6.01-6.14Z"/>
  <path d="m307.86,337.01c-13.07,13.15-26.58,19.86-35.44,31.77,3.03,2.62,4.98.48,7.14-.97,11.07-7.39,21.89-15.05,32.24-23.49,7.52-6.14,16.16-10.95,24.46-16.08,3.58-2.22,6.83.15,8.43,2.89,2.65,4.54,4.27,9.68,6.41,14.53,2.3,5.22,1.86,6.23-3.73,8.79-2.4,1.1-5.01,1.74-7.36,2.91-2.55,1.27-2.63,4.9-.08,6.48,2.22,1.37,4.83,2.08,7.13,3.33,3.72,2.02,3.61,5.54,2.22,8.62-3.18,7.06-9,11.38-16.27,13.69-1.11.35-2.97.14-3.75-.59-1.89-1.79-.2-3.41,1.12-4.54,1.49-1.28,3.41-2.07,5-3.26,2.65-1.99,6.42-4.6,4.82-7.77-1.94-3.84-5.14-7.17-11.27-5.12-4.59,1.54-5.31.41-5.05-6.53.2-5.34-4.17-5.87-7.09-7.89-.8-.55-2.79-.21-3.74.44-3.12,2.15-3.37,5.47-2.76,8.88,1.26,6.98,8.53,9.89,11.2,15.85-2.57,3.02-4.84,1.3-7.13.11-3.66-1.91-5.9-5.2-8.47-8.27-4.9-5.84-5.09-5.71-13.16-1.93-1.19.56-2.24,1.41-3.97,2.52,2.06,11.06,12.53,15.95,18.58,24.1-2.97,4.71-5.63,1.23-7.73-.4-5.75-4.46-11.14-9.38-16.8-13.96-1.93-1.56-3.77-.11-5.31,1.13-1.68,1.35-2.34,3.19-1.59,5.3,2.54,7.16,9.23,11.17,13.52,16.91-3.16,3.72-6.1,2.49-8.73.29-2.02-1.69-3.63-3.88-5.48-5.79q-6.97-7.19-16.18-1.58c-1.03.63-2.57,1.94-3.07,1.64-1.97-1.22-1.5-3.38-1.27-5.38.5-4.39,6.43-6.47,5.41-12.09-9.56,5.14-13.88,15.74-24.63,20.75,3.65-18.2,15.7-28.83,27.69-38.86,12.46-10.42,23.83-23.23,44.67-26.4Zm16.41,10.08c-.58,1.62-.04,2.47,1.48,2.99,4.66,1.58,9,.37,13.17-1.56.97-.45,2.22-2.09,2.04-2.9-.39-1.74-1.21-4.14-2.56-4.79-5.47-2.63-12.13.54-14.13,6.26Z"/>
  <path d="m104.49,388.38c7.84,3.42,16.08-.71,24.55-1.25,13.16-.83,26.48.61,39.73,1.33,6.64.36,13.24,1.28,19.86,1.9,14.78,1.4,27.38-2.12,37.58-14.01,6.01-7.01,13.34-12.85,18.99-20.38,8.56-11.42,20.73-18.59,32.85-25.61,4.02-2.33,8.32-4.17,12.46-6.29,6.86-3.52,11.23-8.72,13.28-16.48,1.45-5.5,1.21-12.25,7.53-15.62,1.85-.99,3.58-1.38,5.47-.33,1.4.78,1.54,1.85.84,3.39-1.09,2.41-2.34,4.84-2.9,7.39-3.86,17.62-14.57,28.74-30.86,36.32-13.88,6.45-25.16,16.49-34.56,29.27-8.15,11.07-18.51,20.73-30.85,27.81-7.91,4.54-16.02,5.99-24.93,4.64-11.8-1.79-23.61-3.93-35.49-4.66-11.19-.69-22.56-3.03-33.74.84-2.45.85-5.48,1.43-7.88.79-10.26-2.75-19.64.2-29.09,3.49-1.2.42-2.6.51-3.88.41-2.15-.16-3.83-1.33-4.02-3.54-.09-1.01.58-2.71,1.37-3.08,7.22-3.41,14.52-6.7,23.71-6.34Z"/>
  <path d="m1102.84,394.23c-1.91.22-3.83.36-5.74.66-4.56.71-6.09,3.18-3.4,6.01,2.22,2.35,5.26,3.92,8.68,6.37-7.82,4.9-11.37-1.83-16.19-1.61-1.2.06-2.72.42-3.44,1.22-.53.59-.4,2.42.14,3.2,1.86,2.63,4.21,4.93,5.98,7.62.46.69-.15,2.7-.91,3.4-.7.64-2.28.48-3.44.38-.51-.05-1.03-.78-1.41-1.3-3.14-4.4-6.06-4.94-8.02.78-1.81,5.27-3.81,4-6.25.58-.76-1.07-1.61-2.07-2.42-3.1.93-.66,1.93-1.24,2.75-2.02.18-.17-.34-1.49-.45-1.48-2.59.29-1.89,2.25-1.89,3.87-1.21.21-2.45.28-3.6.66-1.15.38-2.2,1.06-3.3,1.6-.27-1.08-1.02-2.31-.73-3.21,1.02-3.09,2.58-6,3.53-9.11.32-1.05-.19-2.99-1-3.61-1.95-1.48-3.26.31-4.57,1.62-.93.93-1.93,1.83-3.02,2.55-.48.32-1.62.45-1.85.17-.66-.79-1.65-2.33-1.36-2.72,4.83-6.45,2.42-11-3.46-15-2.7-1.84-5.1-4.12-8.74-7.12,7.37-2.8,10.12,2.87,14.13,4.83,2.69,1.31,4.99,1.38,7.18-.82,2.11-2.13,2.71-4.9,1.26-7.24-2.75-4.47-6.19-8.52-9.07-12.92-.52-.79.28-2.43.47-3.68,1.18.28,2.6.23,3.48.9,2.08,1.6,3.77,3.7,5.88,5.24.78.57,2.74.6,3.37.02.82-.75,1.24-2.39,1.14-3.59-.68-7.84-8.76-11.2-11.76-19.08,7.09-.92,8.7,6.95,13.98,7.55,3.12-5.32-2.6-6.56-4.58-9.35-1.53-2.16-4.14-4.02-1.23-6.37,1.91-1.55,3.44.98,4.91,2.16,2.05,1.64,3.87,3.01,7,2.14,4.83-1.34,9.87-1.9,14.63-2.76,3.12,5.53-1.62,9.22-1.93,13.66-.2,2.84.66,5.35,3.46,6.49,3.65,1.48,4.02-2.12,5.63-3.89.82-.9,2.09-1.38,3.59-2.32.54,1.92,1.85,3.96,1.39,5.43-2.34,7.4-.76,12.85,6.37,16.63,1.33.7,1.71,3.19,2.53,4.85l.11-.11c-4.44,3.08-10.39-5.37-13.81,1.29-2.62,5.09,6.5,5.76,5.57,10.92,0,0,.4-.38.4-.38Zm-21.83-12.74c-1.39,4.2-2.39,5.82-2.31,7.39.08,1.65.57,4.14,3.36,3.08,1.76-.67,3.19-2.19,2.6-4.19-.51-1.72-1.81-3.2-3.65-6.29Zm9.84-7.94c-.48-1.75-.95-3.74-3.52-3.03-1.89.52-3.45,1.6-2.9,3.94.44,1.89,1.35,3.66,3.7,3.24,2.11-.38,2.76-2.08,2.72-4.14Z"/>
  <path d="m791.96,371.85c5.08,7.84,2.13,16.6,2.93,25.97-7.13-1.04-9.96-6.7-11.39-11.64-1.89-6.53-5.55-12.05-7.85-18.2-4.89-13.07-7.68-26.99-5.99-40.73,1.24-10.09-4.1-19.72-.44-29.56,9.53-3.18,17.47-8.91,24.91-15.47.96-.84,2.2-1.69,3.4-1.83,1.12-.14,2.69.33,3.43,1.12.73.79,1.3,3.04.87,3.42-5.47,4.83-10.98,9.63-16.79,14.04-3.76,2.85-7.64,5.54-9.28,10.09-.57,1.59-.23,4.07.69,5.51,1.21,1.9,3.58,1.36,5.15.07,5.62-4.63,11.07-9.48,16.7-14.11,1.26-1.04,2.78-.55,3.28.87.4,1.15.76,2.7.3,3.68-.83,1.75-2.15,3.34-3.52,4.75-3.7,3.82-7.15,8.03-11.39,11.16-10.01,7.4-12.53,16.53-7.86,28.1,4.7,2,6.97-1.88,9.41-4.49,5.64-6.04,5.21-16.97,15.73-19.31,1.05-.23,2.01-3.4,2.05-5.22.2-10.81,3.3-20.92,6.51-31.11,1.55-4.93,1.46-10.35,2.4-15.5.14-.79,1.86-1.79,2.85-1.79,1.06,0,2.57.81,3.09,1.72,2.13,3.76,1.29,7.91.14,11.61-5.35,17.21-7.08,35.22-11.68,52.53-2.48,9.35-1.73,19.08-4.36,29.72-5.42-8.52-.16-17.18-4.64-24.64-11.35,7.58-12.8,17.7-8.38,29.5-1.57-.89-3.08-1.71-4.64-2.49-.94-.09-2.01-3.18-2.69.21,1.07-.26,2.15-.52,3.22-.79-.23,1.19-1.07,2.83-.58,3.49,1.59,2.13,2.91-.53,4.45-.69Z"/>
  <path d="m313.38,434.94c14.4,3.94,24.23-3,32.32-13.75,1.97-2.62,3.23-5.76,4.95-8.58,1.42-2.34,3.4-4.57,6.34-3.64,2.71.85,3.01,3.12,2.8,6.17-.27,3.8,3.51,5.4,6.08,3.13,1.45-1.28,3.43-2.53,3.99-4.19,3.34-9.92,10.03-18.77,9.35-30.04-.14-2.38,1.25-5.19,2.74-7.21.89-1.21,3.33-1.57,5.11-1.68.59-.04,1.89,1.91,1.86,2.92-.16,4.61-.54,9.23-1.1,13.81-2.7,21.96-20.09,42.24-41.62,47.83-14.72,3.82-29.48,7.41-45.05,5.28-9.71-1.32-18.03,3.18-25.77,8.69-2.62,1.86-5.4,3.49-8.18,5.1-.42.24-1.53.04-1.78-.33-.65-.96-1.7-2.52-1.35-3.15,1.57-2.82,3-6.28,5.52-7.91,10.05-6.53,20.51-12.37,33.31-10.41,4,.61,7.95.76,11.12-2.47l-.61.42Z"/>
  <path d="m1012.08,293.48c-.51.53-1.04,1.47-1.41,1.41-1.22-.2-2.5-.57-3.56-1.21-16.83-10.21-34.41-15.42-54.57-11.92-20.93,3.63-39.2-3.2-54.52-18.01-2.33-2.26-5.52-3.6-8.15-5.58-6.97-5.25-12.33-11.74-15.64-19.94-2.48-6.14-5.2-12.19-8.09-18.15-4.1-8.46-4.5-8.54-13.54-7.08-3.25.52-6.53,1.27-9.79,1.2-1.76-.04-4.5-1.17-5.03-2.5-1.51-3.82,1.85-3.76,4.3-4.1,2.63-.37,5.27-.64,7.9-1.01,3.76-.54,7.23-4.08,11.3-1.35,3.9,2.61,7.26,5.82,9.25,10.18.82,1.81,1.51,3.7,2.04,5.61,5.54,19.97,20.39,31.66,36.89,42.09,14.05,8.87,28.8,13.53,45.42,9.33,19.8-5,36.11,4.28,52.52,12.89,2.96,1.56,4.58,4.66,4.65,8.16Z"/>
  <path d="m890.55,628.33c3.97-3.11,7.3-1.86,9.9,1.79,2.53,3.54,2.19,6.98-.35,10.76-2.94,4.37-9.37,5.08-10.77,10.86-.02.02.6-.67.57-.64-3.78-1.29-6.1,1.82-9.09,2.89-4.18,1.5-7.32-.18-6.83-3.79,4.1-30.09-3.71-59.18-7.25-88.63-.39-3.26-.42-6.61-.17-9.88.12-1.63.46-4.14,3.21-3.46,1.09.27,2.45,1.27,2.83,2.27,2.4,6.3,2.25,12.97,2.57,19.59.31,6.51-1.33,13.32,2.45,19.38,7.36-.56,11.58-7.29,18.56-9.03,3.55,8.53-5.99,10.52-8.06,16.14,1.08.6,2.19,1.77,3.23,1.72,12.28-.64,12.16-.17,9.89,10.87-1.62,7.86-7.06,9.87-12.98,12.3-2.28.94-5.48,1.8-4.33,5.15,1.15,3.35,4.77.3,6.8,1.8-2.93,2.63-5.91,5.14-8.56,7.98-.52.56-.09,2.67.6,3.46.51.59,2.31.6,3.25.2,5.42-2.32,4.13-7.36,4.52-11.71Zm1.63-21.07c-2.39,1.18,1.49,2.05-1.03,1.19-.45-.15-1.18-.58-1.16-.83.12-1.44,1.03-1.84,2.42-1.14-1.27.82-1.56-.26-.76-.28,2.63-.09-.54-1.38.53,1.06Z"/>
  <path d="m379.88,328.83c5.42,6.64,10.92,13.22,16.18,19.98.96,1.24,3.11,3.53.16,4.76-1.45.6-3.75,0-5.34-.76-2.33-1.1-4.98-4.53-6.45-4.01-12.07,4.27-12.54-3.54-14.65-11.94-1.57-6.22-3.76-12.36-5.1-18.74-2.26-10.75-5.83-20.53-18.74-22.76-1.75-.3-3.03-2.73-1.88-4.79,1.41-2.52,3.88-3.73,6.65-2.5,6.28,2.78,9.59,8.94,14.53,13.25.9.79,2.43,1.48,3.52,1.31,2.13-.34,2.91-2.27,3.17-4.26.17-1.31.16-2.64.22-3.96.18-3.58-1.73-8.97,5.02-7.7,5.06.95,2.51,5.06,2.02,7.98-.46,2.74,0,5.15,1.3,7.59,2.8,5.23-.23,7.24-4.83,7.8-3.4.41-4.82,2.34-3.88,5.18.94,2.84,3.68,3.43,6.51,2.58,1.26-.38,2.53-.81,3.69-1.43,1.4-.75,3-.76,3.4.7.45,1.66.48,3.89-.3,5.33-1.23,2.28-3.29,4.1-5.21,6.37Z"/>
  <path d="m547.74,413.06c-2.64-7.36-9.53-10.67-14.8-15.54-2.39-2.21-5.7-3.89-6.02-7.55-.16-1.78.77-3.66,1.2-5.49,1.18.29,2.73.19,3.48.92,6.65,6.43,13.95,12.4,19.51,19.69,7.89,10.34,17.19,16.28,30.23,14.22.87,4.37-.95,7.24-2.23,10.25-1.52,3.58-4.14,4.88-7.88,3.74-.63-.19-1.26-.44-1.82-.79-14.71-9.36-26.29-2.75-37.15,7.31-3.89,3.6-7.49,7.51-11.41,11.07-1.3,1.19-3.28,2.66-4.95.65-1.3-1.56-1.51-3.48.31-5.21,7.64-7.3,15.21-14.66,23.59-22.76-.03-5.75-10.42-3.39-11.06-10.45,6.31-2.9,12.65,4.68,18.99-.04Z"/>
  <path d="m861.59,412.63c2.63,12.2,5.49,24.36,7.85,36.62,3.67,19.03,10.79,37.01,16.36,55.47,1.19,3.94,3.31,7.2,6.14,10.13,2.45,2.53,2.87,5.82,3.3,9.18,1.1,8.69.13,12.6-3.15,11.49-4.62-1.57-4.01-6.13-5.78-9.43-8.9-16.53-13.13-34.69-19.1-52.22-6.67-19.59-10.19-39.74-5.62-61.22Z"/>
  <path d="m338.62,234.67c-.67,0-1.41.2-1.99-.03-10.97-4.3-22.04-.8-33.09-.65-11.65.16-22.43,2.55-32.25,8.87-3.47,2.23-7.06,3.56-11.31,2.74-14.86-2.87-28.94-.31-42.46,6.22-1.81.87-3.91.8-4.58-1.45-.25-.84.82-2.48,1.72-3.19,6.31-4.95,12.6-9.52,21.54-8.57,6.58.7,13.31-.14,19.96-.05,4.09.05,7.78-.69,11.48-2.61,11.95-6.21,24.9-7.88,38.16-9.74,11.3-1.59,22-.97,32.97.3,1.27.15,2.69.55,3.65,1.32.92.74,1.78,2.08,1.84,3.2.05.9-.95,2.2-1.83,2.72-1.08.64-2.53.65-3.82.95Z"/>
  <path d="m698.62,318.15c-5.6,6.82-4.97,14.76-4.49,22.85.2,3.39,1.8,10.36-6.13,5.44-3.8,3.33-4.01,8.26-4.96,12.59-1.37,6.27-4.22,9.77-10.01,13.4-8.26,5.17-14.62,13.39-21.8,20.29-1.9,1.83-3.72,3.79-5.87,5.28-.58.4-2.29-.62-3.34-1.22-.41-.23-.6-1.12-.61-1.72-.11-3.71,2.31-6.13,4.66-8.46,8.5-8.45,16.56-17.45,25.81-24.98,5.47-4.46,6.97-9.12,6.67-15.44-.19-3.95.2-7.92.33-11.89,0,0-.43.38-.43.38,3.7-.2,9.48,3.43,8.71-4.94-.17-1.88.55-3.87,1.03-5.77,1.5-6.02,5.88-6.15,10.77-5.17l-.33-.64Z"/>
  <path d="m195.03,497.38c-.73,1.31-.94,2.05-1.43,2.41-.35.26-1.26.23-1.61-.06-1.5-1.22-3.18-2.38-4.28-3.93-7.78-10.99-12.51-23.44-16.33-36.18-3.49-11.66-8.67-22.19-16.8-31.33-2.54-2.85-10.93-4.51-5.29-9.66,3.14-2.87,8.15,3.09,10.85,6.55,8.61,10.99,15.96,22.93,20.83,35.98,3.72,9.97,6.77,20.11,12.4,29.28,1.28,2.09,1.23,5.01,1.66,6.94Z"/>
  <path d="m718.82,278.48c-.15,1.99-.17,4.08-.84,5.91-7.19,19.72-4.02,39.17,1.27,58.6.69,2.54,1.38,5.13,1.57,7.73.06.79-1.57,2.42-2.42,2.41-2.64-.03-.05,2.05-1.87.09-4.45-4.8-5.02-12.34-11.29-15.95-.72-.42-.87-2.46-.72-3.68,2.26-18.97-.16-38.47,6.63-56.94.99-2.7,2.05-5.43,5.05-4.71,2.94.7,2.82,3.93,2.62,6.54Z"/>
  <path d="m1131.55,407.07c10.07,1.19,14.9,7.41,12.46,17.55-1.18,4.91-.51,8.75,1.25,13.29,2.39,6.16-1.59,9.84-8.25,8.51-4.95-.98-8.68-3.45-9.71-8.65-1.41-7.11-2.71-14.25-3.73-21.42-.7-4.94,3.72-9.79,7.98-9.28Zm3.11,8.84c-.52-.18-1.04-.36-1.56-.54-.14.44-.27.88-.41,1.31.5.14,1.02.4,1.51.36.18-.02.31-.73.46-1.13Z"/>
  <path d="m325.01,278.39c-.47.36-.9.95-1.43,1.05-5.68,1.13-12.3-5.78-16.81.15-5.78,7.62-14.9,14.11-13.32,25.54.79,5.72-2.59,4.72-5.82,4.47-3.9-.3-6.11-2.48-6.03-6.34.04-1.92.62-4.1,1.67-5.7,5.44-8.31,10.76-16.74,16.8-24.6,5.21-6.78,8.25-7.11,15.38-3.32,2.92,1.55,5.7,3.43,8.33,5.45.79.61.85,2.17,1.24,3.3Z"/>
  <path d="m859.32,242.15c-9.79-1.71-9.52-10.12-15.67-12.82-8.4,7.31-14.93,16.33-21.17,25.65-.82,1.22-3.35,1.67-5.12,1.76-1.69.09-3.25-5.15-1.93-6.79,7.42-9.2,14.7-18.53,22.57-27.34,3.42-3.83,9.27-2.82,11.94,1.56,3.02,4.97,5.43,10.31,9.38,17.97Z"/>
  <path d="m421.17,328.33c1.2.52,2.91.69,3.54,1.61,5.72,8.32,6.77,18.15,8.46,27.74.2,1.15-.56,2.59-1.18,3.73-5.05,9.39-14.29,15.15-20.53,23.52-.19.25-1.27.07-1.76-.21-.54-.31-1.3-1.04-1.23-1.46.31-1.91.46-4.05,1.45-5.61,2.82-4.47,6.02-8.7,9.08-13.02,4.92-6.94,6.87-13.96,2.35-22.16-1.81-3.29-1.93-7.57-2.45-11.45-.1-.78,1.47-1.78,2.27-2.68Z"/>
  <path d="m689.85,359.96c1.17.21,2.87-.02,3.49.7,3.44,4,6.45,8.38,9.94,12.33,7.83,8.88,14.6,18.86,25.51,24.59,1.67.88,3.08,2.53,4.15,4.13.52.78.42,2.65-.18,3.34-.71.81-2.62,1.56-3.41,1.16-11.96-6.03-21.91-14.59-30.16-25.06-4.08-5.17-7.82-10.64-11.31-16.23-.98-1.56.2-3.73,1.98-4.97Z"/>
  <path d="m750.77,362.52c2.92-.32,5.25.91,6.81,3.18,5.96,8.68,11.89,17.38,17.64,26.21,5.75,8.83,11.31,17.78,16.83,26.75.56.92.86,2.79.32,3.45-1.7,2.1-3.62.77-4.83-.69-3.8-4.59-8.26-8.92-10.87-14.14-7.44-14.9-16.54-28.48-28.05-40.5-.48-.5.15-2.25.54-3.32.16-.45,1.05-.63,1.6-.93Z"/>
  <path d="m295.7,657.41c-.78-.74-1.49-1.1-1.68-1.64-.39-1.09-.62-2.28-.62-3.44,0-.3,1.06-.75,1.68-.88,9.52-1.98,14.3-8.72,17.36-17.2.89-2.48,1.65-5.01,2.64-7.45,1.27-3.13,2.95-6.09,6.98-5.65,3.46.38,6.32,2.16,7.42,5.61.71,2.23,2.07,6.09-1.8,5.93-5.62-.24-6.29,3.8-8.01,7.06-4.15,7.91-10.28,13.61-18.56,16.87-1.73.68-3.77.57-5.4.78Z"/>
  <path d="m511.84,301.46c2.33,2.85,3.91,6.51,8.04,7.4l.07-.5c-8.42,5.64-8.07,16.1-13.1,23.59-.51.76-2.49,1.28-3.29.89-.94-.46-1.86-2.04-1.85-3.12.02-1.87.56-3.81,1.24-5.59,1.11-2.89,4.22-5.08,2.93-8.84-3.01-2.56-6.11-.82-9.25-.21-1.86.36-3.93.83-5.66.35-2.73-.76-4.04-2.91-3.65-5.98.38-3.07,1.2-5.06,4.83-3.29,1.74.85,3.6,2.14,5.37,2.09,5.98-.18,11.73-1.31,14.89-7.28-.06.05-.58.5-.58.5Z"/>
  <path d="m670.79,435.58c-1.03-.74-2.71-1.29-2.94-2.21-3.01-11.65-3.47-23.49-2.25-35.42.13-1.3.51-2.6.98-3.82.74-1.91,2.01-3.13,4.28-3.29,3.02-.21,3.21,2.12,3.14,3.84-.43,10.57-1.06,21.14-1.72,31.7-.2,3.1,1.59,6.56-1.49,9.21Z"/>
  <path d="m271.25,583.28c8.78-.13,16.7-.53,19.13-10.23.22-.86,3.46-1.68,5.04-1.33,2.96.65,3.67,3.46,3.23,6.08-.91,5.45-3.54,9.68-9.21,11.46-6.2,1.94-9.22,1.1-18.19-5.98Z"/>
  <path d="m146.97,547.52c.65.09,1.52-.05,1.92.32,10.01,9.23,20.05,18.45,29.84,27.91.99.96,1.09,3.67.54,5.2-.82,2.32-7.82,2.44-8.63.04-3.35-10.02-11.81-15.33-19.08-21.79-1.95-1.73-3.68-3.74-5.3-5.78-.78-.98-1.17-2.31-1.53-3.54-.12-.43.28-1.15.65-1.53.4-.4,1.04-.56,1.58-.82Z"/>
  <path d="m723.32,336.09v-32.3c10.84,11.2,5.59,21.86,0,32.3Z"/>
  <path d="m870.84,155.34c.75,0,1.96-.11,1.99.02,1.62,7.88,10.17,9.81,13.66,15.99,1.18,2.09,3.97,4.61,1.94,6.86-2.61,2.88-4.61-.23-5.85-2.23-3.81-6.18-11.88-8.66-13.91-16.24-.28-1.06.3-2.43.73-3.56.16-.43,1.01-.6,1.45-.84Z"/>
  <path d="m739.73,303.92c0,3.19.45,6.46-.09,9.55-1.16,6.56,4.99,13.93-2.17,19.79-4.25-6.53-2.36-13.91-2.8-20.94-.2-3.13-.05-6.42,5.06-8.4Z"/>
  <path d="m391.41,438.52c2.68-6.27,5.45-11.13,4.8-17.05-.29-2.64,2.41-5.04,5.04-4.59,3.08.52,2.96,3.77,2.95,6.4-.03,7.91-2.66,13.68-12.79,15.23Z"/>
  <path d="m166.77,550.35c-8.59-3.6-10.34-12.77-15.28-19.3-.94-1.25,1.1-4.76,1.8-7.25.03-.02-.16.01-.11,0-.01,4.75,4.05,6.6,6.88,9.1,5.45,4.83,7.65,10.59,6.43,17.71l.28-.26Z"/>
  <path d="m733.22,426.14c6.36.04,10.21,4.16,13.61,8.95.85,1.2.54,2.36-.87,3.17-.51.29-1.24.5-1.79.39-6.03-1.27-9.29-6.2-13.25-10.19-.14-.15.23-1.04.58-1.38.41-.4,1.03-.58,1.73-.94Z"/>
  <path d="m624.47,444.52c10.23,2.97,13.16,11.31,16.13,19.59.09.25-.79,1.05-1.35,1.28-.52.22-1.37.27-1.79-.02-.98-.69-2.03-1.48-2.61-2.48-3.53-6.08-6.93-12.24-10.38-18.36Z"/>
  <path d="m943.14,158.05c-6.51,2.62-12.99.25-19.46-.19-2.37-.16-3.43-2.49-2.62-4.07.69-1.34,3.21-2.72,4.7-2.51,5.84.82,11.59,2.26,17.38,3.48,0,0-.75-.68-.75-.68,0,1.58,0,3.15,0,4.73l.75-.75Z"/>
  <path d="m745.74,276.08c-.37.55-.62,1.4-1.13,1.6-7.76,3.03-13.49-2.05-19.7-5.11-.09-.04.15-1.12.48-1.52.4-.49,1-.99,1.59-1.12,6.84-1.55,12.09,3.71,18.42,4.43.18.02.23,1.13.34,1.73Z"/>
  <path d="m993.44,307.05c-.45.46-.93,1.33-1.36,1.31-6.31-.3-10.65-3.77-13.81-8.94-.2-.33.16-1.22.51-1.62.36-.41,1.11-.83,1.58-.72,5.24,1.2,9.14,4.65,13.02,8.07.32.29.04,1.26.06,1.91Z"/>
  <path d="m26.9,354.75c5.81-8.44,12.86-15.07,23.66-16.23l-.37-.4c-5.34,9.12-14.16,13.16-23.66,16.21l.37.43Z"/>
  <path d="m989.67,180.09c1.17,8.62-3.04,16.07-5,25.92-4.29-11.23-1.35-18.95,5.05-25.91,0,0-.05,0-.05,0Z"/>
  <path d="m893.72,154.42c1.25.18,2.65.09,3.72.63.95.48,2.05,1.61,2.15,2.55.11,1-.62,2.65-1.45,3.07-1.61.81-3.54,1.21-5.37,1.33-2.61.18-5.15-.36-5.75-3.51-.75-3.99,2.6-3.44,4.8-4.06.59-.17,1.26-.03,1.9-.01Z"/>
  <path d="m810.46,586.57c6.62,5.23,9.2,12.07,8.07,20.37,0,0,.5-.51.5-.51-5.31-5.69-12.73-10.52-8.1-20.19l-.47.33Z"/>
  <path d="m1140.66,396.25c2.73-2.13,5.66-2.19,7.53-.52,2.28,2.04,3.7,5.06,5.37,7.73.17.26-.37,1.38-.76,1.5-1.08.31-2.77.85-3.32.34-3.08-2.85-5.89-5.98-8.82-9.05Z"/>
  <path d="m711.21,424.38c-6.7,3.05-11.67,4.12-18.1.48,5.96-3.2,11.06-2.37,18.1-.48Z"/>
  <path d="m313.99,434.52c-1.68-.71-3.99-.98-4.88-2.24-1.25-1.79.29-3.84,1.86-4.97,3.6-2.59,7.45-1.74,12.08.06-1.38,5.02-7.6,3.94-9.65,7.56-.02,0,.59-.41.59-.41Z"/>
  <path d="m1129.2,459.58c7.68-.11,11.52,1.46,17.39,7.11,0,0,.3-.45.3-.45-.89,2.08-1.75,4.2-4.46,4.44,0,0,.38-.34.38-.34-7.33-.22-8.56-7.58-13.05-11.13l-.55.38Z"/>
  <path d="m875.23,529.91c-6.48.5-8.04-5.25-11.11-8.96-.54-.66-.21-2.42.25-3.43.57-1.26,1.59-.67,3.02.19,4.83,2.93,7.75,6.79,7.38,12.65.01-.01.46-.45.46-.45Z"/>
  <path d="m81.44,324.72c-1.4-3.02-1.61-5.58,1.51-7.99,3.31-2.55,7.56-4.27,8.97-8.8l-.12-.24c1.09,2.89,2.06,5.37-1.4,7.9-3.4,2.49-6.03,6.04-9,9.13,0,0,.03,0,.03,0Z"/>
  <path d="m275.66,323.73c-.34,3.02-2.49,4.09-5.14,4.16-2.3.06-3.68-1.83-3.01-3.65.57-1.53,2.49-3.05,4.13-3.57,2.01-.64,3.33,1.09,4.02,3.06Z"/>
  <path d="m50.56,338.52c2.12-4.93,6.91-6.62,11.07-9.07.04.05-.39-.41-.39-.41-.99,6.81-2.53,8.07-11.06,9.08,0,0,.37.4.37.4Z"/>
  <path d="m126.7,286.41c-2.74,4.51-6.77,6.99-11.98,7.63,0,0,.48.5.48.5,1.91-5.68,5.93-8.15,11.83-7.76,0,0-.32-.38-.32-.38Z"/>
  <path d="m91.92,307.94c3.26.38,5.9-1.04,8.36-2.93,2.02-1.56,4.21-2.33,6.75-1.69-.01-.02-.47-.46-.47-.46-3.79,4.89-7.73,9.33-14.7,4.9-.05-.06.07.18.07.18Z"/>
  <path d="m515.21,483.83c-.05.44.07,1.13-.17,1.3-2.33,1.59-4.89,1.5-7.33.48-1.92-.81-1.79-2.01.23-2.54,2.47-.65,5.02-1.12,7.27.77Z"/>
  <path d="m260.19,418.11c-1.19-.49-2.79-.66-3.47-1.55-.95-1.23-.21-2.88,1.34-3.05,1.06-.12,2.58.59,3.29,1.43,1.07,1.27.44,2.54-1.16,3.17Z"/>
  <path d="m954.02,378.37c3.03.58,6.45-.49,9,2.15-2.56,2.68-5.94,1.58-8.99,1.96,0,0,.58.48.58.48.01-1.69.02-3.38.03-5.07l-.62.48Z"/>
  <path d="m718.38,202.54c2.01.66,2.92,1.92,1.76,3.9-.78,1.34-2.87,2.22-1.07,4.19.03,0-.18.1-.18.1-.02-2.82-.04-5.65-.06-8.47,0,0-.45.28-.45.28Z"/>
  <polygon points="988.13 221.13 989.44 221.19 988.73 222.65 988.13 221.13"/>
  <path d="m490.83,282.24c-.62.23-1.43.81-1.84.61-1.13-.56-2.1-1.45-3.14-2.22.44-.49.84-1.36,1.32-1.41,2.38-.24,3.85.64,3.29,3.37,0,0,.36-.36.36-.36Z"/>
  <path d="m254.31,582.8c1.28-.09,2.6-.41,3.82-.2,1.74.3,2.34,1.31,1.62,2.28-.33.44-1.03.87-1.56.87-2.17,0-3.79-.72-3.52-3.35,0,0-.36.41-.36.41Z"/>
  <path d="m166.49,550.6c3.42-.8,3.91,1.17,3.5,3.82-.08.5-.72.92-1.1,1.37-.9-1.25-1.89-2.46-2.64-3.8-.19-.34.33-1.09.52-1.65,0,0-.28.26-.28.26Z"/>
  <path d="m494.21,488.85c.16-.35.29-.96.5-.98.45-.06.94.17,1.42.28-.15.38-.29,1.07-.46,1.08-.48.02-.97-.23-1.46-.38Z"/>
  <path d="m792.69,461.16c.17-1.15.37-2.3.51-3.46.17-1.36.27-1.15-.49.15-.78,1.34-.97,2.32.26,3.41,0,0-.28-.1-.28-.1Z"/>
  <path d="m81.41,324.73c-3.68-.49-6.44.91-8.35,4.07l.22.32c.14-6.26,3.85-5.88,8.16-4.39,0,0-.03,0-.03,0Z"/>
  <path d="m73.06,328.8c-3.92-.18-7.74,3.04-11.77.29-.04-.04.39.42.34.37,3.69-2.95,7.52-3.41,11.56-.42.08.08-.14-.23-.14-.23Z"/>
  <path d="m26.53,354.33c-.41,1.02-.55,2.46-1.3,2.96-1.59,1.03-3.47,1.13-4.45-.98-.08-.18,1.59-1.53,2.59-1.78,1.09-.27,2.34.12,3.53.22,0,0-.37-.42-.37-.42Z"/>
  <path d="m633.95,357.67c.89,2.76-.52,4.15-2.94,4.95l.5.52c-.71-2.64.41-4.23,2.89-5.03-.01-.02-.45-.43-.45-.43Z"/>
  <path d="m631.02,362.62c-.72.78-1.45,1.56-2.17,2.34-1.15-3.48,1.4-1.74,2.65-1.84.02.02-.48-.5-.48-.5Z"/>
  <path d="m645.81,364.37c.36.35.71.71,1.07,1.06,1.08-1.39.8-1.88-.84-1.45l-.22.39Z"/>
  <path d="m646.04,363.98c-1.2,1.75-2.4,3.5-3.6,5.24,0,0,.45.55.45.55,1-1.73,2-3.47,2.96-5.3-.03-.1.19-.49.19-.49Z"/>
  <path d="m642.44,369.22c-1.31,1.9-2.62,3.79-3.92,5.71.01.02.42.51.43.53,1.33-1.86,2.64-3.75,3.95-5.66,0-.02-.46-.58-.46-.58Z"/>
  <path d="m1110.57,382.51c.91.29,1.81.57,2.72.86-.54.55-1.09,1.11-1.63,1.66-.33-.88-.65-1.76-.98-2.64,0,0-.11.11-.11.11Z"/>
  <path d="m1102.44,394.61c2.4,1.15.35-2.24,1.49.17.16.34.17,1.14.09,1.16-1.21.33-1.62-.28-1.19-1.71,0,0-.4.38-.4.38Z"/>
  <path d="m974.61,422.45c-1.63,2.11,1.74,1.85-.69.83-.76-.32-.07-1.28,1-.33,0,.01-.31-.5-.31-.5Z"/>
  <path d="m1129.76,459.2c-.3-.89-.59-1.79-.89-2.68,3.06.58,1.21,1.87.38,3.03-.05.03.51-.35.51-.35Z"/>
  <path d="m519.88,308.86c0-.11,0-.22.03-.42.04-.08-.03.42-.03.42Z"/>
  <path d="m506.86,298.65c1.62.97,3.24,1.95,4.92,2.86.06-.06.58-.51.64-.56-2.69.98-4.77.75-5.04-2.8l-.52.5Z"/>
  <path d="m107.98,296.36c-.63,2.12,1.26,4.81-1.45,6.47.01.02.47.46.48.48.41-2.24.81-4.51,1.2-6.77l-.24-.18Z"/>
  <path d="m820.86,552.74l-.92-1.29s1.01,1.01,1.03,1.03c.02.03-.11.26-.11.26Z"/>
  <path d="m507.38,298.15c-2.27-.12-4.11-.82-4.48-3.43l-.47.46c2.58-.24,3.74,1.31,4.42,3.48.01,0,.53-.51.53-.51Z"/>
  <path d="m108.22,296.54c2.32-.67,4.64-1.33,6.96-2,0,0-.48-.5-.47-.5-1.15,3.68-3.76,3.38-6.67,2.36-.06-.04.18.13.18.13Z"/>
  <path d="m502.89,294.73c-2.43-1.26-2.75-3.39-2.45-5.75-.06.05-.59.5-.59.5.86,1.89,1.72,3.79,2.58,5.69,0,.01.47-.44.47-.44Z"/>
  <path d="m494.39,286.74c1.78.95,3.56,1.9,5.4,2.8.06-.06.59-.5.65-.55-2.72.97-4.85.61-5.58-2.71l-.47.46Z"/>
  <path d="m494.86,286.27c-2.74.06-4.41-.96-4.03-4.03,0,0-.36.36-.36.36,2.91-.15,4.24,1.21,3.92,4.13,0,0,.47-.46.47-.46Z"/>
</svg>