<?xml version="1.0" encoding="UTF-8"?>
<svg id="Layer_1" data-name="Layer 1" xmlns="http://www.w3.org/2000/svg" width="859.81" height="1056" viewBox="0 0 859.81 1056">
  <path d="m154.25,238.12c.08-3.18.08-6.68-1.96-8.84-3.47-3.65-3.68-8.7-6.5-12.65-1.93-2.72-1.8-7.09-.01-10.11,2.51-4.25,2.84-9.3,5.86-13.37,1.91-2.56-1.78-4.76-2.09-7.62-.8-7.23-3.26-14.16-5.76-21.02-.47-1.29-.7-2.2-2.36-2.68-4.18-1.2-2.79-3.97-.94-6.07,1.34-1.52,3.27-2.9,5.19-3.45,2.19-.62,3.45-.96,2.19-3.5-.49-.99.14-2.48,1.01-2.45,3.87.1,3.52-3.15,4.68-5.31,6.43-12.02,13.37-23.47,25.77-30.68,6.77-3.93,12.67-9.33,19.21-13.69,7-4.67,13.8-9.59,20.67-14.42,5.89-4.14,13.25-5.96,20.59-6.82,7.21-.85,13.45-3.94,19.94-7.09,8.53-4.14,17.65-7.53,27.57-7.45,10.12.08,20.25.42,30.16,2.38,4.97.99,9.9,3.24,14.22,5.92,1.95,1.21,3.69.97,5.46,1.47,8.31,2.33,16.68,4.41,24.18,8.93.8.48,1.93.39,2.91.6,10.9,2.29,17.72,9.56,22.97,18.78,2.45,4.31,4.65,8.72,8.13,12.48,2.55,2.76,1.89,6.73-.14,9.73-1.42,2.1-2.27,3.24-.77,5.99,1.06,1.95.78,5.39.53,7.65-.85,7.7.77,15.05,1.69,22.49,1.13,9.11,1.26,18.23,1.08,27.38-.03,1.4-.52,3.27,1.16,4.01,1.48.65,2.18-1.36,3.28-1.67,4.41-1.25,3.56-6.42,6.85-8.7,1.97-1.37,3.49-2.04,5.68-1.5,8.19,2.03,15.07,7.64,17.02,16.86,2.28,10.81,6.49,21.11,11.67,30.99,2.69,5.13,5.32,10.55,2.01,16.67-1.26,2.33-1.16,4.29,2.59,4.63,2.26.21,4.41,1.88,6.55,3,1.01.53,1.19,1.52.83,2.59-.38,1.12-1.28,1.53-2.33,1.49-2.33-.07-4.65-.3-6.98-.38-1.79-.06-3.08-.36-1.9,2.59,3.21,8.02,9.46,12.63,18.13,12.43,2.4-.06,4.8.46,6.62,1.79,4.71,3.44,10.27,4.25,15.59,5.95,9.31,2.98,19.14,4.34,28.02,8.57,2.41,1.15,4.21,3.54,6.32,5.33,8.69,7.34,16.81,15.57,26.32,21.64,4.91,3.14,6.75,4.9,4.1,9.98-.39.75-.63,1.59-1.56,1.76-5.6,1.08-9.87,5.08-15.04,6.87-2.64.91-3.54,3.89-6.74,3.61,3.21,4.59,7.57,5.83,12.21,6.37,1.41.16,2.43.57,3.4,1.66,3.28,3.71,4.95,8.53,6.09,12.89,1.26,4.79-3.25,9.07-5.96,12.94-2.6,3.73-6.8,6.34-10.3,9.45-.87.77-1.64,1.38-3.04,1.24-2.68-.26-4.34.82-4.21,3.96.12,2.86-.99,4.36-3.85,2.18-1.69-1.29-3.07.02-4.03.77-8.76,6.8-17.89,13.31-24.44,22.42-2.97,4.12-3.81,9.42-2.27,14.29,1.25,3.95,6.03,1.61,8.79,3.36,4.11,2.59,9.81,1.45,13.24,5.93,2.12,2.77,3.47,4.95-.66,6.83-1.7.77-1.82,2.47-1.72,3.73.1,1.3,1.86,1.6,2.87,1.16,4.14-1.79,8.53-.28,12.77-1.24,8.6-1.94,17.25-3.68,25.94-5.14,6.95-1.17,13.48.3,18.04,6.02,4.74,5.95,11.74,9.06,16.92,14.4.49.5,1.53.61,2.33.65,3.04.12,6.6-1.41,7.33,3.87.21,1.5,3.63,1,5,.28,9.26-4.87,19.24-2.79,28.94-3.31,2.98-.16,5.99.04,8.98.01,6.27-.06,10.46,2.72,12.79,8.19.85,2-.59,2.72-1.48,3.77-1.53,1.81-3.4,2.66-5.72,1.44-1.89-1-3.7-2.18-5.66-3-1.16-.49-2.82-.88-3.54.66-.89,1.88,1,2.07,2.07,2.66.85.47,1.71,1.1,2.62,1.24,1.81.29,4.39-.77,3.63,2.86-.67,3.17-1.89,5.54-5.71,4.87-3.59-.62-6.59-2.91-8.61-5.39-3.89-4.76-9.91-5.32-13.47-3.02-3.47,2.25-7,1.53-10.46,1.85-3.39.31-10.96,4.76-11.75,8.77-.75,3.81-.09,7.39,4.1,10.15,7.51,4.95,8.78,16.48,2.15,22.51-2.64,2.4-5.75,5.21-10.14,6.27-6.15,1.49-11.7,5.26-17.75,7.38-5.56,1.95-10.28,5.39-15.27,8.18-4.58,2.55-8.38,3.92-13.5,2.49-2.56-.72-3.07-2.04-3.37-4.1-.2-1.39,1.63-3.93-1.12-3.89-2.83.04-2.88,3.24-3.56,5.31-.32.97.58,2.31.37,3.37-.4,2-.54,4.59-3.37,4.72-7.63.36-13.83,4.8-20.46,7.63-5.21,2.23-10.47,3.3-15.72,3.63-8.88.56-17.17,3.66-25.85,4.74-3.63.45-6.29,3.05-8,4.91-5.02,5.43-12.61,6.79-17.47,12.7-2.3,2.81-6.68,5.78-11.35,6.59-2.69.46-5.28.32-6.74-1.83-1.65-2.43.52-3.8,2.24-5.61,2.86-3,7.35-5.17,7.39-11.41-2.43,2.52-5.09,3.56-5.66,6.41-.62,3.17-3.94,3.15-5.77,4.95-3.41,3.36-8.38,4.85-13.03,6.3-2.56.8-4.52-.98-5.69-3.09-1.11-2-.08-3.93,1.37-5.36,4.69-4.65,7.46-10.73,11.85-15.6.74-.82,1.06-1.81.13-2.6-1.03-.87-2.54-.78-3.12.26-2.53,4.54-7.31,6.78-10.48,10.65-1.87,2.28-9.43,2.34-11.41.22-1.24-1.32-1.02-2.26.53-3.61,8.64-7.55,13.57-17.95,20.23-27.04.61-.83,1.61-1.77,1.26-3.21-1.63-.92-3.19-.78-4.3.81-3.32,4.75-8.15,7.73-12.57,11.24-2.01,1.6-4.42,3.73-5.52,5.47-2.53,4.01-7.01,4.01-9.99,6.8-3.11,2.9-8.99,1.74-11.96-1.34-3.45-3.57-1.79-9.38,3.05-10.97,9.92-3.25,19.12-7.73,27.21-16.23-5.28-.66-9.84.77-13.25,2.45-5.3,2.61-10.45,1.39-15.18.63-2.3-.37-5.7-.5-8.07-2.32-.84-.64-2.33-.43-2.27-2.15.06-1.46.56-2.32,1.85-3.17,2.43-1.62,5.05-1.79,7.65-1.31,9.74,1.8,18.74-1.35,27.38-4.78,5.56-2.21,10.69-6.11,15.22-10.15,3.5-3.13,7.7-4.9,11.5-7.26,4.79-2.99,9.42-6.43,14.65-8.75.58-.26,1.13-1.17,1.55-1.09,8.92,1.88,9-5.99,11.66-10.74,1.62-2.89,3.19-5.24,6.09-7.28,3.5-2.46,5.91-2.83,8.88.13,1.57,1.57,2.89,1.16,3.95-.69.49-.85.97-1.84,1.73-2.4,1.68-1.24,2.76-3.07,1.81-4.68-1.3-2.2-3.22-.19-4.83.28-.93.27-1.74,1.03-2.67,1.21-.93.19-2.08.1-2.65-.89-.54-.93.41-1.33.85-1.99,1.88-2.83,2.33-4.72-1.22-7.59-4.97-4.02-9.76-8.97-10.77-15.97-.4-2.74-1.74-4-4.46-4.26-6.43-.61-12.9-1.08-19.27-2.14-6-1-11.68-.22-17.45,1.31-1.84.49-3.38.79-4.5,2.56-1.14,1.8-3.27,1.61-4.91,1.06-2.8-.94-2.93-3.81-3.51-6.16-.48-1.93,1.01-2.55,2.61-2.89,1.36-.3,2.17-1.11,2.91-2.4.68-1.2,2.22-2.85,3.26-2.77,6.55.49,9.67-4.74,14.05-7.88,4.95-3.55,8.65-8.35,12.32-13.04,6.43-8.2,13.33-15.61,23.15-19.8,1.4-.6,2.45-.75,3.68.05,1.1.71,2.37,1.94,2.88-.47.35-1.66-.11-2.94-2.1-3.23-5.78-.86-11.53-1.99-17.34-2.59-4.81-.5-9.5-.85-13.34-4.31-2.26-2.04-5.09-.69-7.65-.88-.95-.07-1.35.82-1.34,1.75.02,1.27.59,1.81,1.89,1.42,2.62-.78,4.37.76,4.98,2.82.73,2.46,1.04,5.2-1.61,7.21-4.33,3.29-9.14,6.43-11.82,11.07-2.35,4.05-6.33,7.54-6.2,12.9.05,1.96-.24,3.92-.93,5.93-2.32-3.08-1.35-6.63-1.06-9.98.16-1.94,1.01-3.82,1.56-5.72.32-1.1.94-2.41-.46-3.04-1.08-.49-2.21.06-3.18.85-8,6.5-16.37,12.61-23.86,19.65-2.55,2.39-6.14,4.18-7.48,7.96-.71,2-3.06,1.96-4.3,1.29-1.96-1.07-5.11-.73-5.5-4.17-.23-2.04.55-3.9.63-6.72-4.64,1.34-8.14,4.31-11.03,6.84-5.73,5.03-11.86,9.27-18.48,12.79-4.38,2.33-6.52,6.97-10.83,9.26-1.83.97-3.21,2.82-5.07,3.69-6.02,2.82-13.3-1.12-13.55-6.74-.13-3.03-1.97-3.42-3.98-2.23-8.48,5.03-17.73,4.89-27.11,4.72-11.34-.21-20.91-4.07-28.62-12.51-1.36-1.49-.93-3.49-2.14-4.94-.78-.93-1.44-1.89-2.81-1.6-1.4.3-.93,1.42-.97,2.37-.4,8.15-1.13,16.3-1.18,24.45-.03,4.81-2.96,8.14-4.66,12.1-.12.29-.44.75-.61.73-7.01-.85-7.27,5.83-10.34,9.32-1.81,2.05-2.47,3.71,1.08,5.55,6.55,3.39,13.07,5.75,20.58,4.87,1.72-.2,3.86.22,5.3,1.15,6.66,4.25,11.61,0,16.78-3.07,4.7-2.79,9.61-5.16,14.79-6.82,6.62-2.13,12.21-6.07,18.2-9.36,9.35-5.14,18.05-11.37,27.76-15.89,4.52-2.1,9.51-2.5,14.22-3.46,1.74-.35,6.37,1.44,7.58,5.62,2.58,8.91,1.38,8.14,10.98,8.32,6.8.13,13.58.96,20.39.24,12.57-1.32,23.41-6.1,32.58-15.05,2.85-2.79,5.14-7.66,10.77-6.13,1.37.37,3.42-.25,3.53,1.82.11,2.15,2.39,4.09.31,6.52-3.25,3.83-6.27,7.86-10.38,10.83-.71.52-1.88.36-2.81.63-2.78.8-6.02.56-7.76,3.69-.32.58-1.36.85-2.13,1.08-14.82,4.56-29.76,8.01-45.44,5.09-4.74-.88-6.98,1.87-5.34,6.35.6,1.63,1.6,3.44-.61,4.17-2.44.81-2.87-1.19-3.26-3.16-.28-1.43-1.11-2.76-1.77-4.1-.93-1.89-1.96-2.14-3.15-.15-.41.68-.97,1.4-1.64,1.78-1.47.86-3.88.55-3.9,3.13-.03,3.05,2.54,1.05,3.73,1.8.94.6,1.44,1.33,1.53,2.38.16,1.81-1.12,2.88-2.4,3.49-8.21,3.88-15.77,9.09-22.22,15.12-6.81,6.36-15.47,8.64-22.83,13.52-8.5,5.64-17.49,10.6-23.22,19.56-1.58,2.47-3.39,5.33-5.83,6.6-4.95,2.57-2.89,6.35-1.39,8.75,4.73,7.57,6.59,15.93,7.75,24.47.49,3.57,1.19,7.98-3.47,9.9-4.46,1.84-7.6-.63-10.99-3.33-7.48-5.97-11.71-15-19.72-20.47-2.08-1.42-3.34-3.78-.9-6.35,2.08-2.18,3.79-2.86,6.8-.92,4.14,2.66,7.26,5.84,9.47,10.21,1.2,2.38,4.01,3.65,4.89,6.47.28.9,1.7,1.09,2.6.39,1.11-.86.96-2.32.41-3.22-3.72-6.05-5.11-13.38-10.52-18.52-3.16-3-2.61-5.01,1.06-7.64,3.03-2.17,5.81-4.7,8.66-7.13.99-.84,1.27-2.22.49-3.08-1.11-1.22-2.54-.42-3.56.42-4.75,3.95-10.48,6.33-15.56,9.73-3.11,2.08-7.1,1.44-10.14,4.59-5.55,5.74-13.52,8.74-17.97,16.05-1.78,2.92-5.16,4.91-8.98,5.64-2.43.46-4.18-.82-5.16-2.22-1.34-1.93,1.44-2.39,2.3-3.59,3.06-4.28,8.42-6.25,10.97-11.1.74-1.41,1.68-2.49.58-4-3.32-4.56-.62-7.97,1.63-11.99,4.84-8.66,14.04-8.93,21.68-12.18,1.27-.54,2.84-.51,3.77,1.32.91,1.79,1.28,3.4.05,5.08-.52.71-2.14.17-2.03,1.79,2.48,1.35,4.83-.07,6.38-1.34,7.5-6.11,16.1-10.69,24.01-16.09,8.39-5.73,17.82-11.07,28.47-13.25,3.37-.69,8.07-.03,11.31-5.33-6.1,1.24-11.54,1.3-15.9,3.51-4.56,2.31-9.21,2.27-13.78,2.85-8.52,1.09-15.53,5.81-23.37,8.41-6.26,2.08-11.97,5.31-17.72,8.19-6.64,3.33-13.49,3.66-20.4,4.67-.65.1-1.33,0-1.99-.07-2.78-.33-6.43-.49-7.04-3.43-.78-3.79,3.68-5.29,5.96-5.97,2.83-.84,6.07-1.67,9.65-.87,3.99.9,8.37-.46,11.47-3.96-.43-.48-.6-.82-.87-.94-1.73-.81-4.24-.94-3.8-3.75.35-2.28,2.52-2.46,4.23-2.82,3.34-.7,6.07-2.24,8.34-4.81.74-.84,2.1-1.21,1.7-2.67-.47-1.71-2.1-1.45-3.3-1.59-3.02-.35-6.09.01-8.74,1.44-3.13,1.68-5.89,1.43-8.94-.12-4.1-2.1-8.78-.21-10.01,4.28-1.37,5.03-4.88,7.58-9.33,9.26-.82.31-1.69.42-1.71,1.4-.13,5.41-4.07,7.07-8.25,8.49-.87.3-1.51.66-1.4,1.69.14,1.27,1.17,1.42,2.12,1.74,4.75,1.6,9.68,2.52,14.25,4.82,2.27,1.15,3.66,2.87,3.54,4.8-.15,2.36-2.72,1.47-4.28,1.44-5.98-.09-12.05.25-17.51-3.04-1.23-.74-1.87.39-2.73,1.27-1.88,1.95-1.67,4.35-1.67,6.56,0,10.32-3.81,20.21-3.15,30.6.44,6.85,3.07,9.94,9.96,9.98,5.77.04,11.54-.65,17.32-.9,2.96-.13,5.63.5,8.24,2.32,9.99,7,15.03,17.02,18.65,28.28,3.17,9.87,5.6,20.17,12.31,28.53.92,1.15.29,1.51-.33,2.38-3.07,4.26-7.79,5.94-13.08,4.12-4.41-1.52-8.19-.75-9.84,3.63-1.51,4.01-4,7.56-6.34,10.7-4.31,5.76-5.64,12.44-7.1,18.77-1.43,6.23-.41,13.19.49,19.7.24,1.77,3.78,3.34,6.08,4.46,1.19.58,1.76-.95,1.88-2.25,1-10.34,6.02-19.85,6.19-30.41.04-2.17,2.5-4.78,4.05-4.55,2.32.34,5.3,2.21,4.45,5.56-1.65,6.49.31,13.41-3.14,19.81-1.61,2.98-1.15,7.09-1.53,10.7-.08.73-.2,1.77.96,1.97,1.07.19,1.86-.12,2.4-1.22,6.52-13.22,10.6-27.12,13.65-41.57,1.3-6.2,1.57-13.51,6.86-18.54,2.09-1.98,4.18-3.37,7.28-1.89,2.96,1.41,4.28,2.82.93,5.16-1.1.77-1.41,2-1.55,3.01-.95,6.78-3.87,13.03-5.11,19.72-.53,2.87.15,4.97,3.76,4.77,2.44-.13,4.32,1.27,6.18,3.07,3.85-11.09,5.39-22.5,10.33-32.72,2.16-4.48,3.37-10.67,10.51-10.49,1.51.04,1.29-2.44,3.37-2.05,2.65,5.4,2.72,11.59,3.86,17.49.83,4.34.84,8.86,1.03,13.31.12,2.84,1.8,3.09,4.04,3.08,8.28-.07,15.47-2.87,22.36-7.48,6.64-4.44,14.55-4.09,22.11-3.26,2.42.27,2.93,3.04,2.05,5.68-1.74,5.22-1.14,4.97,4.12,6.24,6.38,1.54,13.07,3.6,15.05,11.43.34,1.35.73,3.33,2.77,2.84,2.23-.54,1.33-2.52.88-3.73-2.27-6.06-4.25-12.2-5.42-18.58-.32-1.76-2.03-2.07-3.09-3.05-2.01-1.86-1.98-4.09-1.36-6.44.66-2.5,2.57-3.23,4.93-3.37,2.52-.16,4.23.28,5.39,3.09,2.36,5.73,4.79,11.22,4.94,17.7.13,5.63,4.18,10.49,4.85,16.21.19,1.62,1.49,1.28,2.69,1.35,1.97.11,3.99.35,5.87.92,2.17.65,3.68,2.21,2.08,4.48-1.6,2.27-.42,3.39.58,5.51,3.38,7.12,6.89,14.28,8.22,22.19.81,4.85.46,10.23,2.51,14.47,3.76,7.8,1.85,16.81,6.37,24.38,1.57,2.64,1.38,6.38,1.78,9.64.17,1.42-.7,2.67-2.18,2.93-1.46.27-1.71-1.07-2.3-2.09-5.29-9.2-7.25-19.51-10-29.56-.35-1.29-.31-2.68-1.84-3.24-.78-.28-1.38.15-1.6.77-.45,1.28-.5,2.67.27,3.84,3.1,4.69,2.77,10.32,4.26,15.44,1.36,4.68,1.6,11.23,4.29,13.63,4.15,3.71,3.96,6.79,4.03,11.26.04,2.52,4.28,2.73,6.44,4.35,5.52,4.13,11.35,7.84,17,11.8.56.4.79,1.39,1.01,2.15,1.44,4.96,5.11,8.02,8.9,11.16,2.23,1.85,4.16,4.29,5.58,6.82,2.45,4.38,4.72,8.94,6.39,13.66.66,1.87.5,3.79,2.69,4.74.49.21.91,1.06.98,1.66,1.01,8.49,2.28,17.35-.96,25.24-1.82,4.44-3.63,9.54-7.71,13.27-2.03,1.86-3.48,4.6-5.72,6.7-4.29,3.99-5.81-1.35-8.22-2.38-2.08-.89-1.13-3.75,1.09-5.64,3.51-2.99,4.78-7.59,7.1-11.45,1.42-2.35,1.7-5.22,3.48-7.53,1.17-1.52,1.61-3.93.4-5.66-1.29-1.86-2.88-.28-4.37.34-3.08,1.28-8.09-1.37-9.58-5.45-.82-2.26-1.99-3.37-4.14-4.34-8.03-3.61-15.24-8.8-23.53-12.07-3.16-1.24-6.08-1.35-9.11-1.44-7.86-.24-15.46-2.11-23.12-3.48-4.89-.88-9.17,1.4-13.83,1.74-8.45.62-16.86,1.97-25.35,2.7-5.76.49-11.92,1.56-17.22,5.51-4.31,3.22-9.36,5.58-14.69,7.47-9.57,3.38-16.61,9.99-19.66,20.1,1.28,1.2,2.58.43,3.86.3,2.67-.26,5.71.51,6.49,2.76,1.74,5.08,4.7,9.35,7.85,13.43,2.65,3.44,4.03,8.17,8.68,10.07,1.93-6.59-2.58-13.3-7.23-15.96-3.62-2.07-3.97-3.65-.72-6.65,4.86-4.49,9.77-8.94,15.36-14.06.33.05-1.09,2.22.26,2.83,3.05,1.39,1.79,3.32.39,4.98q-6.01,7.13-.55,14.48c3.06,4.11,3.69,14.4,1.12,18.38-2.65,4.11-13.19,3.39-17.06-.21-4.33-4.04-5.81-9.71-9.59-14.06-2.48-2.85-5.83-4.24-8.38-6.88-1.93-2-3.03.61-3.23,2.47-.47,4.41,1.31,8.19,4.12,11.35,2.83,3.18,6.94,5.53,8.91,9.11,3.45,6.26,9.73,9.64,13.73,15.27,1.6,2.25,4.74,3.42,7.19,5.05,2.25,1.49,5.07,1.83,6.58,4.81,1.24,2.45,3.66,1.82,5.18-.42,2.46-3.63,5.9-3.76,9.69-2.99,1.82.37,2.93,1.29,3.39,3.16.44,1.82-.66,2.22-1.95,2.85-1.78.86-1.61,1.93.18,2.59,3.72,1.37,7.44,2.99,11.54,1.55,3.09-1.08,6.26-.44,9.39-.51,1.4-.03,2.14.92,2.28,2.17.14,1.24-.93,1.66-1.88,1.94-1.26.38-2.55.88-3.84.9-2.65.05-4.66-.16-4.66,3.83,0,3.54-7.4,5.76-10.44,3.15-1.42-1.22-2.97-1.41-4.43-1.88-2.12-.67-3.85-.56-4.44,2.74-1.32,7.28-1.27,14.55-.76,21.8.48,6.77,5.08,10.29,11.97,11.17,8.51,1.08,16.03-1.03,23.69-4.57,3.86-1.78,8.73-1.53,13.17-1.84,6.3-.44,12.63-.18,18.89-1.39,4.51-.87,7.87-3.39,11.47-6.04,3.22-2.37,6.34-5.37,10.38-6.38,7.84-1.96,15.34-5.05,23.39-6.38,7.01-1.16,12.88-5.35,19-8.73.65-.36,1.21-1.18,1.47-1.91,3.14-8.87-2.5-17.55-11.9-18.36-.5-.04-1.01-.03-1.49-.14-2.21-.5-5.98.9-5.92-2.68.05-3.16,3.09-5.21,6.28-5.63,7.38-.96,12.66,1.41,18.71,6.84,6.93,6.22,5.25,13.08,6.51,19.88.79,4.27-2.3,7.39-5.39,9.26-9.55,5.77-19.53,10.31-30.68,12.84-9.58,2.17-19.11,5.34-27.47,11.56-5.1,3.79-11.33,6.82-18.36,6.67-5.98-.13-11.89,1-17.91.97-7.52-.04-13.95,4.59-21.11,6.17-6.86,1.51-13.75,3.36-20.75-.67-2.63-1.51-5.58-2.33-7.96-4.55-7.31-6.81-7.74-15.25-6.48-24.32.8-5.73,1.19-11.53,1.67-17.3.23-2.78-1-4.43-3.95-4.58-6.21-.32-11.76-3.1-17.63-4.71-6.21-1.71-10.53-6.67-12.74-11.63-3.2-7.19-8.96-11.82-13.59-17.53-2.36-2.91-4.2-6.06-6.16-9.13-3.45-5.4-4.65-11.87-7.2-17.65-3.58-8.13-3.97-16.42-3.81-24.92.16-8.13,3.52-15.21,7.85-21.85.9-1.38,1.17-2.79,1.27-4.17.55-7.03,3.52-13.26,6.96-19.08,2.11-3.58,4.55-7.61,9.14-8.98.96-.29,2.03-.22,2.13-1.58.1-1.31-.9-1.75-1.83-1.99-4.92-1.28-5.65-6.63-9.12-9.3-.21-.16-.39-.74-.27-.89,3.35-4.49-1.38-5.06-3.36-6.91-2.64-2.45-4.59-5.14-4.34-9.02.15-2.34-.85-4.49-1.58-6.7-1.3-3.92-2.52-4.38-5.61-1.31-2.43,2.41-5.03,4.41-8.45,4.73-6.78.64-11.48-4.23-11.97-12.72-.23-3.94-.69-7.93-.04-11.92.19-1.17,1.19-3.46-1.32-3.41-1.92.04-4.11.72-3.88,3.5.34,4.06,1.79,7.89,2.69,11.74,1.09,4.7,1.39,9.83,2.86,14.48,4.01,12.72,8.4,25.16,20.9,32.8,3,1.84,6.42,4.62,6.43,10.18,0,3.95-2.2,4.15-3.63,4.17-3.89.04-7.83.58-10.5-4.31-2.95-5.39-8.22-9.27-12.28-14.01-1.88-2.19-2.35-4.61-3.53-6.86-1.93-3.68-4.6-4.16-7.27-.85-.55.69-1.03,1.09-1.86,1.38-1.42.49-3.8-1.51-4.21.92-.43,2.57-.3,5.99,1.56,7.6,3.35,2.91,3.54,7.23,4.07,10.41,1.93,11.5,4.7,22.82,10.53,32.7,5.68,9.62,6.74,19.94,8.07,30.31,1.04,8.11,2.49,15.77,6.34,23.17,3.27,6.3,3.58,13.91,6.06,20.48,3.11,8.24,1.48,17.14,5.89,25.35,3.15,5.87,4.02,13.36,6.27,20.03,2.77,8.23,5.39,16.45,7.27,25.01,1.13,5.14,3.4,10.06,3.74,15.73.31,5.17-2.17,8.3-5.45,10.92-2.4,1.92-5.09,3.62-8.22,4.84-5.59,2.18-10.63,5.75-15.95,8.66-4.66,2.55-9.72,1.59-14.66,1.39-1.27-.05-1.71-1.43-1.97-2.59-2.15-9.45-6.88-18.12-8.21-27.85-.75-5.45-5.14-9.34-6.99-14.46-.74-2.05-2.12-4.07-2.27-6.32-.6-9.03-3.76-17.64-7.03-25.64-4.9-11.99-6.07-24.78-10.43-36.71-3.73-10.22-5.29-21.26-11.53-30.58-1.12-1.67-1.07-4.12-1.54-6.21-2.69-12.09-7.39-23.58-11.35-35.25-2.16-6.36-2.78-13.06-5.02-19.07-3.37-9.04-4.14-18.54-6.86-27.66-2.63-8.79-4.79-17.79-7.78-26.48-2.42-7.03-6.08-13.63-8.88-20.54-5.24-12.92-8.21-26.43-11.23-40.03-2.75-12.36-8.29-24.08-11.79-36.31-3.09-10.81-5.69-21.8-8.56-32.67-2.65-10.04-6.48-19.87-10.78-29.5-2.85-6.36-5.56-12.89-8.21-19.39-4.39-10.79-6.71-22.13-9.59-33.36-1.71-6.67-2.88-13.55-5.13-20.01-3.67-10.56-6.06-21.58-10.54-31.78-3.38-7.7-7.01-15.34-10.57-22.98-3.06-6.57-4.17-13.9-7.7-20.33-.68-1.24-.62-2.63-2.31-3.48-4.21-2.11-3.59-5.06-.45-8.59,4.55-5.12,11.13-7.45,15.48-12.49,1.67-1.94,3.69-2.51,5.17-1.61,7.06,4.3,11.56-1.17,16.58-4.12,1.87-1.1,3.68-2.22,5.75-2.76,2.54-.67,4.9.42,7.25,1.23,3.45,1.18,1.28,3.84,1.67,5.87.61,3.16.7,6.29.27,9.41-.42,3.04,3.35,3.56,3.41,5.52.12,3.89,2.6,2.68,4.68,3.15,6.45,1.45,12.91,2.02,19.15-.39,4.59-1.77,8.81-4.41,12.49-7.78.12-.11.18-.35.3-.38,7.55-1.57,6.46-8.4,8.22-13.49,1.95-5.67,1.47-11.53.73-17.25-.25-1.93.67-5.88-2.13-5.74-3,.15-1.94,4.03-2.37,6.32-.27,1.42.23,2.96.28,4.45.04,1.34.06,3.01-1.98,2.48-1.37-.35-2.65,1.96-4.35-1.01-3.68-6.42-3.02-12.31-.43-18.57.84-2.02.94-4.2.8-6.38-.14-2.14-.66-4.75,2.1-5.43,2.71-.67,5.75-.61,7.89,1.59,2.95,3.04,5.77,6.27,6.35,10.77.15,1.13.35,2.6,1.95,2.33,1.75-.3.88-1.8.9-2.86.03-1.99-.3-4.1.24-5.95.8-2.75,2.78-5.73,5.67-5.2,2.46.45,4.92,2.61,4.98,6.21.12,7.26.74,14.52.89,21.78.09,4.17,2.97,3.65,4.55,2.23,3.97-3.57,7.77-1.38,11.59-.4.93.24,3.11,1.38,2.36,2.67-1.05,1.81-2.8,3.7-4.69,4.43-4.83,1.86-9.85,3.04-14.41,5.81-2.04,1.24-3.53,2.48-4.01,4.51-3.03,12.93-6.07,25.87-7.23,39.15-.2,2.26.13,4.48-2.04,6.33-1.23,1.04-2.18,3.62-.67,4.9,1.56,1.33,3.48-.41,4.86-1.45,3.91-2.95,5.59-7.78,9.07-11.16.87-.85.88-2.68,2.78-1.84,1.46.64,3.01.84,3.85,2.74,1.89,4.23.37,8.37-2.21,10.71-4.92,4.47-10.39,8.6-16.88,10.87-5.66,1.98-3.35,7.72-5.28,11.48-1.32,2.58,1.51,4.5,3.23,6.18.68.66,2.21.56,3.36.6,10.63.31,21.24.82,31.76,2.53,3.82.62,5.19-1.16,4.44-4.92-.58-2.93-1.12-5.9-1.28-8.88-.22-4.03,1.97-5.96,5.55-4.35,5.23,2.36,5.72.26,5.71-4.29-.02-7.49,3.42-13.98,6.94-20.37.43-.79.98-1.4,1.93-1.22.95.19,1.25,1.03,1.36,1.87.33,2.52.7,5.15-2.14,6.54-1.56.76-1.67,1.88-1.45,3.28.12.78.69,1.2,1.38,1.13,1.37-.14,1.6-1.39,2.27-2.34,2.84-4.06,5.15-8.39,8.91-11.97,2.24-2.13,3.8-6.2,4.02-9.92.59-10.11.4-20.17-3.16-29.84-.66-1.8-.21-3.14.78-4.62,4.79-7.13,8.03-14.83,9.91-23.31.88-3.95,2.35-7.72,2.32-11.89-.11-11.43-5.46-20.67-11.06-30.23-4.26-7.27-9.96-13.9-11.86-22.68-.85-3.92-3.6-7.95-6.6-10.71-2.26-2.07-3.59-4.48-3.48-6.69.35-7.44-4.71-10.38-9.65-14.08-2.39-1.79-5.07-3.64-6.96-5.95-2.14-2.6-5.06-3.67-7.63-3.59-7.07.22-12.84-3.64-19.23-5.38-4.55-1.24-8.77-4.34-12.61-7.29-2.94-2.26-6.24-3.93-9.05-6.53-2.97-2.74-7.93-.97-10.85.74-4.27,2.51-8.83,2.25-13.18,3.42-4.6,1.24-6.17,3.73-6.76,8.36-.94,7.44,1.11,14.44,1.82,21.64.37,3.76,4.07,5.15,5.56,8.4,3.47,7.58,8.04,14.77,14.7,20.13,3.25,2.62,7.41,2.52,11.43,2.33,5.04-.24,7.82,2.32,7.57,7.28-.09,1.72.95,2,1.9,2.39,8.28,3.4,16.11,7.73,24.07,11.77,1.17.59,2.5,1.56,3.63,1.41,5.04-.69,6.25,4.01,8.39,6.5,2.63,3.06-1.07,6.16-3.17,8.15-1.27,1.21-4.32,1.55-6.23-1.47-2.79-4.42-6.9-7.54-12.4-8.09-4.19-.42-7.06-3.53-10.13-5.63-8.69-5.96-18.48-8.08-28.47-9.55-4.69-.69-8.79-3.08-13.5-3.48-4.32-.37-6.06-5.01-6.95-7.41-3.35-9.03-9.87-15.71-14.95-23.45-1.14-1.74-1.9-3.93-2.17-6-1.04-8.12-2.87-16.24-5.22-23.86-3.46-11.18-2.19-21.53,0-32.39,1.01-4.98.73-10.28.51-15.42-.34-7.77,3.58-12.36,9.87-16.24,5.61-3.46,11.36-5.75,17.55-3.53,6.21,2.23,12.51,2.22,18.83,2.96,3.6.43,6.71,2.44,8.6,6.03,3.29,6.23,8.04,11.63,10.68,18.37Zm190.61,113.58c.69-2.1.79-3.96,2.17-4.09,4.01-.37,4.07-3.55,4.92-6.22,2.43-7.66,6.99-14.35,11.22-20.92,4.32-6.73,10.34-12.44,15.22-18.96,2.46-3.28,5.15-7.11,9.92-7.82,1.4-.21,2.71-.53,2.78-2.26.07-1.91-1.49-1.71-2.73-2.15-5.2-1.87-7.66-5.71-7.27-11.25.09-1.27.21-2.46-1.22-2.83-1.6-.41-3.22-.61-4.51,1.03-3.96,5.01-9.36,7.57-15.48,8.85-.94.2-2.09.37-2.71.99-4.85,4.82-10.46,7.46-17.45,7.64-6.41.16-13.42.91-17.72,5.83-3.8,4.35-8.59,7.31-12.46,11.4-1.65,1.74-3.29,2.16-3.15-1.21.09-2.12-.14-3.54-2.67-1.88-3.68,2.41-5.69,1.11-8.47-2.25-3.29-3.98-3.31-9.98-8.47-12.9-1.53,3.11-4.54,6.35-2.79,9.26,2.29,3.82.47,5.37-1.97,7.09-1.8,1.28-2.69,2.97-2.97,4.95-.65,4.45-3.47,4.06-6.65,3.29-3.74-.91-3.91-2.78-1.93-5.72.69-1.02.58-2.57.87-3.86,1.53-6.82,2.18-13.64,5.18-20.35,2.84-6.37,7.09-7.84,12.47-7.96,4.51-.1,6.54,3.83,8.03,7.66.35.91.59,2.17,1.88,1.8.86-.25,1.94-.98,2.22-1.75.44-1.2.34-2.61.39-3.94.17-4.85,3.31-7.17,8.23-6.81,2.16.16,3.46.39,3.66,2.71.43,4.89,4.85,6.71,8.09,8.44,1.25.67,4.37-4.01,5.01-7.39.21-1.13.7-2.21,1.11-3.3,1.2-3.14,9.63-7.36,12.39-5.69,3.79,2.29,8.06,2.88,12.04,4.43,5.07,1.98,9.87.62,13.34-2.84,2.37-2.36,5.05-4.04,7.58-6.05,3.14-2.51,5.96-4.38,9.06.31.77,1.16,3.38,1.79,4.94,1.51,1.27-.22.79-2.44.25-3.54-3.24-6.6-2.63-13.51-2.3-20.52.72-15.58-.77-31.26,1.49-46.78,2.64-18.13,0-36.09-1.17-54.11-.09-1.41-.41-2.67-1.86-3.23-1.06-.41-2.38-.05-2.49.93-.39,3.39-3.46,4.96-4.88,7.68-1.99,3.78-4.57,7.36-7.45,10.53-3.23,3.55-7.3,6.34-10.6,9.84-5.55,5.9-11.29,11.05-20.14,10.88-2.03-.04-4.2.73-6.11,1.58-10.22,4.54-21.04,7.53-31.05,12.69-6.21,3.21-12.85,5.92-20.06,6.45-.8.06-1.82.22-2.33.73-4.94,4.94-12.01,5.07-17.93,6.51-10.42,2.52-21.18,4.3-32.02,5.13-11.58.89-23.11,2.89-34.76,2.23-5.73-.33-11.78.41-16.63-4.45-1.72-1.73-5.47.73-7.95-1.59-.56-.52-1.22.76-1.11,1.65.69,5.66.4,11.67,3,16.74,1.18,2.29,1.3,4.43,1.99,6.61,1.62,5.08-.6,10.93,2.66,15.4,2.43,3.33,2.55,5.81.12,8.98-2.3,3-2.05,8.32.35,8.77,5.07.96,9.53,3.29,14.19,5.22,9.6,3.98,19.54,7.18,24.75,17.64,1.36,2.73,3.31,5.69,5.61,7.84,3.45,3.22,4.26,6.93,2.93,10.92-.79,2.36-.27,3.79,1.07,5.36,2.24,2.63,3.37,5.85,4.97,8.79,1.75,3.21,1.97,7.11,4.01,9.71,4.9,6.25,8.04,13.53,11.99,20.24,3.22,5.46,4.31,10.49,12.04,12.51,4.99,1.3,9.94,4.05,14.93,2.72,10.49-2.81,21.33-4.22,31.42-8.94,7.15-3.35,15.3-4.58,23-6.77,3.32-.94,6.68-1.55,9.96-2.87,2.02-.81,5.82-3.8,7.99,1.71Zm-102.15,72.55c.48-5.79,3.64-5.1,6.8-5.44,4.78-.52,7.42,2.14,10.92,4.61,3.44,2.44,3.58,3.14.32,5.18-1.96,1.22-2.59,2.79.05,3.77,4.21,1.56,8.11,4.14,12.95,3.82,6.12-.41,12.62.59,18.28-1.19,5.74-1.8,11.55-4.04,17.13-6.81,7.35-3.66,15.44-5.91,23.13-9.07,7.5-3.08,12.96-8.4,18.04-13.7,5.95-6.21,11.2-13.38,15.77-20.89,1.91-3.14,5.08-1.59,8.03-.81,2.91.77,2.38,2.5,2.38,4.52,0,5.37-2.73,9.64-5.37,13.96-.65,1.06-2.25,2.2-.81,3.39,1.31,1.09,2.84.08,3.94-.95,2.91-2.74,7.14-3.47,9.8-6.67,1.73-2.08,4.68-2.02,6.42-.82,3.24,2.25,5.27.38,7.62-1.12,4.64-2.98,9.14-6.21,13.96-8.87,3.27-1.81,3.38-4.03,1.48-6.37-1.43-1.75-2.59-3.73-1.4-5.32,2.96-3.95,3.39-9.01,6.63-12.92,4.3-5.19,7.49-11.28,11.54-16.7,5.08-6.79,10.79-13.86,18.89-16.18,6.81-1.95,13.34-4.81,20.28-6.43,4.04-.95,6.76.82,8.92,2.87,1.81,1.72,2.32,5.57-.05,7.47-5.98,4.78-13.38,7.41-20.19,10.51-10.22,4.66-17.71,12.23-25.84,19.22-1.68,1.45-.53,3.4,1.65,4.04,8.53,2.52,16.72,6.05,26.06,5.58,8.44-.43,14.46,3.85,17.2,12.3,1.08,3.34,2.79,6.5,4.44,9.62,1.81,3.44,5.37,4.27,7.33,1.29,3.6-5.44,8.72-8.96,13.74-12.72,1.58-1.19.85-4.19,3.23-4.73,4.02-.92,7.48-2.8,11.04-4.85,8.54-4.94,15.65-11.26,20.93-19.57,1.04-1.64,2.1-4.45-.15-5.27-3.43-1.25-5.71-4.45-8.57-5.35-3.11-.98-6.08-2.96-9.79-2.86-2.93.08-6.2-.9-8.57-3.2-2.02-1.96-1.74-6.9.8-7.77,7.94-2.71,12.83-10.6,21.36-12.25,1.61-.31,2.69-1.8.83-3.26-7.09-5.55-14.55-10.67-21.31-16.6-4.39-3.85-9.78-6.54-14.66-7.91-7.34-2.07-15.04-3.43-22.21-6.1-8.66-3.22-16.68-8.14-26.15-9.19-5.12-.57-8.25-3.83-9.67-8.7-.41-1.4-1.33-1.79-2.55-1.92-1.56-.16-1.96.83-2.14,2.12-.11.81-.12,1.79-.59,2.36-4.86,5.87-7.37,13.46-14.17,18-3.8,2.54-6.49,6.98-11.42,7.59-3.58.44-4.45,2.35-4.14,5.32.51,4.91-1.5,9.23-2.62,13.83-2.75,11.33-11.91,17.61-19.02,25.38-4.3,4.7-10.84,6.76-16.49,9.79-5.45,2.92-10.57,6.67-16.3,8.82-5.77,2.17-11.48,4.78-18.03,4.99-6.82.22-13.06,3.73-19.65,5.31-9.44,2.26-18.1,6.92-27.55,8.74-9.47,1.83-19.36,5.66-28.38-1.89-.9-.76-2.47-1.59-3.7-.88-1.34.78-.73,2.45-.63,3.68.39,5,.33,10.03-1.17,14.76-2.78,8.78-6.04,17.41-9.21,26.06-.61,1.66-.91,3.15.62,6.4Zm76.81-342.41c-1.05,1.92-1.67,3.41-2.61,4.67-.88,1.18-2.16,2.51-3.66.83-2.73-3.06-6.25-2.53-9.71-2.44-1.29.03-2.8.66-3.72-.61-.63-.87-.71-2.69-1.55-.15-.58,1.77-1.96,2.08-3.59,1.92-2.7-.27-5.33.22-7.89.92-9.75,2.66-19.61,4.31-29.76,4.23-1.88-.02-3.74,1.2-5.65,1.71-6.67,1.77-12.84,4.63-19.11,7.49-5.36,2.45-10.09,6-15.51,8.08-5.45,2.08-9.92,6.09-15.91,7.18-4.45.81-8.84,1.61-12.66,5.24-3.85,3.65-7.92,7.23-11.97,10.74-6.22,5.4-11.56,12.36-10.63,20.72.9,8.09,2.3,16.52,5.95,24.05,1.27,2.62,1.03,5.86,3.67,7.97,7.71,6.16,16.48,7.75,26.15,7.51,16.3-.4,32.23-3.53,48.29-5.61,5.55-.72,11.56-.94,16.4-3.33,11.02-5.42,22.15-10.72,32.56-17.39,10.4-6.67,21.14-12.75,30.69-20.77,7.64-6.42,8.01-5.97,3.68-16.04-.19-.44-.09-.99-.19-1.48-1.45-6.78-1.18-13.34,1.51-19.88,2.41-5.87-2.61-10.86-2.61-16.53,0-.49-1.39-.87-1.86-1.5-2.65-3.59-8.01-3.06-10.29-7.54Zm-47.07,903.21c.51-6.8-3.45-12.25-4.34-18.45-.42-2.92-.78-6.09-2.17-8.59-5.33-9.6-8.69-19.99-11.15-30.48-2.69-11.44-4.43-23.13-7.35-34.55-.53-2.08-1.01-4.27-2.04-6.11-4.45-7.93-6.72-16.53-7.89-25.42-1.41-10.69-1.98-21.54-9.12-30.54-5.29-6.68-6.88-15.19-8.33-22.97-2.11-11.27-5.53-21.74-9.81-32.31-3.79-9.37-6.63-19.26-8.79-29.28-1.06-4.92-2.8-9.98-5.44-14.22-5.23-8.4-8.39-17.63-11.08-26.88-2.4-8.29-3.68-17.25-7.74-24.65-5.81-10.59-8.97-21.77-11.85-33.22-2.12-8.43-3.08-17.06-5.3-25.56-3.33-12.76-8.84-24.73-11.89-37.54-2.06-8.63-6.17-16.77-8.22-25.4-1.88-7.93-4.13-15.79-6.62-23.46-3.05-9.42-5.41-19.05-7.96-28.54-2.03-7.52-6.93-13.19-9.4-20.27-1.89-5.43-5.69-10.34-6.89-16-1.18-5.59-2.88-11.12-6.43-15.13-6.96-7.84-7.82-17.97-11.65-26.94-1.01-2.37-1.97-3.72-3.99-2.83-2.36,1.04-7.17.63-5.98,4.94,1.61,5.83-.64,11.97,2.63,17.77,2.14,3.8.43,9.39,4.98,12.56.68.48,1.32,1.87,1.13,2.62-1.95,7.38,3.28,13.14,4.52,19.83,2.07,11.11,6.6,21.65,10.68,32.23.58,1.51.26,3.57,1.18,4.73,4.32,5.44,3.41,12.62,6.5,18.5,1.85,3.52.94,8.11,3.17,11.62,1.41,2.22-2.37,4.25-.17,5.89,2.75,2.04,2.03,4.68,2.03,7.23,0,2.39.46,4.59,1.58,6.69,5.59,10.5,9.67,21.41,10.02,33.54.12,4.28.68,8.75,2.15,12.74,2.91,7.91,4.05,16.4,7.92,23.95,2.4,4.67,3.15,10.04,5.28,14.52,3.99,8.42,3.93,18.07,9,25.98,1.45,2.26-.35,5.29,1.02,7.2,4.15,5.82,5.31,12.98,8.75,18.94,4.44,7.7,3.41,17.54,10.11,24.18.39.38.43,1.28.38,1.91-.53,7.26,4.24,13.15,5.19,20.08.3,2.17,1.04,4.58,2.19,6.87,2.38,4.76,5.31,9.42,6.8,14.52,1.39,4.77,4.12,9.11,4.82,13.95.72,4.94,4.45,8.83,4.78,13.4.44,6.11,5.56,9.67,6.73,15.43.49,2.39,3.05,5.12,3.27,8.19.67,9.14,5.99,17.03,6.92,26.08.1.94.56,1.77,1.14,2.64,6.3,9.54,10.93,20.02,15.56,30.36,2.43,5.43,3.1,11.97,4.45,18.01,2.19,9.82,1.77,20.02,5.25,29.83,2.34,6.59,2.9,13.78,5.36,20.65,4.21,11.75,6.74,24.1,10.76,35.98,1.15,3.39,2.13,6.85,6.85,3.65.9-.61,2.16-.86,3.29-.97,4.53-.42,6.04-2.94,5.21-6.89Zm-54.82-220.7c1.81-1.64.87-2.93.8-4.17-.47-8.24-2.81-16.18-3.86-24.32-1.69-13.14-2.96-26.32-4.64-39.47-1.5-11.72-2.9-23.56,2.66-34.98,1.91-3.92,4.31-7.54,6.03-11.58,3.54-8.31,9.58-14.48,17.67-18.52,3.38-1.69,3.15-4.09,2.13-7.09-3.35-9.86-6.75-19.68-10.85-29.27-3.29-7.72-7.07-10.45-15.65-10.5-5.94-.03-11.88.9-17.84.04-4.94-.71-8.21-3.65-11.66-7.06-4.6-4.55-3.63-9.89-3.69-15.19-.1-8.42.44-16.71,3.06-24.88,3.19-9.93.66-12.88-9.8-12.57-6.43.19-12.27-2.38-17.93-4.72-2.27-.93-5.05-2.85-6.8-5.81-3.83-6.49-8.09-12.65-9-20.38-.17-1.43-.55-2.7-2.39-2.42-1.54.23-2.32,1.29-2.38,2.76-.04.96.15,1.95.34,2.91,1.01,5.11,2.22,10.08,3.93,15.08,1.78,5.19,2.54,10.81,4.98,15.93,1.51,3.17,1.87,7.86,3.28,9.76,3.34,4.51,3.89,9.89,6.07,14.56,2.58,5.53,4.51,11.9,5.41,18.36,1.17,8.37,5.56,16.04,5.9,24.7.2,5.15,1.96,9.82,4.19,14.56,2.02,4.28,4.46,8.84,5.02,13.47,1.25,10.4,4.21,20.34,6.68,30.42.39,1.59.35,3.46,1.2,4.75,5.72,8.8,8.78,18.8,11.15,28.7,2.63,10.99,6.5,21.3,12.04,30.93,4.75,8.25,6.39,17.31,8.82,26.23,1.75,6.41,1.37,13.4,5.12,19.76Zm229.1,67.15c-1.9-6.92-5.35-12.98-8.62-19.13-.3-.57-.54-1.55-.94-1.63-5.67-1.07-9.52-5.58-14.48-7.71-6.32-2.72-11.15-7.15-16.1-11.46-4.71-4.1-10.17-6.83-16.04-6.79-7.63.05-15.14-.2-22.53-1.85-4.35-.97-8.5-1.36-12.73.12-1.12.39-3.07-.76-3.29,1.16-.24,2.03,1.7,2.28,3.17,3.1,4.53,2.51,9.99,1.47,14.49,4.32,3.05,1.93,6.55,2.16,9.1-1.64.49-.73,1.94-2.06,2.9-1.31,1.06.83,2.33,3.33,2.06,3.58-1.75,1.66-1.42,5.03-4.24,5.59-8.23,1.63-16.76,1.91-23.97-2.45-12.73-7.69-21.66-7.41-33.3,1.62-4.11,3.19-7.85,6.78-11.98,9.88-5.88,4.42-8.43,10.98-13.32,17.34,4.36-.94,7.54-1.31,9.95-3.29,6.82-5.6,14.89-9.4,23.16-10.8,14.73-2.5,29.95-1.8,44.54-5.89.59-.16,1.33,0,1.94.19,7.55,2.4,15.27,3.8,23.2,4.04,4.5.14,9.45-.17,13.17,2.17,11.15,7.01,24.13,11.08,33.86,20.83Zm-9.21-597.75c-.9-2.79-.69-6.51-2.64-9.47-4.14-6.28-6.81-13.28-8.96-20.32-1.57-5.16-2.97-10.31-5.22-15.24-1.19-2.6-3-3.07-5.18-2.13-5.48,2.36-9.78,14.28-7.32,19.74,2,4.43,2.58,9.07,2.67,13.94.13,7.21-1.2,14.61,4.52,21.01,1.89,2.12,4.27,4.84,4.49,8.81.51,9.08-3.78,16.87-5.56,25.31-.2.94-2.23,1.73-.42,2.78,1.45.84,1.74-.74,2.53-1.53,2.24-2.21,3.88-4.75,5.47-7.45,4.69-7.93,10.24-15.45,9.16-25.49-.24-2.23-.19-4.83,3.42-4.73,3.38.09,2.7-2.64,3.04-5.24Zm-150.76,527.61c-.1,1.06-.24,1.72-.2,2.38.28,4.8,7.48,11.56,11.02,10.14,7.5-2.99,15.3-5.05,22.8-8.1,6.67-2.71,12.33-6.32,17.73-11.12,3.04-2.71,3.62-6.58,6.6-8.96,3.63-2.91,5.66-6.92,7.15-11.23.42-1.22,1.22-2.77-.34-3.54-1.23-.6-2.35.15-3.3,1.38-2.23,2.88-4.37,2.8-5.86-.76-.64-1.53-2.27-2.25-2.74-4.06-.57-2.22-2.45-2.8-4.03-.95-.96,1.12-2.22,1.3-3.23,2.02-3.63,2.6-8.78,4.49-10.16,8.48-2.04,5.87,1.07,11.98,2.51,17.89.39,1.6,2.61,3.22.27,4.64-1.98,1.2-3.22-.4-4.38-2.01-2.82-3.9-5.34-7.94-7.28-12.37-.99-2.25-3.08-2.17-4.39-.47-3.45,4.47-7.37,7.98-12.37,10.97-4.36,2.62-3.73-.81-4.85-2.26-.38-.49.09-1.59.09-2.41,0-.76.38-1.85-.73-2.03-1.08-.17-2.05.53-2.13,1.63-.3,3.81-2.59,7.22-2.17,10.76Zm74.6-53.64c1.71,0,2.59-.19,3.35.03,2.78.82,7.1.1,6.6,4.86-.67,6.37-4.81,11.39-7.44,17-1.39,2.96-3.32,5.94-2.04,9.18,1.48,3.73,4.35-.1,6.52.61.29.1.67.01.99-.04,7.16-1.27,12.9-5.33,17.31-10.61,2.33-2.79-.74-6.81-1.32-10.28-.08-.48.13-1.02.03-1.49-2.14-10.18-4.2-20.38-6.55-30.51-.67-2.89-2.88-4.1-5.71-2.25-3.95,2.58-7.75,5.2-12.73,5.68-3.46.33-5.65,3.55-8.65,5.11-1.12.58-1.36,1.92-1.01,3.11,1.03,3.44,1.4,7.44,3.47,10.08,1.72,2.19,5.24-.96,7.17-.48ZM99.23,258.18c.8-3.15,2.85-6.07,3.24-8.73.57-3.91,3.01-4.72,5.18-6.83,3.39-3.29,5.27-1.85,7.7.61.35.35,1.27.25,1.9.19,5.16-.53,10.21.83,15.34.75,1.35-.02,2.39.16,2.6,1.58.24,1.6-.6,2.44-2.21,2.67-3.6.51-7.14,1.36-10.84,1.29-8.38-.17-8.39-.09-9.74,7.82-.11.65-.07,1.35-.3,1.96-.48,1.29-2.41,2.46-1,3.91,1.58,1.62,3.68.39,5.11-.4,7.79-4.31,16.37-6.42,24.73-9.1,2.52-.81,3.26-1.24,2.11-3.97-3.08-7.36-3.98-15.44-8.22-22.55-1.65-2.77-2.78-3.37-5.62-3.75-5.6-.75-11.58.42-16.74-3.11-1.41-.96-3.16-.45-4.61.73-5.64,4.6-8.88,10.26-8.17,17.77.22,2.33-.12,4.6-.48,6.91-.63,4.03-1.01,8.12.03,12.26Zm340.52,288.97c1.27.82,1.92.06,2.69-.1,4.05-.88,6.88-4.48,11.34-4.67,5.16-.21,6.61,1.27,5.77,6.33-.34,2.05-2.09,2.93-2.76,4.48-.51,1.19-2.26,2.67-.96,3.96,1.23,1.23,2.73.15,3.98-.79,4.41-3.32,9.43-5.37,14.88-5.79,4.84-.38,9.23-2.86,14.18-2.55,2.72.17,3.9-2.18,4.73-4.06.93-2.13-1.75-2.36-2.84-3.4-1.19-1.13-2.68-1.95-3.91-3.05-2.07-1.84-3.66-3.31-6.66-.73-2.32,2-5.99,1.7-8.41-.45-1.95-1.74-1.06-4.28.11-6.42.16-.29.6-.72.56-.77-3.87-4.35-.73-6.47,1.5-10.58,3.12-5.76,4.12-13.22,5.4-20.09.21-1.11,1.89-3.1-.31-3.79-1.83-.57-2.31,1.59-3.03,2.77-3.11,5.1-7.11,9.95-8.87,15.5-2.22,7.02-8.66,11.95-8.86,19.85-.09,3.44-5.28,7.25-8.53,7.07-6.94-.39-7.48,0-9.99,7.28Zm84.45-31.86c12.99-6.04,23.88-15.19,37.7-18.47-1.72-2.16-4.17-9.52-4.41-13.27-.58-8.81-3.01-11.16-11.52-11.15-1.83,0-3.72.28-5.46-.12-2.88-.66-4.13.14-4.83,3.1-1.34,5.66-3.14,11.2-4.75,16.79-.91,3.15-1.14,6.73-2.86,9.34-2.88,4.34-2.46,9.13-3.85,13.78Zm-125.45,254.97c.44-.02,1.9.35,2.04-.81.15-1.19-.32-2.63-.94-3.72-4.24-7.48-7.26-15.38-8.78-23.84-.35-1.96-.61-3.93-.98-5.89-.27-1.44-1.47-1.68-2.65-1.79-1.01-.09-1.78.69-1.56,1.47,1.52,5.51-3.27,8.12-5.4,11.89-4.21,7.43-10.8,12.69-20,5.02-.94-.79-1.92-.63-2.72.05-3.76,3.18-7.48,6.41-11.18,9.65-1.11.97-1.35,2.1.39,2.51,6.05,1.4,11.73,4.34,18.25,3.76,7.71-.68,15.45-1.56,23.19.09,3.24.69,6.55,1.03,10.33,1.6Zm-190.73,92.02c-.23,4.67-.31,7.73.45,11.03,1.17,5.04,3.54,9.69,3.97,14.98,1.22,14.74,5.08,28.85,10.22,42.74,2.37,6.4,4.41,13.05,6.65,19.52,1.73,5.01,2.61,10.57,5.7,15,2.94,4.2,3.69,9.24,5.82,13.74,2.79,5.91.75,13.53,5.26,19.34.56.72-.25,2.74,1.59,2.3,1.49-.35.77-1.96.7-3.02-.62-9.07-4.21-17.44-6.25-26.18-.37-1.61-.42-3.45-1.27-4.76-6.7-10.44-8.85-22.57-11.4-34.22-3.39-15.45-4.36-31.38-10.02-46.44-2.97-7.91-5.36-15.96-11.42-24.04Zm84.22-375.46c-.02,5.96,1.98,8.83,4.97,7.14,6.99-3.93,14.88-4.65,22.24-7.13,2.32-.78,4.97-2.18,6.34-4.91,3.9-7.77,10.21-12.92,18.24-15.99,2.65-1.01,3.08-2.39,1.92-4.96-2.04-4.52-9.87-6.01-14.72-1.74-10.57,9.29-23.83,14.14-35.26,22.01-2.51,1.73-4.22,2.77-3.73,5.58Zm53.81-353.13c1.11-3.04,4.55-2.65,5.78-4.77,1.23-2.13.92-5.02,1.9-6.93,2.94-5.71,3.16-10.23-2.46-14.38-2.22-1.64-1.53-4.36-.08-6.3,1.4-1.88,3.17-1.17,5.29-.4,4.61,1.67,8.03,6.48,7.36,9.21-1.09,4.42,3.3,7.67.96,11.57-.42.7-1,1.33-1.31,2.07-.57,1.35-1.04,2.75-1.48,4.16-.19.61-.44,1.5.31,1.74.7.23,2.18.13,2.26-.14,1.16-3.97,5.25-4.99,7.88-7.06,4.68-3.69,3.39-6.87,1.2-10.59-.63-1.07-1.46-2.25-.84-3.15,3.41-4.9-1.34-5.61-3.71-7.53-3.98-3.22-8.77-5.12-12.77-8.46-4.14-3.46-8.48-7.18-14.3-7.78-.59-.06-1.46-.05-1.78.3-.65.73-.12,1.68.44,2.19,2.9,2.6,1.71,6.34,2.68,9.47.46,1.48-.5,3.25.88,4.69,3,3.13,2.29,7.27.58,9.98-3.52,5.58-3.12,10.88-1.36,16.64.57,1.86,3.11,2.72,2.59,5.47Zm-73.79,707.09c4.41-7.28,7.7-14.98,14.21-20.58,1.69-1.46,1.67-3.1.25-5.2-2.61-3.88-1.06-6.78,3.65-7.48,5.26-.79,9.34-4.03,10.89-8.52,3.34-9.69,8.99-15.29,19.61-15.8,6.48-.31,10.3-5.66,15.85-9.23-3.05-1.1-4.99-.45-6.95-.38-5.78.21-9.91,4.9-15.71,5.23-10.81.62-18.65,7.64-25.46,14.71-5.27,5.47-9.99,12.3-10.98,20.6-.18,1.46-.55,3.09-1.39,4.23-5.03,6.83-2.42,14.93-3.97,22.41Zm-4.62-142.22c.03-6.63.29-13.26-.99-19.83-.63-3.21-2.58-4.1-5.03-1.98-1.1.96-2.48,2.19-2.7,3.47-1,5.83-4.01,10.95-5.42,16.65-2.44,9.86-2.67,20.02-4.64,29.93-.54,2.72-.21,5.62-.15,8.44.03,1.22.61,2.27,2,2.5,1.2.2,1.52-.8,2.22-1.48,3.75-3.58,5.74-8.5,9.63-12.07,1.59-1.46,3.8-3.27,4.06-6.32.53-6.43,1.07-12.85,1.02-19.31Zm251.12-206.97c1.19-7.46,4.78-13.88,6.82-20.79,1.5-5.08.27-6.6-5.04-7.01-8.42-.66-16.95.86-25.3-1.32-1.14-.3-2.68-1.62-3.52.12-.71,1.48-.85,3.44.63,4.6,2.23,1.76,1.53,4.03,1.81,6.28.61,5-2.3,9.13-2.83,13.81-.11.98-.58,2.04.49,2.69.74.45,1.71.37,2.29-.33,3.8-4.57,7.36-2.5,11,.69,1.25-4.06,4.32-6.55,7.75-6.46,3.81.1,6.06,3.2,5.89,7.7Zm-373.93-44.7c.16-1.49.42-2.97.45-4.46.03-1.42-.81-2.57-2.08-1.32-4.35,4.27-10.57,5.99-14.44,10.98-1.44,1.85-3.73,3.25-5.9,4.27-5.19,2.42-5.87,4.74-4,10.3,1.74,5.21,5.94,9.09,7.07,14.6.41,1.99,1.85,2.45,4.49,1.64,5.85-1.8,9.6-4.61,9.53-11.15,0-.81.05-1.81.49-2.42,4.96-6.8,2.68-15.02,4.4-22.44Zm415.34,31.21c-.77,3.56,1.92,6.12,2.61,9.03,1.7,7.14,4.6,13.81,6.67,20.76,2.19,7.34,1.92,7.33,8.47,4.84,4.42-1.68,9.13-2.44,13.09-5.44,2.11-1.6,2.59-3.38,2.26-5.53-.57-3.61-4.05-4.14-6.62-5.23-2.18-.93-2.33,1.47-2.99,2.96-1.08,2.43-3.65,3.42-5.72,2.71-2.42-.83-6.27.86-7.17-2.79-.63-2.55-1.24-5.63,1.87-7.58,2.84-1.79,3.71-5.19,5.72-7.7,3.05-3.8-1.05-6.84-2.94-9.94-2.12-3.47-6.96-4.03-13.58-2.13-4.29,1.23-1.34,4-1.68,6.04Zm-248.7,220.53c-.58,4.05,1.27,7.53,2.15,10.98,1.15,4.5,1.65,9.17,3.19,13.57.94,2.7,2.23,3.96,5.01,1.59,1.83-1.56,3.65-3.84,5.59-4.45,5.55-1.74,6.35-4.1,5-9.88-1.66-7.12-2.28-14.68-2.03-22.16.04-1.24.6-2.86-.96-3.57-1.21-.55-2.25.52-3.08,1.19-2.22,1.78-5.2,2.4-7.23,3.88-3.07,2.24-9.38,2.59-7.65,8.85Zm85.1-486.41c.07,0,.14.01.21.02-.33,3.8-1.27,7.66-.89,11.39,1.05,10.38.6,20.71.42,31.09-.06,3.58-1.91,9.23,5.01,9.83,1.12.1,1.1,1.48,1.39,2.42.4,1.27,1.43,1.84,2.69,1.77,1.54-.09,1.76-1.37,1.81-2.54.1-2.23,1.24-4.1,1.88-6.15,1.87-5.94,3.61-12.49-.11-17.83-4.85-6.96-6.95-14.16-6.83-22.47.06-4.61-.85-9.25-1.5-13.85-.21-1.46-1.04-3.23-2.77-3.02-1.69.21-1.27,2.05-1.3,3.33-.03,2,0,3.99,0,5.99Zm47.56,204.85c-3.62,2.5-6.68,4.67-9.81,6.73-.89.59-1.79,1.08-1.37,2.27.38,1.09,1.47,1.3,2.47,1.33,7.43.21,14.76.71,21.64,4.07,2.51,1.22,3.9-.13,2.96-2.88-1.51-4.43-.65-8.79-.34-13.27.44-6.51,2.22-12.96,1.09-19.9-1.73,2.31-4.39,2.73-6.47,4.36-4.51,3.53-7.34,8.49-11.47,12.23-3.04,2.76-2.77,4.13,1.3,5.06Zm-51.26-113.58c-.09-1.45.78-3.15-.61-3.86-1.57-.81-3.2.08-4.57,1.09-3.41,2.5-6.9,5.14-9.06,8.69-2.53,4.18-7.16,6.2-9.36,11.05-1.22,2.68-3.46,6.02-5.96,8.64-3,3.15-4.96,7.28-7.34,11.01-.37.57-.44,1.28.16,1.79.21.18.83.29.87.22,2.05-3.65,6.44-2.72,9.32-4.8,5.99-4.35,12.66-7.97,16.96-14.21,4.19-6.07,9.54-11.68,9.6-19.62Zm-42.96-158.84c-6.31,3.79-23.47,24.51-23.72,28.6,3.55-2.38,7.67-2.97,11.58-4.22,4.05-1.3,7.7-3.35,10.88-6.37,5.16-4.9,9.54-10.33,13.86-15.98,4.71-6.16,10.66-11.38,16.19-16.88,1.18-1.17,1.63-2.14.44-3.29-1.01-.99-2.31-.7-3,.4-2.78,4.43-6.65,8.13-10.7,10.9-3.08,2.1-3.41,5.94-6.42,7.32-2.76,1.26-5.58,2.29-7.62,4.77-1.72-1.66-.14-3.61-1.5-5.24Zm-50.49,564.5c-.34,2.34-.5,4.34-.95,6.27-1.35,5.76-1.88,11.98-4.52,17.09-2.03,3.94-1.94,7.88-2.93,11.77-.31,1.22-.05,2.95,2.48,1.5,1.67-.96,3.51-1.48,4.9-3.04,2.67-3,4.99-6.43,8.71-8.3,1.55-.78,1.48-1.92,1.25-3.33-1.39-8.51-6.17-16.2-5.95-25.09.04-1.62-1.03-2.47-2.59-2.32-2.15.21-1.52,1.68-1.14,2.97.28.94.56,1.88.74,2.49Zm-23.16,47.31c3.56-12.22,5.77-24.21,10.24-35.55.37-.93,1.51-2.22.25-3.13-1.12-.81-2.58-.52-3.74.25-4.91,3.26-8.92,6.75-9.64,13.49-.55,5.1.11,10.11-.16,15.16-.16,3-.78,7.08,3.06,9.78ZM172.65,195.58c-1.31-.13-2.62-.3-3.2.97-.3.65-.2,2.2.07,2.29,2.98,1,3.64,5.01,7.2,5.27,7.97.59,15.55,3.53,23.96,2.03,9.75-1.73,19.79-1.79,29.71-2.59,1.22-.1,3.02.5,3.02-1.53,0-1.68-1.62-1.27-2.7-1.4-10.48-1.25-20.91.41-31.21,1.52-8.04.87-15.08.4-21.56-4.35-1.7-1.25-3.52-1.74-5.29-2.21Zm281.86,311.52c-1.37-1.63-2.64-4.18-4.68-5.25-2.02-1.06-4.03.6-4.82,2.99-.28.86-1.26,1-1.79,1.52-3.99,3.86-10.36,6.61-6.95,14.16.2.45-.14,1.27-.44,1.81-.68,1.25-1.18,2.91-.03,3.58,1.22.72,2.94-.35,3.95-1.24,4.47-3.96,12.06-5.07,12.23-13.1,0-.4.99-.78,1.51-1.18.92-.7.68-1.79,1.03-3.28Zm96.25-59.97c2.72,2.52,6.54,5.18-.35,7.2-.63.19-1.16,1.59-1.27,2.49-.13,1.1.94,1.32,1.73,1.01,3.84-1.46,6.75-1.34,7.25,3.71.02.25.86.67,1.23.59,6.19-1.3,12.3.74,19.39,1.01-5.41-4.77-10.43-8.41-14.44-12.94-4.44-5-7.27-6.15-13.55-3.08Zm2.75,74.23c5.19.38,10.03-.11,14.15-3.91,5.22-4.82-4.75-5.82-2.39-10.08.43-.78-1.14-2.22-3.21-1.28-4.66,2.11-8.3,5.3-11.32,9.3-1.49,1.97-5.99,2.46-4.6,5.43,1.07,2.28,4.84.32,7.37.55Zm-258.05,139.57c-3.45-4.23-2-10.32-3.27-15.88-.15-.65-.22-1.31-.33-1.97-.11-.67-.27-1.48-1.05-1.41-.52.05-1.31.58-1.45,1.05-2.41,8.33-4.7,16.69-7.11,25.02-.4,1.37-.34,2.14,1.15,2.64,3.67,1.22,12.09-4.71,12.05-9.45Zm168.31-226.18c1.06,4.17,1.45,7.43,2.71,10.32,3.09,7.11,5.52,7.96,11.28,5.16,3.65-1.78,2.61-5.44,3.61-8.2,1.56-4.29-.39-6.37-4.56-4.67-4.57,1.86-8.22.96-13.04-2.6Zm4.71-14.03c.19.8.43,1.6.56,2.42.43,2.63-.3,6.15,4.41,5.23,4.09-.81,3.98-3.34,3.42-6.72-.61-3.67-2.42-8.09.28-11.07,3.6-3.96-.26-5.49-1.67-7.53-1.58-2.27-3.78-1.49-4.31,1.06-1.12,5.48-1.82,11.05-2.69,16.61Zm-170.3,262.59c-6.82,2.71-11.58,7.03-17.82,7.13-2.17.03-4.14.52-4.07,3.15.06,2.04-.74,4.72,1.22,5.95,1.9,1.19,4.41.19,5.94-1.25,4.71-4.43,10.11-8.2,14.73-14.98Zm195-178.23l-1.23.08c-.25,4.6-1.4,8.98-2.6,13.37-1,3.66,1.91,5.82,7.04,6.95,4.22.93,2.78-1.93,3.54-3.91,1.3-3.39,1.8-5.52-2.89-5.7-1.22-.05-1.52-1.56-1.8-2.73-.64-2.7-1.37-5.38-2.06-8.07Zm22.96-48.97c5.21,1.13,10.12-1.68,15.35-2.7,1.1-.21,2.43-.78,2.32-2.18-.09-1.21-1.26-1.32-2.31-1.23-8.19.71-16.39,1.37-24.57,2.18-.93.09-2.66-.06-2.56,1.63.08,1.35,1.4,1.66,2.54,1.98,2.92.81,5.87.8,9.23.33Zm-156.43,228.69c1.65-1.22,4.79-.62,5.98-2.84,1.19-2.23-.96-3.91-2.42-5.41-1.37-1.4-2.11-3.25-3.83-4.45-3.58-2.49-7.09-1.34-7.94,2.84-.34,1.68,6.13,9.83,8.2,9.86Zm-18.08-19.65c2.3-1.52,7.05-.2,6.62-5.27-.42-4.95-3.69-4.44-7.47-3.94-2.28.31-3.27,1.88-4.86,2.79-1.37.79-4.23-.36-3.98,2.56.23,2.73,2.92,2.18,4.61,2.81,1.52.56,3.21.68,5.09,1.05Zm-14.23,5.54c0-.2-.38-.69-1.04-.97-2.76-1.17-5.46-2.02-8.58-.99-3.6,1.19-5.77,4.6-9.46,5.6-.92.25-1.43,1.24-.99,2.45.53,1.43,1.79,1.84,2.77,1.3,4.7-2.59,10.22-2.43,15.01-4.66.98-.45,2.36-.59,2.29-2.73Zm-151.2-158.76c2.39,3.49,5.92,2.8,8.71,4.08,1.84.85,3.09-.03,3.46-1.61.45-1.93-1.4-1.68-2.58-2.15-4.84-1.92-9.81-2.23-14.96-1.99-2.81.13-5.97.99-8.24-1.97-.54-.71-1.95-.64-2.71.2-.36.4-.58,1.62-.39,1.74,2.69,1.74,5.47,3.35,8.22,4.99,2.08-3.57,6.68,1.73,8.48-3.29Zm88.23-15.37c4.84,1.69,15.44-1.45,17.65-4.82.36-.55.76-1.09,1.02-1.69.4-.92.68-1.98,0-2.81-.87-1.07-1.87-.17-2.63.25-5.24,2.9-10.44,5.89-16.04,9.07Zm-49.69-11.09c-2.29.6-4.84,2-5.78,4.48-.72,1.91-1.18,5.05,1.49,6.19,2.48,1.06,3.78-.8,4.53-3.17.31-.98,1.5-1.69,2.3-2.51.96-.99,1.84-2.09,1.38-3.52-.54-1.66-2.18-1.15-3.91-1.47Zm126.37,201.69c1.44,1.84-1,5.85,2.62,6.34,3.4.46,4.31-2.94,4.62-5.63.45-3.94-3.17-3.82-5.45-4.22-2.25-.4-1.31,2.04-1.8,3.51Zm-4.6-402.62c.26,2.92,2.53,3.03,4.39,2.63,2.49-.53,5.09-1.1,7.19-2.8-2.09-2.15-4.66-3.32-7.63-3.55-2.65-.21-3.05,2.02-3.95,3.72Zm-39.56-213.61c6.62,1.4,12.95,5.08,20.06,3.08-6.27-3.7-13.17-3.34-20.06-3.08Zm51.12,637.52c1.16-4-1.22-7.84.23-11.62.36-.94-.96-1.21-1.99-.29-3.41,3.05-4.92,4.34,1.76,11.91Zm145.82-272.93c.66.53-1.08,2.83,1.56,2.33,1.88-.36,4.14-.76,4.15-3.29,0-2.42-2.27-1.91-3.72-2.18-2.6-.5-1.79,1.55-1.98,3.15Zm-180.39-139.75c-.12-1.27-.18-2.8-1.82-2.33-2,.57-3.38,1.97-3.31,4.35.03,1.22.12,2.84,1.65,2.2,1.69-.71,3.51-1.93,3.48-4.22Zm-50.8-214.37c3.72.34,7.54.98,10.66-1.83-3.6.37-7.36-.38-10.66,1.83ZM64.68,439.14c.29,1.44-.85,3.98,1.73,3.8,3.85-.26-1.05-4.45,2.11-5.67.54-.21-.78-1.47-1.82-1.54-2.96-.21-1.75,2.03-2.01,3.41Zm57.12-112.91c1.44,2.36.8,7.31,6.09,5.28-2.37-1.4-3.47-4.1-6.09-5.28Zm465.54,140.73c-1.14-.99-2.13-1.57-2.73-2.42-1.09-1.55-2.46-1.48-3.85-.83-.79.37-1.03,1.46-.41,2.1,1.82,1.87,3.97,2.75,6.99,1.15Z"/>
  <path d="m456.6,601.18c5.4,1.28,9.78-.21,13.7-1.91,5.18-2.26,10.64-3.15,15.97-4.66,3.52-1,5.62-2.74,5.01-6.55-.36-2.23.27-3.35,2.43-4.06,10.02-3.32,19.39-9.05,30.76-7.18,2.9.48,6.46-.52,9.16-1.91,8.85-4.53,18.45-7.24,27.25-12,5.95-3.21,12.98-4.62,19.69-6.19,6.91-1.62,12.76-5.38,19.12-8.08,5.24-2.21,10.33-4.77,15.64-6.77,2.48-.93,5-2,6.75-3.69,4.2-4.05,8.86-3.56,13.77-2.44.57.13,1.47.65,1.5,1.05.75,8.81,6.95,3.55,8.71,2.24,2.85-2.12,5.9-3.23,8.9-3.53,4.68-.47,8.54-3.36,13.91-2.68,4.41.55,4.49,3.1,5.27,5.21,1.13,3.08-1.64,3.51-4.01,4.18-1.45.41-2.83,1.01-4.32.73-6.21-1.18-11.06,2.7-16.47,4.43-2.95.95-3.07,3.96-2.36,6.36,2.21,7.5.52,15.15,1.05,22.71.38,5.44-2.74,7.88-8.25,9.51-3.74,1.1-7.4,2.75-10.82,4.64-3.17,1.75-1.44,3.62.42,5.47,8.13,8.08,14.72,17.55,17.57,28.47,2.64,10.11,6.02,20.1,7.48,30.62.8,5.75,4.13,11.27,6.87,16.61,3.35,6.52,5.65,13.46,8.52,20.08,3.22,7.41,2.49,15.54,6.49,22.78,2.54,4.6,1.73,10.95,2.97,16.4,1.38,6.08,3.46,11.95,6.75,17.39,2.15,3.56,2.15,8.08,5.11,11.47,5.22,5.97,5.16,14.71,10.48,20.71.2.22.26.61.31.93,1.29,9.42,5.24,18.21,6.67,27.54.58,3.81,3.24,6.63,3.2,10.87-.04,4.46-2.31,5.99-5.33,6.67-5.61,1.25-11.45,2.93-17.09.39-2.95-1.33-6.51-2.88-6.92-6.63-1.04-9.7-5.62-18.23-9.53-26.73-2.43-5.27-5.38-10.76-7.49-16.05-3.02-7.57-7.86-14.27-10.17-21.98-2.4-8-4.8-15.97-8.21-23.57-5.17-11.53-9.7-23.3-16.15-34.33-4.71-8.04-8.65-16.7-12.12-25.51-4.3-10.91-9.88-21.33-13.91-32.32-1.76-4.81-5.37-8.56-6.39-13.56-.22-1.08-.37-1.94-1.68-1.97-1.59-.03-2.79.81-2.73,2.3.27,6.42-3.66,11.55-5.4,17.33-1.95,6.51-4.54,13.47-8.89,18.46-6.29,7.21-9.39,15.13-11.75,24.08-1.01,3.82-2.78,7.46-3.18,11.58-.13,1.37-1.76,3.63-2.84,3.71-9.62.76-7.87,9.93-11.24,15.17-.98,1.53-2.1,3.5-2.86,5.46-.97,2.52-3.7,5.17-6.93,4.59-4.54-.83-8.39-2.71-6.6-8.85.95-3.24,3.18-7.47,1.28-9.84-2.01-2.52-6.12.71-9.43.57-3.47-.14-6.97.06-10.44.32-2.16.17-4.39-.23-5.8,2.64-1.16,2.37-3.86,1.69-6.26.97-2.25-.67-4.72-.25-6.71,1.03-1.23.79-1.02,3.23-.43,3.61,2.4,1.57,1.5,4.17,2.47,6.08,2.97,5.84,3.62,12.52,6.03,18.29,2.95,7.08,3.86,14.92,8.04,21.48,1.5,2.36,1.04,5.17,1.8,7.7,3.62,12.03,6.49,24.27,10.72,36.15,3.91,10.97,6.65,22.36,10.57,33.33,3.38,9.46,6.66,18.93,9.44,28.58,1.04,3.61,3.81,6.07,5.96,8.91,4.39,5.8,3.56,11.61-2.19,13.41-2.19.68-3.7.46-5.14-2.12-4.55-8.12-7.03-16.97-10.27-25.58-2.88-7.67-5.22-15.57-7.61-23.3-2.83-9.16-6-18.31-8.4-27.68-1.76-6.87-4.31-13.8-6.67-20.61-2.54-7.3-5.19-14.64-7.85-21.89-2.18-5.93-3.08-12.37-6.45-17.85-1.3-2.11-.62-4.52-1.26-6.75-2.23-7.81-4.34-15.67-6.35-23.54-.89-3.49-2.68-5-6.42-4.46-3.94.57-7.94.67-11.91,1-2.5.21-3.57.7-3.06,4.05.77,5.03.95,11.37,3.37,14.57,3.94,5.19,2.82,12.09,7.51,16.45.33.31.48.88.56,1.36,1.19,7.75,5.76,14.03,9.09,20.84.14.29.21.65.21.97.16,7.51,4.7,13.59,6.98,20.39,3.11,9.27,8.68,17.81,12.05,26.92,4.14,11.2,11.56,20.75,13.77,33.11,1.7,9.52,4.75,19.24,8.18,28.56,1.44,3.9.72,8.16,3.45,12.05,1.9,2.71-2.71,3.19-4.58,4.37-2.74,1.73-5.11.48-6.86-1.73-.76-.97-1.17-2.45-1.21-3.72-.29-10.21-4.16-19.56-6.72-29.24-1.19-4.52-3.66-8.6-3.72-13.55-.07-6-4.62-10.44-7.35-15.26-3.45-6.09-6.01-12.45-8.9-18.73-3.93-8.55-5.22-18.15-9.58-26.4-5.99-11.31-10.15-23.31-14.71-35.14-4.37-11.35-8.22-22.92-10.76-34.87-.84-3.97-5.47-5.97-11.49-4.6-4.49,1.03-8.54,1.93-12.77-1.06-1.94-1.37-2.24.54-2.09,2.32.41,4.63,2.08,8.91,3.33,13.32,1.25,4.39,3.07,8.87-.81,13.27-1.49,1.69-2.26,1.96-3.16.2-3.96-7.67-6.81-15.55-8.12-24.33-.93-6.26-.94-13.03-4.08-18.94-.3-.57-.68-1.32-.55-1.88,2.34-9.88-3.07-18.79-3.49-28.32-.06-1.33-.31-2.69-.13-3.98.27-1.93.46-3.95,3.15-4.38,2.58-.41,4.31.63,5.28,2.75.82,1.78,1.07,3.82,1.67,5.71.4,1.28.9,2.56,2.59,2.61,1.4.05,2.06-.93,2.66-1.95,2.85-4.86,5.75-9.7,8.45-14.64.57-1.04.7-2.83-1.19-3.08-3.26-.43-5.78-1.87-5.76-5.31.01-3.18,3.22-4.41,5.43-5.62,6.04-3.29,12.08-6.49,19.42-6.7,3.23-.09,5.22-4.01,6.98-6.8,1.89-3,4.12-3.79,7.09-2.2,4.33,2.32,7.66.3,10.29-2.67,2.57-2.9,6.85-1.91,7.35-.67,2.75,6.89,7.31,2.19,9.57,1.04,7.13-3.63,14.56-6.28,22.03-8.96,5.22-1.88,10.86-2.88,14.91-7.4,1.91-2.12,4.69-2.74,7.77-2.27,7.79,1.18,14.11-2.67,20.29-6.58,1.75-1.11,3.63-1.55,5.48-2.14,5.22-1.68,9.91-5.02,15.72-4.97,1.68.01,3.02-.91,3.46-2.94.65-3.05,3-4.15,5.68-3.18,4.54,1.64,8.02.86,12.4-1.56,6.09-3.38,13.17-5.06,19.92-7.18,10.79-3.4,15.58-13.92,10.88-24.17-.71-1.56-1.76-1.78-3.19-1.59-2.52.33-4.58,1.82-6.87,2.71-8.29,3.22-16.78,5.99-24.91,9.58-10.55,4.65-21.44,7.52-32.8,9.52-6.57,1.16-13.14,3.31-19.57,5.31-6.33,1.97-12.88,3.06-19.06,5.26-5.6,2-11.74,3.05-16.48,7.1-1.52,1.3-3.45,1.07-5.18,1.54-7.17,1.93-13.9,4.87-20.37,8.47-.7.39-1.56.59-2.37.7-7.12.96-13.67,4.04-20.64,5.55-4.46.97-8.9.94-13.4.8-4.44-.14-7.52-2.49-9.67-6.08-.94-1.56-1.28-4.48,1.12-4.28,6.67.56,11.29-3.62,16.68-6.06,1.34-.61,3.18-1.5,3.88.18.71,1.71-1.94,1.36-2.52,2.36-1.02,1.75-2.95,2.06-5.08,3.75Zm240.57,211.84c.45-2.07.95-2.96.74-3.64-2-6.6-4.11-13.16-6.21-19.73-.15-.47-.32-1.02-.67-1.33-3.99-3.51-4.68-8.75-6.65-13.23-2.96-6.71-5.19-13.96-8.24-20.44-4.84-10.29-8.23-20.92-11.64-31.61-1.82-5.7-1.97-11.87-4.43-17.45-1.97-4.46-1.03-9.66-3.1-13.99-5.19-10.85-8.79-22.31-12.52-33.64-3.93-11.95-6.17-24.42-10.87-36.22-1.48-3.72-3.86-6.76-5.91-9.88-1.1-1.67-2.65-4.9-4.58-5.08-4.93-.45-6.28-4.8-7.32-7.53-1.71-4.49-3.78-2.98-5.84-1.58-2.15,1.46-4.34,2.34-6.82,2.77-1.81.31-2.74,1.05-1.61,3.05,4.98,8.79,6.66,18.91,11.8,27.75,5.52,9.51,8.48,20.32,13.75,30.11,5.26,9.78,9.63,20.03,14.97,29.84,4.22,7.75,8.75,15.6,10.8,24.52.74,3.23,1.46,6.89,3.26,9.59,4.29,6.44,8.07,13.43,10.46,20.42,2.84,8.27,7.64,15.65,9.94,23.81,2.39,8.47,6.51,15.98,9.56,24.01,2.63,6.94,7.08,12.38,11.14,19.47Zm-197.22-119.67c1.94-1.55,4.69-2.38,5.86-4.95,3.93-8.65,7.78-17.33,11.59-26.02.43-.99,1.22-2.51-.04-3.16-1.49-.77-2.28.67-2.92,1.87-3.49,6.56-6.79,13.23-10.41,19.73-1.83,3.28-5.55,5.78-5.26,10.25.07,1-.46,1.97,1.18,2.28Zm79.43-81.84c.66,0,1.34.07,1.99-.01,1.4-.17,3.19.42,3.81-1.5.35-1.08.74-2.56-.34-3.25-1.44-.92-3.6-.79-4.72.04-2.75,2.02-5.79,2.96-8.96,3.87-1.04.3-2.17,1.01-2.32,2.36-.1.9.28,1.67,1.23,1.88,1.36.3,3.09.31,3.55-1.01,1.11-3.18,3.57-2.28,5.75-2.37Zm-53.77,67.7c4.7-5.53,6.75-10.8,8.29-16.34.12-.45.09-1.05-.13-1.45-.6-1.12-1.88-1.38-2.12-.14-1.1,5.78-6.58,9.95-6.04,17.92Zm-3.68,20.07c2.12-.56,6.23.5,6.31-2.37.06-2.09-4.3-3.01-6.96-3.42-1.97-.3-3.36,1.55-3.53,3.46-.28,3.11,2.3,1.95,4.19,2.32Z"/>
  <path d="m700.5,635.81c-3.95,1.53-7.4-1.8-10.66-5.3-3.68-3.95-9.49-5.21-12.48-9.93-1.98-3.13-1.85-7.31.87-8.8,2.48-1.35,6.43-1.87,9.27,2.4,2.62,3.93,4.86,8.89,10.84,9.96,2.89.52,5.76.27,7.65-.89,4-2.44,8.33-3.37,12.59-4.84,2.05-.7,4.15-2.49,5.3-4.35,2.43-3.93-2.13-5.68-3.71-7.86-3.16-4.36-3.08-6.73.48-10.7,3.21-3.59,6.9-6.68,8.25-12.27,1.5-6.21,5.36-12.01,9.18-17.44,6.34-9.02,11.44-18.59,14.66-29.23,3.28-10.83,5.92-22.13,11.09-32.05,6.26-12.01,10.06-24.65,14.43-37.26,3.01-8.68,5.16-17.54,6.62-26.43,1.31-7.93.16-16.25.2-24.4.02-3.31.16-6.64.49-9.94.92-9.32-6.05-24.21-14.09-26.62-6.42-1.92-13.21-3.81-20.44-2.23-6.43,1.4-13.32.8-19.71,2.33-10.69,2.56-21.66,1.56-32.35,3.55-1.69.31-3.38.61-4.32,2.12-3.79,6.07-7.8,12.04-11.09,18.38-1.75,3.36-5.18,5.89-5.26,10.12-.02.87-.57,2.59.78,2.03,2.43-1.01,4.02.16,4.66,1.73,1.14,2.8-.02,6.33-1.76,7.91-5.35,4.87-4.65,11.6-6.11,17.49-1.8,7.28,2.95,14.29,2.61,21.79-.14,2.99,3.14,2.95,5.37,3.15,1.56.14,3-.04,3.4,1.99.38,1.88.11,3.12-2.04,3.78-1.72.52-2.47,1.94-2.22,3.94.28,2.26,1.52,2.74,3.56,3.28,2.58.69,4.92,1.75,7.67.72,1.34-.51,2.7-.16,3.13,1.52.37,1.44.64,2.6-1.16,3.74-8.06,5.12-13.24,3.68-19.32-4.23-3.09-4.03-4.98-9.71-11.3-10.76-1.75-.29-2.59-3.01-.62-3.8,5.36-2.12,2.88-7.63,1.92-8.7-2.81-3.11-1.93-6.56-2.36-9.7-1-7.35-3.12-14.44-4.31-21.7-1.65-10.08,3-18.78,6.24-28,2.74-7.78,7.76-13.64,12.04-20.14,4.42-6.71,10.46-12.13,15.92-18.01,4.01-4.31,9.1-4.22,13.98-5.83,9.93-3.28,20.73-1.78,30.31-6.29,1.13-.53,2.38-.3,3.73.42,4.75,2.51,9.91,4.3,14.47,7.09,9.49,5.83,20.36,9.38,28.07,18.26,3.75,4.32,7.24,8.8,10.5,13.43,2.18,3.11,1.96,7.12,1.53,10.98-.94,8.46-2.36,17.27-.41,25.39,1.48,6.18,1.05,13.27,5.94,18.79,1.53,1.73.09,5.85.6,8.77,1.79,10.33-3.29,18.83-7.89,27.02-3.8,6.77-5.23,13.9-5.23,20.99,0,9.46-1.85,17.62-7.06,25.69-6.28,9.72-13.71,18.69-19.33,28.74-2.95,5.27-6.09,10.84-6.81,17.21-.57,5.06-3.38,9.14-6.46,13.01-.5.63-1.25,1.17-1.51,1.89-3.64,9.88-9.37,18.73-13.75,28.25-.89,1.94-1.18,4.15-2.07,6.09-1.84,4.01-5.68,5.62-9,8.14-6.95,5.27-14.4,4.79-23.53,5.6Zm66.6-103.3c3.84-5.54,6.87-10.61,10.61-15.09,3.39-4.06,3.89-8.51,3.67-13.35-.04-.91.31-2.19-1.07-2.38-1.35-.19-1.95.78-2.49,1.94-3.11,6.81-6.43,13.52-9.39,20.39-.98,2.27-3.3,4.38-1.33,8.49Zm-8.29-162.51c-.19-.3-.37-.97-.7-1.06-4.26-1.07-7.54-4.26-12.41-4.47-5.1-.22-8.63,2.86-12.98,4.03-.79.21-1.55.82-1.21,1.84.37,1.12,1.3.67,2.08.56,7.6-1.14,15.21-3.51,22.69.68,1.15.65,2.29.15,2.53-1.58Zm30.64,100.5c.37.08.74.15,1.11.23.55-1.47,1.38-2.89,1.59-4.41.74-5.32,4.91-9.66,4.28-15.31-.17-1.53.49-3.99-1.54-4.21-2.56-.28-1.52,2.27-1.82,3.7-.21.97-.43,1.93-.6,2.9-1.01,5.7-2.01,11.41-3.01,17.11Zm-75.75-100.71c-1.3.69-3.95-1.03-4.04,2.01-.04,1.46,1.49,1.98,2.5,1.5,1.65-.77,4.55.2,4.84-2.28.18-1.56-1.98-1.08-3.3-1.23Z"/>
  <path d="m296.87,584.57c7.3,1.37,14.53-3.41,22.46-4.76,1.3-.22,2.16-.96,2.24-2.27.08-1.51-.74-2.54-2.22-2.88-1.12-.25-2.3-.26-3.42-.52-2.45-.55-3.64-2.17-3.52-4.66.11-2.29,1.53-3.06,3.67-3.12,6.9-.2,13.62-.41,20.35,2.45,4.19,1.79,9.29,1.01,13.93,2.37,5.75,1.69,11.07,3.4,12.46,10.19.2.99.43,2.17,1.61,2.25,5.08.36,8.12,4.59,12.43,6.48,3.89,1.71,6.15,5.95,10.41,7.61,6.84,2.66,8.74,8.26,10.7,15.21,2.95,10.48,8.33,20.44,8.83,31.47.29,6.41.44,13.67-5.25,18.7-2.52,2.23-5.61,3.93-9.04,2.26-3.41-1.65-2.29-4.47-1.48-7.35,1.42-5.08,2.42-10.27,3.58-15.42.93-4.14.58-7.72-1.69-11.79-2.42-4.33-5-9.07-5.47-14.22-.95-10.42-8.6-15.41-16.4-19.57-8.07-4.3-15.87-8.83-22.78-14.78-1.84-1.59-3.8-1.95-5.45-.97-7.91,4.69-17.08,5.39-25.48,8.48-3.07,1.13-6.25,1.01-9.36,1.12-6.67.24-11.64,3.84-16.4,7.8-2.21,1.84-4.58,1.64-7.03,1.71-1.07.03-2.34-.56-2.26-1.55.35-4.07.47-8.28,1.72-12.09.85-2.6,4.29-1.91,6.71-2.12,1.65-.14,3.32-.03,6.15-.03Z"/>
  <path d="m185.92,433.01c-2.15,5.03-3.76,9.19-7.48,12.3-2.62,2.18-5,1.97-7.08.13-2.33-2.07-1.78-5.78.1-6.93,2.86-1.76,2.91-4.49,3.55-6.7,1.98-6.9,4.24-9.5,10.76-7.52,5.31,1.62,10.2,5.53,13.37,10.28,1.42,2.14-1.16,6.27-3.04,7.12-2.09.94-6.37,1.78-7.62-2.81-.5-1.81-1.5-3.49-2.56-5.87Z"/>
  <path d="m326.09,859.38c.99,4.4,3.99,7.54,6.36,11.49.48-4.47,2.09-7.35,6.98-7.39,4.21-.04,6.04,1.68,6.51,5.91.34,3.07-2.23,7.69,3.72,8.63,1.14.18.58,1.56-.23,2.35-1.8,1.74-5.13,2.23-6.1,3.39-3.05,3.65-4.05-.41-5.24-1.04-9.33-4.92-13.23-12.93-11.99-23.35Z"/>
  <path d="m351.53,235.69c4.72-1,8.07-1.69,10.53-5.74,1.65-2.72,5.08-4.66,8.26-6.37,2.59-1.4,2.88.95,3.88,1.65.99.69,1.01,2.65-.67,3.22-2.46.84-1.45,2.21-1.19,3.89.57,3.6.16,6.35-4.87,6.52-3.79.13-7.58,1.54-10.93,3.82-2.01,1.37-4.21,1.28-6.28-.47-2.93-2.47-5.05-2.11-8.44.55-4,3.13-8.42,6.16-13.65,7.88-3.77,1.24-6.85,4.85-11.26,4.74-3.84-.1-7.5,1.57-11.51.42-2.7-.78-3.35-2.42-3.74-4.56-.33-1.8.28-3.04,2.43-2.48,9.7,2.54,16.86-2.88,24.43-7.46,3.13-1.9,6.61-3.03,9.8-5.19,3.79-2.57,6.72-5.61,9.44-9,1.11-1.38,2.45-2.32,3.68-1.79,1.8.77,3.4,2.23,4.78,3.69.65.68-.44,1.6-1.15,1.78-2.21.57-2.34,2.53-3.53,4.89Z"/>
  <path d="m348.29,366.53c-.64,2.32.72,6-3.84,6.02-1.58,0-3.08-1-2.42-2.3,1.32-2.61,1.37-6.64,5.2-7.04,1.87-.2.9,2.01,1.06,3.33Z"/>
</svg>