<?xml version="1.0" encoding="UTF-8"?>
<svg id="Layer_1" data-name="Layer 1" xmlns="http://www.w3.org/2000/svg" width="893.74" height="862.63" viewBox="0 0 893.74 862.63">
  <path d="m522.45,481.77c-4.32,2.78-9.08.87-13.61,1.14-3.3.2-6.66-.62-9.94-.33-8.73.78-13.9,6.08-14.08,13.92-.17,7.48,5.5,13.34,14.06,13.86,5.96.36,12.01.39,17.94-.2,14.74-1.45,29.07.31,43.17,4.52,24.85,7.42,49.69,14.49,71.45,29.78,15.01,10.55,33.11,13.52,51,16.1,6.27.9,11.76-1.3,17.08-4.33,6.35-3.62,7.47-6.1,2.45-12.28-5.16-6.35-4.81-13.51-5.1-20.56-.36-8.61.49-17.27.53-25.91.07-19.63,7.27-37.73,11.85-56.39,1.57-6.41,4.58-12.41,4.37-19.37-.29-9.76-.63-10.62-11.79-14.98-1.13-.44-2.94-1.25-2.98-1.96-.12-2.44,2.17-2.72,3.86-2.69,3.29.06,6.73.04,9.82,1,4.54,1.41,7.97,3.94,8.73,9.58,1.17,8.68,1.8,17.18-.63,25.73-2.91,10.22-5.34,20.6-8.64,30.69-3.78,11.56-4.77,23.27-5.15,35.37-.51,16.22,1.03,31.84,7.92,46.59,2.57,5.51.6,8.68-3.6,11.77-6.44,4.73-13.47,8.3-21.14,10.46,1.63,7.24,3.62,13.56,4.39,20.02,1.66,13.9-1.86,26.56-11.85,36.65-6.5,6.58-13.18,12.84-22.18,16.62-12.43,5.21-24,6.48-36.19-.42-10.62-6.01-22.3-8.07-34.58-7.96-22.64.2-45.28-.1-67.92-.38-5.97-.07-12.07-.19-17.88-1.42-18.87-3.99-37.75-8.05-56.4-12.94-20.18-5.29-38.43-14.92-55.05-27.55-20.22-15.37-39.65-31.47-53.27-53.51-6.76-10.93-12.86-21.61-10.42-35.32,1.06-5.97-1.55-11.76-3.89-17.35-3.85-9.17-7.65-18.37-11.09-27.7-.5-1.37,1.11-3.52,1.75-5.31,1.8.71,4.63.91,5.26,2.2,8.18,16.68,17.16,33.21,19.45,51.97,2.22,18.22,10.59,32.09,24.69,43.81,12.82,10.66,24.49,22.6,40.9,27.86,3.17,1.02,6.26,2.77,9.48,3.05,19.84,1.75,39.69,3.49,59.58,4.64,23.84,1.37,45.91-5.48,67.13-15.69.6-.29,1.26-.45,1.86-.74,28.57-13.75,54.05-9.1,77,12.47,5.78,5.43,12.34,10.07,18.81,14.7,3.84,2.74,8.58,1.17,9.71-2.87,2.54-9.05,3.43-18.32,2.57-27.68-.39-4.22-2.75-6.98-6.73-9.07-8.83-4.63-17.07-10.45-26.03-14.78-35.03-16.94-71.06-30.34-111.01-26.14-9.55,1-17.12-2.14-23.91-7.7-11.88-9.72-12.35-28.68-1.33-39.15,1.38-1.31,3.28-2.49,5.11-2.83,12.19-2.24,23.92-1.82,33.62,7.33.76.72.6,2.41.87,3.68Zm.13,129.01c11.01-1.56,17.39-2.37,23.73-3.4,3.11-.51,8.98-.2,8.51-2.79-.91-4.97-6.12-2.14-9.59-1.99-6.57.29-12.92,1.49-22.64,8.18Zm152.96-26.39c-2.08,6.48-2.54,12.83-.58,19.4,8.75-6.86,8.92-11.88.58-19.4Zm-104.56,18.76c4.21,2.85,8.62,4.53,13.59,1.23-2.19-.86-3.32-1.66-4.46-1.67-3.04-.03-6.09.27-9.13.44Z"/>
  <path d="m97.95,155.07c-14.1,12.72-19.43,30.09-20.75,47.61-2.29,30.55-.77,61.16,9.38,90.69,5.29,15.4,14.38,28.27,25.12,40.18,4.46,4.94,9.06,9.76,13.53,14.69,6.5,7.15,9.89,15.87,11.25,25.17,2.31,15.76,4.13,31.59,5.7,47.44.81,8.15,3.45,15.61,7.02,22.75,4.62,9.22,20.42,12.26,27.53,4.9,3-3.1,3.6-8.41,5.78-12.45,1.3-2.4,3.76-3.59,6.75-2.41,2.74,1.08,4.37,2.91,4.2,5.97-.07,1.32-.11,2.73-.61,3.91-1.84,4.31-3.99,8.55-8.02,11.2-15.98,10.52-34.59,9.36-45.43-7.12-5.59-8.51-8.02-18.19-9-28.28-1.35-13.91-3.05-27.78-4.2-41.7-.86-10.42-5.13-19.02-11.84-26.84-8.66-10.09-16.76-20.66-25.41-30.76-4.43-5.17-7.76-10.79-9.75-17.23-5.72-18.46-11.33-37.01-11.75-56.51-.36-16.56-4.15-33.09-.07-49.72,1.9-7.75,3.58-15.46,6.64-22.93,7.34-17.9,16.25-34.98,26.96-50.98,11.52-17.2,35.27-22.08,52.98-11.49,14.84,8.88,24.5,20.98,27.89,39.03,3.16,16.85,9.43,33.18,15.16,49.45,2.96,8.4,3.94,16.79,3.87,25.47-.03,3.88.47,8.34-4.6,9.81-2.77.8-5.38-3.04-5.83-8.61-.37-4.64-.8-9.32-.64-13.96.21-6.37-2.31-11.6-6.76-17.79.31,6.62.37,12.05.86,17.44,2.36,25.9,3.1,51.72-2.5,77.38-1.27,5.83-1.67,11.86-2.21,17.82-.17,1.86,0,4.15.94,5.65,8.24,13.1,9.08,27.07,5.91,41.81-.97,4.5-.39,9.3-.82,13.94-.55,5.89-2.98,8.38-8.24,9.59-14.43,3.32-20.51-7.1-18.9-16.06,1.77-9.81,2.21-19.8,4.44-29.51,3.41-14.88,7.65-29.63,10.08-44.67,2.75-17.02,5.04-34.28,5.42-51.48.36-16.5-4.18-32.78-5.84-49.28-1.39-13.82-9.18-26.28-16.51-38.19-2.34-3.81-6.36-6.79-10.07-9.53-9.95-7.35-20.2-6.43-28.27,3.01-7.01,8.21-12.01,17.66-12.32,28.84-.5,17.95-1.58,35.87-2.46,53.78-.77,15.71,2.95,31.69,5.26,47.47,2.4,16.36,9.77,28.84,29,31.64.22-8.29-3.21-15.18-7.9-21.52-3.56-4.82-7.74-9.16-11.33-13.95-9.27-12.38-9.31-28.54-.3-40.74,8.28-11.21,23.87-13.5,35.62-5.28,2.96,2.07,4.63,4.97,4.35,8.44-.6,7.29-1.02,14.68-2.61,21.79-2.38,10.69-2.04,19.86,8.99,25.68,2.32,1.23,1.53,3.41.44,5.03-1.31,1.94-3.66,1.93-5.33.97-10.08-5.81-15.61-14.34-14.35-26.31.84-7.94,2.31-15.81,3.17-23.75.51-4.71-2.16-7.19-6.95-7.71-6.69-.73-11.81,1.46-14.87,7.57-5.98,11.94-4.91,23.49,3.64,33.55,6.56,7.71,11.28,16.4,16.09,25.11,1.56,2.83,2.82,6,3.39,9.17,1,5.6-3.54,10.75-8.95,10.8-18.04.18-35.8-13.69-38.53-31.22-4.49-28.89-10.02-57.66-5.53-87.29,1.98-13.07,1.15-26.56,1.58-39.87.88-.77,2.04-1.36,2.59-2.31.83-1.43.13-2.47-1.48-2.45-.26,0-.7,1.01-.73,1.58-.08,1.2.06,2.41.1,3.62Zm73.87.81c2.92-12.12-4.68-20.27-11.21-28.4-7.48-9.32-17.47-13.91-29.79-12.49-10.69,1.23-13.81,3.63-22.23,17.87,4.31,1.36,7.87-1.42,11.15-2.94,11.96-5.54,21.82-2.12,31.41,5.33,5.32,4.13,9.93,8.79,13.53,14.47,1.72,2.71,3.23,5.66,7.14,6.16Zm8.42,193.69c.2,0,.41-.01.61-.02-.41-5.92-.71-11.86-1.34-17.76-.1-.95-1.53-2.21-2.55-2.46-.85-.21-2.73.68-2.92,1.4-2.45,9.58-6.09,18.91-6.38,28.96-.07,2.6-.66,5.25-.37,7.8.31,2.7,1.88,5.26,4.81,5.52,2.74.24,5.06-1.47,6.31-3.98.86-1.73,1.64-3.68,1.74-5.57.25-4.62.08-9.27.08-13.9Zm-4.11-185.1l-.95-.67-.13,1.08,1.09-.41Z"/>
  <path d="m214.11,425.41c.05-13.3,3.36-26.51,1.53-39.88-.31-2.3,1.61-5.42,4.97-4.87,1.66.27,3.82,1.66,4.48,3.12,2.23,4.96,1.84,10.33,1.58,15.68-.89,18.58-1.1,37.22-2.51,55.76-1.42,18.76,4.78,33.82,18.86,46.02,11.56,10.02,22.86,20.27,35.07,29.58,13.71,10.45,26.84,21.82,39.25,33.8,22.03,21.28,42.4,44.17,62.16,67.59,11.64,13.8,25.12,25.39,39.93,35.86,26.13,18.49,49.93,39.75,71.72,63.34,13.94,15.09,30.22,27.75,47.23,39.31,2.69,1.83,5.89,3.19,9.06,3.96,22.33,5.42,44.78,6.02,67.3,1.04,4.14-.91,7.7-2.57,8.66-7.1,3.19-14.99,6.37-29.96,3.93-45.48-.77-4.89-2.39-8.92-6.53-11.76-6.67-4.58-11.82-10.7-16.96-16.83-10.17-12.13-8.97-33.89,2.46-45.29,1.56-1.56,3.9-1.87,5.25-.53,1.21,1.19,2.19,3.78,1.74,5.27-1.75,5.7-4.44,11.12-6.2,16.82-2.33,7.55-1.1,14.27,5.2,19.92,4.94,4.43,8.6,10.53,13.98,14.18,11.05,7.48,12.06,19,12.5,30.01.45,11.19-1.56,22.52-2.95,33.73-.99,7.96-5.57,12.98-13.57,15.39-26.97,8.12-53.95,7.59-80.72-.17-10.92-3.16-20.11-10.1-29.03-17.21-17.75-14.15-32.83-31.09-49.26-46.62-16.93-15.99-33.73-32.12-53.4-44.84-22.13-14.31-39.06-34-55.83-53.84-24.54-29.02-50.43-56.82-80.08-80.62-15.09-12.11-29.2-25.09-43.29-38.24-11.02-10.29-16.09-22.63-16.46-37.17-.33-13.3-.07-26.62-.07-39.93Z"/>
  <path d="m289.43,190.35c-.88-8.63,3.29-20.79,5.46-33.14,1.59-9.06,6.38-17.45,13.43-24.01,3.41-3.17,7.65-5.73,10.2-9.47,9.22-13.53,21.35-11.15,33.64-6.54,13.16,4.94,24.59,12.95,35.46,21.81,17.48,14.25,36.41,26.57,54.07,40.66,14.04,11.21,32.12,15.65,48.76,22.16,5.15,2.02,11.82.71,17.71.11,6.58-.66,13.03-2.61,19.61-3.35,12.82-1.44,19.83,3.56,23.98,15.8,1.39,4.11,1.29,7.78-.7,11.46-4.93,9.13-11.52,15.52-22.51,17.64-14.84,2.86-28.85,1.07-42.77-3.9-9.32-3.33-18.42-7.11-28-9.95-16.04-4.77-30.16-13.57-39.75-28.3-7.59-11.66-17.14-21.88-24.67-33.71-7.88-12.38-19.51-21.61-31.99-29.43-8.86-5.55-18.78-6.68-28.69-4.83-8.56,1.6-15.92,5.42-20.69,13.89-11.43,20.29-17.21,41.32-11.59,64.56.26,1.06-.05,2.8-.78,3.45-1.73,1.55-3.53.2-5.16-.69-3.2-1.74-4.74-4.64-4.95-8.1-.23-3.97-.05-7.95-.05-16.13Zm145.58,5.21c1.46,1.63.6,3.22.05,4.91-.28.87.02,1.94.07,2.91.28-.31.78-.62.78-.92,0-.58-.4-1.15-.44-1.74-.12-1.69-.15-3.39-.21-5.08-4.3-3.28-2-11.23-9.92-13.05.62,6.87-.14,13.59,9.67,12.97Zm41.49,23.97c1.26,2.29,2.23,4.82,3.86,6.8,1.55,1.89,4.06,4.56,6.36,1.75,1.88-2.31-.79-4.72-2.42-6.54-2.33-2.6-5.07-4.25-8.39-1.32.55-1.77,2.06-3.97,1.48-5.22-2.54-5.52-2.3-13.19-10.38-14.8-.53-.11-1.65.26-1.68.52-.9,6.45,3.69,10.29,7.15,14.64,1.2,1.51,2.61,2.87,4.02,4.18Zm-10.81,3.3c-6.5-11.79-11.37-20.76-16.43-29.62-.54-.95-2.14-1.36-3.32-1.87-.56-.24-1.35-.35-1.87-.13-.55.23-1.33,1.02-1.25,1.42.5,2.48.95,5.03,1.89,7.36,3.62,8.98,8.22,17.19,20.99,22.84Zm19.66-12.27c6.01,8.98,12.84,16.54,21.1,22.88.5.39,1.2.74,1.8.73,1.23-.03,2.53-.14,3.67-.57,1.39-.52,1.45-1.73.56-3.21-4.11-6.83-9.16-12.89-15.09-18.17-3.01-2.68-6.64-3.74-12.06-1.66Zm43.9,20.77c.71-1.9.72-3.65-.85-5.22-5.21-5.2-5.57-14.92-15.03-16.19-4.42,9.72,7.2,11.79,8.98,18.64.41,1.56,2.42,2.82,3.89,3.96,1.26.98,2.41.41,3.01-1.19Zm-125.11-67.77c-.48.42-1.42,1.09-1.36,1.21,1.81,3.24,3.68,6.45,5.66,9.59.2.32,1.19.41,1.65.21.48-.21,1.18-1.02,1.08-1.33-1.2-3.48-1.58-7.47-5.3-9.53-.46-.26-1.14-.11-1.73-.15Zm126.01,46.58c.21,2.53,1.11,4.04,3.6,3.72.59-.08,1.11-.68,1.66-1.04-1.07-1.49-2.15-2.97-3.22-4.46-.73.64-1.47,1.28-2.04,1.78Z"/>
  <path d="m789.98,45.8c-4.65,0-9.31-.14-13.96.04-4.79.18-9.28,1.49-12.38,5.45-5.01,6.39-11.7,10.75-18.07,15.55-15.42,11.62-24.13,28.35-31.86,45.13-12.48,27.1-24.31,54.6-34.42,82.66-5.9,16.38-18.81,21.24-32.45,26.34-1.87.7-5.15-1.14-7.26-2.56-8.67-5.83-13.41-14.55-16.59-24.17-2.33-7.07.03-13.15,6.61-16.91,2.79-1.59,6.06-2.94,9.21-3.2,9.95-.83,15.59-6.21,18.34-15.44.95-3.17,2.77-6.11,3.56-9.31,6.22-25.46,21.31-45.65,38.97-63.96,11.51-11.94,23.75-23.38,36.83-33.56,19.61-15.27,42.31-17.72,66.09-12.03.74.18,1.59,2.05,1.48,3.02-.11.92-1.37,2.37-2.2,2.43-3.95.26-7.92.11-11.88.11v.39Zm-138.36,142.24c-.21,1.36-1.17,1.12-.79.44,1.29-2.31-1.53-.04,1.13-.09-1.69,4.31-2.98,8.55.57,12.67,1.8,2.09,3.87,3.61,6.61,2.66,1.67-.58,3.13-1.91,4.43-3.17.19-.18-.79-2.18-1.63-2.72-4.1-2.65-10.3-2.99-10.34-9.81Zm22.4-11.47c.34-4.13-3.11-6.19-5.57-5.6-2.92.7-4.27,2.94-5.85,5.03-2.46,3.25-1.73,6.09,1.26,8.56,2.89,2.4,5.87,1.61,7.86-2.31,1.18-2.32,1.97-4.84,2.3-5.68Zm4.54-36.05c3.65-1.01,7.44-1.86,11.08-3.12,2.29-.8,2.41-4.99.1-6.4-2.61-1.59-5.34-4.38-8.69-2.05-2.72,1.89-4.23,4.92-4.45,8.25-.07.99,1.17,2.06,1.96,3.33Zm-43.9,53.73c-1.91,7.47,1.84,11.04,5.73,14.4.68.59,2.61.5,3.41-.07.69-.49,1.1-2.32.73-3.17-1.83-4.23-4.96-7.47-9.87-11.17Zm40.34-31.92c3.78-.83,7.32-6.35,5.7-8.98-.78-1.27-3.24-2.29-4.81-2.13-4.25.42-6.98,4.9-5.09,8.22.81,1.42,2.95,2.07,4.2,2.89Zm21.3-47.76c2.15.11,3.75-.8,3.89-2.96.07-1.03-.63-2.6-1.48-3.12-1.93-1.19-5.55,1.71-4.87,3.89.28.9,1.61,1.48,2.45,2.19Z"/>
  <path d="m348.8,252.41c4.52-6.95,9.61-7.47,13.69-8.75,4.93-1.55,11.08-1.46,15.04,2.61,15.99,16.47,35.65,15.23,55.79,12.42,13.18-1.84,26.32-3.99,39.55-5.37,21.76-2.27,38.21,9.03,53.45,22.41,4.99,4.38,4.51,11.1,2.8,16.9-1.47,4.99-3.98,9.83-6.82,14.23-5.87,9.11-10.64,9.34-18.86,1.5-1.93-1.84-3.66-3.86-5.56-5.73-9.96-9.83-21.19-16-35.87-12.89-4.53.96-9.19,1.35-13.81,1.77-18.52,1.68-35.74-1.91-50.9-13.17-5.36-3.98-10.91-8.18-13.34-14.55-5.14-13.45-15-15.53-27.43-12.63-1.77.41-3.59.59-7.75,1.25Zm149.18,27.6c-.75-1.3.31-1.6.37-.73.17,2.62,1.48-.55-.99.46-2.15-1.58-1.71,2.28-1.58-.38.02-.49.28-1.33.55-1.38,1.61-.31,2.21.46,1.65,2.03Zm-53.88-12.43c11.92,5.46,20.33,4.29,28.61,3.92.98-.04,2.41-1.19,2.76-2.15.92-2.47-1.24-3.51-2.94-4.23-8.74-3.73-16.31,1.13-28.43,2.46Zm-14.31,10.61c-.12-7.43-5.33-10.76-13.74-8.42-.85.24-2.09,2.41-1.87,2.69,3.15,4.05,6.7,7.82,11.87,9.1,1.97.49,3.49-1.01,3.74-3.38Zm82.64,24.34c4.29-5.48,10.2-10.62,8.49-19.56-.12-.62-.64-1.71-.8-1.68-1.1.21-2.74.35-3.12,1.08-3.21,6.12-6.2,12.35-9.16,18.59-.06.14.89.9,1.47,1.15.55.24,1.24.19,3.12.43Z"/>
  <path d="m767.92,123.39c-.78,6.6-4.1,13.24-7.87,19.33-4.52,7.29-9.8,14.28-15.69,20.51-20.02,21.17-34.04,45.37-39.89,74.14-1.18,5.8-3.63,11.34-5.59,16.97-1.8,5.17-5.03,9.17-9.64,12.27-7.15,4.8-11.5,5.14-18.27.75-7.41-4.8-10.06-10.39-8.05-18.52,1.27-5.13,2.97-10.24,5.14-15.06,11.18-24.91,25.01-48.34,41.37-70.16,5.92-7.89,13.28-14.79,20.48-21.63,12.63-12,21.07-25.54,18.86-43.85-.13-1.09.69-3.1,1.45-3.31,1.7-.47,3.94-.68,5.43.07,11.64,5.79,10.41,17.38,12.26,28.49Zm-7.75-5.15c-.49-.92-.99-3.38-2.25-3.86-2.44-.94-3.27,1.57-3.67,3.43-2.03,9.35-7.01,16.78-13.77,23.45-4.18,4.13-7.48,9.18-11.01,13.94-1.29,1.75-.79,3.77.7,5.26,1.68,1.69,3.8,1.15,5.13-.23,6.83-7.11,13.66-14.21,19.06-22.59,3.7-5.75,5.71-11.79,5.81-19.41Zm-88.83,134.92c-.27,6.62,3.99,11.21,7.99,9.82,5.61-1.95,10.33-8.28,9.73-13.61-.52-4.62-4.38-6.27-8.03-7.86-3.65-1.6-6.94-.36-7.9,3.11-.87,3.16-1.36,6.43-1.79,8.55Z"/>
  <path d="m401.46,482.46c-10.13,1.87-20.78-2.43-31.15-6.79-12.58-5.28-22.75-13.06-26.2-27.7-2.73-11.58-6.96-22.81-10.62-34.16-1.83-5.68-3.49-11.48-5.93-16.91-11.77-26.27-31.7-35.49-59.93-28.08-5.13,1.35-10.25,2.92-15.48,3.56-2.61.32-4.96-1.96-5.54-4.82-.39-1.92.15-3.82,2.32-4.82,11.11-5.13,23.43-4.32,35-7.22.62-.15,1.38-.09,1.98.12,24.93,8.8,48.43,19.03,55.72,48.42,3.2,12.88,7.91,25.38,11.55,38.16,4.96,17.41,16.64,26.26,34.18,28.95,16.98,2.6,33.2.03,48.92-6.06,13.76-5.33,28.14-7.74,42.52-10.32,1.85-.33,3.91-.1,5.72.42.59.17,1.26,2.29.93,3.13-1.6,4.03-5.08,5.78-9.08,6.94-17.19,4.97-34.39,9.95-51.52,15.14-7.17,2.18-14.44,2.04-23.4,2.04Z"/>
  <path d="m676.21,522.46c-11.38-26.4-25.2-48.91-33.45-74.03-4.34-13.22-8.72-26.42-13.32-39.54-2.67-7.63-4.05-15.37-3.79-23.45.43-13.27-.46-26.69,1.3-39.77,2.89-21.41-.26-42.01-4.85-62.68-.87-3.92-1.73-7.66-3.79-11.2-10.32-17.75-7.98-35.54.21-53.26.73-1.59,1.88-2.02,3.2-1.04,1.02.75,2.51,1.65,2.65,2.65.37,2.57.82,5.5-.02,7.82-5.96,16.44-6.62,32.36,3.45,47.58,5.27,21.91,12.07,43.82,8.7,66.62-1.65,11.22-2.02,22.45-2.9,33.64-1.22,15.45,3.69,30.1,8.3,44.71,8.39,26.61,19.38,52.13,31.02,77.42,3.2,6.95,6.27,13.96,3.27,24.55Z"/>
  <path d="m782.01,333.78c-.36,6.92-.21,10.96-.85,14.88-1.69,10.41-6.54,18-16.82,22.87-10.14,4.8-21.58,7.11-30.3,14.85-2.91,2.58-6.92,6.55-9.79,2.07-1.61-2.52,2.08-7.54,5.65-9.41,5.86-3.06,12.05-5.54,18.22-7.95,17.93-7,22.97-13.62,22.78-32.82-.13-13.26-.97-26.52-4.48-39.49-5.09-18.84-6.32-37.91-2.64-57.21,1.97-10.36,3.51-20.8,5.45-31.17.34-1.83,1.5-3.64,2.7-5.12.73-.9,2.28-1.64,3.42-1.59,2.58.11,2.74,1.82,2.06,4.01-5.15,16.62-5.99,33.86-7.5,51.05-1.19,13.49.75,26.44,5.21,39.01,4.49,12.65,5.96,25.74,6.88,36.02Z"/>
  <path d="m444.18,148.74c-7.39,1.02-11-1.06-14.18-3.18-15.5-10.32-30.81-20.94-46.14-31.51-2.74-1.89-5.29-4.05-7.91-6.1-25.68-20.03-51.11-10.44-73.41,3.78-5,3.19-8.59,8.12-11.07,13.84-1.23,2.84-2.58,6.22-6.12,7.41-.55.19-1.34.3-1.77.03-.51-.31-1.14-1.11-1.07-1.61,1.75-12.46,8.15-22.01,18.61-28.77,9.59-6.2,20.82-8.19,31.28-12.12,11.19-4.21,20.64-2.62,30.42,2.19,6.56,3.22,13.23,6.4,19.28,10.45,18.79,12.59,37.34,25.53,55.88,38.49,2.06,1.44,3.42,3.86,6.2,7.11Z"/>
  <path d="m585.61,311.63c-4.96,16.88.85,31.44,8.95,45.63,2.26,3.97,3.67,8.42,5.35,12.71.13.34-.6,1.18-1.11,1.55-.43.31-1.33.58-1.65.35-2.08-1.5-4.75-2.74-5.96-4.8-5.03-8.58-9.67-17.38-14.34-26.17-3.25-6.12-3.49-12.9-2.86-19.47.83-8.61.59-17.17.66-25.78.14-17.33-3.68-32.8-16.96-44.93-1.42-1.29-2.4-3.08-3.47-4.72-.88-1.34-.4-2.48,1.23-3.1.57-.22,1.35-.46,1.83-.25,2.36,1.04,5.09,1.78,6.91,3.45,13.39,12.31,19.47,28.21,21.3,45.85.68,6.54.11,13.2.11,19.66Z"/>
  <path d="m775.83,21.45c.86.18,4.72.95,8.55,1.85,1.61.38,2.23,1.62,1.46,3.13-.55,1.08-1.37,2.28-2.39,2.78-1.11.54-2.63.59-3.91.42-9.65-1.25-18.27,1.86-26.79,5.86-5.36,2.51-11.04,4.32-16.49,6.65-9.16,3.91-17.4,8.89-23.65,17.11-5.19,6.83-11.33,12.96-17.33,19.13-1.74,1.79-4.34,3.11-6.78,3.71-1.63.4-3.79-.61-5.43-1.51-.48-.27-.08-2.33.1-3.53.09-.62.5-1.28.95-1.73,12.75-12.46,23.1-27.83,38.81-36.71,12.53-7.08,26.46-11.74,39.96-17,2.87-1.12,6.55-.16,12.94-.16Z"/>
  <path d="m577.87,202.46c-.23,7.36-4.85,12.88-10.95,14.51-.84.22-2.97-1.07-3-1.72-.09-1.9.28-3.97,1.02-5.74,3.96-9.36,1.42-18.25-1.84-27.05-1.56-4.2-5.65-5.54-9.68-3.92-4.51,1.82-7.3,5.59-10.84,8.54-2.26,1.89-5.38.74-7.07-1.37-1.8-2.25-1.36-5,1.06-6.93,3.12-2.48,6.26-4.95,9.54-7.19,8.99-6.12,20.83-3.82,24.88,5.94,3.51,8.48,4.98,17.8,6.88,24.93Z"/>
  <path d="m600.2,703.91c-5.25,2.99-9.58.98-13.91-.36-14.66-4.54-29.46-6.79-44.82-3.83-4.4.85-9.27,1.93-13.19-1.72-.88-.82-1.72-2.18-1.73-3.3,0-1.01,1.13-2.9,1.8-2.92,11.73-.28,23.12-5.34,35.2-1.91,4.96,1.41,10.52.54,15.72,1.29,8.67,1.24,16.16,4.66,20.94,12.76Z"/>
  <path d="m637.7,164.48c-9.22,3.75-13.77.87-18.75-.94-7.01-2.55-13.69,1.52-14.43,8.83-.67,6.55-.2,13.23-.05,19.86.11,4.6,1.4,9.2-.53,13.75-.65,1.53-1.55,2.3-3.1,1.61-1.1-.49-2.79-1.32-2.88-2.14-1.19-10.51-2.66-21.03-2.96-31.58-.2-6.88,3.32-12.57,9.32-16.66,3.61-2.46,7.32-3.45,11.23-1.99,6.7,2.5,13.21,5.49,22.16,9.28Z"/>
  <path d="m358.73,277.16c-16.97-5.82-32.48-6.79-48.31-3.15-3.17.73-6.54.88-9.81.84-1.94-.02-3.83-1.13-3.49-3.57.16-1.19.81-3.01,1.66-3.3,19.93-6.79,39.88-7.73,59.72.41.57.24,1.2.77,1.44,1.32.77,1.71,1.82,3.48,1.88,5.26.05,1.56-2.52,2.32-3.09,2.18Z"/>
  <path d="m603.32,413.22c7.83,10.13,8.92,21.84,9.86,33.52,1.04,13-1.54,26.23,4.57,40.05-8.86-1.65-9.96-7.24-10.74-11.94-1.08-6.5-.79-13.23-1.1-19.86-.5-10.56.15-21.22-3.89-31.42-1.18-2.97-1.27-6.52,1.3-10.35Z"/>
  <path d="m771.18,97.3c-3.48-7.07,3.38-13.78.85-21.73-3.09,1.26-6.03,2.6-9.08,3.61-1.02.34-2.74.24-3.37-.41-.71-.73-1.16-2.75-.66-3.45,4.23-5.88,8.56-11.71,13.15-17.31,2.56-3.12,5.73-2.01,8.9-.48,3.63,1.75,4.84,4.71,3.54,8.05-4.15,10.72-6.55,22.19-13.33,31.72Z"/>
  <path d="m482.33,312.85c-.77.9-1.37,2.21-2.34,2.6-1.1.44-2.57.27-3.8,0-7.62-1.69-15.28-4.38-22.03,2.44-.72.73-2.66.9-3.72.5-1.64-.61-3.3-1.72-4.37-3.07-.5-.63-.1-2.81.64-3.48,10.25-9.31,25.35-9.6,35.27-.77.36.32.25,1.18.37,1.79Z"/>
  <path d="m592.63,752.98c-.1.65.13,2.3-.59,3.16-1.16,1.38-2.95,3.1-4.47,3.09-1.58,0-3.85-1.55-4.57-3.03-1.09-2.27-1.31-5.04-1.55-7.63-1.07-11.69.13-16.56,3.49-15.12,6.63,2.84,5.31,9.87,7.6,14.98.49,1.09.07,2.6.07,4.56Z"/>
  <path d="m731.43,210.89c4.11,3.6,3.12,6.12,2.09,8.39-3.21,7.08-7.12,13.88-8.18,21.78-.39,2.93-2.45,5.35-5.04,4.46-2.61-.9-2.04-4.27-1.67-6.84,1.5-10.6,8.52-18.17,12.8-27.79Z"/>
  <path d="m304.77,254.58c-1.3-.66-3.11-.99-3.45-1.88-.73-1.93.2-4.19,2.08-4.8,4.98-1.61,10.09-2.92,15.22-3.96,2.04-.42,3.67,1.08,4.24,3.16.68,2.48-1.28,3.53-2.93,4.41-4.77,2.56-9.99,3.09-15.16,3.06Z"/>
</svg>