<?xml version="1.0" encoding="UTF-8"?>
<svg id="Layer_1" data-name="Layer 1" xmlns="http://www.w3.org/2000/svg" width="1281.86" height="909.46" viewBox="0 0 1281.86 909.46">
  <path d="m352.55-447c2.27,16.55,9.88,31.47,14.36,47.35,2.51,8.9,3.81,17.56,2.71,27.21-1.64,14.44-.84,29.23-.21,43.83.5,11.64-1.56,22.32-7.1,32.58-3.15,5.83-5.34,12.18-7.92,18.31-5.12,12.18-9.69,24.57-20.87,33.11-3.56,2.72-6.46,6.94-8.35,11.07-3.43,7.48-8.71,13.26-14.38,18.94-2.81,2.81-5.88,5.77-7.5,9.28-8.43,18.34-24.7,29.23-39.1,41.88-4.49,3.94-9.91,6.98-13.8,11.41-4.87,5.55-9.15,9.72-17.43,11.1-6.41,1.07-12.69,7.24-17.48,12.53-4.6,5.08-9.72,8.79-15.5,12.09-4.6,2.62-9.5,5.17-13.21,8.83-18.45,18.21-41.74,28.49-64.82,38.42-23.07,9.92-47.6,16.41-70.93,25.81C33.17-36.06,14.53-31.19-3.22-24.11-35.44-11.28-69.07-3.7-102.51,4.17c-28.94,6.81-53.16-6.14-73.75-26.01-5.45-5.26-7.1-11.92-7.48-19.82-.83-17.37,4.76-32.63,12.43-47.51,2.74-5.31,5.89-10.42,8.94-15.57,11.48-19.38,27.24-34,47.82-43.42,5.42-2.48,10.44-5.84,15.69-8.71,4.69-2.56,9.55-4.88,15-4.99,23.43-.47,45.45-8.6,68.25-12.49,4.55-.78,9.31-1.69,13.38-3.73,24.94-12.49,50.97-22.83,74.77-37.57,1.13-.7,2.5-1.14,3.42-2.05,20.29-19.99,46.88-32.72,64.25-56.11,7.12-9.58,15.54-18.26,22.02-28.22,3.35-5.15,10.59-11.9.73-18.65-2.64-1.8-1.5-5.08,1.06-6.51,3.43-1.92,7.27-3.12,10.91-4.66,6.78-2.87,6.74-2.88,5.78-11.93-.28-2.61-1.49-6.11-.29-7.73,5.12-6.92,5.89-14.42,5.06-22.54-.37-3.63,1.79-6.63,4.72-8.24,13.22-7.25,19.05-20.31,24.82-32.81,6-12.98,13.71-23.91,25.54-31.9h112Zm-136.75,207.68c-2.01.78-4.01,1.56-6.02,2.33,1.39-3.01,3.15-5.91,4.1-9.05,2.79-9.27-.34-13.39-10.26-13.94-1.99-.11-3.99-.08-5.98.03-6.81.38-9.51-4.78-11.18-9.61-2.19-6.34,4.29-4.62,7.2-6.36,4.54-2.72,9.12-5.76,10.76-11.2.51-1.68.11-4.01-.7-5.62-1.03-2.04-3.1-1.43-5.07-.8-5.36,1.72-7.81,9.72-15.17,7.01-3.36-8.74,6.12-10.07,8.95-15.26,1.51-2.76,4.2-4.88,6.59-7.53-2.47-3.72-4.38-7.25-6.95-10.21-1.77-2.04-4.74-3.09-6.7-.1-4.37,6.66-7.75,14.07-12.75,20.18-7.91,9.67-12.23,18.96-2.8,29.95.35.41.33,1.25.29,1.88-.13,2.3-1.4,3.73-3.7,3.42-1.91-.26-3.73-1.18-5.61-1.74-8.55-2.59-14.56-.37-20.66,6.96-10.05,12.09-20.82,23.92-35.29,31.24-5.42,2.74-9.93,6.52-14.08,10.91-2.72,2.87-5.56,5.9-8.94,7.82-13.22,7.53-26.58,14.82-40.06,21.86-10.57,5.52-21.4,10.55-32.14,15.76-2.95,1.43-3.13,3.89-2.91,6.48-1.13-.49-2.23-1.26-3.4-1.4-.92-.11-2.58.36-2.77.94-.37,1.13.79,1.58,2.4,1.12,1.18-.34,2.4-.57,3.61-.84,3.56-2.41,7.23-3.15,11.13-.8,0,0-.55-.52-.55-.52-8.19,4.21-16.14,9.04-24.64,12.47-13.53,5.46-27.59,9.37-42.19,10.87-1.75.18-4.43.11-4.2-2.73.38-4.58-2.17-6.16-5.8-5.13-6.43,1.81-13.34,5.07-19.41,2.43-11.28-4.91-19,1-27.35,6.32-2.8,1.78-5.53,3.75-8.53,5.12-29.32,13.39-42.98,39.91-56.21,66.81-.27.54-.16,1.3-.11,1.95.14,2.09.83,3.86,3.24,4.05,3.89.31,7.38-3.36,11.51-1.18,4.91,2.59,7.16-.62,9.3-4.25,1-1.68,2.15-3.33,3.49-4.74,1.42-1.5,3.28-1.99,5.31-1.05,2.05.95,3.24,2.81,2.7,4.77-1.16,4.22-1.27,7.53,3.48,9.68,1.65.75,2.9,2.7,3.99,4.33,3.51,5.22.98,11.29-5.05,11.81-3.27.28-6.61-.44-9.89-.25-2.04.12-3.83,1.46-3.17,3.9.24.87,1.65,1.88,2.62,2.01,2.6.33,5.29,0,7.88.38.96.14,2.46,1.61,2.41,2.37-.08,1.11-1.12,2.57-2.16,3.12-10.54,5.63-23.01,2.01-28.85-8.63-2.76-5.04-2.86-11.63-8.95-14.77-4.42,3.29-4.85,8.01-3.05,12.39,2.2,5.35,6.2,9.82,6.41,16.19.07,2.08,3,4.16,4.81,6.06,2.63,2.75,6.07,3.69,8.54.52,3.86-4.94,5.93-3.11,8.55.99,3.96,6.21,4.07,6.07,9.72,2.44,3.23-2.07,6.54-7.47,9.92-5.06,5.08,3.61-2.45,6-2.88,9.45-.16,1.3-.48,2.74-.08,3.91.6,1.78,1.53,3.6,2.81,4.93.44.45,2.78-.13,3.53-.92,4.56-4.81,8.91-9.83,13.34-14.77,1.75-1.95,3.68-4.46,6.5-2.84,3.17,1.83.64,4.47.19,6.85-.19,1.02.53,2.73,1.37,3.26.8.5,2.66.27,3.43-.37,2.02-1.7,3.75-3.76,5.5-5.76,3.49-3.99,6.85-8.1,10.44-12,.7-.76,2.19-.81,3.32-1.18.57,1.81,1.4,3.59,1.64,5.45.15,1.23-.54,2.56-.8,3.81l.22.89.15-1.33c6.06-1.16,10.05-5.89,15.01-8.92,4.63-2.83,7.27-.05,10.3,2.29-2.27.71-4.55,1.41-6.82,2.12-.23.61-.58,1.21-.68,1.84-.58,3.44-4.88,6.58-.89,10.36.33.31,1.49.33,1.75.03,3.11-3.46,2.13-7.16.44-10.85-.27-.59-.7-1.11-.9-1.55,2.75.7,5.13.32,6.71-2.34,9.78-4.46,21.5-4.82,29.12-13.95,1.16-1.4,3.61-2.2,5.27-.6,3.94,3.8,6.72.98,10.1-1.02,4.15-2.46,5.86-9.34,12.64-7.05.53,1.04,1.05,2.07,1.58,3.11l-1.56-3.36c2.4,1.34,5.35,2.53,6.88-.4,4.13-7.91,11.97-9.62,19.25-12.29,1.92-.7,3.92-.2,4.64,2.23.88,2.96,2.77,4.77,5.45,2.46,3.98-3.42,7.39-7.49,11.15-11.18,2.01-1.97,4.35-2.44,7.16-1.34,10.54,4.1,18.44,1.8,24.09-8.79,2.23-4.18,3.54.42,4.78,2.14.69.96,1.47,1.86,2.6,3.28,2.8-3.84,5.37-7.65,8.24-11.21,1.79-2.22,4.49-3.4,6.57-.76.87,1.1-.02,3.59.11,5.56.78,2.55-2.13.36.17,1.7.26.15.6.15.9.21-.6-.74-1.21-1.49-1.81-2.23,2.12.36,4.24.73,6.36,1.09-.02.65-.26,1.41-.01,1.92.82,1.66,1.85,4.62,2.74,4.59,4.17-.1,1.26-3.71,2.3-5.41,1.65.96,3.26,1.99,4.97,2.82.48.23,1.63.08,1.83-.26.92-1.6.42-2.42-1.22-2.4-1.87.02-3.74-.05-5.61-.07l-5.37-.8c1.89-11.2,8.3-17.21,19.2-21.29,6.22-2.33,12.75-1.05,18.32-4.13-.62,2.92-1.56,5.83-1.77,8.78-.25,3.51-2.21,5.4-4.82,7.06-.11.64-.28,1.28-.29,1.93,0,.25.35.52.54.77-.25-1.1-.49-2.2-.74-3.31,8.26,0,9.2-.57,9.61-5.77.27-3.44-.71-6.47-2.88-9.13,4.47-9.02,16.32-10.66,20.33-20.24.28-.68,2.35-.93,3.55-.86,5.72.32,6.19-3.47,6.51-7.71.19-2.53.92-5.02,1.34-7.2,3.27-.04,3.7,2.2,4.75,3.81,1.07,1.65,1.9,3.6,4.65,3.32,3.99-3.79,2.82-9.75,5.39-14.28,1.33-2.35,2.95-6.1,5.12-5.36,6.26,2.15,7.2-2.45,9.53-5.85,1.01-1.47,3-3.3,4.63-1.93,1.22,1.02,1.06,3.59,1.69,5.42.4,1.15,1.11,2.18,1.94,3.78,5.73-5.07,8.75-11.46,10.53-18.51,4.21-16.74,8.48-33.46,12.39-50.27,1.5-6.46.75-8.06-4.59-20.38-4.4,6.39-8.56,12.3-12.56,18.31-2.72,4.09-3.71,8.48-1.65,13.24.8,1.85.92,4.27-1.42,4.45-1.52.12-3.43-1.64-4.76-2.96-3.71-3.67-2.82-10.54-8.76-12.72l.52.51c.59-2.27-.3-5.1,2.55-6.59l1.05-.46-1.59.22c1.11-2.18,2.21-4.36,3.31-6.58,1.78-.95,3.56-1.9,5.44-2.77l1.08.21s-.69.06-.69.06Zm111.7-15.81c2.76-2.71,3.42-6.25,3.82-9.79.27-.11.54-.21.8-.32-1.7,3.56-3.39,7.12-5.01,10.58,1.39-.35,1.54-.15.45.61-.02-.36-.04-.72-.06-1.08Zm-31.54-170.02c-.49.19-1.36.31-1.42.58-.21,1.06-.15,2.16-.2,3.25.49-.27,1.3-.46,1.4-.84.25-.96.17-1.99.21-3Zm-91.74,94.88c-.64-.9-1.28-1.8-1.91-2.7-.43.5-1.27,1.05-1.22,1.5.14,1.17.67,2.29,1.04,3.42.7-.74,1.39-1.48,2.09-2.22Zm18.72,48.09c-1.62.11-2.25.96-1.66,2.47.2.51.78,1.13,1.25,1.18.46.05,1.16-.44,1.47-.89.93-1.34.51-2.31-1.06-2.76Zm19.65,9.27c.44-1.05.99-2.07,1.24-3.16.08-.33-.7-.86-1.09-1.3-.67.64-1.94,1.36-1.87,1.9.12.91,1.1,1.71,1.72,2.56ZM-9.32-160.77c-.41-.45-.9-1.32-1.22-1.27-1.1.2-2.15.72-3.22,1.12.4.45.89,1.34,1.2,1.29,1.11-.21,2.17-.73,3.24-1.14Zm207.27,15.46c-.3,1.19-.7,2.21-.75,3.24-.02.43.69.89,1.07,1.34.53-.94,1.32-1.85,1.47-2.85.07-.46-1.11-1.11-1.79-1.74Zm-39.16,37.38l-1.15-.07.5,1.29.65-1.21Zm-87.69,44.35l-.57-1.22-.45,1.29,1.02-.07Zm-52.27,21.74c-1.17-.43-2.19-.95-3.28-1.12-.37-.06-.88.79-1.33,1.22.8.63,1.57,1.71,2.4,1.76.69.03,1.43-1.16,2.2-1.86ZM-24.88-25.15l-1-.67-.15,1.03,1.15-.36Z"/>
  <path d="m1223.17,774.11c-5.53,4.14-9.06,3.07-12.54.43-7.59-5.76-12.68-13.41-17.57-21.47-11.71-19.33-23.13-38.92-40.5-54.09-18.51-16.17-35.81-33.73-58.03-45.28-7.27-3.78-14.51-6.68-22.48-7.47-14.27-1.41-28.57-2.18-45.73,1.01,12.04,7.19,21.23,13.62,31.2,18.41,14.16,6.81,25.62,16.95,35.69,28.34,18.94,21.41,36.7,43.86,55.21,65.66,7.13,8.4,12.84,18.78,25.48,20.63,1.75.26,3.37,2.05,4.86,3.36,18.98,16.72,38.5,32.89,51.89,54.95,3.08,5.08,7.33,9.46,11.1,14.11,1.42,1.74,1.64,3.59.37,5.29-2.06,2.77-4.84,2.06-6.99.39-3.12-2.42-6.11-5.11-8.69-8.1-3.03-3.52-5.49-7.52-8.32-11.22-8.1-10.61-16.79-20.69-27.24-29.09-1.95-1.56-3.46-2.46-6.49-.28-6.23,4.46-8.18,3.97-10.94-.61-12.81-21.23-31.19-37.98-46.02-57.53-11.69-15.41-24.69-29.68-36.46-44.93-7.96-10.31-17.93-17.96-28.07-25.27-19-13.7-41.1-21.56-62.9-29.53-11.8-4.31-24.95-2.09-40.89-8.68,11.61,13.08,19.21,23.29,28.48,31.64,10.1,9.1,13.13,21.23,17.53,32.91.88,2.34.71,5.34.22,7.89-4.28,22.2-13.15,41.42-32.82,54.74-9.25,6.27-19.62,8.26-29.8,10.47-11.62,2.52-23.61,3.02-35.75,1.53-21.79-2.66-43.73-4.06-65.59-6.21-22.6-2.22-44.33-7.88-65.4-16.46-14.76-6.01-29.89-11.1-44.86-16.6-3.11-1.14-6.45-1.86-9.32-3.45-19.7-10.94-39.11-22.36-59.22-32.64-9.23-4.72-17.79-11.5-26.41-17.57-19.12-13.44-40.87-22.16-60.08-35.39-14.36-9.89-31.19-15.78-47.84-19.66-22.82-5.32-44.45-13.77-66.26-21.59-22.13-7.93-44.08-14.07-67.84-14.06-17.94,0-36.06-.8-53.76-3.48-17.53-2.65-35.67-3.17-52.3-10.62-1.81-.81-4.02-2.23-5.62-1.8-8.85,2.36-14.87-.12-19.26-8.46-1.2-2.28-5.71-3.38-8.89-3.94-8.35-1.47-14.02-6.83-20.36-11.82-12.79-10.07-18.28-21.9-14.76-38.34,1.47-6.84,2.39-14.53-1.65-22.72-8.17,1.51-16.62,2.81-24.95,4.67-8.14,1.82-14.26,7.33-19.54,13.25-5.83,6.53-12.52,11.51-19.72,16.45-22.49,15.42-44.33,31.78-66.42,47.78-2.69,1.95-5.12,4.4-8.03,5.91-11.24,5.83-21.97,12.37-31.48,20.8-1.55,1.37-3.6,1.91-5.28.44-2.48-2.16-2.04-4.93.03-6.92,3.33-3.2,6.86-6.27,10.65-8.91,16.87-11.76,34.02-23.14,50.76-35.07,10.78-7.68,21.18-15.92,31.45-24.27,3.63-2.95,7-5.96,11.48-7.69,6.39-2.46,10.94-7.06,14.93-12.71,8.08-11.43,19.49-18.43,33.33-19.99,23.22-2.61,45.5-9.24,68.1-14.53,3.79-.89,7.42-2.74,10.93-4.55,6.5-3.35,12.78-7.13,19.3-10.45,3.13-1.59,6.54-1.38,9.29,1.12,1.69,1.53-.19,6.4-3.08,8.42q-20.59,14.43-33.16,37.77c-3.47,6.44-7.41,12.65-10.39,19.3-3.9,8.69-1.63,15.39,6.09,20.69,7.39,5.07,16.13,7.36,24.55,7.65,20.77.71,40.82,6.13,61.06,9.41,18.4,2.98,36.69,4.61,55.14,6.42,15.11,1.48,30.49,4.8,44.62,10.25,13.42,5.18,25.69,13.68,37.76,21.77,4.06,2.73,7.5,5,12.37,4.99,7.45-.01,14.39,2.23,21.32,4.76,11.86,4.31,23.66,9.03,35.85,12.19,21.97,5.69,43.04,13.67,63.85,22.51,6.1,2.59,12.12,5.46,17.91,8.68,12.78,7.12,25.82,13.42,39.56,18.68,14.17,5.43,27.6,12.96,40.96,20.3,14.02,7.7,27.95,15.16,44,17.97,5.14.9,10.02,3.53,14.9,5.65,9.79,4.26,19.55,8.51,30.45,8.98.67.03,1.42-.09,1.98.18,18.85,9.12,40.31,8.49,59.58,15.88,12.44,4.77,24.54,5.87,36.46-1.12,5.36-3.14,11.44-3.35,17.25-4.68,9.35-2.14,17.23-6.74,23.91-13.66,4.29-4.44,6.63-9.29,8.02-15.52,3.06-13.75,5.9-27.39,1.72-41.19-1.38-4.55,4.25-7.07,1.9-11.07-3.94-6.71-3.9-16.82-15.47-17.09-2.9-.07-5.92-2.68-8.57-4.58-4.18-3-5.74-8.11-3.41-10.02,3.3-2.71,6.12-.43,9.11.91,16.03,7.19,33.67,7.27,50.42,11.35,2.45.59,5.36.35,7.82-.34,22.87-6.41,46.34-3.94,69.56-4.73,5.18-.18,10.83.85,15.57,2.91,13.3,5.78,26.57,11.25,38.58,20.17,12.89,9.57,24.48,20.44,36.27,31.07,12.3,11.09,23.59,23.19,32.53,37.59,10.43,16.81,17.44,35.88,33.75,48.78Zm-284.36-29.64c3.04-.07,6.08-.13,9.11-.26.07,0,.28-.91.12-1.26-.2-.45-.87-1.14-1.07-1.06-2.78,1.1-5.51,2.31-8.22,3.43,1.1-1.12,1.66-.14.88.08-2.53.71.84,1.17-.82-.93Zm33.49-67.32c0-1.21.35-2.54-.05-3.6-.67-1.8-2.27-3.35-4.04-1.7-1.58,1.48-.58,3.57,1.04,4.64.84.55,2.27.2,3.44.25-.75,3.74,1.07,6.25,3.99,8.18.37.24,1.21.16,1.59-.1.39-.27.82-1.14.66-1.44-1.49-2.82-2.78-5.92-6.64-6.23Zm-375.41-24.2c-1.07-1.7-1.52-1.83-1.17-.45.03.1,1.08-.06,1.66-.09,2.64,7.46,8.99,8.15,15.52,8.53,5.8,6.24,12.41,11.56,19.81,15.68,3.05,1.7,7.58,6.15,10.22,2.02,3.54-5.54-3.41-5.06-6.15-6.95-3.77-2.58-7.31-5.52-11.22-7.87-3.97-2.38-8.22-4.44-13.1-2.4-3.19-6.46-8.67-8.76-15.57-8.48Zm205.45,101.57c-1-4.55-1.21-9.36-3.17-13.3-1.84-3.71-6.66-3.79-10.52-4.36-6.03-.88-11.69.92-17.37,2.75-4.21,1.35-5.58-1.25-6.29-5.07-1.37-7.32-2.13-7.97-7.78-6.85-4.48.89-8.89,2.25-13.22,3.71-.95.32-1.95,1.92-2.02,3-.05.78,1.22,2.07,2.17,2.44,16.54,6.47,33.1,12.89,49.71,19.17,1.75.66,3.88.75,5.76.52,1.06-.13,1.98-1.43,2.74-2.03Zm34.68,8.74c-3.25-6.35-9.67-8.32-11.56-14.43-1.38-4.48-5.95-4.4-9.95-4.23-5.06.22-3.55,4.17-4.22,7.11-.55,2.4-3,4.36-1.45,7.49,4,3.53,9.5,3.19,14.45,4.39,3.74.91,7.69,1.9,12.73-.34Zm-592.38-227.73c0-1.03,0-2.36,0-3.68-.04-4.35-2.77-6.16-6.22-3.82-2.68,1.82-5.44,3.88-7.3,6.46-2.2,3.05-.83,6.56,1.41,9.11,2.11,2.39,4.52,4.85,8.33,4.49,1.62-.15,2.54-.8,2.71-2.4.35-3.28.69-6.57,1.07-10.15Zm623.57,231.72c-2.34-5.33-5.31-9.75-10.01-12.53-2.62-1.55-5.05.05-6.92,2.15-1.5,1.7-1.06,3.3-.08,5.22,3.9,7.7,10.09,6.93,17.02,5.16Zm-149.26-54.29c-3.43.26-6.91-.59-9.52,2-.86.85-1.99,2.62-1.65,3.3,2.21,4.44,6.38,6.86,10.99,7.18,4.59.31,6.35-4.01,8.01-7.54.93-1.99-.04-3.73-2.22-4.24-1.9-.45-3.89-.5-5.61-.7Zm178.78,59.19v-.02c1.3,0,2.62.13,3.9-.03,2.41-.3,5.71.03,5.38-3.61-.13-1.44-2.11-3.15-3.65-3.91-2.28-1.12-4.9-1.93-7.42-2.1-4.99-.33-11.86,3.74-10.58,5.82,2.38,3.89,6.57,3.56,10.42,3.84.65.05,1.3,0,1.95,0Zm63.45-39.74c4.43.17,8.38.1,10.14-4.19.99-2.41-4.3-7.04-7.53-6.85-2.88.17-6.92,5.4-6.25,8.26.49,2.1,2.17,2.78,3.64,2.78Zm-590.38-145.59c-4.06-5.75-9.58-6.4-15.64-5.49-.61.09-1.16.62-1.74.94.61.93,1.08,2.52,1.84,2.68,4.98,1.01,9.64,4.96,15.54,1.87Zm596.38,122.46c4.58.99,5.51-.64,5.39-2.7-.16-2.86.64-6.97-3.57-7.2-2.61-.14-3.74,3.14-4.19,5.62-.59,3.21,1.83,4.15,2.37,4.28Zm-288.06-11.75c1.86-1.08,5.71.17,5.45-3.82-.14-2.09-2.03-3.38-4.17-3.23-2.84.21-5.43,1.75-5.71,4.57-.21,2.12,2.31,2.5,4.44,2.48Zm13.27,3.97c-2.77-.22-5.49-.03-6.45,3.01-.77,2.43,1.27,3.65,3.1,4.35,3.27,1.25,4.75-1.18,5.99-3.53,1.51-2.86-1.01-3.11-2.64-3.83Zm-444.67-187.44c2.98.32,5.16-1.09,6.51-3.54.53-.95.64-2.69.1-3.52-.52-.8-2.33-1.5-3.21-1.2-2.48.85-4.85,2.11-7.08,3.5-.84.52-1.19,1.83-1.77,2.78,1.16.58,2.28,1.24,3.48,1.72.59.24,1.31.18,1.97.25Zm63.01,65.68c.8-.41,1.61-.82,2.41-1.23-.63-.15-1.26-.31-1.89-.44-1.83-.38-2.73.1-2.29,1.24.13.32,1.15.29,1.77.43Zm-10.54-8.48l1.84-.16-1.15-.39-.69.55Zm443.77,152.85c.54-1.34.06-2.35-1.52-2.72-2.41-.56-5.02-.99-5.92,2.15-.26.89.55,2.87,1.3,3.13,2.59.91,4.72-.21,6.15-2.56Zm-465.52-155.44c1.11-.48,2.22-.95,3.33-1.43-1.03-.59-2.04-1.6-3.11-1.67-1.08-.06-2.22.8-3.34,1.26,1.04.61,2.08,1.22,3.12,1.83Zm115.5,18.73c-.07-.45-.03-1.24-.22-1.31-1.12-.35-2.45-.99-3.42-.67-1.56.52-1.47,1.89.2,2.38,1.02.3,2.29-.24,3.44-.4Zm267.49,104.63c.51-.35,1.02-.7,1.53-1.05-.46-.41-.88-1.12-1.38-1.17-1.75-.18-2.49.54-1.83,1.63.24.39,1.1.4,1.67.59Zm-408.45-136.8c-.29-.39-.52-.99-.9-1.12-.47-.17-1.32-.16-1.57.14-.91,1.1-.45,1.88,1.11,1.86.46,0,.91-.57,1.37-.88Zm590.13,195.28c.13.47.13,1.17.44,1.34.51.3,1.38.56,1.82.32,1.61-.86,1.41-1.78-.52-2.22-.51-.12-1.15.35-1.73.55Zm-608.55-230.75l.68-1.02-1.14-.12.46,1.14Zm691.8,232.61c.45-.35.9-.7,1.35-1.05-.37-.44-.7-1.18-1.11-1.22-.41-.04-.89.62-1.34.97.37.44.73.87,1.1,1.31Zm56.89-41.35l-.98-.67-.15,1.05,1.12-.38Zm-532.92-115.4l.63-.85-.98-.15.35.99Z"/>
  <path d="m833.23,251.67c.07-4.23-1.56-7.02-3.75-9.61-9.39-11.08-13.49-11.56-24.69-2.47-3.59,2.92-6.75,6.49-11.47,7.52-.94.21-2.54-.75-3.19-1.64-.68-.93-1.22-3.11-.73-3.58,7.98-7.54,13.96-17.67,25.72-20.41,2.02-.47,3.66-1.21,3.93-3.69-4.15-.52-8.4-.67-12.46-1.66-7.03-1.71-13.09-.16-18.87,3.92-5.4,3.81-10.72,8.2-17.83,7.92-1.59-.06-3.41-1.74-4.6-3.12-1.7-1.96-.26-3.98,1.3-5.05,2.71-1.87,5.77-3.22,8.69-4.79,9.03-4.84,14.91-11.54,19.34-21.48,7.01-15.73,18.11-29.52,29.56-42.44,23.56-26.58,20.6-55.96,10.43-86.17-3.59-10.65-13.14-16.61-22.26-22.14-3.18-1.93-8.53-3.5-11.41-2.13-13.15,6.27-26.03-2.66-38.93.26-1.23.28-2.82.16-3.93-.39-21.74-10.97-43.58-5.19-65.72-1.3-29.06,5.11-56.03,16.42-83.72,25.72-23.02,7.73-42.36,21.48-62.55,34.34-19.03,12.12-36.8,26.19-56.28,37.3-21.46,12.24-39.82,28.66-60.99,41.23-20.61,12.23-38.85,27.97-56.04,44.82-5.68,5.57-12.14,10.37-18.32,15.42-21.42,17.49-36.43,40.51-53.56,61.72-16.41,20.32-28.21,43.46-41.19,65.9-13.41,23.18,3.78,40.81,22.94,44.06,7.86,1.33,15.83,2.09,23.77,2.84,13.13,1.23,25.17-2.62,36.18-9.28,20.15-12.18,41.91-19.84,64.77-24.85,14.89-3.27,29.07-1.57,42.59,5.41,2.97,1.53,5.64,3.55,6.32,7.18.12.64.22,1.52-.12,1.95-.7.92-1.94,2.44-2.53,2.27-3.17-.94-6.56-1.81-9.22-3.65-9.62-6.63-19.67-5.9-30.62-4.06-26.17,4.41-49.16,15.7-70.88,30.21-.88.59-1.52,2.19-1.52,3.32,0,2.25,1.74,3.45,3.73,3.88,5.97,1.3,11.93,1.11,17.77-.76,8.87-2.82,17.85-5.36,26.53-8.67,6.52-2.48,12.99-2.96,19.6-1.61,2.47.51,5.06,1.87,6.9,3.58,1.14,1.07,1.32,3.55,1.23,5.36-.04.79-2.02,2.27-2.85,2.1-18.87-3.66-35.13,5.26-52.14,10.56-3.81,1.19-7.72,1.98-10.11,5.74-2.42,3.8-8.35,6.34-6.89,11.41,1.87,6.51,8.97,5.82,13.54,5.06,12.57-2.09,24.96,2.77,37.54-.26,7.46-1.79,15.2,4.68,23.15.5.5-.26,3.32,2.31,3.71,3.9.37,1.51-.52,4.03-1.73,5.11-3.18,2.84-7.42,2.79-11.39,2.48-16.54-1.3-33.08-1.77-49.65-.66-6.08.41-11.98-.31-17.7-2.38-6.33-2.29-9.3-7.15-8.54-13.95.15-1.32.23-2.8.88-3.88,4.63-7.69.68-13.71-3.23-20.14-2.71-4.44-5.2-7-11.02-5.84-12.64,2.52-25.06-1.6-37.55-2.64-16.37-1.36-27.78-12.86-36.03-25.49-5.76-8.82-4.79-20.67.39-30.73,4.57-8.86,9.74-17.42,14.85-25.99,3.05-5.11,6.92-9.77,9.7-15.01,12.28-23.15,29.87-42.32,46.25-62.39.84-1.03,1.96-1.85,2.72-2.92,14.11-19.77,33.9-33.57,51.27-49.96,19.63-18.53,42.17-32.31,64.02-47.4,6.57-4.54,12.83-9.52,19.19-14.36,3.18-2.42,5.97-5.49,9.41-7.39,32.04-17.68,60.34-41.09,91.75-59.74,12.05-7.15,25.03-12.34,37.31-18.77,22.67-11.88,47.36-17.53,71.24-25.12,30.48-9.68,62.28-13.98,94.62-7.95,9.75,1.82,19.86,1.76,29.81,2.48,12.84.93,24.64,4.17,35.45,11.88,13.2,9.41,20.35,20.97,23.86,37.31,4.09,19.02-.26,36.87-1.55,55.18-.48,6.76-5,12.28-9.28,17.42-7.25,8.68-14.69,17.19-22.11,25.73-5.73,6.6-10.43,13.75-12.06,22.49-.2,1.06.57,2.75,1.45,3.43.63.49,2.56.19,3.27-.46,3.43-3.12,6.52-6.62,9.98-9.71,4.92-4.39,10.76-4.68,16.88-3.17,4.33,1.07,6.36,4.94,4.42,9.09-2.53,5.42-5.18,10.78-7.94,16.09-3.48,6.69-2.37,13.63,1.6,18.91,5.07,6.74,10.12,13.79,18.2,17.97,9.41,4.88,19.35,8.93,27.45,16.16,3.24,2.89,7.38,2.38,11.38,1.1,10.12-3.25,20.16-6.88,30.44-9.52,11.07-2.85,22.36-3.29,33.61-.11,11.99,3.38,18.99,10.78,21.86,23.2,5.06,21.87,3.29,43.65-.15,65.28-3.38,21.29-14.83,31.11-35.44,34.39-10.15,1.62-19.87.07-29.78.27-4.06.09-6,1.85-4.96,6.24.6,2.53,1.23,5.29.83,7.78-.85,5.25-6.22,10.29-10.95,10.11-12.6-.46-25.19-1.25-37.77-2.06-1.94-.13-3.83-1.06-5.74-1.64-5.66-1.72-8.86-4.96-7.29-7.35,2.59-3.96,5.66-1.14,8.71-.9,11.74.94,23.51,1.54,35.27,2.23,1.32.08,2.76.32,3.95-.09,3.32-1.14,5.94-3.2,5.65-7.13-.2-2.77-1.73-6.05-4.24-6.12-5.86-.16-11.48-3.15-17.64-.7-5.53,2.2-11.48,3.41-17.3,4.82-2.89.7-5.22-.61-6.28-3.43-1.08-2.89-.17-5.32,2.91-6.14,8.99-2.39,18.03-4.57,27.05-6.83,6.54-1.64,12.77-1.36,19.57.14,13.71,3.01,27.68,3.07,41.35-1.62,9.43-3.24,15.97-8.93,19.21-18.63,1.92-5.72,3.94-11.31,4.03-17.4.23-14.64,1.13-29.32.5-43.92-.67-15.64-6.62-20.89-22.41-22.13-8.72-.69-17.16,1.17-25.62,3.02-27.77,6.07-51.35,21.24-75.79,34.57-4.33,2.36-6.62,6.34-9.03,10.37-1.32,2.2-3.34,4.07-5.34,5.74-.81.67-2.7.93-3.54.43-.89-.53-1.76-2.36-1.5-3.32,2.61-9.74,5.92-18.59,16.35-23.46,9.52-4.45,18.25-10.6,27.2-16.23,2.6-1.64,2.96-4.24.59-6.62-10.8-10.84-23.52-11.02-36.88-6.24-4.98,1.78-9.49,4.93-14.5,6.59-2.97.99-6.52.5-9.78.22-.91-.08-1.96-1.61-2.48-2.7-1.01-2.09-.05-3.99,1.73-5.02,1.69-.98,3.72-1.4,5.63-1.96,7.79-2.29,14.46-6.53,20.5-11.11Z"/>
  <path d="m433.56,223.79c-1.5,2.13-2.67,4.63-4.56,6.34-19.44,17.56-25.94,41.28-31.13,65.53-2.16,10.07,3.23,16.46,13.67,17.57,28.19,3,55.62-1.59,82.93-7.99,17.35-4.06,34.1-3.83,49.75,6.86,8.7,5.94,12.53,13.1,11.46,23.51-1.42,13.87-4.09,27.66-3.48,41.72.04.91-1.47,2.69-2.23,2.68-1.83-.03-4.15-.36-5.36-1.53-3.09-2.97-3.39-7.16-3.11-11.18.74-10.61,1.75-21.2,2.54-31.81.83-11.06-.98-14.1-11.35-18.09-10.09-3.88-20.46-4.76-31.16-2.45-15.55,3.36-31.16,6.44-46.77,9.53-15.98,3.16-32.09.73-47.62-1.77-13.23-2.13-20.97-10.81-19.49-25.76,2.53-25.66,9.17-49.61,27.95-68.73,11.66-11.87,23.07-23.99,34.5-36.08,8.37-8.85,17.97-15.76,29.44-20.1,3.21-1.21,6.39-2.51,9.61-1.21,13.05,5.28,25.29,11.28,33.21,24.19,9.5,15.49,14.43,32.8,21.57,49.22.93,2.15-2.3,5.06-4.8,4.8-5.01-.52-8.4-3.36-11.59-7.01-7.92-9.07-17.28-16.51-27.01-23.58-4.1-2.97-7.98-3.48-12.91-3.23-26.62,1.34-42.37,17.93-53.76,39.23-5.32,9.94-1.49,20.99,4.53,30.27,2.23,3.44,6.9,3.72,10.91,3.94,12.16.66,23.64-3.1,35.28-5.74,1.1-.25,2.85-1.84,2.73-2.53-.32-1.73-1.15-3.76-2.47-4.83-2.01-1.65-4.78-2.33-6.89-3.88-8.74-6.45-9.62-17.18-1.2-23.47,13.92-10.4,11.78-10.93,24.9.09,1.52,1.28,3.15,2.46,4.54,3.87,3.98,4.04,5.53,9.51,3.03,10.28-3.72,1.14-6.11-1.58-8.9-3.07-2.94-1.56-5.61-3.77-8.7-4.84-3.75-1.3-6.08,1.58-8.05,4.27-1.9,2.58-1.26,4.92,1.24,6.76,9.66,7.12,19.83,10.71,31.56,4.88.78-.39,2.64.4,3.36,1.2.74.83,1.32,2.64.92,3.54-1.93,4.26-4.17,8.6-8.89,10.27-7.49,2.64-15,6.08-22.74,6.91-8.69.94-16.99,3.05-25.39,4.97-5.26,1.2-10.33,1.28-15.75.72-11.24-1.16-18.87-5.65-20.96-17.47-.46-2.59-1.46-5.15-2.59-7.55-4.71-10.01-3.75-19.2,2.95-28.12,3.16-4.21,5.62-9.01,8.05-13.71,1.37-2.65-.07-5.11-1.78-7.28,2.26-1.45,4.51-2.89,6.75-4.33,7.56,1.31,12.48-3.83,17.73-7.64,10.54-7.64,22.56-6.82,34.53-7.15,8.49-.23,12.61,6.71,18.62,10.5,3.33,2.11,6.19,4.99,9.16,7.64,1.58,1.41,3.28,2.4,4.95.69.66-.67.67-2.5.3-3.56-1.76-5.01-3.29-10.18-5.74-14.85-12.27-23.45-36.77-27.83-56.06-9.76-8.22,7.7-15.47,16.43-23.16,24.72-1.88,2.14-3.97,3.83-7.05,3.58Z"/>
  <path d="m578.29,805.29c-7.43-20.28-20.07-32.44-29.07-47.06-3.45-5.6-7.57-11.33-12.74-15.19-12.68-9.49-23.67-20.86-37.6-29.16-17.78-10.59-36.33-19.36-54.97-27.91-13.76-6.31-27.2-13.44-42.19-17.38-10.49-2.75-20.71-4.21-31.39-4.29-19.96-.16-40.02.58-59.84-1.21-17.32-1.56-34.25-2.39-51.34,1.35-4.45.97-9.28.2-13.94.18-10.64-.03-21.31-.93-31.7,2.57-2.45.83-5.33,1.08-7.9.77-17.29-2.14-32.75,4.9-48.55,9.77-11.76,3.62-20.74,11.69-28.54,21.05-2.93,3.52-5.18,7.73-9.59,9.78-.52.24-1.37.17-1.88-.11-.54-.29-1.26-1.07-1.18-1.52.34-1.91.51-4.05,1.51-5.62,10.22-16.05,22.7-28.49,42.3-33.76,14.77-3.98,28.86-9.65,44.59-9.15,15.24.49,30.2-5.65,45.66-2.33,1.88.4,4.06.19,5.95-.3,15.61-4.05,31.19-4.3,47.29-2.5,15.81,1.76,31.93.75,47.91,1.01,2.66.04,5.42.9,7.96.44,20.53-3.71,39.46,3.3,58.66,8.51,2.57.7,5.32,1.16,7.59,2.43,20.29,11.39,41.85,20.12,62.73,30.24,12.94,6.27,25.74,13.93,36.64,23.91,3.44,3.15,6.85,6.4,10.65,9.06,18.01,12.63,28.94,31.03,40.02,49.22,4.13,6.78,7.15,14.31,2.98,27.24Z"/>
  <path d="m752.5,226.78c-14.68,3.37-27.38,7.23-40.83,6.8-1.91-.06-4.77,0-5.63,1.17-9.53,12.83-21.52,5-32.66,4.2-5.53-7.1-9.78-3.39-14.28,1.42-1.71,1.82-4.26,3.17-6.67,3.95-3.05.98-4.85-1.36-6.13-3.78-.99-1.87-1.02-4.11.67-5.36,2.08-1.54,4.89-2.09,6.96-3.64q14.91-11.22,30.56-1.32c.54.34,1.25.39,2.37.72,3.51-4.77-2.03-8.14-2.12-12.3-.14-6.65-6.8-5.14-10.37-7.52-3.86-2.59-7.97-4.81-11.88-7.32-14.46-9.31-28.12-6.07-37.51,7.76-12.39,18.26-20.49,38.54-29.36,58.49-2.78,6.26-6.99,9.45-9.64,7.1-3.98-3.53-1.68-7.26.37-10.69,12.22-20.49,19.64-43.44,33.12-63.36,9.61-14.2,28.21-19.41,42.71-10.46,20.61,12.72,24.95,12.25,43.2-4.54,1.96-1.8,3.92-3.6,6-5.26,3.02-2.41,6.28-2.41,8.9.37,2.72,2.89,5.42,5.99,7.28,9.45,2.37,4.4,5.53,7.43,10.23,8.85,8.1,2.44,11.69,8.04,12.11,16.29.13,2.52,1.39,4.98,2.59,9.02Zm-41.61-18.96c-6.21-5.05-10.84.18-15.81,2.6-.59.29-.84,2.48-.39,3.35.4.78,2.02,1.38,3.05,1.3,5.43-.43,7.25-7.53,13.14-7.27-.45-3.72,1.43-5.89,4.68-7.25,2.32-.97,5.24-2.16,1.57-4.76-.82-.58-3.38.68-4.76,1.63-4.1,2.84-2.19,6.75-1.48,10.4Z"/>
  <path d="m906.03,586.64c-.67,3.09-1.04,3.78-.92,4.35,6.07,27.84,3.29,25.45-19.9,37.14-4.08,2.06-8.9,2.59-13.34,3.96-3.79,1.17-8.62,1.47-11.09,4.01-11.24,11.54-24.34,7.95-37.07,5.1-8.32-1.86-16.24-5.55-24.3-8.52-1.56-.57-1.94-1.93-1.12-3.29.65-1.09,1.31-2.46,2.33-2.98,3.13-1.58,6.76-1.81,9.56.14,14.02,9.75,28.44,6.33,41.86,0,10.41-4.91,22.31-3.49,32.2-9.63,3.29-2.04,7.4-2.65,10.39-5.62,4.77-4.75,6.33-10.18,3.67-16.3-2.94-6.76-6.72-12.98-12.8-17.54-3.71-2.79-7.48-5.59-10.74-8.85-1.12-1.12-1.62-4.05-.96-5.49,1.24-2.69,4.15-2.96,6.81-1.9,1.83.73,3.6,1.73,5.22,2.86,22.3,15.54,15.33,11.35,42.6,12.22,3.33.11,6.67.34,9.98.09,6.34-.49,10.12-7.27,7.62-13.27-1.86-4.45-4.83-7.96-8.92-10.46-6.22-3.81-12.46-7.4-19.44-9.98-7.57-2.79-8.71-11.76-3.1-17.75,3.16-3.38,6.16-6.83,10.81-8.54,5.89-2.17,9.12-7.14,12.55-12.26,3.83-5.72,4.95-10.56.73-16.36-1.02-1.4-.97-3.73-1-5.64-.02-1.69,1.25-2.32,2.89-1.64,6.78,2.8,10.19,7.12,9.91,13.26-.54,11.91-4.99,21.85-15.4,28.47-2.24,1.43-4.72,2.49-6.94,3.95-3.36,2.22-3.76,5.86-.87,8.15,3.12,2.48,6.25,5.06,9.7,7.01,12.25,6.93,17.44,17.36,17.55,31.31.09,10.79-4.5,16.54-14.8,15.83-3.3-.23-6.53-1.3-9.82-1.73-3.95-.52-7.93-1.03-11.9-1.05-3.92-.02-7.83.58-11.97.93Z"/>
  <path d="m731.75,251.04c11.06-1.9,22.98,7.04,25.84,20.47.14.65.29,1.3.48,1.93,2.19,7.21-6.31,12.18-4.44,18.77,1.67,5.89,3.52,11.4,1.14,17.35-1.1,2.74-3.31,4.35-6.21,3.24-2.41-.92-4.45-2.76-6.75-4.01-2.91-1.58-5.79-2.92-9.37-1.56-13.26,5.03-26.08-2.98-39.28-1.59-1.67.18-3.69-1.61-3.29-4.01.19-1.19,1.01-3.2,1.66-3.25,7.29-.54,8.86-6.61,12.41-11.32,4.69-6.21,10.76-11.52,16.84-16.48,4.78-3.9,10.53-5.38,16.59-1.79,2.23,1.32,4.79,2.13,7.26,3.02,1.44.52,2.69-.23,2.85-1.87.12-1.19-.03-2.92-.78-3.58-1.97-1.71-4.16-3.65-6.58-4.3-16.04-4.27-40.2,5.7-48.45,20.09-2.94,5.14-4.8,10.89-7.41,16.23-3.49,7.13-7.07,14.23-10.97,21.14-1.24,2.21-3.77,4.97-6.34,3.93-4.13-1.67-2.23-5.44-1.09-8.31,3.92-9.86,8.28-19.54,12.01-29.47,9.1-24.26,27.43-34.21,53.9-34.63Zm6.73,28.85c-.25-.51-.37-1.23-.78-1.5-3.89-2.54-9.02-1.72-12.31,2.19-.73.87-1.08,2.6-.75,3.67.27.88,1.96,2.11,2.73,1.93,3.2-.75,6.37-1.79,9.37-3.12.88-.39,1.19-2.08,1.75-3.17Z"/>
  <path d="m953.92,459.67c-.65-8.21-.5-15.6-1.96-22.67-2.28-11.05-8.53-14.35-18.99-9.82-10.23,4.43-21.74,6.01-30.69,13.5-1.23,1.03-3.95.64-5.25-1.34-1.12-1.7-1.57-3.53-.56-5.54,2.56-5.07,7.04-8.13,11.94-10.11,9.22-3.71,18.7-6.79,28.09-10.06,5-1.74,9.14-.32,12.41,3.75,5.93,7.39,9.78,15.79,11.9,24.97.75,3.24,1.09,6.57,1.57,9.86,2.77,19.17,2.75,18.82-16.05,19.51-11.24.41-22.54,1.48-33.61,3.43-8.87,1.56-17.13,1.13-25.35-2.24-2.47-1.01-5.15-1.7-7.35-3.12-14.08-9.1-26.12-7.66-36.12,6.39-1.09,1.54-2.95,3.11-4.71,3.5-9.7,2.17-19.46,4.05-29.23,5.85-2.1.39-3.8-.99-4.44-2.99-.7-2.19.59-4.17,2.37-4.83,3.72-1.38,7.62-2.78,11.53-3.06,11.46-.82,20.37-6.67,27.3-14.87,7.53-8.9,15.07-9.52,24.45-3.83,3.38,2.05,7.71,2.59,10.93,4.81,7.79,5.38,16.26,5.17,24.97,4.19,14.95-1.68,29.89-3.38,46.84-5.3Z"/>
  <path d="m642.79,453.21c1.04.28,3.51.18,4.57,1.35,7.61,8.49,16.6,15.05,26.27,21.03,9.9,6.12,15.83,16.21,21.14,26.1,7.04,13.1,17.7,19.15,31.99,20.17,11.91.85,23.56,4.83,35.64,3.49,13.02-1.45,20.68,7.27,29.02,14.74.63.56.56,2.75-.03,3.57-.63.88-2.24,1.28-3.48,1.44-1.27.16-2.83.15-3.89-.45-16.17-9.18-34.45-9.13-52.06-12.01-3.28-.54-6.64-.61-9.89-1.27-14.21-2.89-26.35-8.73-33.05-22.74-6.45-13.48-15.87-23.91-29.22-31.54-7.81-4.46-13.79-12.24-20.23-18.87-1.04-1.08.33-3.71,3.2-5.02Z"/>
  <path d="m545.94,550.96c3.97,0,8.25-.97,11.84.19,9.97,3.2,19.32,3.6,28.8-1.67,4.39-2.45,8.66-.57,13.03,1.89,11.44,6.45,23.36,12.03,34.85,18.39,9.5,5.26,19.75,7.06,30.29,8.18.95.1,1.98,1.62,2.55,2.7,1.21,2.27-.28,3.71-2.12,4.55-6.98,3.19-13.89,3.91-20.9-.29-7.94-4.75-16.83-7.57-24.64-12.82-5.94-4-13.37-5.72-19.78-9.12-4.53-2.41-8.65-2.65-13.29-.93-2.45.91-5.18,1.96-7.67,1.73-15.09-1.37-30.17-2.99-45.21-4.85-1.37-.17-3.58-2.77-3.4-3.92.26-1.6,2.26-3.91,3.78-4.14,3.88-.59,7.9-.2,11.87-.2,0,.1,0,.2,0,.3Z"/>
  <path d="m829.78,387.73c-9.26,4.69-13.61,11.12-17.78,17.91-5.4,8.79-8.76,9.81-18,7.68-9.66-2.23-19.42-4.09-28.98-6.67-17.1-4.6-22.68-18.51-13.52-33.64,2.36-3.89,5.63-7.32,8.95-10.47.95-.9,3.76-.56,5.34.1,1.99.83,2.57,3.39,1.61,5.03-2.33,3.98-5.37,7.53-7.82,11.45-6.65,10.63-4.75,15.79,6.8,18.54,8.97,2.14,18.03,3.91,26.97,6.2,4.81,1.23,7.52-.94,9.71-4.62,2.36-3.97,4.4-8.16,7.04-11.94,4.44-6.35,6.11-6.34,19.7.42Z"/>
  <path d="m590.74,469.84c-.46.49-.8,1.19-1.31,1.34-1.22.36-3.01,1.11-3.71.58-10.29-7.91-22.31-6.86-34.15-7-3.29-.04-6.68-.21-9.85-1.01-8.53-2.15-16.92-3.09-25.28.64-1.17.52-2.59.53-3.91.66-13.12,1.28-26.44,0-39.42,3.19-.82.2-2.54-1.07-2.97-2.04-.41-.94-.13-2.84.6-3.51,4.55-4.26,10.07-6.12,16.32-5.99,11.3.24,22.39-.82,33.44-3.65,4.94-1.26,10.5-.38,15.76-.08,8.59.49,17.3,2.56,25.72,1.68,12.01-1.25,20.25,4.28,28.06,11.74.72.68.5,2.35.69,3.45Z"/>
  <path d="m519.29,397.85c9.52-.67,18.46.62,26.48,6.34,4.43,3.16,9.66,4.17,14.96,4.89,17.87,2.41,30.76,14.63,45.48,23.24.6.35.86,2.68.35,3.22-.77.82-2.33,1.05-3.6,1.23-5.19.74-8.67-3-12.47-5.34-9.1-5.58-18.28-10.52-29.1-11.94-3.89-.51-8.09-1.41-11.35-3.42-10.03-6.2-20.77-7.87-32.28-7.04-4.7.34-9.2-1.21-13.02-4.06-.81-.61-1.53-2.16-1.33-3.08.24-1.14,1.38-2.82,2.31-2.94,4.49-.61,9.05-.77,13.58-1.09Z"/>
  <path d="m769.08,570.25c5.99,0,11.99.21,17.96-.05,7.55-.34,14.31,1.34,20.89,5.26,4.47,2.67,9.67,4.32,14.75,5.67,4.05,1.08,7.36,2.97,10.15,5.87,1.29,1.33,3.33,2.76,1.97,5.05-1.49,2.52-3.97,3.51-6.73,2.54-5.63-1.98-11.6-3.51-16.67-6.51-10.81-6.41-22.37-7.73-34.55-7.51-9.93.19-20.03,1.13-29.66-2.4-2.12-.78-5.61-1.1-4.45-4.92.93-3.05,3.69-3.57,6.38-3.61,6.65-.1,13.3-.03,19.95-.03,0,.22,0,.43,0,.65Z"/>
  <path d="m608.1,521.03c-2.95,6.01-7.18,7.96-11.88,7.23-21.79-3.39-43.44-4.19-64.95,1.8-.6.17-1.31-.12-1.97-.18-2.16-.18-3.6-1.34-4.22-3.37-.7-2.3.68-4.15,2.42-4.76,7.55-2.61,15.18-5.17,23.31-5.12,15.22.1,30.53-1.33,45.48,3.23,3.46,1.06,7.34.77,11.8,1.17Z"/>
  <path d="m419.69,518.82c12.41-3.85,20.92,5.86,31.34,9.15.7.22,1.09,2.25,1.15,3.47.1,2.25-1.49,3.64-3.4,4.19-3.48.99-6.56-.2-8.89-2.83-5.95-6.76-13.25-7.02-21.63-6-10.47,1.27-20.79,2.95-31.04,5.35-.75.18-2.45-1.14-2.7-2.04-.26-.96.37-2.94,1.14-3.28,10.82-4.77,21.68-9.57,34.03-8Z"/>
  <path d="m326.91,482.87c-.5,3.47-2.96,5.81-5.49,7.76-5.26,4.03-11.05,7.41-16.17,11.6-2.8,2.3-3.16,5.87-.08,8.61,4.95,4.4,10.16,8.51,15.1,12.93.71.64,1.04,3.05.6,3.39-1.46,1.1-4.28,2.74-4.94,2.19-7.08-5.82-15.18-10.54-20.72-18.07-2.89-3.93-3.26-10.52,0-12.97,8.94-6.73,18.32-12.88,27.65-19.06.51-.33,2.27,1.02,3.3,1.78.44.33.5,1.16.76,1.84Z"/>
  <path d="m737.9,326.49c0,.22.42,1.7-.07,2.76-4.65,10.14-17.38,16.92-27.53,14.66-3.45-.77-6.09-2.7-5.87-6.74.23-4.16,1.46-7.55,5.99-9.22,4.74-1.75,8.41,4.66,13.13,1.32,3.22-2.28,6.28-4.91,9.76-6.67,1.64-.83,3.65.74,4.57,3.9Z"/>
  <path d="m346.82,477.56c8.24-1.07,15.53-1.09,20.75,5.54,1.16,1.48,2,3.4,2.36,5.24.16.86-1.38,2.97-1.83,2.88-9.65-1.86-19.33-3.7-28.83-6.18-2.18-.57-3.93-3.33-5.5-5.38-.68-.88-.85-2.69-.41-3.72.38-.89,2.12-2,2.94-1.79,3.78.97,7.45,2.37,10.53,3.41Z"/>
  <path d="m707.61,594.89c-1.1.48-2.17,1.08-3.31,1.38-.52.14-1.55-.15-1.74-.54-4.61-9.54-12.99-14.28-22.25-18.25-2.87-1.23-5.2-4.03-7.37-6.48-1.78-2.01-2.86-4.76-.42-7.04,1.62-1.52,3.58-.66,5.18.6,4.68,3.68,9.12,7.79,15.01,9.46,8.75,2.49,12.17,9.6,15.1,17.12.41,1.06-.1,2.49-.19,3.75Z"/>
  <path d="m502,434.03c-7.66-1.32-15.13-.07-21.77-3.52-1.63-.85-3.25-2.36-2.6-4.74.55-2.03,1.75-3.45,4.03-3.08,9.66,1.57,19.31,3.17,28.92,4.96.93.17,1.81,1.62,2.36,2.66.72,1.36-.05,2.31-1.81,2.54-3.23.43-6.46.84-9.12,1.18Z"/>
  <path d="m647.39,494.55c-9.3.93-16.6-4.5-24.37-1.75-.86.31-3.14-.76-3.24-1.43-.28-1.78-.14-3.87.58-5.52,1.43-3.3,4.56-5.28,7.86-4.34,7.16,2.03,14.36,4.49,19.17,13.04Z"/>
  <path d="m637.77,522.58c-.8.67-1.52,1.69-2.48,2.02-6.37,2.17-11.05-3.65-17.02-3.71-3.67-.04-7.07-1.59-5.44-5.72,1.28-3.23,5.4-3.97,8.61-2.77,5.51,2.05,11.24,3.92,15.59,8.24.42.42.47,1.22.73,1.95Z"/>
  <path d="m478.91,485.75c.06.65.42,1.63.12,1.91-3.94,3.74-8.38,6.29-14.04,4.66-.52-.15-1.12-2.47-.69-3.1,2.79-4.06,7.09-5.51,11.76-5.7.92-.04,1.9,1.45,2.84,2.23Z"/>
</svg>