<?xml version="1.0" encoding="UTF-8"?>
<svg id="Layer_1" data-name="Layer 1" xmlns="http://www.w3.org/2000/svg" width="906.45" height="1004.61" viewBox="0 0 906.45 1004.61">
  <path d="m430.26,548.59c10.15,12.25,24.69,17.82,38.2,24.86,4.45,2.32,8.02,2.85,7.07,10.22-.72,5.6,8.84,10.66,12.59,9.18,11.12-4.38,17.35,4.48,24.53,7.92,14.69,7.02,21.54,7.47,32.55-4.87,1.92,4.63-8.37,11.15.55,12.88,6.5,1.26,11.37-4.1,11.18-12.18-.09-3.88.57-8.08,3.97-12.32,3.01,4.44,2.66,7.61.43,11.09-1.17,1.82-2.9,4.45-2.34,5.96.99,2.7,3.58,5.68,7.04,3.06,4.77-3.61,13.33,12.74,15.56-3.21.65-4.61,2.72-9.02,6.05-13.72-6.1,16.04-4.62,28.71,13.22,35.02,4.35-5.81.66-16.26,9.45-22.13,1.46,7.95-1.79,14.36-4.4,20.09-2.42,5.31-2.29,9.63,1.9,11.77,5.73,2.92,4.94-3.35,6.33-6.42,3.93-8.69,7.91,1.44,12.06.09,2.72-7.59,3.74-15.93,8.61-22.73,4.02,1.52,3.09,3.85,2.09,6.6-2.58,7.08-4.88,14.27-7.29,21.42-2.23,6.58-.13,11.59,6.59,12.97,6.04,1.24,12.04,2.76,14.81-7.07,2.42-8.57,5.72-17.12,8.44-25.74,1.22-3.88,2.59-7.67,7.7-11.33-.53,10.39-5.47,17.51-8.27,25.26-1.21,3.36-5.01,7.35.31,9.67,5.27,2.29,5.57-2.8,7.14-6.25,2.01-4.4,1.09-10.05,6.2-13.76.73,6.73-2.8,12.07-4.24,17.77-2.18,8.62-1.74,16.88,7.37,19.82,7.61,2.46,15.56,6.9,23.1-5.14,7.94-12.68,17.73-24.1,22.63-38.63.79-2.35,3.24-4.18,5.02-6.15,1.27-1.4,2.78-2.99,4.81-1.55,2.14,1.52.8,3.16-.19,4.86-6.64,11.37-10.75,24.03-19.7,34.3-9.45,10.84-5.34,22.59,8.53,25.97,6.76,1.65,7.14,4.48,3.49,9.25-5.06,6.63-8.81,14.2-15.03,20.03-3.96,3.71-4.88,6.15,2.51,7.73,9.26,1.99,16.17-.12,20.47-7.98,4.07-7.45,12.95-11.93,12.8-22.17-.05-3.6,4.92-3.76,7.53-2.51,3.51,1.68,2.53,5.41,1.01,8.04-4.28,7.38-8.95,14.53-13.62,22.03,5.99,2.83,8.33-2.15,11.89-3.57,2.43-.96,5.17-3.29,7.04-.25,1.56,2.55-.69,4.89-2.65,6.89-4.2,4.29-9.63,6.61-15.19,7.25-17.6,2.03-35.26,4.16-52.95,4.71-20.49.64-40.52,6.39-61.13,4.9-2.68-.19-4.29,1.43-5.58,3.35-2.95,4.39-6.02,3.9-9.28.45-2.46-2.6-5.38-4.9-9.02-3.77-9.34,2.9-19.19.32-28.47,3.02-1.46.42-3.64,1.51-4,.06-3.5-14.07-16.75-4.28-23.84-9.8-1.88-1.46-5.13-.13-6.97,2.36-2.42,3.28-4.69,8.06-9.67,5.65-5.43-2.63-1.71-7.78-.7-13.07-9.72,3.32-19.1,2.27-27.1,7.24-3.42,2.12-6.83,2.82-10.77.84-1.91-.96-4.73-1.56-6.62-.89-17.82,6.31-34.22-2.21-50.91-5.32-9.14-1.7-16.87-1.19-24.8,3.29-1.02-11.7,10.41-20.03,24.03-16.21,6.31,1.77,13.58.63,19.29,5.74,3.17,2.83,7.95,1.86,8.14-3.57.46-13.41,4.88-25.8,8.75-38.37.86-2.79,2.3-6.79-1.07-8.25-5.4-2.33-4.52,3.32-5.89,5.93-6.01,11.45-17.33,19.23-21.89,31.74-.81,2.22-3.42,3.28-5.79,2.06-2.88-1.49-2.7-3.98-1.75-6.84,3.55-10.71,6.52-21.63,10.47-32.19,1.53-4.1,1.06-6.96-2.3-8.69-3.53-1.82-5.22,1.38-7.04,3.94-7.61,10.76-16,20.85-18.79,34.5-1.5,7.34-4.14,15.35-16.02,20.04,6.21-17.61,8.17-35.32,17.68-46.73,9.64-11.57,21.34-23.37,35.39-31.17-4.49,6.58-12.89,12.86-1.2,20.57.63.42-1.38,4.12-1.31,6.27.16,4.43-4.77,8.11-1.04,14.19,13.58-15.81,26.84-31.24,40.1-46.67-1.1,8.14-5.68,13.74-10.61,18.94-2.93,3.09-5.16,6.59-3.26,10.14,3.78,7.05.74,13.28-1.06,19.69-.7,2.5-3.28,5.56-.68,7.19,3.37,2.12,5-1.79,7.01-3.98,4.75-5.17,6.27-13.44,14.06-16.19,1.22,2.51.58,3.77-.51,4.94-1.04,1.11-2.27,2.14-2.99,3.44-1.41,2.55-7.48,6.17.19,7.56,6.19,1.12,5.62-6.03,8.07-9.46,1.06-1.48,2.5-3.85,2-5.1-6.31-15.67,8.29-20.96,13.4-31.38,3.87,3.23,2.2,5.82,1.11,7.2-7.92,10.02-4.59,23.61-11.01,34.13-.96,1.58-2,5.86,1.6,6.68,3.17.73,4.42-2.37,4.83-5.12.44-2.97-.06-7.57,3.52-7.52,10.1.15,12.51-8.48,18.1-13.74,6.73-6.34,11.28-15.47,21.06-18.31-4.53,7.28-9.72,13.81-15.32,19.96-5.62,6.18-12.04,11.68-17.32,18.12-2.39,2.92-7.81,5.89-5.18,10.46,2.83,4.93,10.62,5.54,13.33,3.16,8.45-7.4,15.4-10.19,23.09.23.19.26,1.56-.03,2.13-.41,7.22-4.88,15.47-5.28,23.77-6.32,5.81-.73,9.96-4.99,10.85-11.39l-.29.3c6.1-1.88,7.1-8.92,11.35-11.92,10.64-7.52-2.01-10.8-2.57-16.15-.57-5.47-5.27,2.29-8.13-.17,1.62-14.44-10.4-19.54-23.73-18.31-23.03,2.12-45.58,4.75-65.87-11.26-5.14-4.05-14.56-.79-20.93-6.41-2.2-1.94-4.8,1.73-6.66,4.44-5.72,8.39-11.1,17.2-20.24,22.58.22-11.04,10.16-16.33,15.03-24.64,5.17-8.82,7.15-13.97-3.78-19.84-29.56-15.86-55.5-37.84-86.86-50.95-10.58-4.42-21.19-5.65-32.04-6.55-5.47-.45-11.39,2.14-10.9,8.83.35,4.83,1.46,11.29,8.8,11.34,4.06.03,8.97-2.06,9.35,4.51.26,4.55-4.34,5.01-7.18,5.86-4.37,1.31-10.37,1.88-11.31-3.98-.88-5.45-5.59-8.88-5.46-14.7.17-7.58-3.41-7.29-8.5-3.15-4.82,3.91-8.11,14.91-17.04,3.81-1.67-2.08-4.66,3.05-6.31,5.25-4.01,5.33-9.65,10.09-8.46,17.93.33,2.16-.44,3.97-2.62,4.29-3.86.56-3.09-2.31-2.73-4.45.73-4.32-2.58-5.12-5.35-6.07-2.91-.99-6.03.37-6.7,2.92-1.62,6.13-6.36,7.97-11.29,10.07-3.63,1.55-4.72,4.94-4.66,8.47.08,4.96,1.13,10.1-6.95,6.58-4.85-2.11-4.12,3.27-5.61,5.24-3.21,4.25-6.23,10.89-12.06,6.09-4.33-3.56,1.25-7.66,4.02-10.93,3.93-4.64,7.81-9.33,11.74-13.97,1.91-2.25,4.77-5.05,2.06-7.51-2.34-2.13-5.52-.27-8.06,1.97-14.11,12.49-23.07,27.8-26.04,46.5-.33,2.06.71,4.74-3.07,5.72-1.66-5.28-2.19-16.53-9.49-2.82-.7,1.31-3.52,3.06-5.97,1.01-3.12-2.62-1.08-4.53.71-6.63,3.7-4.35,7.27-8.8,10.98-13.14,3.95-4.62,6.89-10.98,4.33-15.71-6.79-12.54,1.93-22.94,3.01-34.27.38-3.98,4.46-6.94,8.47-5.42,4.84,1.84,1.47,5.55.5,8.64-2.49,7.94-4.83,15.93-7.07,23.94-.48,1.72-1.02,3.94,1.29,4.94,2.04.88,3.68-.19,4.93-1.8,6.03-7.76,11.1-16.35,20.48-21,3.36-1.67,1.21-4.57-.17-6.84-1.63-2.69-5.86-4.24-3.78-8.67,6.57.96,10.75,6.2,16.22,8.8,11.57,5.5,22.84.47,32.8-4.6,9.43-4.8,10.67-11.86,6.81-23.98-7.91-24.83-9.66-51.35-10.04-77.74-11.02,6.83-15.1,25.99-12.13,38.5,3.92,16.47,4.4,33.7,3.8,51.19-9.26-4.73-8.35-13.01-8.8-19.63-1.18-17.16-6.2-33.89-5.45-51.18.16-3.67.74-8.54,3.1-10.71,16-14.69,17.17-33.72,17.64-53.47.14-5.84.92-9.99-6.23-11.04-2.9-.43-5.36-2.73-3.93-5.6,1.44-2.9,4.06-5.57,6.81-7.35,2.53-1.63,5.13-.78,5.46,3.1.31,3.71,2.2,2.54,4.64,1.69,14.34-4.99,23.53-17.44,36.25-24.76,2.21-1.27,1.99-3.42,1.09-5.98-3.44-9.77,2.84-17.46,6.26-25.68,1.06-2.55,3.31-4.18,6.46-2.33,3.29,1.93,2.23,4.25.86,6.77-1.96,3.61-4.78,7.22-1.4,11.4.37.46,2.22.18,3.09-.3,4.99-2.78,5.03-8.27,6.11-12.82.76-3.22-7.58-5.99-1.51-10.24,7.44-5.21,13.04-13.34,22.99-14.63,11.54-1.48,21.2-7.8,31.38-12.64,4.38-2.08,5.76-6.87,5.85-11.75.07-3.69-.22-7.56,3.58-9.77,1.95.82,2.3,2.17,2.11,3.79-.87,7.3.83,10.19,7.59,4.42,1.64-1.4,3.35-3.97,5.58-1.59.98,1.05,1.08,3.72.54,5.29-6.99,19.98-5.33,41.11-8.33,61.61-.54,3.66-.98,7.46,2.22,10.73,3.74,3.82,2.75,8.24.6,12.66-1.09,2.25-2.21,4.02-5,3.61-2.85-.42-3.53-2.66-3.63-5-.21-4.84-.41-9.7-.2-14.54.1-2.19,1.73-4.74-1.62-5.47-3.07-.67-4.02,1.78-3.91,4.19.18,4.12-2.23,7.93-.6,12.35.97,2.62.65,6.22-.34,8.92-1.19,3.23-1.67,8.97-6.51,7.85-4.41-1.02-3.26-5.92-2.78-9.76.65-5.25,1.93-10.55-.33-18.34-6.34,9.07-10.55,17.15-11.65,26.67-.59,5.13-.89,8.42-7.28,4.14-6.87-4.6-11.82-.7-13.67,6.08-1.58,5.77-1.78,11.98-2.04,18.01-.15,3.62,2.65,4.8,5.46,3.02,25.19-15.95,55.47-16.3,82.33-27.07,1.06-.42,2.04-1.04,3.11-1.44,2.52-.96,5.5-1.81,4.43-5.36-.87-2.9-3.79-1.88-5.89-1.96-4.2-.16-8.4-.04-12.6-.05-3.89,0-7.19-1.19-6.49-5.78.65-4.24,4.64-3.9,7.37-3.13,8.34,2.37,14.85.46,22.07-4.69,6.83-4.88,8.87-10.42,9.61-17.97,1.32-13.63.12-27.18-.21-40.76-.16-6.54,1.07-12.21,4.63-18.26,6.53-11.07.67-24.42,4.32-36.35.16-.52-1.25-2.08-2.11-2.26-2.47-.51-3.08,2-3.74,3.4-3.21,6.84-5.77,13.99-9.19,20.71-1.99,3.92-2.36,9.88-9.52,9.13-3.19-.33-2.74,2.99-2.62,5.16.08,1.41-.14,3.25,1.76,3.8,4.61,1.33,4.23-4.93,8.34-5.3,3.96,6.55-1.18,12.84-.98,19.29.48,15.64.2,31.32-.09,46.97-.05,2.86,2.26,8.02-3.24,7.94-3.65-.05-3.57-4.35-3.45-7.43.64-16.88-.64-33.8,1.93-53.05-14.62,15.51-3.88,34.51-11.78,50.05-6.63-9.86-3.56-20.2-2.61-29.22,1.77-16.92.03-34.83,9.89-50.35,1.75-2.76-.73-5.16-3.46-6.06-9.04-2.98-5.99-8.65-2.47-13.33,3.39-4.52,3.66-7.09.79-12.74-3.5-6.89,3.39-14.41,5.09-21.8.6-2.62,4.56.57,4.89,4.21.28,3.09-1.72,7.9,3.22,8.47,6.12.72,5.5-4.92,6.49-8.75,1.32-5.1,2.6-10.2,3.97-15.28.72-2.66,1.88-5.64,5.17-4.76,2.67.72,1.15,3.93,1.76,5.94,1.24,4.06-6.48,10.22.25,11.48,5.68,1.06,6.02-7.43,7.48-12.13,1.33-4.29.76-9.14,1.88-13.53.65-2.52,1.3-6.53,5.58-5.81,3.66.62,2.75,3.9,3.14,6.43.38,2.42-1.45,5.93,1.92,6.99,4.11,1.29,4.59-3.06,6.31-5.27,6.44-8.24,1.92-16.93.28-25.19-.69-3.47-5.25-2.95-7.51-.38-13.1,14.85-30.71,22.95-47.42,32.49-14.15,8.08-22.89,21.1-28.26,35.86-4.84,13.3-10.88,22.2-25.35,28.83-26.33,12.08-53.62,19.96-81.16,27.76-5.76,1.63-9.75,5.54-12.78,10.66-10.17,17.2-17.71,35.67-25.99,53.77-2.37,5.19-3.41,9.62-9.73,3.69-4.45-4.17-5.99,1.3-7.42,3.51-4.28,6.63-7.64,13.85-11.84,20.54-10.25,16.36-26.09,10.84-40.22,9.03-19.22-2.47-48.93,10.6-56.69,26.09-2.06,4.11-2.38,7.66-.25,11.71,2.03,3.86,4.64,4.01,6.63.65,6.64-11.17,16.4-14.53,28.94-14.14,6.19.2,12.43-2.87,18.73-4.05,2.82-.53,6.62-1.92,8.45,1.26,2.11,3.67-2.24,4.93-3.97,7.12-.22.28-.64.4-.94.62-3.54,2.66-8.96,7.1-5.96,10.14,4.67,4.73,6.03-2.74,8.56-5.37,1.66-1.73,3.37-3.27,5.9-1.77,1.85,1.1,2.47,3.01,1.97,4.96-4.83,18.47-12.92,35.15-27.26,48.21-2.17,1.97-5.01,1.4-7.54.15-3.86-1.91-7.02-2.24-9.34,2.5-1.41,2.89-4.02,4.96-7.42,2.4-3.13-2.35-4.07-5.31-1.63-8.89,1.41-2.08,3.95-4.04,1.98-7.05-1.62-2.48-2.71-5.94-6.34-5.89-4.67.06-3.99,3.98-3.82,6.81.68,10.97-.74,21.24-8.13,30.01-1.75,2.07-3.3,4.96-6.27,3.56-1.7-.8-3.25-3.36-3.62-5.35-2.94-15.9-9.36-30.99-10.65-47.3-1.13-14.35.04-28,8.32-40.31,1.06-1.57,1.79-4.14,3.19-4.57,14.2-4.38,22.97-15.32,32.23-25.8,4.92-5.57,10.51-.71,14.67.87,9.85,3.74,17.48,3.7,25.72-4.1,4-3.8,5.54-5.2,4.51-11.36-2.5-15.02,3.56-29.38,9.91-42.34,4.7-9.6,17.44-4.13,26.31-6.92,17.72-5.57,37.66-6.24,47.76-25.94,2.09-4.08,6.38-7.45,10.88-7.68,16.99-.87,31.78-9.43,47.93-13.33,15.11-3.65,28.98-12.51,43.25-19.39,2.2-1.06,4.62-3.55,5.18-5.82,9.04-36.05,35.71-55.06,66.55-70.78,14.21-7.25,15.37-12.38,11.72-28.5-2.88-12.74,7.01-29.53,19.58-33.27,4.36-1.3,9.09-4.52,12.99-3.7,16.95,3.57,21.91-6.89,26.64-19.75,4.38-11.91,13.38-18.75,26.7-19.96,9.81-.9,19.43-3.66,29.22-4.96,17.04-2.27,33.02.91,46.69,11.79,5.63,4.48,10.3,10.16,15.41,15.28,3.56,3.57,4.35,8.37.35,10.93-6.8,4.35-3.83,5.6.11,10.3,8.18,9.74,20.15,18.05,17.77,33.71-1.01,6.67-2.08,13.58-9.86,14.66-7.3,1.01-7.4-6.1-9.24-10.87-.95-2.47-1.83-5.05-3.27-7.24-1.41-2.15-3.05-4.64-6.24-4.3-3.79.4-3.55,3.43-3.53,6.07.03,4.06-.63,8.01-4.95,9.29-4.59,1.36-6.35-3.23-9.19-5.51-2.33-1.88-2.98-7.55-7.57-4.45-3.34,2.25-4.27,6.01-2.28,10.18,1.62,3.39,2.51,7.13,4.05,10.57,1.32,2.96,2.37,5.84-.13,8.48-2.81,2.97-6.24,2.2-9.48.76-6.25-2.77-16.46-20.07-14.24-26.47,2.45-7.06,10.15-10.6,14.66-16.21,8.31-10.33,23.53-12.81,29.43-26.41-5.17.52-9.63,1.44-14.07,1.32-12.17-.32-20.27,5.18-24.14,16.5-3.81,11.13-9.06,20.75-24.49,24.7,12.4,4.93,14.67,13.42,17.45,22.78,5.12,17.24,12.97,33.26,31.47,40.95,3.36,1.4,10.8,3.09,7.83,8.6-2.65,4.92-8.25,1.98-13.05-.17-8.84-3.96-18.08-7.13-27.34-10.01-9.69-3.01-18.51-6.85-23.57-16.39-2.36-4.45-5.05-5.92-7.59-.12-8.52,19.46-25.1,31.53-41.97,42.08-18.63,11.65-21.32,28.26-21.58,47.48-.21,14.98-.24,30.05-3.17,45.08,4.55.74,9.67-8.48,12.31-.45,2.12,6.45,14.11,12.78,2.42,21.11-3.91,2.78-6.23,6.59-5.94,11.67.25,4.39-1.82,6.57-6.24,5.56-5.03-1.16-7.44-4.91-5.31-9.4,2.53-5.33,4.91-11.22,11.06-14.03-2.26-2.11-4.32-3.98-6.33-5.92-2.71-2.6-4.31-.82-4.58,1.67-2.6,23.79-19.93,37.58-35.65,52.31-4.38,4.1-7.82,7.01-6.02,14.14,1.54,6.1-.84,12.74-8.41,13.85-8.06,1.19-10.92-3.56-9.98-11.2.3-2.46-.5-4.95-3.5-4.63-2.57.27-5.24,1.19-7.47,2.5-3.43,2.01-1.4,5.55,0,6.92,8.46,8.32,2.39,15.36-1.71,22.36-2.73,4.64-6.43,6.57-10.7,1.04-2.56-3.31-5.87-6.06-8.25-9.48-2.13-3.05-4.9-7.11,2.3-7.76,3.34-.3,5.16-2.26,3.94-5.33-1.24-3.13-4.24-4.57-7.57-3.27-15.73,6.15-33.27,8.01-46.38,20.44-5.14,4.87-14.06,5-17.92,11.5-8.69,14.64-20,27.97-25.45,44.22-2.89,8.62-1.24,18.1,3.84,26.4,2.06,3.37,4.61,6.57-2.81,7.28-9.45.9-8,10.87-7.24,15.17,1.19,6.72,7.55,1.91,10.9.05,23.48-13.05,44.36-2.11,65.43,6.72,5.57,2.34,10.72,5.68,16.11,8.46,4.64,2.39,10.71,2.57,10.94-3.06.47-11.76,7.87-20.07,11.78-30.05,1.01-2.58,5.36-6.18.65-8.84-3.17-1.79-6.6-.05-9.11,2.75-3.39,3.78-6.84,7.52-12.31,13.53.76-14.13,7.48-22.64,16.31-24.7,8.84-2.06,18.73-4.87,28.01-3.05,6.19,1.21,16.58-1.56,16.54,10.48,0,.26.5.52.77.79,1.81,1.76,27.96,5.22,29.71,3.62,5.55-5.07.86-19.75,17.48-15.29,8,2.14,18.27-4.81,27.65-7.07,11.62-2.8,17.33-13.14,26.01-19.65,16.97-12.72,36.17-22.62,49.95-39.43,6.44-7.85,11.27-16.02,9.83-26.81-.93-6.96-4.09-11.44-11.24-12.19-7.14-.75-13.59-.45-15.93,8.66-4.58,17.84-16.55,27.1-34.77,29.41-29.98,3.8-53.8,20.67-77.54,37.55-1.52,1.08-3.73,2.01-2.43,4.05.87,1.36,3,2.27,4.73,2.65,12.94,2.78,23.98-2.44,31.45-11.77,6.82-8.52,19.62-8,24.44-19.06,1.37-3.13,5.81-1.12,6.47,3.69,1,7.25-4.99,9.79-8.82,13.63-1.74,1.74-5.44,1.66-6.96,3.48-23.07,27.6-50.77,20.91-77.49,8.77-17.95-8.15-30.53-7.08-42.19,9.48-7.71,10.95-20.72,16.55-30.54,25.56-1.78,1.64-4.16,4.12-6.93,1.63-2.25-2.02-2.1-4.9-.79-7.39,1.58-3,3.42-5.72,6.9-7.23,13.98-6.1,24.41-16.5,33.97-28.1,7.58-9.19,16.44-13.88,28.81-7.55,7.55,3.86,16.09,5.78,24.73,8.76,1.07-6.16-5.97-19.88,9.42-10.19,3.57,2.25,6.1-1.29,8.88-3.32,10.38-7.55,20.09-15.84,31.76-21.84,13.02-6.7,26.95-10,40.74-13,14.11-3.07,23.54-8.93,27.2-23.29,3.06-12,10.28-17.36,19.89-15.66,15.55,2.75,22.53,10.69,23.69,22.63,1.74,17.85-6.38,30.52-18.22,42.08-5.98,5.84-11.5,12.04-16.69,18.68-10.73,13.72-23.05,25.46-41.21,29.42-8.65,1.89-15.61,9.4-25.38,8.63-.85-.07-2.44,1.1-2.62,1.92-3.27,15.19-16.97,15.01-27.67,17.18-6.84,1.39-14.25,5.67-21.94,1.59-2.11-1.12-4.51.79-5.89,2.6-11.86,15.7-9.47,36.2,3.65,44.42,2.66,1.67,8.69,2.32,6.9,7.48-1.73,4.98-7.3,3.39-11.08,3.47-10.81.25-17.94-6.73-21.81-17.85-1.5-4.3.77-11.4-5.19-12.66-5.78-1.23-9.83,3.76-12.15,8.62-1.64,3.45-5.43,2.53-7.19,5.02-3.99-5.71-.31-9.52,3.11-13.65,2.82-3.4,7.88-5.48,8.09-11.99-7.35,2.51-11.78,7.24-16.15,11.62-2.41,2.41-7.6,4.14-6.14,8.51,1.63,4.9,6.76,5.08,11.29,5.26Zm-195.26-197.6c8.21-1.67,6.26-9.88,9.39-14.81,3.43-5.42,2.6-13.51,10.65-16.08,2.12-.68,6.16-.33,5.25-4.43-.92-4.13-4.65-3.14-7.55-3.18-4.82-.06-7.89,2.38-9.02,7.08-2.57,10.62-7.31,20.65-8.45,31.66-5.96,4.71-11.97,9.36-13.31,17.6-.68,4.16,1.34,5.59,5.09,5.45,3.69-.14,8.69-3.86,7.44-4.92-8.1-6.86.76-12.38.53-18.37ZM596.07,71.23c4.77-.7,6.96-4.74,10.37-6.71,1.52-.88,3.32-2.74,4.84-.47.58.87.2,3.06-.54,4.05-6.59,8.79-15.04,15.88-21.78,24.75-4.16,5.48-9.88,9.34-11.35,16.93-.87,4.52-2.49,11.96-8.54,9.33-5.35-2.32.29-7.87,1.55-11.8.8-2.48,3.2-5.17.45-7-1.89-1.26-5.28-1.28-7.62-.59-4.17,1.23-7.37,3.94-7.21,9.01.31,9.59-5.92,18.55-2.22,28.66,1.22,3.35-1.27,7.38-4.44,9.76-.78.59-3.35.19-3.95-.61-2-2.7-.72-5.8-.25-8.79,1.28-8.12,2.45-16.26,3.75-24.95-2.07.56-3.72.52-4.11,1.19-8.28,14.5-9.77,31.03-12.56,46.93-1.01,5.73,1.63,12.49-.73,18.78-.8,2.12-1.52,4.76.96,5.98,2.63,1.29,3.87-1.65,5.52-3.02,5.08-4.21,5.26-13.56,14.9-14.2-1.18,9.76-5.77,16.17-12.94,22-10.35,8.4-22.54,14.06-32.13,23.7-11.15,11.2-17.37,29.62-12.08,41.62,3.01-1.94,2.5-5.19,3.22-8.11,3.27-13.36,7.24-26.37,21.04-33.11,12.84-6.27,22.44-16.67,32.81-26.05,8.88-8.04,12.33-17.34,7.68-29.52-5.41-14.18-.79-24.1,12.91-30.6,5.43-2.58,11.65-3.8,16.58-7.05,5.46-3.6,13.63-7.07,5.65-16.47-3.54-4.18-.26-10.46,3.98-11.21,15.93-2.83,30-14.1,47.34-10.47,2.03.43,4.86.58,5.52-2.5.43-2.01-.73-3.54-2.31-4.86-6.53-5.46-10.32-15.09-21.93-12.53-3.65.8-8.3-1.13-12.02-2.82-14.93-6.8-16.29-6.24-20.35,10.78Zm51.83,613.87c10.79-3.48,14.66-14.33,21.92-21.6.57-.57.38-3,.26-3.02-6.79-1.21-14.64-9.04-19.36-4.84-7.18,6.38-10.05,1.6-14.73-1.35-5.6-3.54-12.77-3.75-17.84-8.79-1.66-1.65-5.66-1.71-7.22.94-9.02,15.34-22.51,27.21-32.25,41.9-2.97,4.48-.99,12.56,1.64,14.97,3.78,3.47,6.03-3.92,8.86-6.45,3.89-3.49,6.7-8.2,9.95-12.41,7.94-10.27,15.87-20.54,24.48-31.69,2.96,7.74-1.61,10.95-4.45,14.68-5.94,7.79-12.41,15.19-15.33,24.88-.78,2.59-2.49,5.34.17,7.23,2.91,2.06,5.04-.85,6.63-2.71,7.63-8.9,14.94-18.09,22.61-26.97,2.28-2.64,4.92-7.92,8.67-5.02,3.05,2.36,6.46,6.36,6.21,11.6-.13,2.77-4.07,5.28-.23,8.64Zm-342.59-286.09c-5.47,8.78-11.02,17.51-16.35,26.37-1.43,2.37-.58,5.09-.27,7.77,3.04,26.3,5.9,52.62,8.82,78.94.35,3.18-1.29,8.03,3.2,8.53,4.22.47,2.57-4.52,3.77-6.99,6.79-13.93,2.63-28.86,4.26-43.24.38-3.32,2.4-6.79,1.81-9.84-3.88-19.98-3.14-40.11-5.25-61.53Zm201.79-194.73c5.97-3.05,6.29-10.23,11.13-13.04,8.94-5.18,9.32-15.55,7.29-21.44-3.17-9.24-3.86-17.26-1.41-26.25,3.49-12.78.42-28.48,16.46-35.58,1.57-.69,3.08-3.28,1.25-6.1-2.12.65-4.18,1.6-6.33,1.89q-26.44,3.47-24.96,29.63c.04.75-.12,1.53-.3,2.27-.38,1.62.71,2.06,1.85,1.99,11.92-.76,4.56,5.42,2.7,8.49-2.26,3.75-2.27,7.77-3.37,11.62-2.68,9.34,6.02,17.1,1.86,27.17-2.46,5.97-12.06,10.14-6.19,19.34Zm-42.56,159.15c12.41-8.92,20.31-19.34,24.88-31.9,2.54-6.97,5.65-13.63,1.54-22.52-1.89-4.1-4.28-12.56-1.63-18.67,3.81-8.76,1.74-17.99,1.34-26.4-.57-12.18-2.45-24.27-.21-36.42.44-2.36,1.6-4.76-1-5.88-3.93-1.68-4.07,2.31-5.07,4.42-.95,2.02-1.94,4.39-1.76,6.5,2.21,26.24-1.32,52.36-2.02,78.51-.32,12.18-.73,25.4-7.28,36.9-2.57,4.51-8.11,7.07-8.79,15.46Zm218.99,323.3c5.5-6.87,9.49-11.94,13.57-16.93,1.75-2.14,3.53-4.12,1.43-7.02-2.25-3.11-4.43-1.15-6.96-.29-7.04,2.4-12.74,7.91-20.9,8-3.08.04-6.23,3.44-6.42,7.18-.2,3.86,3.37,3.31,5.89,3.63,1.95.25,3.41.97,4.82,2.52,12.61,13.84,27.38,12.31,37.12-3.67,2.47-4.06,5.31-8.56.03-11.94-5.25-3.35-8.64-.43-11.67,4.71-3.25,5.51-5.84,12.52-16.91,13.8Zm-367.19-236.62c15.97-15.61,11.07-34.71,10.93-53.02-.06-7.87-5.51-7.23-10.27-6.5-5.87.91-4.91,5.48-3.82,9.64,1.04,3.99,3.36,7.81,2.19,12.12-3.45,12.71,2.29,25.06.97,37.76Zm288.45-267.46c-9.02-9.17-12.34-20.44-13.17-32.93-4.83,2.22-6.3,9.94-10.79,6.17-7.04-5.91,1.19-12.58,2.15-19.3-12.23,3.18-17.98,12.25-11.79,19.09,6.14,6.78,10.12,15.07,16.56,21.34,4.1,4,8.55,9.01,17.03,5.63Zm-280.37,178.97c-12.03,7.65-22.97,14.61-33.92,21.57-.64.4-1.34.73-1.9,1.22-1.94,1.71-1.69,3.55-1.2,6.04.7,3.62.37,7.5.06,11.23-.14,1.72-2.07,3.76.35,4.82,2.4,1.04,3.96-.41,5.14-2.86,1.45-3.01,3.1-6.27,5.56-8.37,4.89-4.18,6.25-13.51,12.65-13.69,13.75-.4,14.04-8.41,13.25-19.97Zm244.89,321.54c-9.64,3.26-18.5,7.92-28.49,9.16-3.46.43-4.44,6.7.12,8.97,8.28,4.12,16.96,7.16,26.62,6.76,5.08-.21,5.56-3.72,6.03-6.78.82-5.29-2.5-2.62-4.93-2.21-4.69.78-4.86-1.97-3.96-5.56.85-3.36,5-4.89,4.59-10.35Zm-234.94-262.55c6.72-4.67,12.13-8.55,17.66-12.24,3.21-2.14,2.39-5.26,2.4-8.21,0-1.76-1.07-3.26-2.71-2.58-13.69,5.72-8.07-4.31-7.5-9.46.35-3.19,3.16-7.46-1.23-8.51-4.3-1.04-8.28,2.46-8.48,7.16-.44,10.77-.14,21.58-.14,33.83ZM589.92,63.1c.01-2.77-2.14-2.46-3.9-2.77-15.87-2.85-28.99,3.9-35.72,18.98-1.72,3.86-6.17,9.57-1.89,12.26,5.02,3.15,7.16-4.13,9.48-7.28,6.94-9.44,12.4-20.38,27.27-17.16,2.56.56,3.88-1.82,4.75-4.02ZM139.37,462.77c12.92-16.76,11.18-32.69-2.31-49.55-2.78,17.7.09,33.64,2.31,49.55Zm228.49-141.37c4.59-.03,6.15-3.09,8.29-5.06,4.32-3.98,11.25-8.89,7.07-14.62-4.55-6.23-10.74,2.2-12.56,4.46-5.72,7.06-20.36,5.05-19.16,18.81.17,1.99-2.15,4.39,1.01,5.68,2.76,1.13,4.36-.79,5.22-2.97,2.06-5.21,1.01-15.51,10.12-6.3Zm243.9,388.67c13.77,2.47,19.76-1.11,24.22-13.42,1.72-4.76-1.42-7.35-3.72-9.93-2.57-2.88-4.73.36-6.53,2.02-6.42,5.91-12.02,12.39-13.97,21.33ZM503.49,111.64c-1.14-.11-2.27-.22-3.41-.33-7.55,9.3-5.37,20.21-4.22,30.88.18,1.66.92,4.09,3.29,3.97,2.4-.13,4.32-1.47,4.33-4.31.02-10.07,0-20.15,0-30.22Zm-218.68,189.96c-16.49,9.46-28.33,26.38-27.56,39.32,7.91-14.12,21.12-22.32,27.56-39.32Zm354.24,407.77c6.41-.3,10.55-.22,14.6-.75,4.4-.57,8.32-2.78,8.63-7.54.17-2.66.75-6.63-2.45-8.25-4.43-2.24-8.29,1.04-11.1,3.42-3.54,3-5.74,7.58-9.69,13.12Zm-142.5-4.45c-.3-.59-.83-2.41-1.26-2.39-8.84.45-17.11-10.62-26.54-1.13-1.8,1.82-5.08,2.38-3.57,5.72,1.13,2.49,4.04,2.23,6,1.56,6.99-2.39,13.8-3.47,20.88-.28,2.49,1.12,4.43.16,4.49-3.49Zm19.42-.52c5.45-2.08,14.34-3.41,14.49-10.7.13-6.48-8.77-3.01-13.27-4.16-6.07-1.56-5.71,6.54-7.6,10.35-1.75,3.53,2.42,4.33,6.38,4.5Zm-58.78-210.46c.4-2.29-1.25-3.48-2.78-4.35-5.82-3.33-18.12,1.93-19.46,8.32-.26,1.25.02,3.62.7,3.91,5.3,2.18,9.91-2.02,15.17-2.04,2.86-.01,5.06-2.96,6.37-5.83Zm-91.53-143.06c4.41-4.09,11.21-6.29,14.5-12.69.79-1.54,1.05-2.77-.6-3.71-5.21-2.95-9.7.47-13.36,2.83-3.62,2.33-5.11,7.22-4.56,11.96.21,1.78,1.69,2.21,4.01,1.61Zm316.53,355.77c1.48,0,2.61-.05,3.74,0,3.28.17,7.07-.78,7.26-3.92.3-4.93-4.37-2.65-6.84-2.84-5.14-.38-10.47.95-14.14-4.58-1.58-2.38-4.46-1.31-5.49.92-1.22,2.64-2.32,6.84,1.61,7.56,4.75.87,9.07,4.09,13.85,2.85Zm-91.51-625.97c-.52-4.21-2.3-6.42-5.29-4.35-5.29,3.66-9.52,8.64-17.11,8.17-2.34-.14-1.96,3.87.44,4.84,2.86,1.16,5.56,4.81,9.14,2.03,4.53-3.52,8.82-7.34,12.81-10.69Zm-122.76,422c-4.1.44-15.58,20.56-13.92,23.92.62,1.26,1.86,2.67,3.12,3.06,2.48.78,3.02-1.41,3.43-3.23,1.58-7.07,4.51-13.45,9.36-18.91,1.01-1.13,1.91-2.54.64-3.87-.67-.7-2-.76-2.62-.97Zm3.82,190.77c4.96-1.49,8.91-2.42,12.66-3.89,2.83-1.11,3.58-3.81,2.89-6.6-.62-2.54-1.66-5.16-4.66-5.75-2.85-.56-4.1,1.71-4.76,3.81-1.3,4.17-6.53,6.24-6.14,12.43Zm-76.65-387.87c2.69-3.04,7.01-6.32,7.19-12.14.07-2.24-2.42-5.23-4.35-4.01-4.44,2.79-7.96,7.03-8.8,12.49-.39,2.56,1.55,4.11,5.96,3.66Zm-196.07,126.05c-5.23,4.45-10.87,8.67-11.49,16.31-.2,2.47,3.07,2.65,4.29,1.7,5.36-4.21,9.29-9.39,8.47-16.81-.03-.25-.46-.46-1.27-1.2Zm261-199.35c-4.74,2-4.44,6.44-4.99,10.46-.32,2.38-.52,5.03,2.96,4.5,4.83-.73,4.84-5.39,5.82-8.77.75-2.61-.62-5.13-3.79-6.19Zm-276.38,190.84c-3.53,5.29-10.31,4.76-10.1,11.7.08,2.66,2.52,4.5,4.6,3.35,4.69-2.6,7.51-6.67,5.49-15.05ZM654.39,103.98c-3.43-.15-5.83.9-6.21,3.97-.64,5.15,3.88,5.73,7.14,6.84,2.71.92,4.01-1.07,3.99-3.72-.03-3.69-1.36-6.45-4.92-7.09Z"/>
  <path d="m308.13,614.4c11.07-5.81,17.54-16.64,26.72-24.53,4.55-3.91,7.05-7.75,14.93-3.01,6.1,3.67,16.95,3.7,23.8-.25,13.55-7.83,23.53-.15,34.24,5.13,4,1.98,7.24,5.51,10.85,8.29,1.2.92,3.48,2.59,3.59,2.46,12.33-14.1,7.27.53,9.16,5.15,1.46,3.57,6.1,2.17,9.25,3.19,2.74.88,6.5,1.71,5.7,5.83-.88,4.49-4.85,2.95-7.52,2.64-2.95-.35-5.98-1.42-8.6-2.85-5.24-2.86-7.97-.66-11.38,3.48-5.75,7-10.21,15.28-18.34,20.17-.12-10.54,10.38-14.34,14.31-22.36,1.23-2.51,4.74-3.77,2.87-7.73-8.45-17.97-37.97-21.75-50.77-6.14-4.37,5.33-8.84,10.32-14.88,13.72.1-8.7,12.12-11.44,11.15-21.05-4.76.09-5.63,4.42-8.52,5.97-2.29,1.23-4.93,2.22-6.79-1.02-4.22-7.36-4.16-6.82-11.02-2.11-13.84,9.5-19.39,25.59-30.68,37.07-4.19,4.26-10.64,9.16-10.81,13.96-.57,15.91-12.61,26.01-17.44,39.55-.93,2.62-5.52,5.04-2.44,7.68,3.32,2.86,5.9-1.43,8.28-3.46,13.59-11.57,17.53-29.05,26.36-43.55,1.51-2.48,1.45-6,5.02-6.91,11.82-3.03,17.71-13.86,26.77-20.53,3.36-2.48,6.01-5.7,10.52-6,.19,6.48-4.04,10.27-8.24,14.32-3.49,3.35-8.13,6.47-7.78,12.1.65,10.39-4.42,18.99-8.23,27.97-1.69,3.98-6.66,8.48-.07,11.28,4.93,2.1,11.86,3.19,15.14-3.38,3.09-6.18,7.04-12.22,7.98-19.58-4.22.29-5.92,5.73-10.3,3.82-1.58-4.05.72-6.47,2.67-9.43,11.61-17.58,31.03-28.33,41.07-47.25.76-1.43,2.52-2.28,3.75-1.11,2.06,1.96,1.12,4.37-.55,6.04-9.67,9.7-13.39,23.87-24.67,32.45-2.9,2.21-4.25,6.16-4.12,10.21.21,6.71-2.81,12.59-5.39,18.43-4.8,10.85-3.91,12.71,7.61,14.04,6.78.78,8.24-3.79,9.21-8.78,3.52-18.07,14.62-30.12,30.34-38.56-2.19,2.61-4.34,5.25-6.58,7.81-1.69,1.94-2.25,4.36-1.04,6.34,1.99,3.25,8.6,3.39,5.19,10.21-5.71,11.42-10.32,23.38-15.71,34.96-.65,1.4-3.7,1.9-4.87-.16-5.96-10.46-7.31-1.59-9.57,2.3-1.54,2.64-2.5,6.22-6.35,5.21-5.2-1.37-.63-4.85-1.15-7.15-1.49-6.61-8.14-6.74-12.26-5.88-7.37,1.54-13.73,2.51-20.65-1.79-5.28-3.28-8.47,3.75-13.19,4.47-3.12-9.37-7.08-11.02-13.15-3.64-10.32,12.57-29,15.84-35.35,32.57-.39,1.04-2.99,2.38-3.68,2-12.95-7.23-25.96,8.48-39.4-.34-2.88-1.89-7,4.76-10.09,8.02-1.74,1.84-3.82,2.9-6.06,1.55-1.83-1.1-2.12-3.89-1.06-5.12,10.52-12.25-2.55-14.32-8.45-16.58-6.2-2.37-5.25-3.96-4.56-9.36,1.66-13.03,3.84-26.48-2.23-39.2-1.7-3.56-2-7.11,1.8-8.86,5.02-2.31,6.99,2.48,8.03,5.64,1.27,3.86.4,8.42,4.5,11.83,5.23-3.38,2.59-11.31,8.4-15.66,4.51,16.14-11.94,28.55-6.91,44.95,5.5-3.99,8.9-14.02,14.97-10.23,7.74,4.84-1.56,14.41,1.68,23.83,8.96-9.7,13.07-20.37,16.47-31.09,1.36-4.29-4.05-5.99-7.27-7.58-5.24-2.59-3.59,3.17-5.24,4.96-1.18,1.28-.59,3.84-3.16,4.44-3.42-2.28-.54-4.91.26-6.75,3.24-7.45,4.75-14.71,2.38-22.89-.94-3.26-2.82-8.94,4.2-9.51,5.81-.46,7.15,3.05,6.86,7.96-.11,1.9-.12,3.82-.02,5.73.26,5.11-1.36,12.78,5.24,13.08,4.94.22,11.34-4.03,13.24-10.26,3.46-11.35,12.06-19.23,19.07-27.91,5.88-7.28,13.54-13.26,20.04-20.24,2.8-3.01,6.91-11.49,13.22-2.77-14.21,10.41-25.51,23.44-34.53,38.51-1.39,2.32-3.21,5.25-.44,7.09,2.49,1.66,5.02-.64,6.8-2.7,7.91-9.15,15.98-18.18,23.54-27.61,3.49-4.35,7.35-9.15,4.34-15.56Zm23.19,34.39c-.47-.74-.84-2.12-1.61-2.4-1.97-.71-3.68.39-4.91,1.88-5.97,7.23-11.92,14.47-16.22,22.89-1.16,2.28-3.55,4.62-.26,6.79,2.65,1.74,6.98,2.47,8.35.05,5.32-9.36,9.75-19.23,14.65-29.21Zm-96.84,70.38c18.01-5.3,17.91-21.26,24.24-32.8,1.07-1.94.97-3.86-.77-5.05-2.06-1.41-3.42.49-4.68,1.81-2.8,2.95-6.66,5.16-6.49,10.13.36,10.08-10.53,15.18-12.3,25.91Zm23.76-9.86c.96.46,1.93.93,2.89,1.4,5.34-11.35,10.68-22.71,16.03-34.06-.92-.44-1.84-.89-2.76-1.33-9.87,9.17-12.51,21.82-16.16,34Zm133.27-52.36c-9.68,9.11-14.4,18-15.4,28.86,8.58-6.84,14.32-15.19,15.4-28.86Z"/>
  <path d="m587.57,768.49c-17.69,19.98-27.34,43.62-33.6,69.16,29.76-39.48,54.19-83.77,100-109.33,2.09,6.2-4.39,7.31-3.23,12.48,18.88.73,37.5-10.99,56.95-3.15-.83,5.11-4.75,5.16-8.56,5.68-16.51,2.25-33.2,3.69-49.44,7.21-15.75,3.41-27.45,14.08-38.06,25.89-13.95,15.52-26.15,32.33-37.67,49.67-1.05,1.57-2.14,3.19-1.03,5.6,6.89-.8,9.22-7.17,12.41-11.56,7.27-9.99,17.21-17.3,25-26.6,8.09-9.66,21.35-3.51,30.81-13.46-.46,9.26-5.48,15.12-10.15,15.11-10.42-.03-16.04,6.69-22.14,12.37-17.44,16.25-34.2,33.23-51.27,49.89-2.56,2.5-4.72,5.5-4.53,8.92,1.57,28.63-16.22,49.56-28.85,72.43-3.9,7.07-9.8,13.04-15.16,19.99-.43-1.62-1.01-2.61-.74-2.97,14.57-19.16,16.77-43.65,27.75-64.34.36-.67.86-1.4.86-2.1.04-5.58,8.19-12.85,1.63-15.82-6.53-2.96-8.96,5.51-10.56,11.55-.45,1.7-1.33,4.94-4.68,2.94-2.07-1.24-3.52-2.75-2.46-5.55,1.29-3.4,3.78-5.56,6.7-7.52,12.7-8.54,18.52-20.12,21.05-35.7,4.22-25.93,8.21-52.95,31.86-70.5,1.2-.89,2.66-1.42,4-2.12,1.04.6,2.07,1.2,3.11,1.8Z"/>
  <path d="m623.13,570.93c-17.47,1.57-34.33-.52-50.92-6.25-8.41-2.91-15.59-7.36-22.69-12.36-4.01-2.82-7.75-3.99-9.14,2.63-.5,2.38,1.26,6.05-2.37,6.7-3.63.65-5.03-2.94-6.39-5.52-1.29-2.45-.89-7.11-5.5-4.61-3.29,1.78-.56,4.7.21,7.06.7,2.14,1.88,4.18,2.28,6.36.62,3.47-1.1,6.18-4.41,7.01-4.38,1.1-5.24-2.25-5.14-5.46.39-12.31-4.79-15.71-16.27-11.27-2.87,1.11-6.93.42-9.99-.68-2.07-.74-5.1-3.01-4.26-5.92.51-1.76,2.93-3.54,4.86-4.19,3.89-1.31,8.08-2.71,12.08-2.53,6.69.3,9.43-3.46,11.79-8.61,3.81-8.31,8.34-9.89,16.83-4.18,7.57,5.1,11.09,14.33,20.58,17.39,5.41,1.75,8.66,3.73,8.46-4.1-.11-4.06.84-8.22,4.96-9.27,4.5-1.15,6.28,3.11,8.23,6.39,2.49,4.19,5.03,8.36,7.72,12.42,8.57,12.91,21.27,12.02,28.92-1.77,2.02-3.63.79-10.88,6.43-10.31,5.68.57,11.07,4.38,16.46,7.04,1.2.59,2.21,2.17,2.68,3.52,2.28,6.46-8.63,21.2-15.41,20.52Zm6.38-15.16c-.67-2.46-1.93-5.98-4.9-6.03-4.61-.07-4.95,4.9-6.05,8.05-1.14,3.29,1.56,4.58,4.57,4.36,3.6-.26,6.63-1.37,6.38-6.38Z"/>
  <path d="m422.58,799.99c-5.97-3.92,3.36-12.86-4.91-15.59-5.35-1.77-11.08-2.35-16.62-3.55-16.22-3.52-32.72-6.12-46.93-15.81-3.84-2.62-8.03-.6-12.03.9-1.78.67-3.94.18-4.86-1.89-1.03-2.32.92-3.45,2.42-4.43,4.82-3.14,9.99-3.68,15.19-1.08,17.67,8.82,36.86,12.53,55.71,17.66,5.9,1.61,11.21.1,16.92,1.17,27.9,5.22,47.68,27.6,74.98,33.69,7.84,1.75,13.72,1.92,16.95-6.01,10.24-25.14,33.35-38.49,51.3-56.55,8.98-9.03,20.84-11.04,33.64-13.65-1.99,7.1-7.52,8.57-11.89,10.82-22.2,11.46-39.86,28.35-56.08,46.84-17.29,19.72-25.84,43.29-28.85,69.09-.17,1.48-.64,2.96-1.22,4.33-.24.56-1.15.83-2.57,1.78,1.88-14,3.13-27.46,5.7-40.67,1.23-6.34.9-9.24-6.23-9.79-13.93-1.07-26.21-5.6-36.98-15.42-5.62-5.12-13.96-7.4-21.27-10.49-16.04-6.77-17.35-6.16-22.38,8.65Z"/>
  <path d="m836.37,641.77c-4.31,4.33-13.21,5.33-5.56,13.95.67.75.38,3.62-.35,4.08-1.44.9-5.01,1.29-5.09,1.04-2.53-7.82-14.8-1.31-14.75-8.56.02-3.75-2.14-17.67,11.91-12.27,4.07,1.56,5.56-1.8,2.19-5.1-4.13-4.05-2.34-6.55,1.83-8.62,6.23-3.08,9.06-8.9,11.99-14.66,1.09-2.14,2.03-4.32-1.18-5.45-2.36-.83-3,.72-4,2.61-2.36,4.48-4.12,9.98-11.69,9.65,2.35-8.87-1.92-14.14-10.18-14.84-7.84-.67-9.24-10.36-16.81-10.49-12.55-.21-24.97,1.25-37.05,4.41-4.61,1.21-8.95,1.85-13.39.81-3.65-.85-6.29-3.9-5.82-7.5.5-3.86,4.43-3.59,7.45-3.29,19.74,1.97,38.7-5.75,58.43-4.68,4.71.26,7.59-3.03,4.64-8.61-1.14-2.16-2.18-5.46.87-7.11,2.63-1.42,4.94.58,7.27,1.99,9.32,5.64,11.11,13.85,8.48,23.69-.58,2.18-1.61,4.38.74,6.21,1.52,1.18,3.3.67,4-.48,2.88-4.71,5.65-5.27,9.88-1.29,4.17,3.92,9.5,6.9,7.2,13.97-.81,2.48-1.49,5.14-2.9,7.28-3.57,5.41-13.04,10.44.02,16.08,1.08.47.6,5.04.5,7.69-.21,5.45,1.31,14.08-5.84,13.69-7.52-.41-.44-8.67-2.81-14.19Z"/>
  <path d="m849.34,665.44c1.05,12.57-7.35,20.64-13.23,29.07-10.62,15.24-24.31,25.52-44.9,21.61-6.53-1.24-13.33-.39-19.9,3-15.34,7.93-33.15,7.06-49.23,12.67-3.1,1.08-6.49.4-7.39-3.31-1.13-4.7,2.98-5.73,6.12-6.68,12.64-3.81,26.01-3.96,38.71-8.01,6.45-2.05,10.17-4.82,12.67-11.2,3.15-8.06,7.78-15.55,11.95-23.18,1.13-2.06,2.61-4.31,1.07-6.17-1.62-1.96-4.21-.92-6.31.09-3.14,1.5-7.79,3.49-9.24.36-2.29-4.95,3.83-5.27,6.63-7.27,5.66-4.04,11.91-3.52,16.67.56,5.47,4.69.09,9.67-1.69,14.32-.79,2.07-2.48,3.81-3.19,5.89-1.17,3.45-7.03,6.45-4,9.66,3.35,3.56,8.35.33,12.36-1.73,7.66-3.94,16.45-5.25,23.67-10.27.8-.56,2.62-1.02,2.99-.62,11.02,11.89,10.71-3.44,14.48-6.68,3.85-3.3,3.83-10.62,11.75-12.11Zm-29.89,30.25c-7.4.65-13.07,4.37-19.14,6.86-1.65.68-3.46,2.02-2.44,4.29.9,2.02,3.03,2.32,4.85,1.85,7.16-1.85,12.42-6.28,16.74-13Z"/>
  <path d="m480.03,832.91c4.44,11.16,1.73,21.55.08,31.97-1.74,10.98-.91,11.93,9.93,9.65,1.83-.39,3.91-.8,5.61-.3,2.87.85,6.23-5.26,7.42-.88,1.82,6.66-4.52,2.32-6.93,3.31-18.26,7.55-18.04,7.51-24.51,27.52-3.38,10.43-7.9,20.5-12.05,30.67-.51,1.26-1.91,2.17-3.85,2.85,1.62-10.7,7.08-20.14,9.7-30.5,6.22-24.58,6.57-23.09-19.18-26.8-20.18-2.91-40.33-.87-60.47-3.3-19.36-2.33-36.27-8.23-50.63-21.37-2.24-2.05-4.55-4.03-6.96-5.86-2.54-1.94-7.26-3.61-4.31-7.28,2.14-2.65,6.42-.88,9.04,1.82,8.31,8.58,17.74,15.62,28.97,19.77,21.4,7.92,43.94,6.99,66.17,7.23,11.91.13,23.25,2.9,34.81,4.59,7.22,1.05,10.27-.26,11.1-8.16,1.23-11.73,3.96-23.3,6.05-34.94Z"/>
  <path d="m116.65,494.48c-.65,3.89-3.61,4.8-5.15,3.41-7.08-6.44-8.89.24-11.16,4.38-6.33,11.52-12.14,23.32-18.45,34.84-1.84,3.36-3.82,8.7-9.01,5.89-4.42-2.39-2-6.92-.25-10.15,8.81-16.29,17.67-32.56,26.89-48.62,4.41-7.68,13.89-8.42,20.46-13.32,2.07-1.54,5.08-.02,6.47,2.9,1.66,3.48-.44,4.78-3.1,5.98-2.76,1.25-5.45,2.67-8.2,3.96-4.79,2.25-9.21,4.4-.63,7.83,1.08.43,1.62,2.19,2.12,2.91Z"/>
  <path d="m574.77,205.21c-.87,8.35-.28,15.14,8.22,18.66,2.67,1.1,5.48,4.15,4.57,7.2-.93,3.1-3.78,5.21-7.63,5.9-10.01,1.8-24.69-3.77-28.24-12.75-2.59-6.55-.64-13.78,3.83-19.66,1.34-1.77,3.41-2.99,5.15-4.45,3.4-2.85,6.48-7.95,11.26-6.26,5.85,2.06,1.37,8.08,2.82,11.37Zm-3.13,22.36c-.74-5.42-5.17-8.14-4.78-13.24.37-4.91-2.69-4.56-5.63-1.92-1.62,1.46-4.42,3.44-3.28,5.34,2.81,4.71,6,9.62,13.69,9.82Z"/>
  <path d="m372.88,430.73c-9.52,9.5,1.72,13.39,5.96,20.15,3.84,6.13-1.58,11.72-5.84,15.79-4.78,4.57-8.35-.18-11.33-3.45-11.19-12.25-12.62-23.63-4.95-34.37,3.24-4.54,7.57-4.58,12.19-3.93,2.58.36,3.83,2.24,3.97,5.81Z"/>
  <path d="m528.62,239.08c-.1-6.01,2.35-10.49,6.42-14.21,2.48-2.27,7.17-3.37,8.07-1.29,4.02,9.31,15.4,12.24,18.32,22.27.85,2.93,3.17,6.53-.52,7.88-7.14,2.61-14.74,2.74-21.9-.54-6.11-2.8-10.99-6.72-10.4-14.11Z"/>
  <path d="m358.78,485.18c-1.49,3.85-2.5,7.13-6.39,8.23-6,1.69-19.57-7.28-22.41-14.9-2.18-5.84,3.85-19.49,9.69-21.28,3.29-1.01,7.03-1.38,9.09,2.39,4.51,8.25,3.98,18.4,10.02,25.57Z"/>
  <path d="m512.67,269.32c-.34-5.03.27-10.83,5.58-13.45,6.1-3.01,12-.1,16.48,4.3,4.27,4.18,8.11,8.91,11.54,13.82,3.47,4.95-1.35,7.33-4.02,10.36-3.16,3.58-4.92.99-7.25-1.09-5-4.47-8.84-12.27-17.73-4.89-2.94,2.44-4.76-.25-4.6-9.05Z"/>
  <path d="m382.07,426.84c-.18-10.81,6.45-17.82,15.48-15.64,6.9,1.66,11.99,5.12,7.53,13.68-1.89,3.62-2.78,7.75-4.49,11.48-1.83,3.99-3.01,9.98-8.84,8.67-5.83-1.31-9.58-5.88-9.67-12.47-.03-1.91,0-3.81,0-5.72Z"/>
  <path d="m551.59,308.54c-2.02,4.44-6.21,7.35-10.34,9.63-3.79,2.09-8.38,3.67-12.69-.13-3.38-2.98-6.33-6.36-10.58-8.51-4.22-2.14-3.98-6.07-1.07-9.6,1.2-1.46,3-2.54,3.89-4.15,6.34-11.4,6.21-11.34,15.36-2.37,3.23,3.16,6.99,5.77,10.43,8.72,1.97,1.69,4.49,2.98,4.99,6.41Zm-22.14-9.8c-3.93,1-3.13,3.59-2.93,5.63.55,5.65,4.65,6.07,9.05,5.7,1.88-.16,4.7-1.33,3.35-3.04-2.65-3.34-6.46-5.76-9.47-8.29Z"/>
  <path d="m166.41,775.88c-1.4,3.2-3.69,6.28-7.47,5.68-13-2.07-25.96-4.45-38.83-7.22-2.99-.64-6.86-2.37-4.9-7.25,2.19-5.48,2.64-12.09,9.12-14.8,1.42-.59,2.71.46,2.82,2.46.71,13,9.27,16.16,20.36,16.1,4.58-.02,9.15,0,13.73.05,3.14.04,4.98,1.56,5.17,4.99Z"/>
  <path d="m745.87,647.17c4.29.86,6.85,1.39,8.02-5.22,1.6-9.08,8.81-16.62,9.4-26.47.11-1.85,2.24-3.41,4.3-2.58,2.19.88,1.77,3.05,1.04,4.87-3.21,8.03-6.27,16.14-9.81,24.02-1.59,3.55-3.05,6.13-.21,10.14,3.82,5.39.56,8.41-4.88,6.51-7.53-2.64-12.69-2.11-16.47,5.66-1.48,3.04-5.36,5.52-8.53,2.55-2.9-2.71.5-5.29,2.26-7.63,3.93-5.24,3.89-15.35,14.89-11.85Z"/>
  <path d="m499.23,930.44c-1.73-18.81-5.45-37.69,10.8-52.77,3.13-2.9,4.5-7.64,6.98-11.33,1.19-1.76,2.93-4.43,5.34-3.1,3.08,1.7,1.98,4.84.05,6.72-7.48,7.3-9.77,17.27-14.38,26.07-5.85,11.16-3.6,23.61-8.79,34.4Z"/>
  <path d="m268.41,617.3c5.25-9.23,11.41-15.02,17.88-20.61,7.18-6.21,13.49-13.22,19.19-20.84,1.32-1.77,3.19-5.17,6.33-2.5,2.34,1.99,2.34,5.31.21,7.12-7.21,6.14-10.91,14.49-15.33,22.45-.71,1.29-2.45,3.39-2.98,3.18-11.15-4.25-15.53,7.16-25.29,11.19Z"/>
  <path d="m682.31,563.13c.39,2.93-1,5.33-4.07,6.93-4.13,2.14-5.56-1.3-6.94-3.68-3.99-6.86-7.6-10.07-11.42.03-1.26,3.33-3.9,3.28-6.57,2.17-2.36-.98-3.8-3.29-2.87-5.53,2.15-5.19,4.65-10.5,9.54-13.64,3.51-2.25,22.03,9.07,22.33,13.72Z"/>
  <path d="m236.07,504.22c-.82,1.16-1.27,2.58-2.06,2.81-13.74,3.99-17.91,15.54-21.64,27.36-1.01,3.21-2.84,4.25-5.9,3.44-3.02-.8-4.8-3.05-3.94-5.92,4.18-13.98,15.23-23.19,24.74-33.14,3.46-3.62,7.22,1.05,8.81,5.45Z"/>
  <path d="m260.33,441.97c1.1-14.95-2.47-28.92-2.59-43.2-.03-3.36.4-7.42,4.92-7.58,3.04-.1,4.48,2.97,4.53,5.61.23,12.9.24,25.8.12,38.69-.03,3.35-2.16,5.41-6.97,6.47Z"/>
  <path d="m423.5,772.87c.7-10.27,3.72-21.05,1.56-30.67-3.05-13.58,4.56-19.26,13.02-25.65.48-.36,1.42-.13,2.23-.18,2.87,4.14-2.08,5.81-2.75,8.76-1.76,7.81-13.09,14.2-3.1,23.92,2.68,2.61-2.94,3.53-3.51,5.94-1.43,6.06-2.81,12.13-4.2,18.2-1.08-.11-2.16-.21-3.25-.32Z"/>
  <path d="m723.49,565.97c.03,2.8.11,4.65-2.02,5.74-2.19,1.12-4.53,1.93-6.19-.31-3.51-4.75-6.18-5.53-9.67.25-1.69,2.8-5.38,3.13-7.91.31-2.83-3.15-2.07-6.24,1.19-8.78,1.46-1.13,3.22-2.02,4.34-3.42,2.75-3.42,2.73-11.95,9.35-8.19,5.07,2.88,9.05,8.9,10.9,14.4Z"/>
  <path d="m787.07,650.43c-4.66,1.36-5.24,5.17-7.23,7.79-1.81,2.39-4.55,3.49-7.02,2.01-2.85-1.71-2.02-5.09-.62-7.19,3.14-4.7,6.46-9.44,10.51-13.32,3.45-3.31,7.55-3.65,9.67,2.17.64,1.76,1.56,3.43,2.38,5.12,2.17,4.46,4.93,10.91.07,13.03-7.42,3.24-6.38-5.42-7.75-9.61Z"/>
  <path d="m143.73,586.5c-4.31-17.59-5.98-35.22-11.59-52.11-.78-2.35-.65-5.7,3.06-6.21,3.74-.52,5.69,1.8,6.03,5.25.94,9.44,1.96,18.89,2.42,28.36.4,8.22.08,16.48.08,24.72Z"/>
  <path d="m769.76,572.99c-3.15,8.38-11.93,3.9-16.6,8.23-1.25,1.16-5.18-1.78-3.93-3.81,3.81-6.2,1.57-17.43,9.57-18.61,5.19-.77,5.7,10.28,10.96,14.2Z"/>
  <path d="m265.63,621.53c-6.67,9.28-12.58,17.58-18.59,25.81-1.41,1.94-2.57,5.51-5.88,2.41-2.14-2-1.06-4.37.85-5.88,5.37-4.27,7.59-9.77,8.87-16.5,1.26-6.63,6.43-9.03,14.75-5.84Z"/>
  <path d="m251.73,422.75v44.57c-8.99-11.72-8.99-31.41,0-44.57Z"/>
  <path d="m647.91,603.6c1.76,11.12-5.65,20.92-5.27,31.9.06,1.78-2.52,3.09-4.47,2.38-2.11-.78-2.07-3.13-1.59-4.89,2.72-9.95,5.61-19.85,8.44-29.77.96.13,1.93.26,2.89.38Z"/>
  <path d="m338.7,571.96c-6.87,13.73-20.46,16.07-26.47,25.98,4.57-11.12,9.9-21.47,26.47-25.98Z"/>
  <path d="m557.9,737.37c2.37.45,3.14,2.23,2.61,4.17-.48,1.75-1.57,3.44-2.72,4.9-3.64,4.61-4.9,11.35-11.6,13.17-.37.1-1.83-1.61-1.67-2.15,2.17-7.31,5.97-13.71,11.38-19.11.49-.49,1.31-.65,2-.97Z"/>
  <path d="m256.85,614.22c2.7-12.16,9.68-22.1,16.22-32.28-3.52,11.71-6.82,23.51-16.22,32.28Z"/>
  <path d="m687.99,611.8c.4,10.94-5.64,20.28-5.93,30.86-.05,1.9-1.96,2.48-3.28,1.57-1.01-.69-2.1-2.63-1.81-3.64,2.83-9.92,4.44-20.33,11.03-28.8Z"/>
  <path d="m487.59,374.97c.17,5.5-2.15,9.49-7.66,10.51-3.47.64-4.28-2.42-4.26-5.15.04-5.38,2.34-9.4,7.98-10.4,3.92-.69,3.86,2.39,3.94,5.04Z"/>
  <path d="m208.14,509.74c-4.17-2.74-2.51-6.94-2.62-10.35-.13-3.92-1.52-8.45,2.41-11.54.63-.5,2.57-.5,2.89-.04,2.8,4.08,2.21,8.85.9,12.99-.91,2.88-.37,6.69-3.58,8.94Z"/>
  <path d="m333.23,698.85c-2.63,8.63-7.39,15-18.77,18.37,4.01-10.64,10.66-15.26,18.77-18.37Z"/>
  <path d="m345.61,710.55c-4.99,7.03-9.92,14.11-15.01,21.07-1.07,1.46-2.77,3.17-4.71,1.72-1.76-1.31-1.43-3.66-.16-5.12,5.82-6.65,11.83-13.14,17.78-19.68l2.1,2.02Z"/>
  <path d="m779.16,633.37c2.05-6.6,4.83-12.59,5.12-19.38.07-1.56,1.2-4.02,3.65-2.96.95.41,2.03,2.79,1.65,3.62-2.99,6.52-2.75,14.78-10.41,18.72Z"/>
  <path d="m195.07,589.19c-1.99-.74-3.48-2.15-2.79-4.26,1.42-4.34,3.1-9.02,8.06-10.22,3.52-.85,2.78,2.68,2.84,4.66.18,5.55-4.1,7.6-8.11,9.82Z"/>
  <path d="m45.33,570.94c-1.46-6.81-1.33-11.89,3.82-15.33,1.61-1.08,4.35-.81,4.73,1.27,1.14,6.34-2.3,10.46-8.54,14.06Z"/>
  <path d="m523.27,757.72c-4.21,4.74-8.35,9.55-12.68,14.17-1.73,1.85-4.24,2.22-5.93.12-1.97-2.44-.04-4.83,2.03-5.2,6.74-1.22,9.69-7.96,16.58-9.09Z"/>
  <path d="m588.28,663.16c-13.01.02-26.13.88-38.11-5.87-3.28-1.85-4.21-4.37-2.32-7.52,1.61-2.68,3.67-2.52,6.74-1.4,10.87,3.98,21.28-5.37,19.2-17.17-.4-2.27-1.86-4.29.57-5.95.68-.47,2.31-.35,3.02.16,2.12,1.55,2.59,4.55,1.44,6.14-3.65,5.07.9,13.51-7.17,16.71-1.9.75-2.08,3.29-.94,4.99,1.18,1.76,3.15,1.36,5.12,1.02,7.19-1.23,11.7,1.35,12.17,9.17,0,0,.28-.3.28-.3Z"/>
</svg>