<?xml version="1.0" encoding="UTF-8"?>
<svg id="Layer_1" data-name="Layer 1" xmlns="http://www.w3.org/2000/svg" width="890.63" height="768.7" viewBox="0 0 890.63 768.7">
  <path d="m38.22,623.89c-.14-2.79-.26-5.57-.43-8.35-.49-7.76.67-15.09,4.34-22.13,4.26-8.17,7.74-16.71,10.94-25.4,3.81-10.37,11.52-18.25,19.08-26.06,2.04-2.1,4.73-3.67,6.42-5.99,7.55-10.38,18.08-17.04,28.79-23.48,3.53-2.12,6.87-4.46,10.1-7.02,4.33-3.45,9.21-5.71,14.88-5.86,2.69-.07,5.21-.9,7.59-2.05,14.29-6.94,29.52-11.23,44.44-16.45,10.48-3.67,20.76-4.4,31.47-4.4,18.85-.01,36.47-4.9,52.88-14.13,1.98-1.11,3.98-1.66,6.23-1.86,8.04-.7,15.16-4.33,22.46-7.35,30.82-12.76,59.6-29.49,88.52-45.91,7.34-4.17,14.04-9.5,20.76-14.75,25.98-20.31,47.73-45.14,72.16-67.11,8.62-7.76,14.92-18.07,22.52-27,5.13-6.03,10.56-11.83,16.1-17.49,4.19-4.28,7.21-9.25,9.6-14.63,2.25-5.04,1.38-6.51-4.01-7.36-2.6-.41-5.32-.56-7.5-2.22-5.26-4-5.05-10.4.68-13.77,8.37-4.93,17.47-8.26,26.61-11.43,4.05-1.41,7.9-3.19,11.31-5.78,4.86-3.69,5.27-9.23,1.07-13.71-1.5-1.61-3.19-3.04-4.74-4.6-5.9-5.94-6.69-12.81-2.28-19.95,4.27-6.91,10.57-10.84,18.49-12.24,3.26-.58,6.26-1.54,8.3-4.4,1.9-2.66,2.79-5.36,1.31-8.62-1.59-3.49-1.7-7.16-.03-10.67,3.6-7.57,6.16-15.51,8.49-23.54,1.78-6.12,5.08-11.09,10.74-14.44,15.67-9.26,30.62-19.52,44.25-31.67,3.77-3.36,8.86-4.8,13.96-4.46,6.15.4,10.86-2.15,15.79-5.39,8.69-5.71,18.27-9.09,28.69-5.32,4.69,1.7,8.97,1,12.6-1.29,6.88-4.33,14.59-5.02,22.16-6.55,3.3-.67,6.68-1.01,9.95-1.81,6.46-1.58,12.21.51,16.64,4.61,11.31,10.47,22.1,21.49,33.1,32.28,1.92,1.88,3.42,4.03,4.32,6.56,5.22,14.58,11.73,28.76,13.03,44.52.37,4.54.42,8.88-2.35,12.64-6.25,8.47-6.71,17.16-2.84,26.93,5,12.64.15,23.14-8.93,32.21-6.82,6.81-6.89,7.38-.94,14.84,2.23,2.8,3.05,5.65,1.55,8.94-2.65,5.85-3.23,12.12-3.79,18.39-.35,3.88-1.63,7.44-3.76,10.68-4.58,6.97-6.45,14.72-6.62,22.93-.06,3.09-1.09,5.62-2.89,8.09-4.87,6.68-10.76,12.42-16.52,18.28-5.96,6.05-10.48,12.99-13.57,20.88-1.73,4.42-4.11,8.42-7.41,11.86-7.99,8.31-14.09,18.09-20.01,27.82-6.29,10.33-13.44,19.92-20.91,29.35-2.91,3.68-6.08,7.23-8.46,11.24-8.18,13.75-19.95,24.12-31.78,34.46-3.09,2.7-6.26,5.34-9.18,8.22-10.35,10.18-23.4,16.62-34.91,25.19-2.48,1.85-4.85,3.71-7.01,5.95-10.59,10.94-23,19.61-36.1,27.11-13.26,7.59-24.85,17.14-35.9,27.47-7.52,7.03-15.92,12.43-26.01,14.62-12.92,2.81-23.93,9.57-34.7,16.6-9.57,6.24-19.91,11.19-29.1,18.14-4.52,3.42-10.39,5.48-15.96,7-7.1,1.93-13.53,4.74-18.94,9.68-2.57,2.35-5.57,2.87-8.58,1.97-2.17-.65-3.83-.28-5.84.37-17.39,5.67-34.74,11.5-52.28,16.66-7.12,2.09-14.31,4.32-21.77,5.2-1.44.17-2.93.53-4.23,1.15-16.14,7.79-33.68,11.23-50.93,14.88-15.82,3.35-31.06,8.26-46.36,13.1-13.35,4.22-26.84,7.51-40.73,8.83-8.32.79-16.06,3.2-23.73,6.17-16.86,6.52-34.66,7.08-52.36,7.97-7.32.37-13.92-3.19-20.61-5.78-14.56-5.64-27.66-13.2-37.65-25.73-6.38-8.01-10.9-16.25-9.83-26.83.29-2.91.04-5.87.04-8.8.06,0,.11,0,.17,0Zm544.66-150.35c-1.47,3.07-3.7,3.89-5.88,4.72-1.9.73-3.47,1.75-3.76,3.9-.35,2.53-1.29,4.76-2.59,6.94-1.18,1.99-.71,3.22,1.92,3.44,3.17.26,5.71-.8,8.01-2.85,3.5-3.12,6.91-6.3,11.15-8.51,2.16-1.13,5.13-3.24,4.68-5.3-.56-2.56-4.19-2.46-6.74-2.91-.72-.13-1.45-.26-2.18-.31-1.86-.11-2.23-.96-2.23-2.85,0-4.82,1.76-8.42,5.82-11.1,2.66-1.76,5.73-3.09,7.51-5.98,2.64-4.27,6.5-7.59,9.41-11.61,9.39-12.95,22.59-22.94,28.59-38.63,3.08-8.05,3.54-11.9-2.75-17.99q-4.74-4.6-7.94,1.37c-.48.9-1,1.79-1.45,2.71-1.59,3.22-3.82,3.51-6.83,1.81-6.04-3.41-6.4-7.47-.83-11.78,2.91-2.25,5.92-4.43,7.83-7.64,1.29-2.18,1.25-4.08-2.15-3.83-2.34.18-4.75.13-7,.7-3.96.99-6.66-.33-9.19-3.39-3.63-4.39-6.95-9.29-12.13-12.01-12.22-6.4-23.94-13.56-35.26-21.45-6-4.18-8.9-9.51-8.56-16.72.12-2.49,1.06-4.24,3.2-5.84,5.83-4.36,10.38-9.91,13.44-16.57.45-.99,1.53-2.27.42-3.22-1.26-1.07-2.02.56-2.87,1.18-1.07.77-1.91,1.89-3.03,2.54-3.33,1.94-7.21,3.06-10.36.58-3.08-2.43-2.51-6.28-1.19-9.75.79-2.1,2.16-3.83,3.6-5.5,2.22-2.57,4.72-4.89,7.61-6.64,8.31-5.03,13.98-12.91,21.03-19.29,2.57-2.33,1.97-5.46-.83-7.47-3.78-2.72-9.71-2.94-13.68-.38-3.51,2.26-6.28,5.26-8.39,8.87-6.75,11.52-15.23,21.53-25.79,29.76-4.57,3.56-5.01,7.32-1,11.48,2.62,2.72,2.7,5.05.8,8.17-4.1,6.73-3.94,7.11,2.06,12.44,5.01,4.45,3.99,11.98-2.07,14.83-5.09,2.4-10.28,3.33-15.7.93-3.75-1.66-7.55-3.19-11.35-4.74-4.47-1.82-8.59-1.73-11.97,2.27-15.13,17.9-33.17,32.8-50.38,48.54-13.71,12.53-26.64,26.07-42.83,35.68-20.39,12.1-40.11,25.32-61.65,35.48-15.37,7.26-30.56,14.91-46.23,21.51-2.37,1-4.18,2.44-5.63,4.66-1.72,2.63-3.35,5.44-6.93,6.31-12.96,3.13-25.86,6.43-38.34,11.22-3.41,1.31-6.94,2.59-10.63,2.68-7.35.19-13.18,3.41-18.37,8.34-1.9,1.8-4.22,3.15-6.32,4.76-1.19.91-2.39.94-3.69.3-7.68-3.79-16.18-5.17-24.11-8.24-1.34-.52-2.49-.54-3.8-.05-22.38,8.37-46.02,13.92-65.2,29.41-1.48,1.19-3.2,2.07-4.75,3.19-20.73,14.97-37.09,33.23-44.02,58.56-.98,3.59-2.55,6.81-4.79,9.81-3.17,4.24-4.23,8.94-2.36,14.1,1.58,4.36,2.09,8.87,1.2,13.44-3.08,15.76,8.45,31.04,22.38,36.75,2.63,1.08,4.73.96,6.86-.92,1.98-1.74,4.09-3.34,6.17-4.97,1.39-1.09,2.86-2.08,4.68-2.3,1.19-.15,2.4-.19,3.2.92.78,1.07-.07,1.93-.55,2.8-1.05,1.94-2.11,3.86-3.18,5.78-3,5.33-1.55,7.97,4.63,8.65,4.54.5,8.6-1.47,9.02-8.07.21-3.24,1.92-5.45,4.36-7.27.93-.69,1.77-.84,2.51.44,2.38,4.11.25,10.19-4.1,11.49-1.48.44-3.14,1.14-2.82,2.78.28,1.48,2.17,1.04,3.43,1.27,3.12.56,5.15-1.87,7.68-2.84,6.86-2.64,13.49-1.21,20.32,0,12.21,2.16,18.9-1.99,22.99-13.59.63-1.79,1.27-3.64,2.3-5.21,2.16-3.3,5.76-3.53,9.06-2.94,3.32.59,1.55,3.57,1.58,5.53.12,6.7,3.41,8.72,9.31,5.55,1.59-.85,2.74-2.14,3.65-3.71,2.07-3.54,4.19-7.07,6.35-10.56,3.01-4.87,5.82-5.46,10.47-2.02,2.24,1.65,4.17,3.7,6.37,5.41,4.07,3.15,5.27,2.66,6.19-2.3,1.23-6.62,6.41-12.11,12.12-13.02,2.94-.47,4.56.41,4.47,3.6-.08,2.79-.05,5.58-.16,8.36-.11,2.78,1.09,3.22,3.56,2.47,4.72-1.44,7.66-4.22,9.2-9.09,1.55-4.89,2.74-10.21,8.45-12.68,2.54-1.1,3.07-.28,3.56,1.79.78,3.35.45,6.7.29,10.08-.21,4.47.29,4.64,4.34,3.27,5-1.69,8.39-4.9,11.05-9.39,1.37-2.32,1.8-5.59,5.12-6.87.18,1.44.19,2.63.49,3.73.92,3.38,5.93,7.3,7.87,6,4.47-3,8.2-6.8,9.24-12.32.9-4.74,1.46-9.56,1.91-14.37.18-1.91,1.03-4.4-1.24-5.61-2.34-1.25-4.92-.45-6.39,1.49-3.93,5.2-9.89,6.32-15.43,8.34-.82.3-1.89.47-2.36,1.07-3.56,4.59-8.12,2.74-12.5,2.1-.95-.14-2.14-1.1-1.55-1.5,3.31-2.22,2-7.37,6.58-9.03,6.98-2.54,13.41-6.71,20.48-8.83,5.3-1.59,11.24-1.05,16.9-1.46-.61,1.08-1.28,1.34-1.97,1.51-1.28.32-2.92.46-2.65,2.25.25,1.68,1.8,1.53,3.16,1.57,2.3.06,4.76-1.26,6.46,1.99,1.83,3.51,2.26,6.47-.23,9.73-1.44,1.88-3.09,3.48-4.79,5.1-2.46,2.34-3.6,5.47-2.4,8.81,1.24,3.44,4.38,2.75,7.15,2.72,3.89-.06,6.78-2.02,8.8-5.05,2.36-3.53,5.26-4.24,9.05-2.83,1.22.46,2.57.57,3.85.89,2.24.56,3.98-.17,4.36-2.43.45-2.68,2-2.79,4.1-2.55,1.89.22,3.81.21,5.71.35,12.46.95,18.69-5.4,17.55-17.92-.64-6.98.4-8.2,7.34-8.51,1.17-.05,2.36-.14,3.52,0,4.7.55,8.64-.4,11.39-4.75.84-1.33,2.35-3.29,4.27-1.92,1.52,1.08,2.27,3.11,1.7,5.14-1.03,3.67-2.12,7.34-5.38,9.8-.94.71-2.31,1.51-.79,2.66,2.92,2.2,6.15,1.35,9.26.37,2.52-.8,5.02-1.46,5.17-5.03.17-4.16-.25-8.2-1.32-12.18-.92-3.44-.26-6.66,1.04-9.86,1.52-3.71,5.31-4.27,8.1-4.08,2.65.18.92,3.64,1.13,5.64.3,2.84-1.35,6.01.99,8.47,2.96,3.11,6.71,5.22,10.48,7.19,2.4,1.25,2.89-2.05,4.74-2.31.14-.02.3-.09.43-.06,6.01,1.25,10.07-1.73,13.56-6.12.48-.61,1.54-.77,2.35-1.1,2.98-1.2,6.12-2.11,8.92-3.64,3.58-1.95,5.52-5.2,5.36-9.41-.04-1.16-.36-2.43-1.74-2.78-1.12-.28-2.04.33-2.66,1.19-2.39,3.29-6.31,4.61-9.28,7.18-1.73,1.49-4.68,3.58-6.56,2.53-2.31-1.3-.47-4.58-.49-7-.01-1.15.47-2.29.63-3.45.34-2.38,1.8-3.44,4.01-2.92,3.48.83,6.04-.54,8.95-2.28,5.83-3.49,9.3-1.37,9.08,5.03-.15,4.3.67,4.87,4.83,3.46,1.7-.57,3.46-1.18,4.46-2.68,3.14-4.69,7.49-7.06,13.04-7.82,2.69-.37,4.55-1.79,1.78-4.68-1.2-1.25-1.21-2.97-1.31-4.56-.1-1.64.02-3.49,1.59-4.31,1.43-.74,2.8.33,3.96,1.25,1.95,1.55,3.77,3.3,5.84,4.68,4.1,2.75,9.57.27,10.15-4.55.54-4.41,2.31-7.97,5.93-10.78,4.32-3.36,7.64-7.64,10.3-12.47,2.83-5.16,3.56-5.55,8.98-3.27,5.48,2.3,9.78,1.36,13.85-2.89,5.02-5.23,5.17-5.2-.24-10.18-3.44-3.17-7.17-6.06-8.23-11.08-.54-2.55-1.26-5.04,1.29-6.77,2.68-1.82,5.37-.93,7.8.73,2.13,1.46,3.45,3.57,4.13,6.06.47,1.69.78,3.44,1.38,5.09,1.84,5.07,5.02,6.23,9.57,3.36,3.74-2.36,6.75-5.63,9.87-8.73,3.11-3.09,2.95-3.73-1.03-5.21-6.22-2.3-8-5.01-7.66-11.63.3-5.98,2.04-7.57,7.68-5.43,3.85,1.46,7.05.82,10.55-.3,2.33-.75,4.72-1.32,7.66-2.13Zm40.39-211.78c-2.17-.15-3.84.28-5.41,1.16-4.94,2.78-9.05,6.4-11.55,11.61-.87,1.81-2.58,3.88-.99,5.63,1.65,1.82,4.11.49,6.2,0,.55-.13,1.08-.46,1.53-.82,4.44-3.56,9.04-6.96,12.63-11.44,1.03-1.29,2.92-2.63,1.96-4.47-.86-1.65-3.04-1.4-4.37-1.67Zm-21.89,204.93c-.19,4.08,1.06,5.09,4.9,3.94,4.92-1.47,7.18-4.13,7.49-9.55.12-2.14.43-3.15,2.88-3.19,3.46-.06,5.5-2.4,6.83-5.38,1.19-2.66-.36-4.72-2.05-6.19-1.94-1.68-3.46.37-4.87,1.55-1.31,1.09-1.45,2.76-1.96,4.29-1.08,3.25-2.66,5.96-6.76,6.43-4.06.46-6.25,3.58-6.47,8.1Zm21.4-127.54c.02-2.65-1.5-3.57-4.55-2.75-3.79,1.02-6.59,3.64-9.49,6.06-4.01,3.35-3.61,6.02,1.2,8.23,4.01,1.84,7.76.77,10.27-2.98,1.75-2.63,2.15-5.68,2.58-8.55Zm-44.41-61.31c2.38.14,4.38-.46,5.99-2.22,1.87-2.04,3.87-3.97,5.67-6.07,1.37-1.61,3.38-3.46,1.69-5.66-1.61-2.09-4.23-1.78-6.46-.85-4,1.67-7.03,4.64-9.77,7.9-1.18,1.41-2.92,2.85-2.04,4.95.9,2.15,3.24,1.53,4.92,1.96Zm60.45,77.75c5.64-.07,10.35-4.3,11.18-9.53.38-2.37-.1-3.55-2.74-3.66-4.85-.2-8.9,1.25-11.86,5.18-1.38,1.83-3.37,3.77-2.23,6.21,1.11,2.37,3.91,1.23,5.65,1.79Zm-73.17-38.1c-.08,3.88,5.21,8.28,8.98,7.49,2.34-.49,3.6-3.4,2.1-5.4-1.37-1.83-2.36-3.76-2.51-5.98-.15-2.19-1.2-2.56-3.14-2.46-3.88.2-5.34,1.8-5.43,6.36Zm171.48-13.03c-.1-.51.36-2.79-1.82-2.15-2.65.78-5.86,1.78-6.59,4.87-.4,1.68,1.55,3.27,3.39,3.22,3.09-.08,5.24-1.58,5.02-5.94Zm-355.13,300.52c-3.18.9-5.58,1.51-7.94,2.28-1.23.4-2.75,1.01-2.08,2.7.64,1.6,2.03,2.68,3.85,1.67,2.29-1.27,4.46-2.77,6.65-4.21.47-.31.85-.84.52-1.48-.38-.74-1.05-.95-1.01-.96Zm192.32-298.54c2.1-.98,3.95-1.67,5.94-1.98,1.02-.16,1.94-.99,1.42-2.22-.49-1.16-1.46-1.96-2.77-1.14-1.92,1.2-3.97,2.35-4.59,5.35Zm61.49-198.4c1.54-.73,3.31-1.65,3.8-3.59.29-1.13-1-1.25-1.84-.98-1.73.57-3.88.85-4.05,3.22-.07.9.86,1.43,2.09,1.34Zm-11.9,123.41c-1.53.08-2.37,1.22-2.71,2.44-.4,1.43,1.09,3.21,1.73,3.13,1.55-.2,1.4-2.9,3.36-3.19-.35-1.21-1.15-1.99-2.39-2.38Z"/>
  <path d="m471.25,393.67c-.04,1.56-.69,3.27-2.05,4.76-1.47,1.63-2.72,3.47-4.24,5.06-4.29,4.48-6.77,9.25-4.64,15.78,1.67,5.14-1.57,8.48-5.75,10.57-7.93,3.98-14.19,10.24-21.42,15.16-1.69,1.15-3.25,2.52-4.73,3.95-2.75,2.67-5,3.1-8.72.74-4.31-2.73-9.64-2.43-14.17.5-7.65,4.94-22.38,1.51-27.01-6.39-1.18-2.01-1.08-3.66.9-4.9,2.6-1.63,5.2-3.33,7.97-4.6,10.58-4.87,19.06-11.89,24.08-22.64.63-1.35,1.34-2.67,2.9-3.12,4.7-1.36,8.01-4.76,11.51-7.86,2.88-2.55,6.14-4.46,9.53-6.24,5.6-2.94,10.72-6.59,15.47-10.79,5.06-4.47,7.3-4.68,12.84-.82,3.65,2.54,8,4.81,7.52,10.84Z"/>
  <path d="m97.64,611.54c5.66-.39,11.34-1.57,16.97.51,4,1.48,6.33,7.57,4.24,11.28-.7,1.24-1.76,1.45-2.95,1.5-3.12.13-6.28-.03-8.97-1.66-2.59-1.57-4.63-.87-6.85.56-2.59,1.67-3.12,3.56-1.31,6.21,2.86,4.2,7.07,7.02,10.45,10.67,1.55,1.67,2.79,3.47,1.78,5.92-1.05,2.52-3.32,3.14-5.69,3.53-2.2.36-3.53-1.16-4.87-2.5-3.52-3.54-7.02-7.1-10.47-10.7-1.74-1.82-3.7-2.59-6.27-2.49-2.63.11-3.72,1.29-3.78,3.76-.05,2.05-.07,4.11-.21,6.16-.13,1.84.26,4.22-2.08,4.82-2.39.62-4.95.7-7.04-1.25-1.96-1.82-2.87-4.22-2.95-6.69-.16-5.13-2.83-8.77-6.21-12.19-3.61-3.65-4.09-8.06-1.06-12.3,1.38-1.93,2.05-3.78,1.78-6.09-.14-1.16-.05-2.35,0-3.52.4-8.21,2.19-9.93,10.2-8.76,3.51.51,5.95-.56,8.22-2.92,3.46-3.6,6.95-7.17,10.47-10.7,1.56-1.56,3.22-3.07,5.48-3.52,3.12-.61,6.44-1.04,7.87,2.7,1.32,3.44,1.38,6.69-2.33,9.28-3.22,2.25-5.95,5.2-8.89,7.84-.11.1-.19.22-.28.34-2.06,2.59-3.01,5.57-1.61,8.61,1.28,2.79,4.15,1.27,6.37,1.6Z"/>
  <path d="m559.25,351.41c-1.16,8.3-5.06,14.85-12.79,18.63-5.66,2.77-12.46-1-13.83-7.4-1.46-6.82-3.05-7.44-8.97-3.22-2.5,1.78-4.72,3.95-7.14,5.84-5.33,4.15-11.3,4.58-17.49,2.56-4.47-1.46-5.62-6.38-2.46-9.85,2.65-2.91,6.05-4.79,9.78-5.6,7.24-1.57,12.94-5.45,17.5-11,2.44-2.96,5.4-4.31,8.99-4.81.29-.04.58-.06.87-.11,16.25-2.79,12.37-3.35,23.09,8.13,1.84,1.97,2.84,4.05,2.45,6.81Z"/>
  <path d="m527.97,392.75c8.37-.31,12.44,5.83,16.53,11.48,2.02,2.79,4.03,5.26,6.95,7.11,7.22,4.58,6.88,12.15-.51,16.27-6.64,3.7-14.2,4.46-21.31,6.45-6.84,1.91-13.34-6.57-11.62-14.22.96-4.28,1.06-8.4-.72-12.47-3.03-6.93.93-13.69,8.49-14.49.73-.08,1.46-.09,2.2-.13Z"/>
  <path d="m439.58,524.2c-2-.16-4.14-.38-5.21-2.01-1.11-1.69.9-2.83,1.72-4.08,4.92-7.5,13.06-10.83,20.49-14.64,16.32-8.37,32.15-17.38,47.04-28.15,7.79-5.63,16.91-9.26,25.72-13.21.46-.21,1.23-.29,1.59-.04.8.56.27,1.44-.11,1.93-2.27,3-4.16,6.54-7.05,8.78-19.44,15.1-39.39,29.44-61.84,39.94-4.84,2.27-9.08,5.73-13.89,8.19-2.76,1.41-5.41,2.88-8.47,3.29Z"/>
  <path d="m277.13,583.57c-.27,3.38-3.92,5.51-7.8,6-5.91.75-10.71,3.37-15.7,6.24-5.29,3.04-11.44,3.58-17.44,3.97-8.01.52-15.85,2.57-22.88,5.8-6.22,2.85-11.86,7.28-18.12,10.48-3.03,1.55-5.44,1.68-7.19-1.07-1.79-2.82-1.04-5.75,1.64-7.79,3.8-2.89,8.44-3.99,12.89-5.41,7.11-2.26,14.52-3.79,19.96-9.52.38-.4.99-.69,1.54-.82,10.22-2.5,20.4-5.2,30.7-7.29,3.49-.71,6.77-1.21,9.75-3.35,1.99-1.44,4.29-2.62,6.62-3.4,4.12-1.39,6.11.28,6.03,6.18Z"/>
  <path d="m581.84,437.85c-5.14,0-6.4-1.74-4.84-6.03.2-.55.4-1.15.77-1.57,9.44-10.46,17.25-22.68,30.92-28.57,3.24-1.4,8.14-.11,9.58,2.98,1.55,3.33-.87,5.22-3.27,6.7-10.44,6.45-18.66,15.45-27.53,23.7-1.74,1.62-3.48,3.24-5.62,2.79Z"/>
  <path d="m455.98,544.49c-1.45-.09-3.62.17-4.32-1.76-.72-1.99.76-3.58,2.3-4.77.79-.61,1.73-1.14,2.69-1.42,8.97-2.64,16.97-7.44,25.4-11.27,3.97-1.8,7.26-4.38,10.45-7.15,5.41-4.7,11.56-8.51,16.45-13.87,2.09-2.3,5-2.37,7.74-1.04,3.69,1.79,4.42,4.95,1.37,7.61-7.45,6.49-15.97,11.27-25.41,14.25-1.67.53-3.55.34-3.91,2.7-.22,1.44-1.5,1.73-2.64,1.93-9.29,1.62-15.97,8.2-23.79,12.6-1.98,1.11-3.78,2.09-6.33,2.19Z"/>
  <path d="m333.15,590.63c-1.82-.44-4.6,1.05-5.57-1.81-.87-2.57.18-4.81,2.3-6.6,2.01-1.69,3.74-3.97,6.32-4.59,2.87-.68,6.48-2.68,8.39,1.52,1.86,4.11-.08,8.62-3.96,10.3-2.35,1.02-4.85.93-7.48,1.18Z"/>
  <path d="m134.6,668.76c-2.36-.19-5.73.44-6.58-1.91-.59-1.65,2.66-3.02,4.26-4.42,2.08-1.83,4.3-3.51,6.57-5.11,1.41-1,2.92-2.13,4.55-2.52,2.02-.48,4.75-1.35,6.07.72,1.12,1.75-.95,3.46-2.05,4.91-3.26,4.26-6.12,9.22-12.81,8.34Z"/>
  <path d="m228.31,620.59c2.85-.3,5.16-.51,7.45-.8,2.31-.29,4.43-.45,5.04-3.66.39-2.02,2.93-2.63,4.95-3.1,3.75-.88,7.57-.09,11.35-.39.56-.04,1.25.02,1.39.76.12.65-.33.97-.86,1.31-7.33,4.69-15.24,7.38-24.04,7.03-1.58-.06-3.22.18-5.28-1.15Z"/>
  <path d="m339.23,615.39c-4,1.19-3.46-1.79-3.76-4.23-.65-5.22,2.49-6.86,7.33-7.78,2.5-.48,4.6,1,4.72,3.89.15,3.49-4.48,7.98-8.29,8.12Z"/>
  <path d="m348.52,559.9c-.25-2.33.79-4.16,4.41-3.9,2.84.21,5.15.42,5.02,4.28-.13,4.19-2.74,4.97-6.04,5.18-3.66.24-3.3-2.38-3.39-5.56Z"/>
  <path d="m423.74,589c-2.15-3.92-2.28-7.53-1.26-11.29.59-2.2,2.25-2.6,4.1-2.27,2.24.4,2.17,2.2,1.61,3.77-1.15,3.23-2.27,6.5-4.45,9.8Z"/>
  <path d="m317.59,588.92c1.27.31,3.33.07,3.29,1.53-.07,2.33-2.61,1.69-4.11,2.17-1.12.36-2.71.15-2.72-1.31-.02-2.22,2.18-1.85,3.54-2.4Z"/>
  <path d="m321.43,617.35c.13-1.24,0-2.59,1.34-2.58,1.89.02,1.59,1.7,1.59,2.92,0,1.04-.34,2.18-1.63,2.09-1.78-.12-.98-1.72-1.31-2.43Z"/>
</svg>