<?xml version="1.0" encoding="UTF-8"?>
<svg id="Layer_1" data-name="Layer 1" xmlns="http://www.w3.org/2000/svg" width="991.53" height="716.6" viewBox="0 0 991.53 716.6">
  <path d="m398.55,311.98c.78,13.3-1.61,27.22,2,40.53,4.05.69,6.77-1.39,9.63-3.01,3.48-1.96,6.74-4.44,10.42-5.85,5.65-2.18,11.73-2.61,17.67-1.3,5.31,1.17,4.74,7.48,8.41,10.46,5.57,4.51,5.38,11.97,7.57,18.11,4.1,11.47,6.22,23.44,15,33.11,3.6,3.96,3.66,11.09,5.45,16.74,1.66,5.23,4.95,7.15,10.24,6.08,1.28-.26,2.76-.46,3.71-1.23,5.97-4.86,11.19-3.95,15,2.39,3.12,5.19,6.97,7.64,13.09,6.71,3.39-.52,6.32,1.03,9.3,2.79,9.76,5.75,10.2,6.56,5.39,17.01-1.64,3.55-3.92,6.49-2.68,11.09,2.94,10.88,7.64,15.09,19.76,14.29,5.57-.37,8.89.89,10.96,5.98,5.29,13.07,9.73,26.47,19.92,37.1,4.84,5.05,3.66,9.11-1.74,13.51-6.13,5-12.29,9.77-17.89,15.57-4.53,4.69-12.02,7.93-19.61,7.74-5.31-.14-10.62-.56-15.92-1.03-7.35-.65-14.52-1.49-20.24,5.11-1.96,2.26-4.95,1.08-6.58-1.51-2.47-3.92-5.66-5.34-10.09-3.52-3.77,1.55-7.82,3.24-7.63,8.05.55,14.43-12.2,17.85-20.72,23.74-6.17,4.26-14.94,5.75-22.72,6.4-8.45.7-15.82,2.68-21.29,9.03-5.71,6.61-12.73,8.98-21.13,9.38-7.28.35-14.5,1.68-21.76,2.46-6.95.75-13.22-.06-17.03-7.16-.85-1.59-2.67-3.13-4.38-3.74-16.94-6.01-34.12-11.38-52.38-8.11-5.28.95-10.11,2.75-15.46.49-5.01-2.11-9.3.93-12.94,3.48-11.17,7.81-25.03,8.35-36.86,14.33-4.37,2.21-9.28.73-13.57-1.17-7.24-3.22-14.59-6.3-20.71-11.6-3.01-2.61-6.15-5.12-9.44-7.36-8.36-5.71-16.81-8.01-25.28-.03-1.31,1.24-3.86,3.18-4.66.47-2.26-7.7-9.13-6.46-14.41-8.64-5.49-2.27-10.57-5.53-15.85-8.34-6.23-3.31-10.61-8.01-11.42-15.31-1.1-9.87-5.35-15.97-15.06-21.06-10.95-5.74-21.34-13.15-31.9-19.92-8.78-5.62-15.15-14.78-19.04-24.91-1.89-4.92-3.08-10.12-4.58-15.19-3.4-11.5-.45-20.29,9.35-27.8,9.15-7,18.84-12.41,31-11.74,3.19.18,7.24.03,9.56-1.73,14.12-10.66,31.78-15.46,43.4-30.85,9.38-12.41,23.19-21.6,35.58-31.54,7.82-6.26,15.58-12.18,21.41-20.63,3.69-5.35,9.37-9.31,13.98-14.07,2.05-2.11,4.49-2.76,7.15-2.88,15.14-.65,28.21-6.35,39.91-15.76,2.56-2.06,5.75-3.34,8.59-5.07,6.8-4.14,14.69-7.26,20.01-12.83,5.29-5.54,8.28-13.42,11.73-20.54,4.44-9.16,13.47-10.03,21.56-12.5,1.24-.38,3.47,1.53,4.83,2.82.83.78.84,2.4,1.26,3.64,4.42,13.05,9.34,17.47,21.34,13.83,11.27-3.42,17.69,1.26,24.13,8.41,1.75,1.94,2.82,4.49,4.38,6.62,3.25,4.42,7.26,5.39,12.15,2.58,2.83-1.62,5.66-3.54,10.06-2.09Zm-96.97,253.96c.92-3.69,4.22-3.21,6.85-3.88-.34-1.56.18-1.86,1.54-.88-.32.38-.65.76-1.07,1.11-2.52,1.48-5.04,2.96-7.51,4.35,1.47-.99,1.8-.78.97.64-.26-.45-.52-.89-.78-1.34Zm-29.65-.42c2.03-.71,4.07-1.42,6.1-2.13.42-2.22.84-4.44,1.26-6.66,2.81-2.01,1.68-4.86,1.64-7.41-.48-4.54,1.6-6.33,6.03-5.62,1.81-4.45,4.19-2.29,6.53-.56-1.74-.44-1.82-1.04-.23-1.79.14.44.29.88.4,1.28-2.36.37-4.72.74-7.07,1.25-.43,3.46-2.16,5.38-5.86,4.98-.5,2.84-1,5.69-1.45,8.59,3.73,3.84,3.7,3.97-1.19,5.77-1.91.89-3.81,1.79-5.77,2.68-2.21,1.22-4.41,2.43-6.62,3.65-.91,3.24-2.28,6.45-.84,9.78-2.71-1.38-5.07.17-7.53.91-.93,4.14-1.56,8.26.49,12.29-.54-.09-1.09-.12-1.6-.29-.26-.08-.44-.41-.65-.63.72.34,1.44.68,2.15,1.01-.24-4.24-.47-8.48-.57-12.6,2.73,1.67,5.17,1.1,7.42-.97,1.87-3.08,1.45-6.3.69-9.53,2.23-1.33,4.46-2.67,6.69-4Zm45.91-20.77c2.68-.37,5.35-.73,8.03-1.1.36-3.5,2.88-5.63,5.08-7.95,2.22-2.35,4.59-4.55,6.62-7.05.51-.62-.08-2.13-.16-3.23-1.09.2-2.6.02-3.2.68-3.01,3.33-5.9,6.79-8.61,10.38-1.77,2.34-1.03,4.85.19,7.07-2.79.65-5.58,1.3-8.31,1.89,1.52-.37,1.5.75.65.53-2.55-.64.19,1.41-.3-1.22Zm38.13-9.91c1.55-1.58,3.09-3.16,4.64-4.73,6.55-9.05,17.22-14.25,22.35-24.76,3.46-7.08,8.19-13.52,12.15-20.37,2.97-5.12,5.72-10.38,8.36-15.68.86-1.72,1.3-4.03-.81-5.21-.9-.5-2.8-.21-3.7.46-7.96,5.91-15.45,12.31-15.12,23.46.13,4.25-1.31,7.62-3.72,10.9-5.44,7.42-10.6,15.06-16.19,22.36-2.12,2.78-3.63,5.39-2.97,8.94.13,3.12-2.21,3.59-4.43,4.11-.97.98-1.38.89-1.24-.28.23.27.46.53.69.8Zm-241.14-1.1l.55.53-1.05-.21-.36-1.07s.81.83.86.75Zm402.84-1.63c-1.72-2.04-1.81,2.05-1.45-.59.22-1.61.92-1.92,2.17-1.02,2.16,1.56-.72-1.19-.62,1.49-.52.03-1.04.13-1.55.07-.24-.03-.45-.34-.68-.52.71.19,1.42.38,2.13.57Zm-215.94-6.25c.21-1.68,1.03-2.04,2.26-.87.33.32.27,1.06.39,1.6-.98,0-1.97,0-2.9-.09,1.49-.82,1.78-.6.85.68-.2-.44-.4-.88-.59-1.32Zm7.89-13.17c2.93-.25,5.86-.5,8.79-.75-1.64-2.85,1.02-4.74,1.55-7.1.1-.46-.29-1.02-.46-1.54-1,.55-2.45.85-2.92,1.7-1.55,2.75,1.46,4.53,1.85,6.93-3.06.5-6.13,1.01-9.13,1.45,1.6-.54,1.77.67.77.58-2.6-.22.31,1.29-.44-1.27Zm95.68-3.59c2.12-1.09,4.23-2.18,6.35-3.27,2.86-.59,3.41-2.45,2.74-4.98,2.49-.16,4.99-.31,7.48-.47,1.01-4.64,2.75-9.4-2.19-13.03,10.97,4.49,11,4.42,16.5-1.47,3.29-3.52,4.36-9.69,10.84-9.4-.19-1.24-.55-2.49-.54-3.73.03-5.01-1.77-8.17-3.34-5.83-1.79,2.65-.48,4.81,1.32,6.8.87.95,1.84,1.82,2.77,2.72-1.24-.26-2.54-.36-3.72-.79-9.43-3.48-9.31-3.4-14.29,2.58-2.77,3.33-3.94,8.44-9.21,9.13.44,4.42-1.27,9.15,1.74,13.01-2.58-1.62-4.98-1.97-6.82,1.08-1.99.99-3.58,2.22-2.88,4.8-2.33,1.23-4.66,2.45-6.95,3.61,1.46-1.03,1.81-.82,1.04.6-.28-.45-.57-.9-.85-1.35Zm116.49-5.02c.67-1.99,1.34-3.98,2-5.97,2.01-.68,4.02-1.36,6.03-2.04.56-2.26,1.11-4.51,1.67-6.77.15-.33.3-.66.45-.98-.05.47-.1.94-.07,1.46.66,2.51,1.39,5.03-1.95,6.35-2.39-.42-5.51-2.52-5.66,2.38-4.89.19-2.81,3.29-2.54,5.57-2.73-1.43-5.23-1.35-7.33,1.17-.55,1.01-1.14,2-1.6,3.05-.05.11.81.86.92.78,2.15-1.32,1.13-2.83.26-4.25,2.6-.26,5.21-.51,7.81-.77Zm-161.93-144.15c-.81,1-1.68.64-1.2-.45,1.07-2.42-1.68.12.92-.24,1.61-2.4,3.59-4.19,6.73-4.06.02-1.89-.68-4.21.17-5.59,4.33-7.09,9.06-13.93,13.61-20.8-.02,1.16-.22,2.35.02,3.46.15.71.95,1.28,1.45,1.91.33-.47.65-.94.98-1.41.64-.94,1.28-1.88,1.86-2.72-1.22.08-.86-.74-.27-.36,2.22,1.44.39-1.76-.11.86-1.46-.41-2.91-.82-4.37-1.22-5.83-12.89-9.11-13.77-16.83-3.85-6.47,8.31-12.43,17.02-18.38,25.71-7.05,10.3-13.92,20.72-20.74,31.17-8.28,12.68-18.07,24.73-24.15,38.41-5.01,11.28-8.91,22.94-16.34,33-2.58.69-3.62,2.48-3.56,5.03-2.27-.54-3.72.66-4.85,2.42-.29.46-.65.9-.85,1.39-.07.18.23.5.36.76-.03-.91-.07-1.83-.1-2.74,2.3.57,4.11.15,4.91-2.39,2.48-.72,4.29-1.93,3.62-4.95,3.71,1.5,6.35-.61,8.78-2.82,5.52-5.03,9.49-11.33,10.42-18.6.54-4.26,1.43-7.51,4.67-10.21,6.29-5.23,9.28-12.75,13.39-19.49,10.66-17.47,21.28-34.97,31.97-52.42,1.03-1.68,2.38-3.18,3.68-4.66,3.09-3.53,6.86-2.56,8.64,2.33.9,2.47,1.37,5.11,1.98,7.7-2.14,1.61-4.28,3.23-6.41,4.84Zm-30.33,129.24c.34-5.25,4.16-2.61,6.67-2.95,1.15-.84,4.59-1.35.7-2.98-.78-.33-1.37,1.85-.39,3.06-2.42,1.23-4.84,2.45-7.21,3.6,1.59-.91,2.1.26.97.47-2.55.46.55,1.13-.74-1.2Zm-111.61.36c2.53-.85-1.29-2.44,1.01-1.08.43.25,1.06.78,1.02,1.1-.18,1.38-1.07,1.61-2.31.63,1.49-.65,1.73-.44.71.65-.14-.44-.29-.87-.43-1.31Zm-2.71-94.89l-.73.06s1.1-.45,1.05-.43l.17-.8-.49,1.17Zm60,15.55c-.91.45-1.81.9-2.72,1.35.62.44,1.25.89,1.87,1.33.16-1.02.33-2.05.5-3.06,2.41-.59,4.82-1.18,7.24-1.78,1.56-4.71,3.13-9.41,4.69-14.13,5.62-.55,5.27-8.72,11.07-9.02-.41-4.29-.83-8.58-1.09-12.82.6.2,1.19.4,1.79.6-.55-.23-1.11-.45-1.66-.68.12,4.43-2.2,9.12,1.39,13.18-7.79.75-8.51,1.36-10.96,9.26q-7.95,5.83-5.31,13.55c-2.69-.54-5.5-1.47-6.81,2.21Zm-156.06,58.49c2.22-.33,4.43-.65,6.65-.98.29-2.57.59-5.14.88-7.71l.59.38s-.8.15-.75.24c1.83,2.5,5.39,5.11-.59,7.07-2.49-.15-5.12-.88-7.01,1.59l-.03.91.27-1.49Zm30.12-30.29c-.22,5.83-1.43,6.31-7.7,3.02-.42,2.15-.83,4.29-1.25,6.44-2.35-1.13-4.43-.32-6.45.9-.15-.15-.31-.29-.34-.32,2.47,1.35,4.57.85,6.25-1.37.48-1.76.95-3.52,1.48-5.28,2.71-1.42,5.42-2.84,8.1-4.18-2.35,1.26,1.59,1.97-.93,1.09-.36-.13-.9-.77-.88-.8.86-1.07,1.45-.89,1.72.49Zm219.98,1.98c-2.51-1.2-4.97-2.21-5.9,1.8-4.2-.64-4.73,3-6.26,5.43-.28.45-.38,1.35-.12,1.73.9,1.3,2.01,1.24,3.22.27,2.57-2.05,4.31-4.34,2.83-7.82,2.22-.65,4.43-1.3,6.57-1.9l-.89-.43.55.92Zm143.76,23.28c.79-3.59,1.59-7.17,2.31-10.63,1.04-.46,1.11-.35.2.32.13-.32.27-.64.4-.96-2.83,3.43-4.79,7.05-2.7,11.44-1.15.1-2.41-3.02-3.45.12,1.08-.1,2.16-.19,3.24-.29Zm-304.41-13.5c-.95,3.32-1.9,6.63-3.02,9.81-2.9-1.61-5.73-.44-8.57.19-.44,4.24-1.26,8.5.75,12.38-2.81-2.35-5.94-1.2-9-.83,1.41,4.19-2.23,8.5.3,12.67-2.79-1.13-5.39-.48-7.02,1.81-6.1,8.6-12.07,17.3-17.83,26.12-.96,1.47-.68,3.75-.98,5.66-2.85-.88-3.14.96-3.02,2.98.03.46.99,1.34,1.22,1.25,1.87-.74,3.29-1.84,1.91-4.14,3.85-.12,5.77-3.05,7.48-5.72,6.08-9.44,11.89-19.05,17.66-28.78,1.12-2.34,1.94-4.92.21-7.08-1.52-1.9-.76-3.34.01-4.92,2.91,1.7,6.04,1.39,9.18.99-.38-4.21-.76-8.42-1-12.52,2.92,1.41,5.83.71,8.73-.08.04-3.84.3-7.61,3.31-10.37-1.46.61-1.68.38-.67-.67.12.41.23.83.35,1.24Zm99.97-98.08c.49,3.6-2.45,7.12-.33,10.72-.9.16-1.79.32-2.69.47.36.11.83.42,1.04.29.48-.29.82-.8,1.22-1.22,4.65-3.22,1.7-6.83.65-10.28,2.9-.28,5.81-.55,8.71-.83.66-3.21,1.33-6.42,1.99-9.62,6.21-2.62,1.12-7.02,1.66-10.53,2.55-.17,5.56,1.27,7.53-1.08,4.68-5.56,9.12-11.32,13.47-17.14.32-.43-.8-2.07-1.46-3-.13-.19-1.29.17-1.84.5-8.24,4.94-9.16,16.12-17.73,20.79-.38,3.63-.77,7.26-1.15,10.9-5.52,1.99-1.7,6.16-2.31,9.24-2.92.27-5.85.54-8.77.81Zm-96.96,150.38c-5.65,2.26-3.12,6.43-2.37,10.18q-7.97,1.66-9.25,9.62c-5.51,2.43-9.93,5.53-7.69,12.61-1.25-.02-3.51-1.81-2.79,1.6.78-.69,1.56-1.38,2.34-2.08,4.28-3.16,6.64-7.47,7.62-12.63,3.17-3.16,6.35-6.33,9.37-9.72,1.08-3.34,2.16-6.67,3.16-9.95,2.67,0-2.05,1.58-.57-.61.4-.59,1.11.17.19.97Zm98.54-214.6c-2.63,3.94-2.73,7.97-.4,12.08l-1.29-.23,1.11.54c.04-4,2.8-8.03-.15-11.92,1.53.19,1.7.43.51.72.07-.4.15-.79.22-1.19Zm-116.92,275.66c-1.6-.32-1.89-1.19-.62-2.35,1.16-1.06,2.46-.89,2.96.48.55,1.53-.32,2.3-2.12,2-2.98,0-5.95.02-8.93.02-.35,3.52-.69,7.04-1.04,10.56-2.32-.98-3.5.11-3.49,2.31,0,.67,1.7,2.04,1.94,1.9,1.77-1,2.64-2.5,1.19-4.47,5.99-2.75,2.56-6.73,1.49-10.28,2.91,1.79,5.76.99,8.61-.17Zm99.76,20.48c-1.47-.4-1.76-1.27-.69-2.42.29-.32,1.22-.5,1.52-.28,1.25.9,1.04,1.75-.44,2.22-1.56.39-1.74-.68-.8-.6,2.62.25-.41-1.46.41,1.07Zm-105.54-149.28c-2.8-.58-5.14.43-6.77,2.57-.59.78-.24,2.27-.31,3.44,1.04.05,2.71.53,3.02.08,1.4-2.04,2.41-4.35,3.56-6.59l.94-.76-.44,1.27Zm182.88,46.22c1.87.53,3.55.54,4.05-1.82.11-.5-.28-1.11-.44-1.68-.52.25-1.26.36-1.52.77-.63,1.01-1.03,2.16-1.47,3.31-4.75,3.38-3.47,7.28-.98,11.29-2.29-1.04-4.58-3.2-7.08-.69-1.84,1.85-3.85,3.8-4.88,6.1-1.12,2.5-5.7,3.32-3.91,7.28,4.28.54,6.71-3.46,11.37-3,5.22.52,5.36-.87,3.99-10.15-.1-3.83,2.7-7.44.87-11.4Zm-107.32-143.15c2.67.8,4.98.04,6.48-2.16.5-.73-.16-2.25-.28-3.4-.54.14-1.12.19-1.6.44-2.24,1.18-4.37,2.48-4.18,5.51-2.62-.42-4.27.56-4.77,3.25-6.29,1.77-12.6,3.45-18.85,5.33-5.12,1.54-5.37,2.86-1.43,9.02,2.37,3.71,1.64,7.56,1.27,11.37-1.38-.01-1.47-.19-.27-.54-.18.32-.36.65-.54.97,3.63-3.68,7.4-7.23,10.85-11.07,3.84-4.27,9.21-7.48,10.19-13.87,2.7-.55,3.96-2.03,3.15-4.85Zm198.73,236.03c.61-.05,1.23-.08,1.84-.16,2.99-.39,6.25-.49,6.37-4.7.01-.48-.68-1.39-1.07-1.4-2.83-.11-4.04,1.95-5.23,4.08-.59,1.06-1.47,1.96-2.16,2.83,1.34-.72,1.62.39.75.42-2.62.08.5,1.41-.49-1.07Zm-207.62-192.96c-1.6,2.1-3.35,4.1-4.73,6.33-.52.85-.18,2.23-.24,3.38,1.16-.29,2.74-.2,3.4-.93,2.39-2.65,3.01-5.74,1.22-8.88l1.19.78s-.85-.69-.85-.69Zm-45.77,26.76c-8.1,2.44-8.89,3.81-7.44,12.42-1.26-.75-2.5-3.58-3.78-.03,1.19-.1,2.38-.21,3.57-.31,2.42-4.2,4.84-8.39,7.13-12.7.17.21.35.42.52.62Zm303.65,84.1c3.38-4,6.85-7.93,10.05-12.07.57-.73.36-2.45-.06-3.48-.68-1.65-1.93-1.63-3.21-.34-4.23,4.27-8.28,8.59-6.08,15.31-1.49.38-1.74.18-.74-.59.01.39.03.78.04,1.17Zm58.02,31.85c.34-.26.69-.52,1.03-.78-.21.03-.48-.01-.61.1-.35.3-.65.67-.96,1.01.47-1.82.94-3.74-1.03-4.94-3.72-2.26-7.28-1.4-10.44,1.16-3.88,3.15-8.67,6.08-4.96,12.11-.4-.44-.73-.99-1.22-1.28-.34-.2-.88-.05-1.34-.06.81.4,1.63.81,2.44,1.21,5.59-2.87,10.13-7.88,17.08-8.54Zm-18.51-21.35c-9.45,3.91-10.99,6.62-10.68,20.5,4.46-4.49,8.4-7.96,11.72-11.95,2.6-3.12.43-6.2-1.48-8.98,1.16-.03,2.49.28,3.46-.17,1.77-.83,2.59-2.46,1.82-4.46-.21-.53-.76-1.18-1.27-1.31-2.27-.56-3.33.94-3.75,2.78-.26,1.12.1,2.38.17,3.58Zm-115.94-123.78c-.67,0-1.67-.27-1.95.06-8.82,10.46-15.01,22.44-20.12,35.05,11.23-9.39,18.06-21.44,21.69-35.45,3.77-2.33,8.75-2.29,11.82-6.12-1.08-5.01-1.77-10.18-6.14-15.68-.81,4.36-1.13,7.8-2.14,11.03-1.15,3.68-4.04,6.84-3.17,11.1Zm-67.36,32.34c7.87-5.8,10.64-15.11,15.75-22.81,4.42-6.65,9.25-13.03,13.66-19.69,1.53-2.31,1.71-4.91-1.09-6.91-2.6-1.85-4.9-1.24-7.18.48-.53.4-1.15.73-1.56,1.23-11.4,14.07-21.08,28.84-19.07,48.16-4.93-1.95-7.15,1.75-9.79,4.65-4.65,5.1-6.14,9.09-3.25,8.98,3.77-.14,6.05-2.66,7.9-5.36,1.85-2.7,3.1-5.8,4.62-8.72Zm-47.65,73.43c1.28-4.73,5.11-7.55,8.09-11.06,8.59-10.13,15.65-21.31,21.4-33.27.84-1.74-.47-3.91-2.47-4.65-1.09-.4-2.52-.02-3.76.2-.6.11-1.29.53-1.64,1.02-7.67,10.74-15.58,21.31-22.81,32.35-3.23,4.93-.83,10.23,1.85,14.92-1.67-.19-1.37-1.2-.6-.71,2.21,1.42.24-1.45-.07,1.2Zm1.23-188.86c-5.05,8.58-9.52,16.56-14.4,24.29-2.11,3.34-1.54,7.26-4.22,10.74-11.69,15.21-22.82,30.87-33.71,46.67-3.73,5.41-6.48,11.58-9,17.69-1.16,2.79,1.71,4.63,4.06,5.89,1.89,1.01,4.09.99,5.34-.79,7.21-10.35,14.32-20.77,21.35-31.25,13.63-20.31,22.82-43.56,40.68-61.1,2.24-2.2.74-5.02-1.58-6.71-2.62-1.91-5.47-3.51-8.52-5.43Zm176.63,157.68c-8.85,8.91-13.88,18.46-21.04,25.94-20.74,21.64-36.46,47.08-55.16,70.23-2.54,3.15-4.9,6.3-4.58,10.61.04.54.57,1.17,1.05,1.52.47.35,1.29.72,1.71.53,1.12-.51,2.45-1.08,3.08-2.04,21.93-33.24,47.16-63.98,71.85-95.13,1.93-2.43,4.7-4.74,3.1-11.66Zm-48.09-61.99c-.46-.72-1.13-2.73-2.53-3.68-2.01-1.37-3.63.47-4.97,1.89-.9.96-1.72,2.04-2.36,3.19-8.28,15.09-16.83,30.01-27.36,43.69-1.79,2.32-1.77,4.79.57,6.99,2.41,2.27,4.92,2.18,6.66-.4,9.24-13.71,18.32-27.53,27.43-41.32,1.85-2.81,3.18-5.8,2.56-10.36Zm-26.56-33.11c-.38-.52-.82-1.5-1.15-1.47-1.19.12-2.64.24-3.46.97-15.04,13.27-23.57,31.29-34.56,47.52-.88,1.3-.29,2.81,1.24,3.25,1.09.31,2.42,0,3.58-.27.56-.13,1.1-.75,1.47-1.27,10.93-15.57,21.83-31.16,32.7-46.78.32-.47.13-1.29.18-1.94Zm-115.29,28.24c-.5-.31-.99-.84-1.51-.89-.6-.06-1.53.11-1.81.53-3.3,4.89-6.38,9.94-9.77,14.77-7.17,10.22-14.51,20.32-21.73,30.51-1.52,2.15-3.16,4.69-.46,6.82.63.49,3.53-.91,4.59-2.13,12.51-14.53,21.36-31.45,30.91-47.9.23-.39-.13-1.12-.22-1.7Zm17.08-26.8c14.46-15.46,23.55-33.24,35.36-49.02,1.07-1.43,1.14-2.61-.26-3.11-1.13-.4-2.98-.82-3.59-.25-2.87,2.68-5.8,5.44-8.03,8.65-7.52,10.81-14.8,21.79-22.05,32.78-1.75,2.65-3.99,5.36-1.42,10.95Zm131.88,50.35c-.39-.53-.68-1.35-1.19-1.52-.51-.18-1.28.2-1.87.48-3.33,1.58-3.68,5.24-5.43,7.92-6.48,9.92-12.98,19.84-19.3,29.87-.41.65.29,2.67,1.06,3.2.86.59,2.4.33,3.62.21.59-.06,1.28-.5,1.67-.98,9.33-11.22,16.86-23.49,21.66-37.33.18-.53-.13-1.23-.22-1.85Zm7.65,16.31c-5.13,3.31-8.27,8.2-10.66,13.57-.71,1.58-1.16,4.89-.65,5.13,2.26,1.07,5.08,2.15,7.38,1.69,4.67-.95,8.26-4.23,9.49-8.82,1.33-4.95-2.53-8.14-5.55-11.56Zm-3.35,40.67c-8.55,10.31-14.59,21.03-21.18,31.31-.38.58.5,2.77,1.25,3.07.9.36,2.87-.11,3.39-.89,6.18-9.26,12.23-18.62,18.13-28.07.43-.69-.63-2.31-1.58-5.42Zm-38.69,1.24c-.46-.54-.81-1.36-1.31-1.47-1.18-.25-2.65-.61-3.63-.14-5.16,2.48-6.41,8.2-9.67,12.28-1.51,1.88-3.23,4.7.01,6.39.94.49,3.64-1.17,4.75-2.5,3.76-4.51,8.6-8.37,9.85-14.56Zm106.03,44.11c7.96-4.58,12.5-11.9,16.55-19.58.25-.47-1.07-1.92-1.88-2.69-.34-.33-1.52-.35-1.85-.03-6.35,6.19-10.78,13.5-12.82,22.31Zm-24.31,11.1c-8.42,3-10.84,6.09-12.77,9.49-2.32,4.1-7.59,6.95-5.72,12.91,8.73,2.19,5.77-6.68,9.04-9.73,2.74-2.56,4.61-6.05,9.45-12.66Zm-284.26-171.15c-.62-.03-1.3-.25-1.84-.07-5.88,2.05-9.28,7.06-8.69,13.22.07.71,2.43,2.03,2.95,1.73,5.19-3.02,8.14-7.69,8.98-13.62.05-.35-.9-.83-1.39-1.26Zm256.06,102.22c2.93-3.04,6.83-6.15,6.89-11.85,0-.55-.48-1.29-.96-1.6-.41-.27-1.26-.28-1.71-.03-4.73,2.57-7.42,6.68-8.54,11.85-.07.34.77,1.03,1.31,1.29.51.25,1.19.16,3,.34Zm-94.13,85.47c-.3-1.51-.3-2.17-.57-2.68-.24-.45-.87-1.11-1.18-1.04-2.83.68-8.04,8.22-7.07,10.39.57,1.28,1.98,1.25,3.1.01,2.1-2.32,4.07-4.74,5.72-6.68Zm-120-126.69c-.36-.66-.67-1.24-.98-1.81-1.86,1.77-3.88,3.4-5.48,5.37-.62.77-.35,2.31-.3,3.5,0,.2,1.16.66,1.46.48,2.89-1.72,4.68-4.27,5.3-7.54Zm94.42,63.14c-2.03,1.57-4.87,2.56-4.45,5.91.07.57.75,1.07,1.14,1.6,2.09-1.57,4.65-2.83,4.55-5.99-.02-.51-.8-1-1.24-1.52Zm-161.05,107.25c-1.35.73-1.8,1.89-.83,3.05.67.81,1.84,1.21,2.79,1.79.3-1.13.93-2.3.82-3.39-.14-1.5-1.34-1.96-2.79-1.44Zm306.2-144.2c-1.17-.35-2.52-1.23-3.46-.91-.91.32-2.07,1.97-1.93,2.84.26,1.59,1.85,1.97,3.18.92.92-.73,1.49-1.88,2.21-2.86Zm-124.03-13.94c-.62-.8-1.21-2.22-1.9-2.28-1.1-.09-2.78.44-3.26,1.27-.4.69.25,2.86.97,3.18,1.9.84,3.38-.28,4.2-2.17Zm7.52,174.56c-.81-.3-1.76-.8-2.77-.96-.38-.06-.88.69-1.33,1.07.78.61,1.5,1.57,2.35,1.7.5.07,1.19-1.2,1.75-1.81Zm4.85-253.53c-.32-.53-.64-1.06-.96-1.6-.44.34-1.15.6-1.26,1.03-.45,1.71.18,2.59,1.53,2.21.36-.1.46-1.07.69-1.64Zm-80.51,127.51l-.56-1.23-.42,1.31.97-.08Zm87.87-31.04c.17-.52.45-1.03.46-1.55,0-.16-.73-.33-1.12-.49-.15.51-.41,1.03-.39,1.53,0,.19.68.34,1.05.51Zm-259.76,121.36l-.9-.62-.15.94,1.05-.32Z"/>
  <path d="m851.53,190.05c5.11-13.69,10.18-27.39,15.39-41.04.72-1.88,2.5-3.14,4.52-1.91.7.43,1.03,2.36.74,3.38-2.11,7.63-4.5,15.19-6.54,22.83-.22.83.98,2.55,1.94,3.02.87.43,2.99.11,3.37-.56,1.62-2.85,2.95-5.89,4.08-8.98,1.03-2.81.67-6.29,5.11-10.23.7,10.9-1.08,19.17-2.26,27.45-.37,2.61-1.7,5.1-1.94,7.7-.28,2.97-1.67,7.1,3.29,7.6,3.08.31,4.27-2.21,4.98-5.03,1.45-5.78,3.01-11.53,4.85-17.19.79-2.44,2.39-4.61,3.73-7.13,5.7,6.85-2.62,13.04.44,19.82,2.5-4.84,4.86-9.41,7.19-13.91,1.49-.68,2.6-.12,2.71,1.67.21,3.29.18,6.61.17,9.91-.02,4.18,1.95,5.97,6.11,5.37,1.97-.28,3.95-.72,5.92-.64,2.31.08,3.34,1.74,2.96,3.92-.53,3.04-2.57,7.23,2.17,7.62,3.13.26,2.01-4.17,2.49-6.57.88-4.42-.48-9.31,2.81-13.19.36-.42,1.15-.68,1.73-.67.62.01,1.78.43,1.78.68,0,5.23-.19,10.46-.24,15.69-.06,6.29-.01,12.58-.01,18.79,6.59-.11,5.76-5.57,8.13-8.38,3.76,3.81,6.9,7.5,3.63,13.48-1.88,3.43-2.58,7.51-3.8,11.3-.49,1.51,0,2.83,1.59,3.14,1.15.22,2.67.05,3.61-.57,1-.66,1.66-1.98,2.21-3.13,2.29-4.79,4.48-9.62,6.7-14.45.79-1.73,1.13-4.12,3.58-4.06,3.66.08,3.22,2.9,3.64,5.57,1.48,9.63,3.57,19.19.68,29-7.29,2-4.7-7-10.47-7.87-8.75,10.71-21.98,17.12-32.59,26.98-8.76,8.13-19.5,13.5-31.01,17.05-1.89.58-3.76,1.25-5.67,1.8-8.43,2.43-14.48,10.28-25.54,7.53-7.78-1.94-16.92,1.93-25.49,2.67-9.36.8-18.37-1.54-27.57-3.14-10.33-1.79-20.56-2.29-29.87-8.13-4.38-2.75-10.43-1.05-15.36-2.12-5.95-1.29-14.35,1.59-17.1-8.11-1.06-3.74-5.41-2.73-8.48-.86-2.78,1.7-4.86,1.26-6.3-1.74-1.96-4.07-2.73-9.93-7.81-10.48-3.46-.38-7.22,2.81-10.95,4.09-42.08,14.45-82.77,32.3-123.55,49.98-12.67,11.02-30.2,13.79-42.64,25.24-3.16,2.9-6.32,1.58-8.48-1.36-6.25-8.53-12.25-17.24-18.76-26.45,13.65-6.46,26.72-12.61,39.77-18.84,24.58-11.73,49.8-21.92,75.26-31.55,8.08-3.06,16.18-6.12,23.18-11.42,1.58-1.19,3.24-2.69,5.07-3.07,22.89-4.87,39.66-21.23,59.61-31.6,2.89-1.5,5.75-3.43,8-5.75,23.07-23.84,51.95-38.18,81.46-52.23,16.42-7.82,33.78-11.79,50.54-18,1.76-.65,3.96-.5,5.87-.18.94.15,2.22,1.44,2.37,2.37.17,1.05-.43,2.87-1.26,3.32-3.99,2.16-10.25,2.23-11.17,7.3-1.39,7.71-4.06,15.57-1.69,23.6,1.12,3.79,2.52,7.49,3.78,11.23-12.91,4.01-11.99,14.36-12.45,25.01,8.14-1.28,15.25-1.86,20.5-7.98-6.41-4.18-11.38-9.03-8.63-17.56Zm65.72,57.69c-1.04,1.89-2.08,3.79-3.12,5.68l-.59.73s.07-1.09.15-1.04c4.29.2,4.06-2.39,3.42-5.28.48.29.96.57,1.43.86l-1.28-.94Zm-83.98-56.11c-1.05-.54-2.11-1.5-3.15-1.47-.77.02-1.52,1.31-2.27,2.04.55.17,1.18.61,1.65.47,1.13-.33,2.17-.92,3.09-1.53-.15-.92,2.65-2.96-.97-2.56.55,1.02,1.1,2.03,1.66,3.05Zm-60.08,67.39c1.53-.46,3.17-.74,4.51-1.52.37-.22-.14-1.95-.24-2.99-.42.41-1,.74-1.24,1.24-.7,1.47-.38,3.83-3.14,3.35-.14,2.38-.14,4.77-.47,7.12-.26,1.83.25,2.43,2,1.61.29-.14.32-1.2.2-1.78-.48-2.36-1.06-4.69-1.61-7.03Zm34.67,14.49c-1.39-1.2-2.67-2.58-4.21-3.52-.94-.58-2.3-.59-3.47-.62-.25,0-.77,1.02-.74,1.54.14,2.09,1.51,3.21,3.47,3.13,1.81-.08,3.61-.66,5.41-1.02-1.69,2.16-1.84,4.6-1.08,7.08.51,1.66.93,3.91,3.5,3.12,1.06-.33,2.19-1.27,2.74-2.25,2.4-4.3.77-6.43-5.62-7.46Zm-30.67-36.4c-2.38-1.42-4.78-2.24-6.07,1.17-.65,1.73-.71,3.68-1.04,5.53,1.08-.1,2.67.2,3.15-.39,1.59-1.96,2.77-4.25,4.1-6.43-.11-1.61-.22-3.21-.32-4.82.06,1.64.12,3.29.18,4.93Zm58.51-63.21c2.23-4.62,4.58-9.19,6.58-13.9.28-.67-.86-2.43-1.76-2.98-.92-.55-2.8-.76-3.51-.19-3.08,2.49-5.2,5.78-5.75,9.78-.53,3.87,3.15,5.28,4.87,7.78l-1.06-.03s.64-.46.64-.46Zm-88.17,32.34c-4.45-1.41-8.2.63-10.02,4.04-3.02,5.66-5.25,11.82-7.15,17.97-1.14,3.71-1.25,9.35,2.23,10.62,4.69,1.71,5.99-3.6,6.92-7.32,2.18-8.67,9.41-15.84,7.6-25.67,2.35-1.27.58,2.11,1.67-.33.17-.38.14-1.25.06-1.26-1.39-.31-1.84.38-1.32,1.96Zm142.83,6.22c1.63,1.04,3.79,1.71,4.8,3.17,4.86,7.02,11.54,12.88,13.39,21.86.62,3.03,4.31,3.32,6.05.94,4.75-6.52,7.29-20.93,3.1-24.02-4.56-3.36-8.64-8.33-15.37-8.26-5.37.05-8.2,3.71-11.43,6.96-2.32,1.02-4.81,1.78-6.95,3.11-8.19,5.07-9.99,11.38-5.86,19.74,2.12,4.3,6.6,5.9,11.47,3.98,1.81-.71,3.57-1.6,5.27-2.55,4.55-2.54,5.33-5.01,2.96-9.35-2.76-5.06-7.44-9.19-7.43-15.57Zm-19.27,33.6c-1.55-8.04-2.46-13.91-3.86-19.66-1.52-6.2-5.6-8.28-11.86-6.19-17.89,5.99-32.12,17.85-46.37,29.55-1.84,1.51-2.65,4.54-3.42,7.03-.57,1.84-.2,4.1,2.32,4.36,3.9.39,7.84.61,11.76.52,18.3-.44,33.68-10.11,51.44-15.6Zm-83.45,15.46c3.14-10.01,5.64-16.64,7.25-23.48,1.62-6.9,3.99-10.96,12.21-12.68,9.65-2.02,10.53-5.3,11.73-16.66-9.02,5.38-19.56,9.16-26.38,16.44-7.2,7.7-3.96,20.15-6.74,30.22-.14.5.34,1.18,1.93,6.16Zm-33.95,5.6c7.05-12.16,9.9-25.55,14.04-38.4.28-.86-.68-2.75-1.54-3.16-.82-.39-2.85.15-3.35.93-7.52,11.75-11.95,24.47-11.39,38.61.02.39.8.75,2.25,2.02Zm112.39-2.98c.56-5.21-2.52-7.22-5.12-6.32-9.19,3.2-12.06,14.81-5.42,21.77,1.71,1.8,4.24,1.41,4.83.03,2.53-5.87,4.47-12,5.71-15.48Zm23.54-3.35c-.77-.35-.2.09.4.15,3.05.29,5.09-1.44,5.63-4.09.54-2.63-2.01-2.79-3.86-3-3.22-.37-6.48-.93-9.69-.77-5.97.29-8.34,3.05-9.34,10.3-.17,1.24-.22,3.14.51,3.74,1.6,1.32,3.54.66,4.93-.81,2.81-2.97,3.5-9.34,11.41-5.5Zm-84.21-56.63c-2.11-1.26-4.31-2.54-6.47-3.87-3.28-2.02-6.08-1.24-8.5,1.46-2.86,3.18-.43,5.92.92,8.64,1.34,2.7,3.59,3.57,6.34,2.1,3.43-1.83,6.78-3.82,7.72-8.33Zm-29.01,14.8c2.34-.26,4.29-.42,6.21-.7,3.87-.56,4.9-3.66,2.24-6.94-1.6-1.97-3.06-4.23-6.16-4.03-4.56.29-6.84,3.38-8.46,7.05-.35.78.27,2.73.99,3.1,1.66.87,3.64,1.12,5.17,1.52Zm.75-30.78c-.19,1.44-.48,2.16-.31,2.73.35,1.17.73,2.94,1.53,3.21.88.3,2.77-.47,3.29-1.33,1.33-2.22,2.3-4.7,3.11-7.17.72-2.17,2.54-5.27-1.65-5.62-1.42-.12-3.45,1.83-4.46,3.34-1.04,1.55-1.19,3.7-1.51,4.83Zm67.71,85.12c-.36-2.24-.46-3.54-.82-4.76-.16-.54-.77-1.14-1.31-1.33-.57-.2-1.71-.18-1.9.15-2.89,5.04-5.47,10.2-3.83,16.28.14.5,1,1.2,1.45,1.15,1.2-.14,3.15-.36,3.4-1.06,1.32-3.68,2.21-7.52,3.01-10.44Zm-32.46-79.65c-2.16-.1-4.87-.02-4.91,2.02-.07,2.98,2.93,4.44,5.47,4.64,1.42.11,4-1.58,4.32-2.88,1.06-4.37-3.18-2.73-4.87-3.78Zm-6.22-8.39c-.7-.8-1.29-2.15-2.13-2.34-2.32-.5-3.69,1.01-3.75,3.17-.03.86,1.13,2.42,1.9,2.53,2.24.29,3.42-1.3,3.99-3.36Zm-40.61,72.84l-.79,1.05,1.04.33-.25-1.37Zm64.68,13.67c-.94-.41-1.84-.96-2.81-1.15-.37-.07-.9.7-1.35,1.09.76.69,1.44,1.64,2.33,1.94.36.12,1.2-1.2,1.83-1.87Zm31.89-87.61l-.89-.64-.14,1.01,1.03-.37Z"/>
  <path d="m621.16,473.93c-1.83,8.45-6.59,16.31-13.44,22.74-1.93,1.82-5.34.5-7.14-1.59-3.88-4.49-7.45-9.24-11.06-13.96-7.27-9.48-15.94-14.99-28.74-12.81-4.98.85-11.02-.46-13.3-6.32-2.42-6.22,2.2-9.93,6.4-13.2,6.32-4.93,12.71-9.24,21.74-7.21,5.05,1.14,10.57.37,15.87.14,15.54-.69,27.67,11.43,29.67,32.21Zm-20.36-22.98c-.75.78-2.33,1.78-2.2,2.41,1.82,8.74,4.58,17.33,3.54,26.49-.04.32,2.11,1.3,3.19,1.24,1.14-.07,2.54-.77,3.27-1.66,6.83-8.39,3.78-23.14-5.82-28.44-.5-.28-1.28-.04-1.98-.04Z"/>
  <path d="m486.92,349.95c-20.86-.43-32.38-14.15-30.39-35.13,1.46-15.37,7.7-27.95,19.17-38.07,2.09-1.85,4.86-3.06,7.28-1.62,2.76,1.64,2.12,4.45.33,6.73-6.46,8.22-4.81,17.54-3.71,26.79.8,6.71,4.66,11.28,11.11,12.36,5.38.9,10.4,2.09,14.71,5.41,6.68,5.15,6.41,12.72.11,18.47-5.5,5.02-11.88,5.32-18.61,5.06Zm-17.79-45.64c-5.86,19.07-5.54,22.54,1.91,33.46,1.57,2.3,3.46,4,6.23,4.5,7.4,1.33,14.61,1.16,20.87-3.67,1.45-1.12,2.94-2.87,3.29-4.56.72-3.53-2.62-4.67-4.89-4.85-14.45-1.15-22.82-9.17-27.41-24.88Z"/>
  <path d="m550.75,618.99c-9.7-.81-16.36-.82-22.8-2.04-7.24-1.37-14.21-2.93-21.57-.49-3.32,1.1-6.44-.95-9.17-2.83-1.87-1.29-2.07-3.55-1.01-5.19,1.02-1.58,2.82-2.77,4.48-3.8,6.32-3.92,11.4-8.92,15.33-15.33,2.02-3.29,5.02-6.13,8.03-8.63,4.52-3.77,8.2-3.79,12.37.22,8.11,7.82,16.08,15.81,23.73,24.08,5,5.4,2.56,11.58-4.74,13.14-2.56.55-5.15.98-4.64.88Zm-13.33-14.47c-2.71-1.64-5.52-3.62-8.71-1.67-1.4.86-3.19,2.91-3,4.17.64,4.36,3.54,1.94,5.48,1.09,2.25-.98,4.27-2.46,6.38-3.73-.1-.45-.2-.89-.3-1.34.05.49.1.98.15,1.48Zm16.72,2.6c-.87-2.91-3.01-4.34-5.86-4.16-3.23.21-4.25,2.73-4.35,5.53-.08,2.18,1.09,3.81,3.33,4.07,3.15.37,6.94-2.77,6.89-5.44Z"/>
  <path d="m65.67,544.21c-.65,1.12-1.07,2.53-2,3.32-4.14,3.5-8.83,5.82-14.38,6.14-4.49.26-7.69-1.72-9.66-5.6-2.19-4.3-.82-10.03,2.79-12.57,7.47-5.23,17.64-3.03,22.35,4.95.62,1.06.62,2.49.91,3.75Zm-15.93.1l-1-.75-.21,1.06,1.22-.3Z"/>
  <path d="m553.43,435c-1.61-.22-4.29-.38-6.86-1-5.43-1.3-8.6-7.62-5.96-12.58,1.5-2.81,3.84-5.44,6.4-7.34,3.61-2.68,7.78-2.09,10.91.99,2.33,2.29,3.97,5.32,5.76,8.12,3.64,5.67,1.47,10.26-5.24,11.22-1.32.19-2.65.31-5.02.59Zm-1.83-7.57c-.49-.17-1.05-.59-1.47-.47-1.68.46-1.74,1.25-.14,1.92.39.16,1.07-.12,1.5-.38.18-.11.08-.7.11-1.07Z"/>
</svg>