<?xml version="1.0" encoding="UTF-8"?>
<svg id="Layer_1" data-name="Layer 1" xmlns="http://www.w3.org/2000/svg" width="602.52" height="960.91" viewBox="0 0 602.52 960.91">
  <path d="m500.53,361.23c4.33-1.99,9.27,2.03,14.15-1.89-3.8-6.2-8.69-11.25-14.89-15.26-2.51-1.62-7.54-2.61-5.53-6.74,2.57-5.27,6.87-1.04,10.26-.13,10.34,2.78,19.94,7.35,29.21,12.64,1.73.99,3.32,2.21,5.07,3.16,17.11,9.28,17.02,9.2,5.41,25.58-5.37,7.58-10.2,15.55-15.4,23.25-3.31,4.9-3.61,9.58-.61,14.89,4.27,7.54,8.36,15.12,14.73,21.21,3.85,3.67,7.54,7.53,11.05,11.52,5.82,6.62,5.95,8.67.18,15.18-10.19,11.49-19,23.91-26.66,37.2-3.17,5.5-4.15,10.86-2.59,17.13,2.41,9.73,4.69,19.46,10.36,27.9,3,4.47,3.1,8.64,0,12.88-5.49,7.5-10.88,15.09-16.66,22.36-6.94,8.73-7.06,8.61-2.42,17.24,5.98,11.12,11.91,22.27,17.81,33.44,1.79,3.38,5.79,6.91,2.95,10.69-3.13,4.16-3.89,10.46-9.34,12.51-16.79,6.31-27.15,21.12-41.4,30.73-7.15,4.82-8.39,10.53-5.99,18.75,3.76,12.94,9.6,24.72,16.63,36.05,1.38,2.22,2.98,4.81.62,7.09-1.25,1.2-3.72,2.26-5.25,1.87-20.61-5.23-41.31-10.34-57.6-25.4-1.25-1.16-1.67-2.3-.5-3.39.9-.84,2.07-1.59,3.25-1.92,3.44-.96,6.01.26,8.9,2.58,11.78,9.49,11.94,9.34,31,12.59.26-7.73-4.12-13.93-6.02-20.72-.9-3.2-1.99-6.34-3.04-9.49-4.38-13.14-4.44-13.2,6.5-22.77,15.42-13.49,30.12-27.81,46.55-40.13,3.26-2.44,3.18-5.42.09-8.27-8.94-8.22-15.7-17.69-17.14-30.18-10.01-11.3-4.51-20.21,4.17-28.94,3.73-3.75,6.8-8.18,10.13-12.33,6.58-8.21,7.2-13.3.72-21.05-5.05-6.03-11.21-9.75-20.07-11.05-14.72-2.16-25.07,1.06-33.88,13.47-5.26,7.4-13.22,13.04-20.48,18.83-9.4,7.5-9.68,7.26-4.8,16.93,2.4,4.75,4.93,9.44,7.67,13.99,13.99,23.2,18.42,26.45,44.69,32.01,6.46,1.37,13.17,1.71,19.03,5.09.78.45,1.23,2.3,1.05,3.38-.17,1.05-1.14,2.31-2.11,2.83-4.56,2.45-9.14.37-13.6-.51-10.42-2.04-20.75-4.51-31.15-6.64-7.37-1.51-13.46.23-20.44,4.17-13.32,7.52-26.54,14.86-37.9,25.24.37,14.71,4.49,28.52,9.92,42.08,2.21,5.53,3.35,11.48,5.39,17.09,1.33,3.65.77,6.4-2.16,8.78-2.58,2.1-5.45,3.92-7.72,6.31-11.33,12.01-19.67,24.98-15.58,42.9,1.28,5.62.07,11.82,0,17.74-8.73-8.41-19.91-9.76-31.17-10.73-4.48-.39-8.15,1.72-8.8,6.17-.94,6.51-1.06,13.17-1.15,19.77-.02,1.75.93,4.13,3.46,4.09,7.97-.11,13.07,5.92,19.54,8.97,6.43,3.03,13.27,3.36,15.7-2.27,2.87-6.65,5.1-7.7,11.16-4.86,4.72,2.21,9.81,4.19,15.25,1.96,0,0,.5.69.5.69l-.9-.23c1.06-4.21-2.65-5.45-4.75-7.74-5.81-6.34-14.8-8.89-19.54-16.48,3.92-.2,7.99.43,11.35-2.14-1.19,1.08-3.07,1.75-1.91,3.82.06.11,1.04-.05,1.07-.2.26-1.17.39-2.37.56-3.57-2.3-1.8-4.1-4.53-1.28-6.4,5.49-3.64,11.36-6.92,17.46-9.37,9.92-3.97,19.46-8.47,28.55-14.14,10.38-6.46,21.54-10.37,34.01-7.11.27,2.42-.48,4.53-2.41,5.13-14.74,4.58-28.53,11-41.15,19.96-2.13,1.51-4.73,2.42-7.2,3.39-16.84,6.63-18.18,9.43-3.23,24.7,4.63,4.73,11.39,7.06,14.56,13.42,1.21,2.42.02,6.99-2.02,6.33-12.25-3.97-23.3,4.84-36.36,1.83,1.91,6.07,6.68,7.21,9.62,10.06,5.72,5.56,4.79,10.32-2.64,13.55-6.32,2.75-12.91,3.52-19.54,2.18-13.11-2.64-24.8,1.12-38.19,7.07,7.19,7.63,13.45,14.18,19.58,20.85,1.32,1.44,2.28,3.57.78,5.26-1.24,1.4-3.11,2.62-4.91,3.03-1.8.41-3.98.05-5.78-.56-7.18-2.46-14.29-2.34-21.63-.63-3.1.72-6.86,1.09-9.7,0-8.7-3.33-17.07-8.07-26.22-1.4-9.03-2.03-18.28-3.46-26.13-8.9-1.04-.72-2.6-2.4-2.36-3.02,5.36-13.58-7.24-16.15-13.56-22.6-.79-.81-1.42-2.7-1-3.53.45-.89,2.18-1.4,3.41-1.57,3.5-.48,6.59.8,9.2,3.01,4.57,3.87,9.65,7.39,13.38,11.97,7.9,9.72,18.86,11.78,30.09,13.65,1.3.22,2.65.4,3.94.27,6.94-.69,20.48.28,24.98,1.3,1.59.36,4.3-.25,5.12-1.41,1.32-1.86-.62-3.62-2.1-4.96-1.47-1.34-3.23-2.42-4.52-3.92-4.5-5.24-13.67-6.1-14.15-15.08,5.91-4.1,12.82-1.28,19.22-2.81,12.86-3.08,25.69-7.11,39.27-5.37.79.1,2.41-1.23,2.52-2.05.14-1.05-.56-2.86-1.42-3.27-3.55-1.73-7.23-3.23-10.97-4.49-8.28-2.78-15.95-6.59-22.64-12.2-.58.44-1.11.74-1.63,1.03.36.01.89.17,1.04,0,.38-.44.59-1.03.87-1.57-1.02,1.7-2.28,3.3-3,5.11-1.8,4.55-5.48,6.58-9.45,4.54-11.19-5.75-22.09-12.07-32.89-18.53-2.75-1.64-4.93-4.52-5.32-8.06-.26-2.36,1.21-3.66,3.41-3.99,3.64-.56,6.28,1.69,9.07,3.44,4.48,2.83,8.76,6.04,13.46,8.42,2.37,1.2,5.6.44,5.84-3.08.59-8.63.55-17.31,1.24-25.93.81-10.16,4.26-13.12,13.96-12.45,3.98.28,7.94.96,11.88,1.67,12.08,2.15,15.38.97,13.77-11.2-1-7.57,1.32-14.31,6.99-19.98,3.74-3.74,5.97-9.11,9.98-12.41,11.06-9.09,9.46-19.49,4.35-30.52-5.64-12.19-9.17-24.9-10.83-38.26-.74-5.94-.2-10.29,5.7-13.24,12.48-6.23,23.06-15.45,35.91-21.45,13.2-6.16,12.92-9.19,4.26-21.32-3.09-4.33-6.81-8.2-10.13-12.36-4.64-5.82-7.77-12.38-9.16-19.73-1.68-8.84-.94-11.59,8.43-14.88,14.84-5.22,23.4-17.17,33.02-28.13,9.51-10.83,9.37-10.87-.14-22.13-2.57-3.04-4.98-6.27-7.08-9.66-7.02-11.31-13.87-22.74-20.79-34.11-1.75-2.88-4.2-6.46-2.61-9.21,2.22-3.85,6.96-2.9,10.91-2.33,2.91.42,5.81,2.46,4.96,5.04-2.82,8.58,2.88,13.8,6.73,19.82,3.58,5.6,7.75,10.88,10.86,16.72,5.82,10.93,16.48,17.11,24.95,25.24,3.97,3.81,12.5,2.86,18.68,4.02,1.07-1.64,2.53-2.92,2.29-3.66-3.03-9.38-3.07-17.24,4.72-25.45,7.6-8.01,12.73-18.37,19.69-28.83-19.79-6.2-40.85-6.49-57.52-19.52,7.34-3.26,13.12.67,18.92,3.67,12.09,6.24,25.16,8.43,38.45,9.68,1.67.16,3.77-1.09,5.21-2.25,1.94-1.57.87-3.61-.34-5.17-9.01-11.53-18.02-23.06-27.16-34.48-2.26-2.82-6.5-1.52-6.82,2.68-.29,3.82-.15,6.78-4.86,6.38-4.77-.41-9.4,0-13.69,1.96-11.04,5.04-22.26,7.87-34.46,4.72-3.56-.92-7.43,4.55-10.92.29-4.04-4.92-1.62-10.19.47-15.03,8.69-20.17,16.55-40.72,27.59-59.82,2.77-4.8,1.98-8.1-3.06-9.19-15.41-3.33-23.92-16.27-35.71-24.59-2.36-1.67-2.58-4.41-1.51-7.19,1.43-3.72,2.15-7.84,4.16-11.2,9.39-15.71,10.7-34.24,18.02-50.66,1.94-4.35-.25-7.78-4.59-9.48-6.17-2.42-12.26-4.88-18.77-6.61-14.68-3.91-16.75-9.06-10.26-23.47,3.26-7.24,7.39-14.09,11.74-22.26-11.74-9.2-25.13-14.04-42.29-12.67,4.5,13.83,7.78,26.73,12.84,38.89,13.92,33.5,23.25,67.84,24.05,104.4.26,11.89,2.38,23.85,4.78,35.54,1.66,8.09.35,15.72.08,23.65-1.03,30.05-7.25,59.46-9.95,89.29-1.67,18.48-6.4,36.65-8.95,55.08-3.19,23-9.69,45.31-12.55,68.46-3.35,27.13-12.22,53.07-25.09,77.41-7.44,14.08-14.28,28.47-24.77,40.79-4.24,4.99-6.72,11.45-10.12,17.18-4.35,7.33-7.6,16.11-18.9,14.6-1.1-.15-2.58.74-3.55,1.55-18.92,15.86-42.51,17.74-65.33,21.64-11.91,2.03-23.59.16-35.4-2.94-12.5-3.27-21.31-10.57-28.37-20.55-3.83-5.41-7.45-11.2-9.9-17.32-15.58-38.85-32.38-77.29-37.45-119.51-1.74-14.47-8.61-27.94-9.37-42.78-1.47-28.57-8.22-56.65-7.66-85.44.15-7.93-1.63-15.89-2.37-23.84-1.5-15.94-1.59-31.88-.33-47.87,1.21-15.27,2.76-30.6,2.52-45.87-.38-24.23,3.2-47.78,8.77-71.19,1.69-7.12,3.04-14.32,4.52-21.49,4.86-23.55,11.55-46.38,24.2-67.2,6.55-10.78,11.12-22.64,18.76-32.92,5.56-7.49,10.17-15.54,18.04-21.1,2.59-1.83,4.56-4.81,6.22-7.61,3.54-5.99,8.66-10.02,14.75-13.03,1.19-.59,2.72-.86,3.56-1.76,13.15-14.1,30.28-14.62,47.85-14.9,17.44-.28,34.99.88,51.41,5.5,24.55,6.91,47.69,17.59,57.68,44.47,1.73,4.65,6.24,5.19,9.39,1.67,2.66-2.96,5.1-6.15,7.37-9.42,5.03-7.21,5.41-8.18-3.63-12.61-6.8-3.34-6.37-11.61-12.67-14.75-.91-.45-1.23-3.89-.56-5.39,3.8-8.57,8.35-16.75,16.37-22.2,2.15-1.46,4.67-2.68,7.19-3.21,2.54-.54,5.67-.45,7.12,2.22.83,1.52,1.05,3.96.44,5.57-2.35,6.22-5.25,12.22-7.73,18.39-2.55,6.37-.72,8.7,5.79,7.6,2.61-.44,5.19-1.5,7.78-1.52,1.74-.01,4.77,1.01,5.02,2.09,1.51,6.43,6.26,5.62,10.9,5.7,7.34.13,14.58.24,21.74-2.15,2.99-1,6.56-.8,9.79-.46,5.19.55,7.56,6.57,4.13,10.39-5.79,6.43-11.92,12.56-17.67,19.02-2.99,3.36-5.88,6.99-5.85,13.33,16.94-6.31,32.83.89,49.15,2.69,4.36.48,10.09.37,11.15,6.36.8,4.53-2.91,7.38-6.24,9.46-7.05,4.4-11.78,10.82-15.93,17.63-7.58,12.44-4.39,15.42,4.81,20.91,19.19,11.43,33.12,28.69,47.85,44.94,5.08,5.6,4.18,9.64-2.35,12.45-11.28,4.84-20.07,12.83-28.9,20.94-3.89,3.57-8.09,6.85-12.33,10.01-2.98,2.23-7.06,2.55-8.97-.49-7.55-12.04-19.9-8.58-30.68-10.36-3.09-.51-5.05.28-6.18,3.21-.97,2.52-2.15,5.38-.28,7.57,7.3,8.57,14.1,17.79,26.43,19.91,4.54.78,8.98,2.41,13.28,4.13,2.62,1.05,3.43,3.88,4.03,6.54l.63-.38c-5.27,4.36-8.52,10.13-11.29,16.22-4.41,9.67-8.74,19.38-13.22,29.02-6.04,13.01-4.95,15.2,9.19,18.3,4.68,1.03,9,.48,13.62-1.02,24.58-8.01,38.65-26.33,48.66-48.75.88-1.98.14-4.14-1.6-5.22-3.36-2.1-6.82-4.26-10.54-5.47-1.78-.58-3.44,2.04-3.1,4,.46,2.68,1.72,5.23,2.95,8.73-8.57-1.79-16.77-1-22.63-7.57l-.42.53Zm-163.22,300.06c1.12-.83,4.1-1.5.23-2.74.07,1.06.13,2.13.16,3.15-2.45.29-4.9.58-7.35.87-9.41,11.76-18.83,23.51-28.24,35.27-4.55,5.68-8.98,11.46-13.66,17.03-2.54,3.02-5.16,6.15-8.31,8.44-3.4,2.46-7.63,2.55-11.08-.17-2.81-2.22-3.51-5.56-2.14-8.96,1.47-3.66,2.83-7.46,4.93-10.77,7.44-11.72,15.07-23.33,22.84-34.84,9.89-14.67,21.87-27.91,29.92-43.84,2.97.11,3.77-1.8,3.98-4.26.37-1.55,1.53-1.64,1.69-.09.25,2.61,1.21-.68-1.07.73-2.44.23-4.42.96-4.24,3.98-3.78-.57-6.12,1.72-8.3,4.24-12.91,14.87-27.72,28.11-37.8,45.41-3.61,6.19-7.88,12.24-14.91,15.36-2.7,1.2-5.08.41-7.41-1.01-2.74-1.66-3.34-4.61-2.19-6.86,4.19-8.2,8.92-16.11,13.39-24.17,3.13-5.65,8.63-10.1,8.85-17.25,1.42-.85,3.19-1.42,4.19-2.62,1.57-1.89,2.95-3.61,5.72-2.98-1.35-3.78,1.69-6.43,2.42-9.72l.14-.77-.18,1.41c-4.51,2.05.03,6.61-2.55,9.2-1.19.31-2.46,1.06-3.54.85-4.27-.85-5.84,1.09-5.81,5.04-10,4.94-14.87,14.55-20.84,23.11-5.31,7.6-10.31,15.42-15.61,23.03-2.31,3.32-5.36,5.95-9.59,6.49-1.9.25-4.12.49-5.22-1.69-.55-1.09-1.2-2.7-.78-3.6,3.61-7.78,6.72-15.94,11.37-23.07,16.99-26.08,34.42-51.87,51.88-77.64,7.06-10.42,14.61-20.49,21.87-30.65-1.27-.16-1.32-.35-.16-.56l-.25,1.06c-11.1,4.3-17.67,13.76-24.55,22.48-18.49,23.45-36.44,47.32-54.61,71.02-1.59,2.08-2.97,4.44-4.94,6.09-2.16,1.81-4.98,1.66-7.41.16-2.78-1.73-3.03-4.73-1.54-6.97,8.07-12.15,14.17-25.52,23.51-36.91,6.3-7.69,11.92-15.97,17.47-24.24,14.06-20.98,27.33-42.48,42.86-62.47,5.68-7.31,10.15-15.57,15.14-23.41,1.52-2.38,1.91-4.86.4-7.36,3.32,1.46,4.44-.41,4.9-3.26,2.65-.11,3.96-1.44,3.76-4.14,1.26-1.71,2.53-3.41,3.79-5.12l.81-.07s-.37.68-.34.74c-1.25,1.65-2.5,3.31-3.75,4.96-2.9-.18-4.29,1.08-3.87,4.05-2.69-.49-4.1.93-4.91,3.27-42.82,38.37-79.9,81.63-110.96,130.03-2.87,4.48-5.71,9.01-8.99,13.18-1.57,2-3.96,3.69-6.34,4.61-1.57.61-3.93,0-5.65-.75-2.05-.89-2.55-3.27-1.82-5.09,1.72-4.32,3.65-8.6,5.94-12.64,25.01-43.97,51.71-86.87,81.8-127.59,29.69-40.17,56.65-82.15,82.18-125.07.99-1.66,1.88-4.15.02-5.3-1.07-.66-4.22.08-5,1.2-7.29,10.42-16.59,19-25.21,28.2-6.83,7.28-12.97,15.05-18.74,23.24-19.57,27.75-37.9,56.28-56.33,84.8-17.37,26.87-32.97,54.58-47.06,83.22-2.01,4.09-3.65,8.79-8.01,11.09-1.51.8-3.93.67-5.64.1-2.08-.69-2.5-3.03-2.08-4.98.41-1.92,1.34-3.76,2.23-5.54,27.45-55.51,58.06-109.25,90.64-161.89,4.48-7.25,10.21-13.9,10.76-22.96.78-.25,1.56-.5,2.35-.75-.36-.05-.89-.29-1.06-.13-.38.35-.59.89-.86,1.35-1.66,1.06-3.6,1.84-4.93,3.22-35.77,37.12-66.57,77.8-89.03,124.46-1.11,2.31-2.58,4.7-4.51,6.26-1.3,1.05-3.74,1.04-5.63.9-2.25-.17-3.15-2.13-3.45-4.15-.72-4.79.57-9.28,2.53-13.55,4.99-10.89,9.62-21.97,15.26-32.52,20.43-38.19,43.9-74.56,67.89-110.58,11.8-17.72,23.77-35.32,35.75-52.92,5.53-8.12,10.32-16.54,13.91-26.49-8.89,2.26-12.31,9.36-17.45,14.17-41.52,38.83-76.89,82.75-107.98,130.35-8.43,12.91-15.47,26.35-22.4,39.97-2.12,4.17-3.97,8.61-8.14,11.08-1.5.89-4.2,1.12-5.65.34-1.37-.73-2.51-3.17-2.54-4.88-.1-6.22,2.91-11.49,5.94-16.71,12.02-20.7,23.6-41.67,36.14-62.05,13.59-22.1,27.07-44.39,42.46-65.23,13.88-18.79,25.77-38.76,38.6-58.16,1.27-1.91,3.8-4.14.84-7.2-16.88,13.05-31.18,28.99-44.61,45.03-22.14,26.43-43.3,53.95-59.43,84.79-1.2,2.3-2.86,4.47-4.73,6.26-2.12,2.04-4.94,1.81-7.44.58-3.09-1.53-2.96-4.41-1.53-6.74,7.32-11.91,14.45-23.97,22.42-35.43,18.61-26.77,38.81-52.37,57.33-79.28,15.2-22.1,26.36-46.18,40.25-68.82,3.01-4.91,1.33-8.81-.32-13.16.58.09,1.18.14,1.74.3.29.08.51.38.77.58-.8-.33-1.6-.66-2.4-.99.17,6.34-5.33,8.85-8.83,12.48-20.31,21.02-41.67,41.05-59.78,64.14-14.37,18.32-28.71,36.62-40.11,57.05-4.85,8.7-10.47,16.97-15.93,25.32-.99,1.52-2.87,3.32-4.9,1.48-1.34-1.21-3.03-3.26-2.85-4.73,1.05-8.58,2.82-17.01,6.68-24.9,11.11-22.72,21.91-45.63,37.02-66.09,11.46-15.52,23.48-30.64,34.71-46.32,6.6-9.22,12.84-18.62,21.29-26.33,1.73-1.58,4.3-3.5,1.92-6.67-4.18.27-7.43,2.69-10.33,5.25-9.96,8.82-20.12,17.47-29.43,26.94-13.02,13.24-26.77,25.81-36.55,42.05-4.74,7.87-10.48,16.26-17.92,21.07-6.58,4.25-8.99,8.2-9.7,15.39-.99,9.91-3.12,19.72-4.96,29.53-3.56,19.01-5.33,38.16-5.64,57.52-.27,16.71,1.49,33.13,3.47,49.68,2.92,24.39,4.11,48.98,6.23,73.47,2.13,24.54,4.21,49.09,6.9,73.58,1.3,11.83,2.86,23.82,6.19,35.19,5.98,20.43,13.5,40.39,20.14,60.63,5.43,16.56,12.79,32.35,23.14,46.16,7.11,9.49,13.15,20.15,27.41,23.51,29.3,6.91,54.95-1.69,80.24-14.33,2.89-1.44,5.01-4.35,7.63-6.41,17.19-13.47,26.89-32.73,38.81-50.26.57-.83-.14-2.53-.26-3.83,2.64,0,4.13-.92,1.32-2.88-.85-.59-1.96,1.38-1.26,2.94-3.9-.86-6.13,1.73-8.2,4.23-10.51,12.67-22.71,23.99-31.15,38.3-2.76,4.68-6.08,8.6-10.6,11.46-2.54,1.61-4.95.65-7.2-1.07-2.32-1.76-3.71-4.32-2.95-6.82.93-3.07,2.88-5.9,4.69-8.63,10.94-16.47,21.88-32.94,33.04-49.27,2.67-3.91,2.48-7.21-.04-10.58,2.72,1.88,5.1,1.9,6.88-1.28Zm-61.91-42.27c2.41.76,4.56.41,6.32-1.53,11.63-11.75,23.16-23.6,34.93-35.21,5.18-5.11,10.74-9.83,16.31-14.53,1.99-1.68,4.6-2.88,6.96-.47,2.13,2.16,1.94,4.99.65,7.35-4.13,7.55-8.68,14.81-14.75,21.07-5.88,6.08-12.26,12.02-12.89,21.34-2.81-.84-3.9.99-4.82,3.1-1.14,1.49-2.33,2.94-3.4,4.48-1.03,1.49-.78,2.49.59,2.55.56.03,1.38-.28,1.69-.72,1.5-2.08,3.11-4.24.77-6.7,3.4,1.93,4.86.64,4.93-2.97,9.46-1.89,15.41-9.6,23.34-14.06,4.02-2.26,7.63-5.24,11.67-7.44,2.29-1.25,5.21-1.65,7.14.96,1.24,1.67,1.08,3.67-.13,5.43-9.35,13.6-16.77,28.58-28.4,40.52-13.05,13.4-20.66,30.56-31.84,45.23-1.08,1.41-.98,3.72-1.43,5.61-2.5-.48-3.93,1.27-5.51,2.68-.44,1.13-.93,2.24-1.26,3.4-.05.19.81.87.88.82,2.02-1.51.57-3.05.09-4.49,3.07,1.5,5.05.89,5.43-2.81,6.64-.87,10.22-6.07,13.42-10.78,11.71-17.25,28.73-29.13,43.2-43.56,3.64-3.63,8.65-5.97,13.21-8.58,1.63-.93,3.84-.97,5.4.77,1.53,1.7,1.33,3.78.24,5.37-8.16,12.03-16.45,23.97-24.54,36.05.36.76-2.64,2.9.96,2.32-.55-.92-1.11-1.84-1.66-2.76,1.2.43,2.73,1.57,3.57,1.19,13.86-6.26,24.24-15.68,29.07-30.75,6.51-20.33,18.67-68.34,20.5-89.14,3.45-39.13,14.62-76.96,18.22-116.13,1.94-21.08,3.43-42.25,5.84-63.32.52-4.56-.16-9.29-.61-13.91-1.1-11.25-2.35-22.48-3.62-33.71-2.24-19.8-3.46-39.76-9.45-58.95-.73-2.35-1.08-6.86-3.99-5.94-7.28,2.31-7.57-2.91-8.88-7.01-3.43-10.75-6.32-21.68-9.97-32.35-6.49-18.97-16.81-36.19-26.8-53.34-7.97-13.67-17.72-27.12-32.81-34.07-23.65-10.91-48.13-14.59-73.32-4.74-4.89,1.91-9.36,5.24-15.03,4.83.33,2.99-1.7,4.75-3.38,6.6.76.99.59,1.09-.51.31l.91-.56c1.06-2.14,2.12-4.28,3.18-6.42,2.39,1.11,4.79,2.21,7.18,3.33,5.63,2.64,7.19,5.62,4.53,10.56-2.81,5.24-6.21,10.18-9.64,15.06-5.35,7.61-10.85,15.11-16.44,22.55-10.34,13.77-20.79,27.45-31.12,41.13l.73.78-.45-1.09c4.19,3.29,7.34.95,10.36-1.95,17.28-16.57,36.19-31.09,55.95-44.54,4.37-2.97,8.54-6.62,14.2-6.55,1.79.02,4.26.93,5.16,2.27.87,1.29.88,4.28-.06,5.48-8.17,10.39-16.55,20.62-25.04,30.76-22.08,26.36-43.51,53.2-62.24,82.1-2.17,3.35-4.64,6.51-4.09,10.86-4.76,1.72-3.03,6.07-3.75,9.3-.37-.05-.74-.1-1.11-.15.29-.13.79-.42.83-.36,1.6,2.13.81-1.37-.53.94,1.59-3.29,5.32-5.7,4.15-10.12,4.75.08,6.63-3.7,9-6.77,23.2-30.08,49.64-57.21,76.38-84.08,9.38-9.43,18.67-18.94,28.02-28.4,2.35-2.38,4.79-4.53,8.36-4.97,2.13-.26,5.76,2.68,5.23,4.65-2.09,7.76-5.86,14.68-10.11,21.49-14.07,22.52-27.9,45.18-41.67,67.88-1.88,3.1-5.26,6.01-2.76,11.76,8.91-8.43,17.42-16.52,25.97-24.56,7.26-6.83,14.58-13.6,21.88-20.4,2.07-1.92,4.61-3.17,7.11-1.57,2.7,1.72,2.25,4.41.66,6.9-1.43,2.24-2.77,4.54-4.25,6.75-16.29,24.28-32.41,48.69-48.98,72.78-8.27,12.01-14.41,25.51-25.02,35.92-2.04,2-1.95,4.79-.93,7.43-6.7,4.16-7.33,5.84-5.41,13.96-2.98-1.09-5.93-1.17-8.77.21l.86.9-.52-1.34c2.87.11,5.73.23,8.6.34-1.58-5.88,5.04-9.01,4.84-14.42,7.92-1.69,11.62-8.53,16.15-13.95,27.79-33.24,59.15-62.78,92.38-90.43,1.48-1.23,3.28-2.56,5.08-2.81,1.69-.24,3.76.59,5.27,1.55.72.46,1,2.51.64,3.53-.65,1.82-1.82,3.51-2.99,5.09-8.26,11.18-16.85,22.12-24.78,33.52-7.94,11.43-14.63,23.76-22.93,34.9-23.81,31.98-43.76,66.47-65.93,99.5-1.89,2.81-3.62,5.55-2.96,9.14-7.8,4.14-8.41,10.5-5.58,17.88-1.48.36-1.73.14-.74-.68.13.39.26.79.38,1.18-.45-3.96,1.56-7.08,3.54-10.18,1.67-2.63,3.23-5.25,1.98-8.53,2.09.67,3.91.04,5.28-1.49,6.19-6.88,12.2-13.92,18.44-20.75,21.42-23.42,42.52-47.14,64.56-69.96,9.17-9.5,19.53-17.77,26.74-29.12,1.65-2.59,4.74-4.8,7.65-5.85,2.07-.75,4.95.73,7.47,1.22-.46,1.82-.39,4.04-1.45,5.39-11.79,15.09-23.76,30.03-35.65,45.03-3.68,4.64-7.44,9.23-10.78,14.11-1.71,2.49.45,5.04,1.23,7.5-2.82.38-5.64.76-8.39,1.12l.57.97-.2-1.43c2.67-.21,5.34-.42,8.02-.63-.64-3.72,1.33-6.51,3.78-8.7,9.39-8.43,17.88-17.66,26.34-27.02,8.42-9.31,18.23-17.38,27.64-25.76,2.53-2.26,6.11-3.12,9.14-.88,3.72,2.75,1.4,5.7-.37,8.53-11.25,17.94-23.18,35.51-33.53,53.95-15.93,28.39-34.99,54.71-53.8,81.06-18.1,25.37-35.04,51.45-52.43,77.26-1.89,2.8-3.02,5.9-.77,9.06-6.78-3.64-7.68,3.48-10.99,5.98,1.35-.04,1.5.19.42.69,0-.43-.02-.85-.03-1.28,5.25,1.35,7.5-2.67,10.28-5.75,3.32-3.23,7.05-6.14,9.91-9.75,30.3-38.24,66.7-70.45,102.16-103.59,4.84-4.52,10.1-8.59,15.26-12.76,1.9-1.54,3.81-.48,5.42.71,1.76,1.29,2.55,3.11,1.06,5.07-15.65,20.64-30.56,41.9-47.27,61.65-13.85,16.36-23.67,35.36-37.02,51.93-1.89,2.35-1.39,4.95-.15,7.39l-1.06-.55.5,1.09c.63-1.16,1.06-2.51,1.93-3.46,21.81-24.16,46.3-45.6,69.66-68.19,1.84-1.78,4.18-3.16,6.51-4.27.76-.36,2.54.43,3.26,1.24.78.87,1.25,2.4,1.14,3.58-.12,1.22-.94,2.49-1.75,3.49-15.36,19.09-30.75,38.16-46.19,57.19-2.07,2.56-4.9,4.57-6.65,7.31-10.02,15.66-20.55,30.92-32.1,45.5-2.76,3.49-6.18,7.27-4.09,12.5-2.42.56-4.83,1.12-7.17,1.64.14.26.29.53.43.79,0-.43-.02-.86-.02-1.28Zm-74.46-453.98c-2.31-1.06-3.56.42-4.43,2.11-.47.91-.33,2.14-.46,3.22,1.08-.16,2.42.03,3.17-.56,1.55-1.21,2.31-2.96,1.48-5.01,2.93.25,4.24-1.11,3.99-4.02q11.73-6.06,15.05-14.36c-3.78,6.11-12.44,6.97-14.8,14.61-3.09-.43-4.43.9-4,4Zm224.75,62.75c5.12,2.29,8.03,3.8,11.09,4.93,8.68,3.22,17.47,6.17,26.12,9.48,3.11,1.19,6.6,3.37,5.57,7.14-2.06,7.55.94,10.68,7.86,13.04,9.37,3.2,18.35,7.57,27.43,11.61,1.92.85,5.5,1.24,3.32,5.05-1.46-.3-2.76-.41-3.95-.84-6.85-2.49-13.64-5.15-20.51-7.58-4.36-1.54-8.76-3.08-13.27-4.06-5.9-1.28-10.03.5-10.59,5.93-1,9.8-8.57,17.83-6.99,28.14,7.58,4.89,16.93,2.27,24.82,5.84.61.27,1.2.57,1.8.86,5.61,2.66,10.55.57,14.79-2.8,8.3-6.6,16.35-13.52,24.35-20.49,3.16-2.75,2.34-5.76-.48-8.42-3.86-3.63-8.38-6.78-11.45-10.99-8.82-12.11-20.15-20.93-33.17-27.98-12.36-6.69-13.93-6.47-6.42-21.36.3-.59.75-1.1,1.07-1.68,6.94-12.52,6.24-13.52-6.83-16.08-11.29-2.21-19.4.89-24.62,11.29-2.96,5.91-6.12,11.71-9.94,18.97Zm-203.48-64.96c-19.36,14.69-34.71,32.98-46.66,53.13-11.25,18.97-24.3,38.01-25.99,61.68,4.66-.33,6.67-2.95,8.21-5.77,4.11-7.59,8.41-15.12,11.87-23.01,6.71-15.31,15.04-29.58,25.3-42.77,8.17-10.5,16.21-21.1,24.09-31.82,2.17-2.95,6.09-5.58,3.19-11.43Zm177.61,8.81c6.61,1.96,12.25,3.8,17.99,5.24,1.78.44,4.63.54,5.65-.5,7.55-7.79,16.64-14.58,19.79-25.88-7.7-2.92-15.62-.53-21.95-5.25-1.94-1.45-4.11-.3-5.34,1.1-6.5,7.4-11.97,15.48-16.14,25.31Zm73.79,22.35c1.12-.23,3.71-.53,6.13-1.38.92-.32,1.92-1.86,1.96-2.87.04-1-.94-2.77-1.75-2.96-5.74-1.31-11.52-2.69-17.36-3.26-3.78-.37-7.92,0-10.6,3.6-1.77,2.37,2.7,4.97,10.33,5.86,3.26.38,6.54.59,11.3,1.01Zm-12.85,225.62c-.15-.45-.18-1.12-.49-1.29-.5-.28-1.4-.53-1.75-.27-1.42,1.02-1.15,1.96.64,2.26.48.08,1.07-.45,1.6-.7Z"/>
  <path d="m220.5,873.07c-3.29-9.49-5.51-10.74-11.05-4.76-9.35,10.09-20.53,16.31-34.41,19.14-14.21-15.85-17.85-33.35-6.82-52.5,4.34-7.54,4.94-14.05.89-22.01-4.47-8.79-8.12-18.08-8.55-28.34-.13-3.07-2.1-6.22-3.75-9.03-1.49-2.55-4.38-3.4-6.8-1.67-6.98,5-13.78,10.26-20.51,15.6-2.13,1.69-4.16,3.56-6.95,2.5-3.88-1.48-3.74-5.07-3.43-8.36,1.26-13.18,2.64-26.34,3.98-39.51.28-4.46.56-8.91.85-13.47-6.23-3.34-12.14-3.06-19.81.02,8.02,3.92,17.47,3.6,18.98,13.5-11.2-3.99-23.39-4.02-34.36-9.34-10.32-5-11.19-5.44-5-15.98,9.09-15.47,15.55-32.48,27.16-46.5,2.09-2.52.94-5.5-1.94-6.26-7.15-1.88-13.98-4.23-20.12-8.46-6.46-4.45-6.93-6.95-1.63-12.4,8.83-9.08,18.04-17.71,28.34-25.19,5.4-3.92,5.18-7.68-.51-10.37-8.48-4.02-16.66-8.36-23.39-15.05-2.86-2.84-3.02-5.8-.19-8.61,4.72-4.68,9.8-9,14.33-13.85,4-4.28,4.82-9.37,1.77-14.72-2.64-4.62-5.16-9.32-7.92-13.87-5.13-8.47-5.18-8.43,1.17-16.79.79-1.04,1.36-2.24,2.07-3.41-.92-4.3-5.04-5.6-7.78-8.21-3.81-3.63-9.33-6.02-10.69-11.52-1.59-6.43,4.72-8.95,7.98-12.71,4.79-5.52,4.61-10.64.72-16.24-4.65-6.69-6.87-14.31-8.51-22.16-.73-3.5-.34-6.85,2.86-8.84,5.5-3.42,4.74-6.77,1.03-11.17-4.4-5.22-10.2-8.47-15.48-12.49-5.6-4.26-5.39-7.37.54-12.26,2.42-2,5.91-2.78,4.89-7.38-3.81-17.14,3.67-32.47,7.89-50.07-.93-4.1-6.65-5.75-10.42-9.19-8.06-7.37-8.03-9.03,1.65-13,5.58-2.29,10.89-4.6,14.98-9.45,8.87-10.49,16.25-21.14,9.26-35.67-.27-.57-.15-1.32-.27-1.97-1.17-6.45-4.32-13.31-3.06-19.24,1.64-7.72,11.52-4.5,16.89-8.19,3.68-2.53,5.68-5.72,4.88-10.06-1.56-8.51-3.27-17.01-5.28-25.42-1.11-4.66.14-7.53,4.46-9.6,4.08-1.96,9.01-2.53,11.95-7,.13-6.55-5.87-9.98-8.33-15.27-1.55-3.34-.81-7.78,2.18-8.5,12.91-3.12,25.12-8.98,38.55-9.97,1.1-.08,3.26,1.02,3.26,1.58,0,1.8-.17,4.31-1.33,5.29-4.17,3.49-9.36,4.88-14.67,5.81-4.65.81-8.85,2.5-11.96,6.94,2.57,5.2,5.36,10.48,7.77,15.92,1.26,2.84-.23,5.04-2.86,6.45-.58.32-1.16.66-1.74.98-4.62,2.52-11.45,1.02-14.33,6.11-3.58,6.34.75,12.83,1.57,19.26.34,2.63,1.04,5.23,1.78,7.79,1.67,5.82.3,10.48-4.87,13.87-2.78,1.82-5.34,4.17-8.35,5.43-5.51,2.3-6.28,6.25-5.07,11.33.16.65.24,1.31.37,1.96,1.75,8.97,3.5,17.94,5.26,26.9-5.99,7.13-11.98,14.27-17.97,21.4-.86,1.02-1.8,1.98-2.57,3.06-2.58,3.61-8.59,5.36-7.39,10.89.88,4.08,5.58,5.38,8.67,7.84,3.04,2.43,2.83,4.85.46,8.33-9.29,13.63-14.11,28.31-7.85,44.78,1.54,4.05,1.52,7.79-2.04,10.89-2.98,2.59-3.43,5.36-.62,8.42,3.15,3.43,6.26,6.9,9.36,10.37,3.06,3.43,7.94,5.78,8.52,10.73.68,5.86-5.13,6.81-8.51,9.71-3.44,2.95-2.69,7.57-1.06,11.14,1.9,4.17,4.98,7.8,7.48,11.71,4.43,6.95,4.74,13.62-1.25,19.99-2.67,2.84-6.44,4.96-6.84,10.35,4.85,5.63,11.38,10.11,17.8,14.79,4.1,2.98,4.27,6.27,1.03,10.2-1.26,1.52-2.9,2.76-4.46,4-3.17,2.53-3.2,5.61-1.47,8.84,1.89,3.52,3.77,7.08,6.07,10.33,7.44,10.45,5.54,19.76-2.69,28.8-3.02,3.32-7.58,5.67-8.18,11.64,9.3,6.88,20.92,10.97,29.75,19.81-.15,6.7-6.23,9.45-10.3,13.33-7.69,7.33-16.02,14-23.98,21.07-1.96,1.74-1.19,5.79,1.12,6.66,5.59,2.11,11.44,3.66,16.81,6.22,7.58,3.62,9.07,9.35,3.96,16.23-8.36,11.27-15.64,23.18-22.49,35.38-1.27,2.27-3.26,4.3-2.47,7.27.19.64.2,1.44.61,1.87.41.42,1.21.6,1.85.65,11.19.87,22.39,1.81,33.59,2.5,6.6.41,8.13,2.43,4.58,8.35-6.75,11.26-6.5,24.09-8.85,36.32-.73,3.81,2.7,5.58,6.66,3.79,2.42-1.09,4.7-2.51,7.1-3.65,13.45-6.41,23.07-2.29,27.36,12.12,1.9,6.36,3.04,12.97,4.27,19.51,1.28,6.75,4.56,9.9,11.99,10.5,6.98.56,8.67,6.14,3.63,11.06-8.98,8.77-13.8,19.37-16.19,31.37-.37,1.86-.56,3.76,1.37,5.05,3.7-1.05,4.55-4.46,6.18-7.32,5.59-9.84,11.05-19.76,17.08-29.33,5.05-8.01,8.47-8.42,15.94-2.54,5.21,4.1,9.99,8.74,15.09,12.98,4.93,4.08,10.03,7.95,15.24,12.06,4.31-5.74,3.44-11.18,4.23-16.25.61-3.91,1.19-7.91,2.51-11.61,1.69-4.72,7.07-7.07,11.47-5.08,4.22,1.9,8.07,4.64,12.22,6.73,11.25,5.65,22.66,10.98,33.82,16.79,3.53,1.84,11.6-3.45,10.39,4.33-.96,6.18-9.87,7.95-16.72,4.52-11.88-5.94-24.52-10.34-35.62-17.91-3.55-2.42-6.51-.78-7.26,3.31-.36,1.96-.52,3.95-.75,5.94-.37,3.31-1,6.62-1.02,9.94-.04,5.63-.51,11.1-7.09,12.62-6.2,1.43-11.51-.11-15.9-5.53-5.44-6.7-11.66-12.77-17.67-18.99-2.25-2.33-4.49-4.92-8.77-4.86-2.11,6.59,3.74,10.83,5.42,16.11,2.38,7.45,7.66,13.92,10.69,21.22,2.43,5.85,4.54,7.93,11.49,5.81,6.4-1.95,12.99,1.78,18.77,5.21,5.15,3.06,10.03,6.57,15.11,9.76,2.19,1.37,4.25,3.25,7.26,2.49,2.32-.59,4.89-3.73,6.96-.91,1.87,2.54,2.94,5.96,3.43,9.14.46,2.99-1.77,4.6-4.85,4.89-8.1.76-13.66-4.32-19.71-8.38-4.47-3-6.75-9.98-14.08-7.86-1.06,6.09,4.37,9.31,6.31,14.08,1.25,3.07,3.14,5.88,4.34,8.96.36.93-.28,2.69-1.06,3.51-.76.8-2.79,1.59-3.38,1.16-8.04-5.79-16.94-10.4-23.78-17.85-4.02-4.38-8.66-8.21-13.12-12.18-2.56-2.27-9-1.46-6.89-7.04.63-1.66,5.96-1.55,9.14-2.24.12.55.12,1.18.4,1.63.15.24,1.13.27,1.14.23.31-1.14-.36-1.64-1.94-1.47Zm-17.79-33.98c-6.19,3.18-7.35,7.3-8.68,10.7-2.88,7.35-9.86,13.69-6.48,22.83,8.53-.98,12.64-8.75,19.34-12.6,3.3-1.9,3.57-5.24,2.04-8.53-1.86-4.01-3.95-7.91-6.21-12.39Z"/>
  <path d="m327.19,68.37c-3.47,4.61-4.65,8.27-3.1,12.34,1.13,2.97,4.35,5.41,2.63,9.09-2.29,4.91-5.48,9.08-10.47,11.64-4.1,2.11-10.57-1.4-10.13-5.91.63-6.43,1.91-12.79,2.93-19.27-6.83-.82-8.64,4.39-11.98,7.08-3.08,2.48-5.32,5.98-8.32,8.58-9.89,8.57-24.97,4.34-28.87-8.21-1.89-6.08-2.9-12.43-4.52-19.64-7.14,4.62-10.2,10-11.63,16.86-1.63,7.8-3.6,15.58-6.14,23.13-3.4,10.11-9.77,12.73-20.07,10.61-11.73-2.42-19.32-10.45-26.7-18.65-4.17,2.8-2.63,6.33-2.73,9.37-.17,5.3.2,10.63-.06,15.93-.2,3.95-.6,8.24-5.27,9.76-2.92.96-6.32-4.2-6.29-10.46.07-12.64.35-25.28.94-37.9.25-5.28,5.79-7.91,10.24-4.99,3.29,2.16,6.35,4.82,9.03,7.71,3.16,3.4,5.46,7.61,8.73,10.88,4.62,4.62,9.47,10.81,16.84,8.17,5.53-1.98,4.89-8.87,6.28-13.86.71-2.56,1.38-5.21,1.47-7.84.36-10.72,4.99-18.53,13.65-25.14,6.2-4.73,10.53-11.85,15.95-17.66,3.17-3.4,7.56-1.86,9.01,2.69,2.67,8.37,2.38,17.07,3.07,25.66.37,4.59.93,9.22,2.05,13.67.44,1.74,2.95,2.92,4.92,1.81,2.24-1.26,4.18-3.1,6.17-4.78,9.15-7.69,18.13-15.6,27.46-23.06,5.25-4.2,8.82-4.16,14.37-.1,4.67,3.42,10.5,5.75,11.81,12.68,1.26,6.69,7.59,8.89,12.52,12.05,4.32,2.77,8.76,2.78,12.58-1.39,4.03-4.4,7.75-9.14,13.23-11.94,3.44-1.76,8.98,1.32,8.83,5.22-.12,3.23-.41,6.77-1.82,9.58-6.54,13.05-13.34,25.93-16.88,40.27-.75,3.02-2.8,6.41-7.2,4.53-3.36-1.44-5.51-4.24-4.72-7.83,1-4.5,2.89-8.8,4.4-13.2-3.42-2.75-4.57.69-6.32,2.15-2.03,1.68-3.68,4.02-5.95,5.15-1.42.7-4.17.31-5.42-.71-1.2-.98-2.04-3.59-1.65-5.14,1.54-6.06,6.59-9.81,10.33-14.43,3.32-4.09,2.24-7.32-2.72-9.07-1.25-.44-2.81-1.66-3.69-1.28-6.78,2.91-9.56-.84-11.82-6.35-.99-2.41-2.81-4.48-4.98-7.81Z"/>
  <path d="m488.28,352.82c4.46,2.25,10.9,1.63,12.25,8.41,0,0,.42-.53.42-.53-5.99.13-9.42-3.47-12.04-8.26l-.63.38Z"/>
</svg>