<?xml version="1.0" encoding="UTF-8"?>
<svg id="Layer_1" data-name="Layer 1" xmlns="http://www.w3.org/2000/svg" width="644.08" height="820.62" viewBox="0 0 644.08 820.62">
  <path d="m277.19,554.77c-1.17,10.56-2.16,21.14-3.57,31.67-1.25,9.32,1.31,17.21,8.26,23.38,11.26,9.99,21.04,22.19,37.04,25.45,1.08.22,1.98,3.11,2.22,4.85.12.85-1.38,2.63-2.35,2.8-3.88.67-7.83,1.05-11.77,1.22-10.22.45-19.69,2.5-27.31,10.17-6.81,6.85-15.44,7.7-24.17,5.03-11.12-3.4-22.27-3-33.6-2.18-6.6.47-13.26.14-19.89.18-14.54.08-25.36-6.45-33.12-18.53-3.93-6.12-7.98-12.17-12.15-18.51,4.7-6.63,8.94-13.27,13.86-19.36,4.97-6.15,9.66-12.99,18.01-15.15,5.39-1.39,7.75-4.82,7.56-10.12-.28-7.95,1.38-15.72,3.14-23.53-11.36-.55-11.66-1.1-21,3.93-11.66,6.28-23.16,5.43-34.59.66-7.32-3.05-14.1-7.39-21.08-11.23-6.35-3.49-9.53-9.1-10.15-16.17-.41-4.63-.82-9.29-.72-13.93.29-14.05,3.42-18.68,17.09-23.31,6.87-2.33,14.15-4.01,21.36-4.65,21.96-1.95,31.87-17.15,38.87-35.08,2.35-6,2.35-13.02,2.81-19.62.26-3.77,1.2-8.57-2.62-10.98-4.47-2.81-7.19,1.47-9.87,4.16-2.9,2.9-6.19,4.82-10.05,6.21-4.98,1.8-10.64,3.17-14.42,6.52-9.53,8.43-19.89,7.31-31.51,6.89-15.49-.56-26.48-8.22-36.91-17.46-10.32-9.14-16.16-21.75-16.9-35.14-1.02-18.36,5.3-35.39,16.4-50.08,6.97-9.23,12-19.14,13.97-30.37.86-4.9,3.91-8.34,5.57-12.59,2.4-6.11,6.85-9.51,12.8-11.62,15.3-5.41,39.05-6.38,50.83,10.05,6.53,9.11,15.58,16.38,21.49,26.17,1.77,2.94,3.81,6.65.23,8.67-3.13,1.77-6.01-1.51-8.05-4.12-2.04-2.62-3.74-5.49-5.69-8.19-3.5-4.86-7.27-9.53-10.57-14.51-8.58-12.97-20.84-15.73-34.94-12.36-12.59,3.01-21.79,9.59-21.61,25.3,5.12,1.25,7.95-3.79,12.08-4.54,4.86-.88,9.2.84,13.67,2.04,21.49,5.79,21.33,5.92,34.76,23.76,9.31,12.37,15.17,26.47,21.66,40.31,2.7,5.75,4.21,12.77,12.85,13.09,1.9.07,3.05,3.29,2.07,4.8-8.58,13.21-6.85,28.06-7.24,42.6-.18,6.63-.24,13.22-2.34,19.73-6.79,21.05-20.47,33.56-42.84,36.02-4.59.5-9.24,1.32-13.62,2.73-7.84,2.52-14.75,6.55-16.25,15.64-1.89,11.4.97,21.39,10.97,27.91,11.3,7.36,23.84,8.17,36.4,3.83,9.42-3.26,18.38-7.66,26.85-13.09,9.51-6.1,19.21-11.93,29.05-17.48,17.54-9.89,31.93-6.02,42.33,11.34,4.41,7.35,6.62,16.05,14.06,21.49,4.3,3.15,8.55,7.77,14.1,5.42,7.25-3.07,14.46-6.81,15.18-16.61.94-12.95-.88-24.03-15.03-29.09-1.72-.62-3.08-2.34-4.47-3.7-.37-.37-.53-1.53-.24-1.89.73-.91,1.88-2.33,2.66-2.21,13.29,2.07,24.01,7.52,27.48,21.93.62,2.58,1.59,5.2,1.57,7.79-.18,17.38.51,22.48-14.13,29.57-14.4,6.98-21.87,6-35.3-6.07,1.22,1.4.14,2.1-.23,1.04-.87-2.44-1.03.73,1.07-.92Zm-197.55-162.9c.02,20.61,13.93,39.58,33.25,44.85,3.09.84,7.38,1.53,9.74.08,7.25-4.47,15.41-3.45,23.07-5.09,14.12-3.03,25.44-10.09,36.07-19.79,8.16-7.45,8.46-18.78,3.8-27.06-4.89-8.69-8.95-17.74-13.22-26.73-4.81-10.12-10.21-20.19-19.64-27.24-10.9-8.15-23.94-8.59-34.89-.52-5.89,4.34-11.64,8.9-17.13,13.72-14.39,12.62-20.29,29.1-21.05,47.78Zm170.8,200.16c11.15.11,11.2.12,12.89-11.14,1.17-7.81,3.84-15.54.72-23.55-1.48-3.82,5.19-6,2.26-10.66-3.88-6.17-7.03-12.79-10.78-19.05-3.29-5.49-7.33-6.75-13.62-4.45-12.63,4.6-23.23,12.95-33.51,20.97-7.07,5.52-1.94,16.52-4.36,24.75-.93,3.16-1.68,6.51-1.67,9.77,0,2.47.58,6.27,2.19,7.17,9.93,5.57,18.77,16.01,32.29,8.13,4.05-2.36,8.88-2.63,13.6-1.94Zm-75.87,35.52c8.55,16.15,14.74,20.83,28.66,21.32,5.23.18,10.72.02,15.72-1.37,9.27-2.57,18.3-1.91,27.41.05,3.84.83,7.55,2.33,11.41,3,6.19,1.09,21.33-7.45,20.46-12.47-1.35-7.74-9.42-5.24-14.87-6.04-5.79-.84-11.5-3.21-17.57-1.13-12.7,4.35-24.78,1.86-36.42-3.91-4.29-2.13-8.85-3.78-13.34-2.03-6.79,2.65-14.02,1.94-21.46,2.57Zm106.59-1.46c.18-3.74-2.23-5.27-3.93-7.22-3.97-4.53-9.54-7.21-13.79-11.14-6.79-6.27-12.96-8.33-21.23-3.49-7.47,4.37-15.17,3.58-22.68-.39-2.34-1.24-4.78-2.28-7.2-3.35-17.23-7.66-19.44-7.17-32.26,7.14-.88.98-1.83,1.98-2.4,3.14-.54,1.11-.95,2.48-.81,3.67.28,2.36,2.35,3.34,4.25,2.98,14.15-2.66,27.51-.16,40.48,5.6,3.75,1.67,8.06,2.39,11.64.8,11.18-4.98,22-2.29,33.02.26,4.86,1.12,9.92,1.37,14.92,2.02Z"/>
  <path d="m560.92,283.68c1.08,14.53-.76,27-3.91,39.32-1.48,5.8-3.73,11.51-4.38,17.39-2.56,23.12-15,41.14-30.41,57-6.69,6.89-11.29,13.3-8.22,22.42,3.96,11.76-1.64,19.23-9.9,25.7-7.85,6.15-15.71,12.45-24.29,17.46-15.11,8.82-25.03,21.3-30.09,37.86-5.21,17.03-1.95,32.73,7.46,47.47,3.57,5.58,7.42,11.02,10.5,16.87,2.83,5.38,6.41,9.93,10.59,14.32,6.42,6.73,12.52,13.83,18.05,21.31,7.21,9.74,15.17,18.5,25.63,24.82,1.11.67,2.07,1.67,2.92,2.67,1.42,1.68,1.28,3.54.28,5.42-1.14,2.14-3.39,2.81-5.06,1.93-8.24-4.33-16.38-8.97-22.34-16.35-15.87-19.64-33.12-38.19-46.74-59.64-6.14-9.67-10.92-19.71-13.51-30.84-2.29-9.88-3.24-19.68.46-29.49,1.17-3.09,2.12-6.36,2.53-9.62.95-7.68,4.48-13.53,10.28-18.72,7.94-7.11,15.54-14.54,24.92-19.84,3.47-1.96,6.82-4.18,10.08-6.48,15.53-10.95,18.07-17.58,13.68-35.53-1.42-5.81-2.75-11.66-4.58-17.34-1.63-5.05-3.06-10.47-6.04-14.71-10.8-15.35-18.33-15.63-29.92-3.03-8.85,9.61-13.13,21.45-17.64,33.27-1.02,2.67-2.64,4.55-5.84,3.85-3.04-.66-5.65-4.93-4.34-7.82,4.94-10.89,9.9-21.79,15.37-32.42,1.76-3.43,4.69-6.58,7.77-8.96,13.86-10.67,30.5-7.44,41.14,8.45,4.39,6.56,7.12,14.23,10.62,21.38,2.37,4.84,6.11,5.4,8.86,1.29,23.14-34.62,36.04-72.38,35.48-114.39-.23-16.97-3.42-33.46-11.26-48.22-12.44-23.44-24.15-47.24-39.76-69.08-11.21-15.68-25.08-27.33-40.54-37.74-20.11-13.54-43.08-20.67-65.89-27.87-6.22-1.96-13.16-2.12-19.79-2.25-29.92-.58-59.67.75-88.38,10.38-4.98,1.67-9.75,4.27-14.24,7.04-4.56,2.82-8.92,5.65-14.46,6.26-10.38,1.14-18.87,6.9-26.51,13.13-8.79,7.17-18.01,13.35-27.52,19.5-11,7.12-20.18,17.19-29.71,26.43-14.29,13.85-29.23,27.2-38.54,45.33-1.2,2.34-3.13,4.63-6.1,4.5-1.84-.08-4.15-.71-5.32-1.97-1.1-1.18-1.98-4.31-1.26-5.2,10.04-12.36,19.39-25.52,30.85-36.44,20.66-19.69,40.61-40.45,65.99-54.52,16.64-17.69,41.33-20.43,60.88-32.72,18.22-3.08,35.17-12.23,54.56-10.09,10.47,1.15,20.91-2.36,31.76-1.66,44.05,2.82,82.41,19.82,117.02,45.92,14.36,10.83,26.08,24.6,35.17,40.37,6.96,12.1,14.06,24.12,21.15,36.14,14.47,24.53,23.95,50.47,22.51,77.72Z"/>
  <path d="m323.98,452.58c9.57,1.26,22.14-2.39,34.11-8.88,1.6-.87,3.99-1.65,5.34.62,1.66,2.79.39,4.97-2.15,6.48-3.99,2.38-7.82,6.15-12.08,6.73-19.61,2.71-39.21,7.49-59.23,2.94-3.47-.79-6.83-2.14-8.09-5.18-3.57-8.57-11.59-12.7-17.8-18.49-6.25-5.82-8.84-12.58-10.77-20.66-4.77-19.99-.16-39.62.89-59.38.49-9.25,6.24-15.91,12.56-22.04,2.78-2.69,3.1-5.63.98-8.86-1.09-1.66-2.2-3.31-3.24-5-2.91-4.71-1.67-9.44,1.61-12.88,5.47-5.74,11.29-11.36,17.77-15.87,8.84-6.16,19.91-5.54,28.96-2.68,27.36,8.67,50.09,24.09,62.79,51.22.95,2.02.67,3.9-1.17,5.17-2.61,1.8-5.4,1.02-7.07-1.12-2.41-3.09-4.03-6.78-6.17-10.1-11.62-17.94-27.56-30.41-48.21-35.97-15.97-4.3-30.76,3.49-35.57,17.5-1.1,3.21,1.12,7.07,4.53,7.33,3.97.31,7.98.27,11.97.26,15.35-.04,28.66,5.3,40.14,15.31,5.02,4.38,9.86,8.95,14.69,13.53,6.96,6.59,11.67,14.69,13.83,23.9,1.96,8.39,3.05,17.01,4.05,25.59,1.29,11.13-2.58,20.98-9.03,29.75-7.23,9.84-18.63,9.71-28.97,9.91-8.08.15-15.87.17-23.21,3.68-1.61.77-3.28,2.66-2.26,4.93.43.95,1.72,2.08,2.67,2.12,4.64.22,9.29.1,18.12.1Zm-61.64-61.42c.12,10.83,1.86,21.29,5.03,31.47,3.06,9.83,12.69,17.9,19.75,16.13,14.19-3.56,28.34-6.46,43.13-5.67,3.79.2,7.76-1.59,11.53-2.82,4.58-1.5,8.12-4.63,10.51-8.72,8.45-14.45,5.31-47.49-6.2-60.45-6.15-6.92-12.69-13.83-20.18-19.15-26.56-18.84-54.9-6.34-59.31,21.74-1.44,9.16-2.84,18.32-4.26,27.47Z"/>
  <path d="m253.26,741.25c-11.42-.05-22.27-2.83-33.19-5.73-12.2-3.25-21.46-10.26-27.88-20.75-5.47-8.95-13.18-16.69-15.69-27.32-.62-2.61-.44-5.58,2.85-6.18,1.66-.3,4.41.35,5.27,1.57,2.65,3.72,5.03,7.75,6.81,11.97,11.22,26.64,33.03,36.16,59.99,37.69,5.18.29,10.63-1.4,15.47,1.62.94.59,1.71,2.12,1.77,3.25.05.94-.97,2.69-1.68,2.78-4.55.57-9.14.78-13.72,1.11Z"/>
  <path d="m125.59,468.94c-3.13.24-9.49-.83-15.76-3.5-6.59-2.81-13.62-4.62-20.19-7.46-2.33-1.01-3.55-4.26-1.89-6.71.83-1.22,3.42-1.84,5.14-1.71,1.83.14,3.7,1.28,5.33,2.33,23.02,14.86,45.42,8.77,67.64-2.03,4.14-2.01,7.91-4.81,12.12-6.61,1.27-.54,4.26.6,4.98,1.84.7,1.19.11,4.1-.97,5.23-11.66,12.17-26.85,16.12-42.9,17.86-3.28.36-6.61.39-13.49.76Z"/>
  <path d="m124.84,376.48c.78,8.05-.47,15.78-3,23.46-1.34,4.09-4.1,6.65-7.04,9.35-3.4,3.13-7.05,3.37-10.91,1.23-3.81-2.1-6.04-5.56-5.48-9.8.51-3.83,1.2-8.39,3.57-11.07,5.66-6.41,5.45-13.13,3.49-20.51-1.78-6.7-.75-13.15,2.09-19.38,1.81-3.99,6.73-4.63,9.9-1.41,3.37,3.44,5.48,7.42,5.91,12.25.47,5.29.98,10.58,1.47,15.88Z"/>
  <path d="m306.53,380.84c-.96,9.99-1.64,17.24-2.35,24.47-.34,3.51-1.52,6.53-5.46,7.2-3.35.57-6.67.15-9.45-1.97-1.02-.77-1.97-1.96-2.38-3.15-3.75-11.18-4.97-23.07-9.96-34.01-1.27-2.79,1.21-7.63,2.67-11.25,3.31-8.22,9.16-9.2,15.15-2.77,6.43,6.9,11,14.75,11.76,21.49Z"/>
</svg>