<?xml version="1.0" encoding="UTF-8"?>
<svg id="Layer_1" data-name="Layer 1" xmlns="http://www.w3.org/2000/svg" width="893.65" height="909.83" viewBox="0 0 893.65 909.83">
  <path d="m533.12,600.35c-5.4.36-10.83,1.26-16.18.9-3.88-.26-6.89.86-9.81,2.85-1.77,1.21-3.74,2.55-4.75,4.33-1.54,2.72,1.9,3.26,3,4.82,1.9,2.69,2.68,5.86,4.48,8.67,6.05,9.47,12.66,18.52,19.4,27.48.29.38.6.82.69,1.27,1.38,6.89,7.26,11.52,9.46,17.61,3.2,8.87,10.95,14.98,12.68,24.84,1.02,5.78,3.83,11.87,7.46,17.13.9,1.31.12,3.66.67,5.35,1.41,4.33,4.04,8.3,7.22,11.2,6.72,6.13,13.03,12.51,19.13,19.29,6.03,6.71,12.78,13.28,21.92,16.62,3.75,1.37,6.88,4.67,10.53,6.83,2.41,1.42,4.77,1.9,7.18,2.68,8.73,2.84,16.31,7.94,24.17,12.41,3.62,2.06,6.26,2.64,9.17-.63,1.48-1.67,3.73-3.1,5.6-1.93,2,1.25.6,3.51-.16,5.39-1.47,3.65,2.94,5.85,8.51,5.84,7.66,0,13.51-4.58,20.24-6.8,4.55-1.5,6.33,1.72,9.08,3.34.76.45.88,2.33.01,3.23-.84.87-1.9,1.83-3.48.89-2.05-1.22-3.19-.45-4.86,1.43-2.91,3.27-7.68,3.24-11.62,4.71-10.07,3.76-18.91-2.46-28.23-4.09-4.54-.79-9.49-3.51-13.92-6.33-3.1-1.98-7.52-1.88-11.34-2.77-9.59-2.23-19.17-4.48-28.74-6.78-1.26-.3-2.31-.47-2.91.92-.57,1.33-.06,1.91,1.28,2.6,3.58,1.86,7.73,3.03,8.25,8.43.15,1.59,3.26,3.6,5.35,4.14,4.08,1.06,6.96,3.97,10.56,5.7.68.33,1.59,1.14,1.6,1.75.13,5.52,4.03,5.31,7.42,4.39,5.38-1.46,8.08,3.34,12.26,4.64,1.69.52,1.93,3.22-.99,4.35-3.71,1.44-7.09-.8-10.74-.48-8.8.78-16.04-3.74-23.29-7.8-1.46-.82-2.83-.74-4.27-.88-5.87-.57-11.84-.34-17.02-4.14-2.13-1.57-5.11.36-8.11-1.53,1.25,4.82,1.44,8.45-2.56,11.1-1.46.97-.69,3.09-.79,4.71-.09,1.39,3.84,1.16,1.31,3.63-2.74,2.68-4.32,6.8-8.94,7.02-2.99.15-6.02.44-8.97.12-7.76-.85-14.46,1.24-20.29,6.39-1.23,1.09-3.2,1.43-4.13.42-1.54-1.68-4.04-2.92-3.63-6.02.4-3.09.06-5.94-1.46-9.04-1.6-3.26-3.13-3.19-5.22-1.54-2.18,1.73-4.37,2.65-7.17,2.84-5.8.39-7.15,5.8-9.75,9.57-1.04,1.51-1.54,2.8-3.6,2.46-2.19-.36-4.36-.73-4.93-3.39-.1-.47-.03-.99-.03-1.48.02-9.57.09-9.36,9.23-12.66,7.01-2.53,13.85-5.57,20.67-8.6,1.66-.74,3.18-2.54,2.61-4.43-.61-2.02-.91-4.49-3.76-5.3-7.06-2.02-13.84-3.39-21.12-.05-4.33,1.98.45,4.93-1.99,6.87-5.05-5.91-11.25-5.01-17.74-2.57-2.64.99-5.38,1.59-8.29.76-4.96-1.41-8.6,2.46-12.96,3.46-4.44,1.02-8.84,2.13-12-2.77-.55-.86-2.01-1.69-2.99-1.62-9.7.64-19.19,1.88-25.38,10.84-3.18,4.61-6.8,5.64-11.33,3.81-2.39-.97-2.99-2.87-1.36-4.11,4.7-3.56,8.44-8.09,13.4-11.58,5.54-3.89,10.5-3.84,16.09-3.68,2.8.08,6.25-.53,7.52-1.76,2.7-2.61,5.93,1.6,8.31-1.93,5.06-7.5,13.32-11.7,19.86-17.72,3.05-2.8,5.01-6.42,6.47-9.71,2.07-4.66,5.24-4.4,8.78-4.47,5.66-.11,9.64-4.78,8.18-10.38-.89-3.43-1.11-6.87-1.44-10.34-.63-6.56-5.21-11.65-6.74-17.93-.32-1.3-1.03-2.7-1.2-4.13-.34-2.82-.35-5.3-4.33-6.04-3.22-.6-4.52-4.93-5.03-7.23-1.04-4.69-3.3-8.2-6.6-11.03-4.85-4.15-4.9-10.65-8.38-15.46-2.59-3.58-7.17-5.58-8.13-10.41-1.63-8.25-5.44-15.8-9.41-22.92-4.55-8.15-5.59-17.09-8.26-25.63-1.08-3.46-4.01-4.95-5.46-7.95-4.59-9.52-6.72-19.75-9.79-29.72-1.8-5.85-4.75-11.35-7.34-16.93-1.91-4.11-1.76-8.64-3-12.9-.98-3.33-2.05-6.01-5.2-8.25-3.67-2.61-6.08-6.81-9.32-10.1-3.03-3.08-6.62-5.43-10.05-7.56-3.93-2.44-6.51-4.77-6.74-9.44-.03-.61-1.02-1.26-1.68-1.73-5.18-3.68-8.92-8.82-13.47-13.13-3.33-3.16-7.72-4.55-11.47-7.02-4.02-2.64-8.23-4.71-12.01-7.99-3.16-2.74-7.11-5.64-11.59-6.84-7.6-2.02-13.92-5.63-18.65-12.33-3.82-5.41-10.07-8.4-15.25-12.46-3.49-2.74-7.27-5.07-8.12-9.99-.63-3.62-3.65-6.47-5.95-8.22-6.75-5.13-9.14-13.11-14.32-19.06-5.67-6.52-10.25-13.75-15.25-20.71-1.03-1.44-2.67-1.48-3.43.57-1.24,3.33-3.29,2.59-4.58.49-1.2-1.95-2.65-2.49-4.62-3.19-2.66-.93-5.22-2.02-4.67-6.29.41-3.16-2.68-5.26-5.79-6.31-7.22-2.43-13.88-6.36-18.94-11.66-3.8-3.98-6.8-9.35-11.42-12.07-6.78-3.99-10.33-12.41-19.39-13.29-4.27-.41-8.13.42-11.28,2.46-3.5,2.28-7.39,3.25-10.79,2.6-6.64-1.27-11.84,1.19-17.04,4.33-5.25,3.17-10.85,5.15-16.94,5.82-3.03.33-15.39,6.55-18.26,7.86-4.47,2.04-8.41,4.76-12.5,7.37-4.43,2.83-8.89,5.47-14.19,6.94-3.53.98-7.03.46-10.55,1.29-4.36,1.02-7.8-7.07-4.95-11.07,5.32-7.47,8.99-16.02,15.11-22.97.99-1.13,1.46-3.06,1.48-4.64.09-6.37,4.69-9.48,8.83-13.07,5.2-4.5,9.97-9.53,15.37-13.77,7.04-5.54,12.33-12.32,17.47-19.58,3.46-4.88,9.4-7.88,14.76-11.01,7-4.09,13.88-8.21,18.86-15.05,2.9-3.98,6.85-7.33,10.76-10.41,4.95-3.9,9.01-8.6,13.31-13.11,4.12-4.32,8.2-8.76,13.16-12.12,2.24-1.52,3-4.74,5.58-5.28,5.37-1.13,5.49-5.79,7.77-9.3,2.28-3.51,3.94-7.66,7.6-10.56,3.1-2.46,1.54-6.75,1.35-10.37-6.28,1.57-7.45.71-6.98-5.4,1.01-12.92,5.99-24.23,13.52-34.71,3.43-4.77,5.83-10.3,8.45-15.61,4.07-8.22,6.9-17.07,11.04-25.17,4.07-7.97,10.13-14.93,15.48-22.23,1.45-1.98,1.37-5.56,5.75-4.84,3.92.65,4.54,3.75,6.54,6.03,5.28,6.01,5.31,13.42,6.55,20.59.26,1.52-.82,2.38-.99,3.7-1.35,10.81,3.64,19.64,9.36,27.86,1.65,2.37,6.1,3.91,10.01,2.23,6.66-2.86,13.71-4.82,19.62-9.4,2.83-2.19,6.75-1.18,10.14-1.99,2.7-.65,5.66-.57,8.46-.31,3.68.35,6.6.89,6.48-4.63-.09-3.92,4.37-5.98,5.89-9.51.41-.96,3.15-1.16,2.04-3.06-.9-1.54-2.99-2.74-4.68-2.12-6.98,2.56-6.67-1.37-7.31-6.54-.83-6.63-1.73-13.01-.1-19.62.74-3.02,2.57-5.37,4.12-7.74,4.48-6.83,7.69-14.08,10.12-21.88,1.6-5.13,5.97-8.76,9.76-12.57,4.45-4.47,9.5-7.5,15.97-7.27,2.25.08,2.65-1.73,3.71-2.83,3.33-3.43,7.04-3.12,9.12,1,.5.99,1.11,2.07,2.07,1.75,4.24-1.43,9.61,2.69,13.07-2.77.68-1.07,2.43-1.58,3.28.14,5.25,10.54,15.11,11.02,24.8,10.75,3.8-.11,7.97-.3,11.7-1.98,1.22-.55,2.21-.1,3.55.6,9.06,4.71,16.25,12.75,26.52,15.22,3.62.87,6.83,2.18,9.99,4.22,2.25,1.45,3.83,2.91,4.5,5.45.48,1.81,1.47,3.25,3.2,4.21,4.06,2.26,5.52,6.1,6.59,10.4,1.34,5.36,4.58,9.96,6.36,15.26,3.02,9.02,4.27,18.19,2.49,27.29-1.83,9.37-3.02,18.81-4.61,28.19-.87,5.17-.75,10.54-1.87,15.64-1.47,6.73-1.81,13.83-4.86,20.08-1.6,3.26-2.44,6.53-2.63,9.97-.18,3.31-.24,6.59-.76,9.9-1.11,7.13-.36,8.04,7.03,10.57,6.72,2.3,12.95,1.69,19.35-1.87,3.6-2.01,7.95-3.35,12.46-2.84,8.01.92,15.66.16,23.59-2.19,6.18-1.83,13.11-4.45,19.96-1.02,10.83,5.42,23.51,6.16,33.66,13.4,1.73,1.23,3.23,1.04,4.99-1.62,2.66-4.01,2.65-8.47,4.09-12.62.7-2.02,1.59-3.3,3.61-4.25,12.05-5.64,24.55-6.31,37.45-4.05,2.55.45,3.54,2.68,5.39,3.88,8.4,5.45,18.02,9.16,25.15,16.45,7.94,8.13,11.8,17.99,11.24,29.39-.43,8.79-1.32,17.68-4.65,25.77-2.25,5.47-4.63,11.28-11.79,13.81-4.47,1.58-8.84,5.8-11.85,9.59-3.62,4.56-8.43,4.78-12.75,6.23-6.73,2.26-7.94,3.18-8.36,10.04-.5,8.27,1.32,15.84,5.01,23.2,1.3,2.59,2.7,3.84,5.54,3.96,12.7.52,24.57-2.41,35.99-7.89,3.44-1.65,7.13-2.8,10.64-4.4,7.99-3.64,14.96-10.41,25.33-8.38,5.35,1.05,11.62-1.39,16.61,1.75,6.78,4.26,14.6,3.11,21.78,5.22,3.33.98,5.4,3.37,7.91,4.85,3.45,2.04,6.71,2.9,10.39,3.38,9.38,1.23,17.03,6.32,24.26,11.75,2.91,2.18,5.77,3.29,8.96,3.3,5.1.02,6.87,3.17,8.03,7.2.82,2.84-.62,4.23-3.33,3.97-2.28-.22-5.12-.26-6.66-1.6-4.16-3.58-9.6-3.3-14.13-5.57-2.89-1.45-5.06-3.82-7.92-5.4-3.16-1.74-6.25-2.89-9.73-3.4-6.85-1.01-12.92-3.86-18.47-7.95-.91-.67-2.15-1.59-3.09-1.44-8.75,1.39-15.68-5.4-23.73-5.44-5.42-.02-11.04-.78-16.47.49-2.67.62-3.82,3.32-5.92,4.84-4.53,3.28-9.56,4.04-14.57,5.66-7.22,2.33-14.58,4.3-21.72,6.99-5.81,2.19-12.73,2.11-19.25,1.82-3.12-.14-5.76.3-8.58,2.49-3.22,2.5-5.2-1.55-6.66-3.65-2.38-3.43-3.9-7.37-4.26-11.7-.36-4.35-2.71-8.11-4.02-12.19-2.18-6.81-1.91-13.83-1.85-20.81.05-5.17,5.37-6.65,8.39-7.76,7.87-2.88,13.71-8.47,20.25-13.05,2.73-1.91,5.82-3.22,8.47-5.56,5.09-4.49,8.38-9.19,10.31-15.86,1.99-6.88,3.07-13.53,2.85-20.64-.31-9.84-6.95-14.94-13.67-20.5-6.43-5.32-14.39-7.94-20.87-13.03-1.28-1-2.73-1.07-4.26-1.07-6.88-.03-13.35,2.26-19.96,3.69-1.86.4-3.71,1.76-4.8,4.36-1.95,4.67-4.37,9.14-5.25,14.2-.45,2.6-1.74,3.4-4.51,3.26-7.89-.39-14.39-4.36-21.23-7.52-.13-.06-.19-.33-.32-.37-11.27-2.99-21.54-10.43-34.21-7.23-10.06,2.54-20.17,4.62-30.75,3.91-4.47-.3-8.91,1.64-13.16,3.6-4.8,2.21-10.26,2.35-14.9.27-3.71-1.66-7.43-2.91-11.29-3.33-7.41-.82-10.61-6.28-10.31-11.58.53-9.61-.32-19.71,3-28.66,5.47-14.74,5.6-30.33,9.28-45.26,1.84-7.46,4.46-14.68,4.59-22.48.04-2.13,1.03-4.43-1.95-5.38-2.49-.79-3.02,1.13-4.46,2.56-3.78,3.75-7.28,7.71-10.82,11.66-1.92,2.14-2.9,4.52-3.23,7-.3,2.25-.25,4.16-3.12,3.76-2.6-.37-6.6.53-6.61-3.52-.02-5.14-2.72-6.94-7.03-7.81-1.24-.25-1.75-1.35-2.17-2.52-2.16-5.99-4.68-11.87-6.5-17.95-1.95-6.5-6.26-9.07-11.83-5.65-7.44,4.56-15.95,5.65-23.86,8.54-6.76,2.47-13.69,4.66-18.96,11.37-3.26,4.14-3.2,9.44-7.02,12.83-.61.54-.75,2.61-.22,3.29,3.37,4.36,2.06,10.8,6.62,14.59,1.35,1.12.82,2.85-.09,3.54-2,1.53-3.97,3.94-7.01,2.55-7.58-3.47-15.76-5.93-21.58-12.43-.81-.91-2.1-1.25-2.61-.72-2.85,3.02-5.09,2.73-7.43-.61-.68-.98-2.11-.41-3.28-.15-3.12.69-6.25.54-9.36-.25-7.93-2.01-15.91-.89-23.62.73-4.67.98-9.19,3.67-13.23,6.41-7.15,4.85-17.95,4.63-24.8-.45-2.76-2.05-6.71-5.65-9.76.3-.19.38-.74.72-1.17.8-1.7.32-4.25-.1-3.94,2.52.37,3.17,3.2,1.93,5.21,2.12,8.49.78,15.85,2.98,21.88,10.22,5.02,6.03,11.93,10.93,16.56,17.11,5.3,7.07,12.75,12.51,16.31,20.87.35.83.69,1.52,1.71,1.46,1.04-.06,2.2-.31,2.31-1.47.24-2.6,1.68-5.07,1-7.72-.41-1.6-1.51-3.85.32-4.35,2.06-.56,4.86.12,5.83,2.63.67,1.74,1.29,3.22,2.79,4.49,1.14.97,1.1,2.43.16,4.04-3.45,5.95-3.58,11.93-.11,18.1,1.38,2.46.14,5.05-2.22,6.42-2.11,1.23-4.51.31-5.49-1.67-.99-2-2.39-2.9-4.18-3.87-3.4-1.84-5.68-4.68-7.07-8.43-3.85-10.38-10.25-18.9-18.38-26.49-4.24-3.96-8.41-8.18-11.96-13.06-3.78-5.18-9.42-9.15-16.52-8.86-2.79.11-5.3-2.7-7.58-1.28-2.57,1.6.11,5.25-1.14,7.34-3.99,6.68-2.03,15.2-6.95,21.52-.27.35-.42,1.01-.3,1.43,1.47,5.27-.76,10.45-.28,15.72.69,7.64,5.9,12.42,10.77,17.21,5.24,5.16,11.17,9.62,17.59,13.33,4.93,2.85,9.46,6.19,13.33,10.4,3.27,3.55,5.68,2.56,7.29-1.86.67,1.67,2.01,2.45,2.92,3.56.8.98,1.98,2.42.68,3.97-1,1.19-3.82,2.27-2.41,3.65,1.71,1.67,2.84,3.91,4.98,5.2,6.83,4.12,13.66,8.24,20.37,12.54,2.29,1.47,3.21,4.22,2.35,6.58-.93,2.56-3.97,2.48-6.06,1.87-9.23-2.7-16.06.79-21.81,7.71-.66.79-1.3,1.47-1.37,2.54-.19,2.81-.96,5.14-4.52,4.17-2.91-.8-6.77-.89-5.26-5.84.74-2.43-1.01-4.28-2.69-2.86-2.69,2.28-6.44,2.2-8.81,5.24-2.15,2.76-6.38,2.42-9.48,4-.87.45-1.96.48-2.83.92-4.97,2.54-8.01,1.48-10.18-3.7-.96-2.29-1.42-4.95-2.91-6.8-1.35-1.67-4.14-1.84-5.01-4.55-.29-.89-1.12-1.76-1.4-2.94-1.68-7.06-6.41-10.37-13.53-12.36-4.5-1.26-8.69-.06-13.04-.55-6.23-.7-10.65-3.93-15.56-7.05-5.11-3.25-8.89-7.05-11.09-12.83-1.46-3.84-.94-7.98-3.03-11.79-1.68-3.06-1.95-2.96-4.2-.66-4.41,4.5-9.36,8.46-13.87,12.87-3.45,3.37-6.58,7.08-9.94,10.56-4.84,5.01-10.74,8.74-15.39,13.9-6.85,7.58-16.33,11.73-24.08,18.18-2.21,1.84-4.15,3.95-5.66,6.16-4.65,6.79-10.87,11.73-17.15,16.81-8.56,6.92-15.75,15.03-19.44,25.81-.95,2.78-3.2,5.43-5.27,7.35-2.87,2.65-2.77,7.19-6.52,8.99-.22.11-.32,1.06-.11,1.35.6.83,1.41.59,2.17.09,4.51-2.93,9.67-4.96,14.01-7.83,9.81-6.47,19.79-11.68,31.55-13.13,5.1-.63,8.67-4.6,13.44-6.32,5.08-1.84,10.1-3.37,15.24-3.17,6.05.23,10.59-3.36,15.96-4.71,5.81-1.46,11.36-1.61,17.04.77,3.04,1.27,3.48,4.41,5.83,6.28,6.91,5.52,13.62,11.42,19.55,17.95,2.38,2.63,5.59,4.38,7.46,7.49.56.93,1.6,1.78,2.61,2.18,7.54,3.03,14.4,6.97,20.11,12.95,1.99,2.08,4.83,3.03,8.25,2,4.34-1.3,8.96-.6,13.23.7,8.13,2.47,16.93,2.39,24.58,6.74,1.78,1.01,4.06.36,6.21-.6,4.71-2.09,9.55-3.42,14.96-2.47,8.96,1.58,17.01-1.43,24.45-6.22,2.81-1.81,5.73-2.99,8.85-1.57,2.88,1.31,5.92.64,8.91,1.57,7.47,2.32,8.41,9.17,10.77,14.7,1.71,4.01,2.62,8.5,4.05,12.73.75,2.22,1.8,4.33,4.16,4.31,2.72-.03,6.22.1,7.59-2.79,3.69-7.78,11.33-11.69,16.69-17.8,3.5-3.98,7.83-7.55,10.21-12.12,3.84-7.38,9.75-12.07,16.23-16.7,3.93-2.8,7-6.26,12.62-5.49,5.14.7,9.01,5.52,6.29,10.03-2.38,3.93-1.82,7.76-2.02,11.71-.27,5.31.25,10.64-.78,15.93-.94,4.82,3.98,3.84,5.46,3.87,3.83.1,8-.43,11.6-1.6,8.14-2.63,16.8-1.71,24.85-4.46,2.46-.84,5.03-1.07,6.62-3.66,1.8-2.94,5.09-1.33,7.31-1.21,7.29.4,14.18-1.7,21.09-3.02,4.49-.86,9.08-.63,13.45-1.07,3.88-.39,8.84,2.45,12.98,4.84,4.49,2.6,7.32,6.09,7.3,12.63,2.57-3.25,2.49-5.92,2.99-8.3,1.64-7.78,7.31-11.47,13.26-16.06,6.84-5.28,12.07-3.19,18.42-.93,4.1,1.46,5.61,5.46,8.86,7.7,8.42,5.79,16.48,12.15,25.14,17.54,13.43,8.37,28.54,9.96,44.03,9.62,4-.09,3.93-1.93,3.18-4.74-1.45-5.41-1.53-10.63.9-15.95,1.29-2.82,2.91-2.88,5.11-2.02,7.5,2.96,15.28,5.41,22.29,9.27,4.16,2.29,8.06,5.52,11.97,8.48.85.65,1.79,1.88,3.05,1.13,1.29-.76.6-2.19.39-3.2-.55-2.61.19-4.78,2.42-5.93,1.8-.93,3.67-.67,5.25,1.32,1.54,1.94,4.04,1.08,6.13.84,3.48-.41,6.82-.51,10.18.94,2.48,1.07,3.3,3.22,3.02,5.16-.4,2.72-2.65,1.31-4.4,1.08-6.38-.82-12.76,1.44-19.17.1-.61-.13-1.33.39-1.37,1.17-.03.72.44,1.22,1.17,1.38,9.87,2.26,17.27,9.4,26.23,13.59,6.36,2.98,12.07,1.37,18.03,2.07,2.62.31,3.77-3.15,6.51-2.9.05,0,.37-1.15.24-1.23-3.65-2.21-3.03-6.96-6.61-9.87-4.69-3.81-9.17-8.62-11.89-14.43-1.26-2.71-.83-5.17,2.48-5.69,3.11-.49,4.52-3.49,7.71-4.08,5.89-1.09,11.45-2.73,15.66,3.54,1.41,2.1,3.04.69,4.61-.55,3.27-2.57,5.86-5.84,9.32-8.26,4.83-3.38,9.11-5.05,13.3,1.01-1.98,1.05-3.32,2.78-3.36,5.33-.02,1.22-.46,2.17-1.85,2.61-4.11,1.3-6.82,4.15-8.65,8-1.23,2.58-3.85,2.83-6.26,3.03-4.42.36-8.53-.5-11.99-3.56-2.33-2.06-4.52-1.72-6.37.72-2.11,2.77.17,4.93,1.91,5.61,5,1.94,7.46,5.34,9.03,10.32.88,2.81,3.1,5.31,5.22,7.67,2.92,3.25,1.46,8.64-2.67,9.22-5.75.82-10.66,4.36-16.67,4.32-7.36-.04-14.43,0-21.34-3.7-4.07-2.18-8.85-3.86-12.27-6.6-3.6-2.88-7.71-4.7-11.29-7.42-3.38-2.57-7.7-3.17-11.22-5.82-4.73-3.56-9.16-7.92-15.93-8.3-2.14-.12-3.78-3.58-6.92-3.99-2.38-.31-3.35.1-2.76,2.32.8,2.97.97,6.21,3.52,8.57,2.18,2.01,3.58,4.48,1.87,7.5-1.67,2.94-4.63,3.41-7.38,2.6-6.06-1.79-12.26-.08-18.32-1.24-10.16-1.95-20.36-3.02-30.32-6.62-9.74-3.52-17.08-10.11-25.56-15.23-6.58-3.97-11.18-9.94-17.24-14.34-1.07-.78-2.18-1.44-3.07-.4-3.59,4.17-8.91,5.89-12.91,9.36-3.44,2.99-3.44,7.76-3.44,11.83,0,4.22-1.64,8.51.29,12.81.51,1.14-.25,3.23-2.4,3.8-2.66.7-5.15,1.15-7.43-.95-6.35-5.82-11.16-12.78-13.57-20.99-1.12-3.8-4.55-5.01-6.51-4.98-11.09.16-22.19,1.05-32.68,5.26-2.36.95-2.93,2.74-3.01,5.15-.2,6.03,3.28,10.81,5.22,16.1.55,1.5,2.1.98,2.86.01,5.05-6.51,13.02-8.81,19.47-13.28,3.28-2.27,8.2-1.39,12.13-.32,1.96.53,1.82,3.4,1.59,5.72-.23,2.41-1.28,2.54-3.2,2.51-4.99-.1-8.59,3.48-11.54,6.38-3.14,3.09-7.05,4.99-10.05,8.2-3.82,4.07-9.15,6.89-12.37,11.31-4.56,6.26-10.24,8.47-17.53,9.75-5.04.88-9.3,5.17-14.71,6.19-7.58,1.43-13.38,6.19-18.55,11.32-8.72,8.65-10.34,23.67-4.31,35.15,1.88,3.59,2.07,7.52,3.08,11.26,1.64,6.05,3.83,11.6,7.21,16.98,1.84,2.93.93,7.45,1.82,11.12,2.98,12.35,8.71,23.04,18.41,31.69,2.97,2.65,4.61,7.1,6.09,11.01,1.83,4.83,5.41,8.15,8.54,11.91,1.36,1.63,2.88,1.84,4.32.73,7.26-5.64,15.76-5.2,24.13-4.82,3.49.16,7.19-1.25,10.55,1.76Zm-13.11,187.4c2.76,1.94,5.9,2.96,9.14,3.69.95.21,2.14,1.94,2.88.17.71-1.7.1-3.6-.62-5.29-.48-1.13-1.63-1.39-2.49-.84-2.77,1.81-6.09,1.32-9.02,2.38-3.21-2.09-6.9-3.3-9.97-5.72-.89-.7-2.99-.05-3.46,1.21-2.02,5.41-6.86,4.71-11.09,5.58-4.28.88-8.63,1.67-12.57,3.64-1.02.51-2.54,1.51-1.63,3.13.76,1.35,2.41.76,3.11.24,4.79-3.63,10.29-3.33,15.81-3.28,1.62.01,3.73.02,4.78-.91,4.45-3.94,9.62-4.39,15.12-4.01Zm-42.56-343.02c7.49.33,12.09-2.69,13.35-9.02,1.81-9.09,0-18.11-.91-27.12-.23-2.3-2.25-2.19-3.9-1.79-3.03.73-6,1.68-9,2.5-7.38,2.03-15.45.64-22.49,4.62-1.24.7-3.59.59-4.84-.14-3.14-1.84-6.69-1.76-9.97-2.84-1.46-.48-2.45-1.27-3.62-2.25-5.69-4.78-5.31-10.78-4.31-17.19.56-3.59.42-7.29.55-10.94.03-.77.29-1.87-.78-2.06-.71-.13-1.8.09-2.24.58-4.3,4.76-7.88,10.07-11.63,15.26-2.64,3.65-5.18,7.48-8.57,10.65-5.58,5.22-10.83,10.78-16.23,16.18-1.68,1.69-2.27,3.58-.04,5.02,5.32,3.45,8.53,8.86,12.79,13.29,2.93,3.05,5.5,6.55,8.83,9.06,3.1,2.34,3.21,6.37,6.25,8.7,1.75,1.34,1.61,3.02,3.87.01,3.98-5.29,7.96-10.55,14.97-13.27,5.73-2.22,11.57-1.89,17.19-3.51,3.98-1.15,7.95-.49,11.31,2.01,2.88,2.14,6.09,2.23,9.4,2.25Zm-189.07-43.3c-.97.3-1.84.31-2.09.7-.26.41-.11,1.64.17,1.76,3.59,1.49,2.84,5.84,5.67,8.27,1.92,1.65,4.64,3.72,5.67,6.39,2.42,6.31,9.45,9.3,11.24,16.01.12.46,1.01.83,1.61,1.05,5.85,2.18,10.87,7.02,17.94,5.34,1.14-.27,2.66.38,3.81.98,7.05,3.63,14.31,6.96,20.96,11.23,3.46,2.22,8.67,1.5,10.63,6.22.04.09,1.32-.08,1.69-.45.79-.8.8-2.16.05-2.71-2.47-1.81-3.06-4.86-5.27-6.99-5.01-4.85-9.51-10.11-12.98-16.47-1.85-3.39-3.7-7.44-7.06-10.14-5.8-4.66-12.78-7.37-18.88-11.61-2.16-1.51-3.05-4.07-5.74-5.03-3.92-1.41-6.91-3.95-12.04-2.14-4.87,1.72-10.82,1.19-15.38-2.44Zm-52.28-219.44c.48,1.74-1.15,1.83-1.26,2.85-.17,1.64-.82,3.87.69,4.59,1.95.93,2.74-1.59,3.37-2.81,1.96-3.83,4.95-6.71,7.78-9.82,4.71-5.16,8.68-11.08,13.82-15.73,3.76-3.41,6.16-10.07,13.63-7.68,2.46.78,4.29-1.93,2.46-3.43-2.54-2.08-1.56-5.4-4.09-7.52-.47,1.19-.72,3.2-2.13,2.71-3.54-1.24-5.77.63-8.5,2.31-2.45,1.51-2.72,4.42-4.78,5.86-8.23,5.7-13.82,13.74-19.5,21.69-1.07,1.49-1.96,2.79-3.01,3.07-2.53-.64,0-6.31-2.98-3.21-3.6,3.76-6.58,9.09-6.86,14.99-.04.85.48,1.7,1.34,1.88,1.11.24,1.24-.94,1.61-1.57,1.97-3.45,3.76-7.05,8.42-8.18Zm231-58.65c0,1-.02,1.99,0,2.99.03.98-.06,2.08,1.19,2.43,1.19.33,2.52.28,3.13-.86,2.73-5.02,6.96-8.9,9.97-13.77,3.02-4.88,4.62-10.68,9.15-14.67,1.75-1.54,1.97-3.57.66-5.86-1.92-3.35-4.41-6.4-5.58-10.19-.37-1.2-1.25-3.12-2.61-2.31-1.65.99-4.21.47-5.03,2.74-.32.88-.65,2.18-.24,2.81.81,1.24,1.61.01,2.4-.49,1.31-.84,1.66.19,2.07,1.15,1.14,2.68.41,4.7-1.05,7.31-3.04,5.44-9.7,9.13-8.5,16.79.14.87-.87,2.29-1.74,2.89-3.26,2.26-4.11,5.35-3.84,9.04Zm-234.34,88.85c3.79-4.45,7.26-8.48,10.68-12.55,1.1-1.31,2.25-3,3.99-1.38,1.54,1.43,2.13,3.82.57,5.43-7.03,7.26-10.81,16.77-17.28,24.45-2.36,2.8-3.81,6.96-3.32,11.69,1-.67,1.58-.84,1.74-1.2,3.15-7.03,8.5-12.66,12.06-19.55,4.15-8.03,12.32-13.36,15.55-22.66,1.73-4.97,2.21-10.61,5.46-15.12.32-.44,0-1.76-.48-2.25-.69-.72-1.8-.19-1.98.6-.98,4.26-5.52,4.93-8.08,7.58-5.73,5.94-11.74,11.63-16.6,18.31-1.16,1.6-4.08,3.41-2.3,6.66Zm264.75,470.32c-2.5.92-.75,2.55-.08,3.71,4.21,7.21,7.22,14.91,9.24,22.97,1.5,5.98,5.06,10.57,8.71,15.37,4.34,5.7,10.33,10.35,12,17.98.4,1.83,2.34,3.37,3.4,5.2.92,1.59,3.02,1.34,4.54.49,1.76-.98.62-2.65-.04-3.39-4.46-5.01-6.84-11.29-10.5-16.71-2.07-3.06-2.44-6.76-4.66-9.42-3.67-4.39-5.58-9.73-8.61-14.45-4.15-6.44-6.69-13.81-11.47-19.89-.62-.79-1.02-1.73-2.54-1.85ZM371.41,113.82c7.76-7.28,14.45-14.12,20.14-21.36,5.85-7.44,14.44-11.03,20.37-17.96,1.18-1.38,3.62-1.93,5.32-3.25,1.89-1.48,4.16-.8,5.01,1.14,1.74,3.96,3.33,1.86,4.23-.09,1.03-2.24,5.22-2.29,4.31-4.66-.82-2.15-4.46-.87-6.66-1.87-.75-.34-1.59-.46-2.36-.76-4.68-1.78-9.8-5.06-11.38,3.45-.04.2-.62.24-.85.46-4.16,3.95-8.44,7.79-12.43,11.91-6.07,6.26-12.07,12.59-17.83,19.12-3.25,3.69-6.72,7.42-7.87,13.86Zm-94.53,188.82c4.24-1.36,8.35-3.64,10.9-7.96,4.08-6.9,8.46-13.53,14.34-19.11,2.96-2.81,2.46-5.96-.96-8.13-.84-.53-1.82-.83-2.23-1.84-.54-1.34-1.4-2.56-2.93-2.05-1.67.56-2.92,2.95-2.63,3.8,1.67,5-.88,7.68-3.77,11.48-4.84,6.37-10.17,12.29-15.3,18.39-1.02,1.22-1.28,2.27-.95,3.58.39,1.55,1.6,1.99,3.52,1.84Zm96.43-164.41c7.2-12.42,16.29-22.58,24.78-33.17,5.69-7.09,11.36-14.28,18.01-20.57,1.21-1.14,2.95-2.81,1.3-4.07-1.19-.91-3.21.51-4.21,2.15-4.25,6.99-9.81,13.05-16.35,17.63-4.07,2.85-4.22,7.44-7.52,10.53-6.01,5.62-10.15,12.96-14.51,19.92-1.04,1.66-3.87,3.67-1.5,7.58Zm-113.75,94.55c-.73-2.19-.24-4.28-2.14-5.41-1.64-.97-2.46.39-3.31,1.29-8.45,8.94-14.59,19.49-20.8,29.99-1.06,1.79-.95,3.2,1.09,3.97,1.85.7,2.17-.43,2.96-2.04,4.33-8.78,10.18-16.45,17.68-22.85,1.75-1.5,3.93-2.85,4.51-4.96Zm195.47,400.13c-.55,1.88.16,3.36,1.02,5.1,3.41,6.86,6.52,13.89,9.77,20.81,2.08,4.43,3.59,9.04,6.69,12.99,1.15,1.46,2.44,2.86,3.94,1.9,1.36-.87.3-2.92-.39-4.05-1.14-1.87-2.91-3.08-3.5-5.61-1.21-5.2-4.13-9.87-6.19-14.78-3.25-7.77-7.33-15.25-10.45-23.13-.43-1.08-.79-2.55-2.31-1.86-1.57.71-1.37,2.54-.51,3.41,1.51,1.54,2.59,2.98,1.94,5.22Zm106.3,144.63c-2.06-.06-4.88-.11-3.87,2.78,1.32,3.76-.24,6.87-.86,10.23-.21,1.11-1.13,2.38.21,3.14,4.14,2.34,8.87.58,13.28,1.63,1.37.32,2.05-2.1,1.49-3.99-1.39-4.67-5.55-7.81-6.72-12.63-.35-1.43-2.24-1.1-3.53-1.16ZM268.61,243.46c-.99-1.57-.87-3.5-2.68-4.3-.81-.35-1.39-.55-2.12.31-3.81,4.48-8.35,8.9-9.11,14.76-.81,6.27-4.27,10.22-8.37,14.12-.99.94-1.26,1.89-.78,3.1.34.86.99,1.33,1.92,1.24,1.18-.11,1.42-1.09,1.92-1.98,3.69-6.53,8.18-12.49,12.99-18.24,2.35-2.81,4.19-6.03,6.22-9.02Zm181.89-166.46c-1.8-2.06-4.13-2.34-5.75-.82-4.53,4.25-9.44,8.39-12.81,13.49-3.76,5.7-8.94,10.19-12.44,16.02-.68,1.13-2.13,2.3-1.03,3.37,1.22,1.19,2.8.42,3.6-1.09,4.07-7.75,10.73-13.18,16.9-19.05,2.04-1.94,3.76-4.13,6-5.97,1.72-1.41,4.34-3.25,5.53-5.95Zm-190.93,201.02c1.51-.67,2.67-1.52,3.67-3.04,2.73-4.16,6.56-7.74,8.58-12.18,1.65-3.63,5.25-5.06,6.92-8.43,1.24-2.5-.11-3.81-1.58-4.92-1.32-1.01-2.68-.39-3.77,1.07-4.8,6.42-7.78,13.99-12.92,20.21-1.67,2.02-2.57,4.59-.91,7.3Zm306.21,488.78c.84,1.15,1.46,2.97,2.55,3.33,6.53,2.13,8.92,8.15,11.5,13.21,4.63,9.08,13.33,12.15,21.14,16.69.9.52,2.1.19,2.41-1,.28-1.07-.75-1.26-1.52-1.54-1.72-.61-3.89-.79-5.06-1.96-6.25-6.27-13.85-11.19-18.09-19.5-2.45-4.81-7.53-7.36-12.95-9.24Zm-35.25-51.48c-.45,1.38-.36,2.34.24,3.51,4.35,8.5,9.46,16.47,15.62,23.77.6.71,1.42,1.18,2.13.61,1.02-.82,1.06-2.66.49-3.19-3.27-3.06-2.9-8.66-5.44-10.78-4.92-4.13-7.62-10.06-13.05-13.93ZM365.44,133c-2.47-1.49-4.21,2.7-6.06.65-2.26-2.5-4.46-.32-4.95.61-1.78,3.37-4.58,5.9-6.6,9.03-.92,1.44-.61,2.48.9,2.3,3.13-.38,6.61.05,8.95-2.96,2.51-3.22,5.12-6.36,7.76-9.64Zm17.5-50.76c8.95-5.99,15.59-14.04,23.13-21.15,1.44-1.36.4-2.6-.35-3.46-1.4-1.63-2.01-.09-2.92.93-4.18,4.67-8.66,9.05-13.24,13.35-2.89,2.72-4.46,6.84-6.63,10.33Zm.66,387.56c.76-1.93.44-2.93-.17-4.01-4.27-7.56-8.53-15.13-12.68-22.76-.45-.82-.21-2.22-1.67-1.57-1.25.56-.82,1.94-.2,2.53,2.98,2.85,3,6.82,4.26,10.33,2.1,5.87,4.67,11.52,10.46,15.47Zm82.21-385.33c-4.52-.69-4.07,3.34-6.29,3.88-4.7,1.13-4.87,6.05-7.65,8.77-.77.75-1.54,2.48.16,3.39,1.42.76,2.9.65,3.89-.92,2.87-4.51,5.62-9.11,9.49-12.89.54-.53,1.01-1.41.37-2.2-.25-.31-.86-.35.01-.03Zm-8.31-15.1c-.77-.99-1.23-1.95-1.99-2.48-3.73-2.64-12.08-1.7-15.43,1.57-.63.62-2.2.75-1.35,2.02.6.89,1.67.51,2.63-.08,3.57-2.22,6.88-1.85,9.33,1.67.86,1.24,1.65,2.48,2.96,1.55,1.51-1.06,2.56-2.77,3.85-4.24Zm95.17,702.81c-1.16-4.37-2.19-8.79-3.54-13.11-.65-2.07-3.63-2.09-4.5-4.29-.13-.34-2.13.46-1.94.68,1.83,2.03-.22,4.27.64,6.51,1.72,4.52,5.11,7.4,9.35,10.21Zm-40.61-96.41c-1.25-6.48-4.1-12.3-7.42-17.95-.67-1.15-1.21-2.77-2.85-1.88-1.33.72-1.18,2.37-.59,3.59,2.82,5.85,5.82,11.6,10.86,16.24Zm-182.06-221.44c.76,0,1.95.15,3.07-.04,1.58-.27,2.05-1.95.74-2.29-6.02-1.56-11.4-5.15-17.76-5.5-.66-.04-1.36.32-1.36,1.11,0,.41.32,1.11.61,1.18,5.02,1.23,8.58,6.2,14.7,5.53Zm210.96,356.83c-2.62.59-5.34.98-4.76,4.52.37,2.28-.26,5.31,3.27,5.76,1.73.22,6.65-4.72,6.48-6.51-.3-3.09-3.15-2.89-4.99-3.77Zm-233.66-517.66c3.42.08,8.27-4.05,8.88-8.19.11-.73-.06-1.76-.53-2.26-.69-.74-1.7-.49-2.72-.18-4.31,1.31-4.84,6.15-8.1,8.56-1.43,1.06.35,2.1,2.46,2.08Zm78.96,151.46c.49.83.72,1.46,1.15,1.89,3.94,4,8.56,7.41,11,12.73.44.97,1.73,1.47,2.51.63,1-1.07.55-3.28-.08-3.65-2.4-1.4-2.54-4.17-4.14-5.9-2.69-2.92-5.25-6.38-10.44-5.71Zm-172.07-207.85c9.53-10.35,15.57-19.76,14.98-22.9-6.13,7.07-12.58,13.68-14.98,22.9Zm245.4,212.19c-2.32.47-4.39.91-6.47,1.31-1.04.2-2.01.57-1.97,1.77.04,1.37,1.12,1.38,2.15,1.27,1.71-.19,3.31.27,4.76,1.04,2.71,1.44,5.09.28,7.46-.76.82-.36,1.04-1.56.5-2.14-1.76-1.91-4.4-1.74-6.42-2.49Zm-239.27-186.02c.63-3.74-2.77-5.98-2.7-9.42.02-.95-2.23-1.15-3.51-.78-1.34.39-.86,1.57-.66,2.48.55,2.53,1.67,4.86,1.74,7.59.04,1.63,2.02,3.35,3.78,3.35,2.21,0,1.06-2.26,1.36-3.23Zm345.88,543.28c-.11-1.37,1.14-3.64-1.28-3.95-1.97-.25-3.25,1.3-3.5,3.4-.32,2.62-.6,5.24-2.47,7.36-.65.73-.46,1.52.37,2.08.75.51,1.72.74,2.2-.07,1.69-2.84,6.26-4.14,4.68-8.82Zm-78.76-197.39c-.3-.63-.58-1.62-1.15-2.38-2.25-3.01-4.52-6-5.75-9.6-.47-1.36-1.46-1.92-2.66-1.44-1.35.53-1.03,1.9-.84,3.01.89,5.05,6,7.17,8.08,11.45.56,1.15,2,1.14,2.32-1.04Zm-55.71-54.98c-2.66-4.23-4.04-9.39-9.57-13.35,2.11,6.34,2.29,12.22,9.57,13.35Zm19.61,37.56c-.28-4.75-4.53-7.59-5.53-11.97-.16-.71-1.38-1.1-2.11-.47-1,.86-1.18,2.51-.39,3.15,3.27,2.63,3.53,6.5,4.62,10.04.33,1.06.78,1.87,1.97,1.8,1.79-.1,1.28-1.57,1.44-2.55Zm-68.48-453.02c-5.09.52-3.35,6.8-7.07,8.47-.46.2-.85,1.15-.8,1.71.04.47.71,1,1.23,1.28.74.41,2.07.57,2.2-.19.69-4.07,6.23-6.16,4.44-11.28Zm132.44,607.69c.04.82.12,1.64.1,2.46-.08,2.77,1.72,3.64,4,4.03.77.13,1.99.66,2.21-.21.5-2.01-.43-3.79-1.82-5.27-.53-.57-1.39-.94-1.7-1.59-.5-1.07-.09-3.05-2.08-2.49-1.37.39-.51,2.01-.72,3.06Zm-91.22-262.8c-3.32-5.52-2.97-12.51-7.53-17.53,1.42,6.28,1.62,13.05,7.53,17.53Zm50.73,106.56c-1.61-4.53-4.64-7.18-8.3-9.53-1.67,7.06,2.8,8.47,8.3,9.53Zm-200.4-314.93c-4.59,1.4-5.46,6.23-8.19,9.5-.74.88-1.2,1.68-.2,2.45.87.68,2.15.59,2.45-.54,1.14-4.36,5.72-6.94,5.94-11.41Zm-11.26-157.15c2.01-3.09,4.13-3.85,6.81-.54,0-2.67.07-4.65-.03-6.63-.06-1.11-1.08-2.27-1.83-1.19-1.76,2.56-5.23,4.03-4.96,8.35Zm177.03,355.2c-.15-1.43-.82-1.74-1.75-1.76-2.08-.04-6.6,5.47-6,7.43.43,1.4,1.68,2.71,2.89,1.6,2.23-2.06,2.31-5.66,4.86-7.27Zm-83.48-365.66c-3,.95-4.65,3.17-7.52,3.8-1.24.27-1.25,2.29-.69,3.48.58,1.22,2.11,1.49,2.88.5,1.94-2.46,3.57-5.17,5.33-7.78Zm165.49,592.37c.43-3.01-.45-5.33-1.45-7.6-.38-.87-.71-2.02-2-1.78-1.25.23-1.25,1.29-1.25,2.33,0,3.28.47,6.23,4.7,7.05Zm-173.99-300.22c-.35-2.04-.22-4.55-3.12-4.73-1.19-.07-2.99.36-2.78,2.07.3,2.38,1.62,4.28,4.23,4.77,1.74.33,1.86-.8,1.67-2.1Zm210.09,349.42c-1.66.23-2.48,1.13-1.76,2.08,1.32,1.76-.45,5.24,2.94,5.6,1.52.16,1.97-1.59,1.31-2.53-1.15-1.62,0-4.55-2.49-5.15Zm-72-58.86c-.86-1.7-.19-4.54-3.03-5.33-1.68-.47-1.98.89-1.77,2.07.38,2.16.43,4.74,2.9,5.65,1.38.51,1.86-.85,1.9-2.38ZM262.16,134.44c3.75-1.26,6.18-2.73,6.75-5.89.17-.93-1.09-1.02-1.89-.95-3.9.32-3.16,3.87-4.86,6.85Zm150.03-31.53c-.32-.27-.65-.55-.97-.82-1.22,2.98-6.48,3.62-4.57,9.15,2.08-3.12,3.81-5.73,5.54-8.33Z"/>
  <path d="m422.51,285.38c-7.73,2.85-11.15,9.35-15,15.87-3.15,5.34-5.58,11.06-9.16,16.21-2.27,3.27-4.63,6.97-5.25,11.17-.86,5.84-5.27,9.45-8.65,13.55-2.76,3.35-8.72,1.02-10.38-4.07-1.96-6.02-.92-12.08,1.42-17.84.48-1.18,1.43-2.24,1.62-3.57,1.24-8.66,4.84-16.65,7.27-24.97,1.26-4.33,3.29-8.15,2.25-13.09-.49-2.31.75-5.91,4.25-7.03,1.7-.54,1.88-2.13,1.27-3.26-.87-1.6-2.96-.85-3.28.09-1.28,3.65-6.81,3.26-7.05,7.73-.02.33-.68.66-1.09.92-2.73,1.69-14.01-1.24-16.51-4.98-2-2.99-1.13-6.45.9-9.66,1.17-1.85,1.95-4.26,2.01-6.45.19-6.76,3.75-12.42,5.63-18.62,1.2-3.96,4.88-6.24,7.17-9.51,3.52-5.05,8.48-9.19,13.57-11.97,6.46-3.53,9.8-11.13,17.69-12.46,3.39-.57,5.57-3.48,7.75-5.83,2.83-3.05,6.51-4.71,10.02-6.2,3.59-1.53,5.76,2.61,8.44,4.36,1.1.72,1.95,2,3.24,2.81,3.17,2.01,5.19,4.6,5.53,8.8.66,8.11,4.28,15.08,8.73,21.96,2.6,4.02,4.75,8.91,5.9,13.78,2.07,8.8,7.01,14.35,16.03,15.95,2.86.5,5.79,3.79,8.93-1.11,1,8.25,7.11,6.2,11.08,5.88,8-.64,14.06,3.53,20.68,6.45,1.86.82,3.67,1.71,5.69,1.43,8.18-1.13,15.99,2.94,24.21,1.64,3.21-.51,4.09,3.02,6.16,4.53,5.28,3.86,9.14,8.74,8.65,15.91-.21,3.15-.51,6.35-.15,9.46.46,3.94-.32,7.86,1.96,11.85,3.05,5.34-1.68,10.46-2.27,15.77-.72,6.45-3.11,11.57-8.39,15.55-1.51,1.14-2.18,3.91-2.5,5.68-1.13,6.33-5.86,5.82-9.46,4.69-6.1-1.91-11.17-1.39-16.19,2.5-3.7,2.87-7.37-.58-8.31-2.55-3.01-6.33-8.05-3.9-12.49-3.99-1.72-.03-3.17-.08-4.71-.98-6.56-3.82-13.55-6.99-18.24-13.41-1.56-2.14-4.02-1.32-6.04-.75-3.62,1.02-7,1.13-10.63-.3-3.98-1.57-9.94,1.38-12.43,6.31-1.86,3.68-2.69,4-5.88.9-2.49-2.43-4.57-3.38-.82-6.2,1.26-.94.79-1.92-.88-2.33-2.13-.52-2.99-2.9-5.16-3.6-2.14-.7-1.81-2.8-1.16-4.25,2.75-6.13,3.15-12.91,5.18-19.1,2.25-6.86,2.39-13.93,4.28-20.73.74-2.66.93-5.2-3.3-4.45-1.32.23-2.66-.28-3.64-1.3-2.94-3.03-5.44-.84-7.18,1.15-2.54,2.92-4.81,6.24-6.48,9.73-2.06,4.32-5.74,4.29-9.21,3.84-2.87-.37-2.68-2.9-1.43-5.06,1.51-2.62,3.27-5.04,5.79-6.87Zm129.26,9.86c.13-2.95-.47-5.84-1.72-8.62-1.81-4.03-5.57-3.96-8.89-3.72-2.95.22-3.43,2.47-2.02,5.07.17.32-.41,1.16-.78,1.66-3.34,4.45-6.89,8.76-10,13.37-1.6,2.38-4.92,3.64-5.65,5.7-2.85,8.09-10.63,12.68-13.72,20.47-.53,1.34-1.23,2.6.26,3.39,1.4.75,2.64.02,2.93-1.63.63-3.59,3.48-5.92,5.43-8.55,8.73-11.78,18.9-22.37,28.99-32.99,1.27-1.33,2.51-.97,3,.69.52,1.75,1.02,4-.33,5.28-4.3,4.05-7.55,8.97-10.9,13.67-4.48,6.29-11.45,11.26-11.93,20-.07,1.34-.55,2.83,1.04,3.43,1.69.63,2.04-.62,2.6-2.03,2.71-6.9,7.58-12.64,12.81-17.38,5.59-5.06,9.96-9.78,8.86-17.81Zm-155.48-3.17c5.87-8.62,10.82-17.25,17.13-24.71,4.6-5.43,8.46-11.41,13.3-16.73,5.06-5.57,9.51-11.9,14.66-17.54,2.69-2.94,2.77-6.29-.41-8.5-3.31-2.3-3.56,1.25-4.82,2.88-.47.61-1.4.86-1.93,1.45-3.81,4.25-8.16,8.17-11.21,12.92-3.89,6.06-8.56,11.49-12.82,17.22-1.75,2.36-3.26,4.57-4.25,7.3-1.91,5.26-4.38,10.2-7.36,15.01-1.72,2.77-4.18,6.29-2.3,10.7Zm-23.82-21.96c1.8-1.24,3.8-1.39,4.73-3.52,4.1-9.41,10.86-16.86,17.84-24.17,5.7-5.98,11.04-12.31,16.93-18.1,3.82-3.76,6.41-8.55,10.91-11.79,2.61-1.88,5.02-4.15,7.69-6.06,1.47-1.05,2.71-2.98,1.18-4.74-1.77-2.04-2.5.47-3.81,1.12-2.82,1.4-4.04,4.34-6.56,5.88-4.08,2.49-7.59,5.55-10.76,9.16-2.38,2.71-3.76,6.06-6.47,8.56-6.17,5.69-10.73,12.88-17.09,18.48-4.39,3.87-6.71,9.93-12.7,12.25-.65.25-1.38,1.21-1.45,1.9-.33,3.53-1.55,7.05-.46,11.03Zm73.46-10.88c1.6.04,2.03-2.14,3.62-1.52.98.38,1.05,1.68.69,2.1-2.5,2.89-.89,7.86-5.15,9.89-1.23.59-2.94,1.92-1.47,3.47,1.33,1.41,3.15,0,3.71-1.1,2.39-4.69,6.68-6.98,11-9.24,1.61-.84,2.4-1.65,1.23-3.41-3.79-5.68-7.25-11.49-9.07-18.2-.73-2.69-1.97-4.75-5.43-1.74-6.97,6.04-10.86,14.55-17.41,20.89-.39.38-.89,1.86.42,2.63,1.28-.57,2.53-1.06,3.61-2.26,3.14-3.49,7.14-5.94,11.45-7.67,2.7-1.08,4.29.02,3.36,3.18-.26.88-1.4,1.5-.57,2.97Zm89.3,24.15c.15-1.14-.33-1.66-1.14-2.12-3.65-2.08-9.93.42-10.8,4.62-1.29,6.2-6.16,10.2-9.37,15.1-2.12,3.24-5.42,6.07-7.1,9.69-3.29,7.1-8.18,12.96-13.26,18.7-1.29,1.46-2.12,2.91-2.1,4.84,0,1.01-.03,2.11,1.15,2.47,1.23.37,2.53.04,2.93-1.2,1.89-5.87,6.41-9.9,9.82-14.73,7.29-10.31,14.74-20.41,23.61-29.49,2.26-2.32,5.06-4.73,6.27-7.88Zm-79.14,36.7c4.89-2.03,5.41-7.67,8.65-10.89,4.77-4.73,8.25-10.31,12.27-15.5,3.97-5.13,7.21-10.83,11.22-15.92,1.03-1.31,3.07-1.74,2.78-4.03-.21-1.68-1.4-1.77-2.56-1.55-2.3.44-5.53-1.57-6.78,1.51-4.19,10.29-13.35,17.41-17.42,27.75-1.32,3.36-2.41,7.11-4.72,9.69-2.61,2.91-3.11,5.98-3.45,8.96Zm-60.6-60.62c1.89-.88,5.16.42,6.21-1.9,2.23-4.93,6.42-8.32,9.13-12.83,3.66-6.1,9.27-10.6,13.42-16.37,2.65-3.69,6.91-6.32,10.15-9.78,1.32-1.41,2.59-2.61.9-3.91-1.42-1.1-2.9-.6-4.43,1.3-2.56,3.19-4.61,6.96-8.8,8.76-4.98,2.14-6.44,7.84-10.39,11.29-2.3,2-3.66,5.8-6.12,7.9-4.32,3.68-7.18,8.67-11.69,12.12-.66.51-1.73,1.29-1.21,2.47.49,1.11,1.61.99,2.83.96Zm124.77,22.11c-4.72-1.74-7.1.41-9.68,3.11-4.32,4.52-5.07,12.11-12.18,14.23-.34.1-.66.76-.72,1.2-.83,5.93-6.23,8.84-8.85,13.53-2.24,4.01-6.5,6.71-7.34,11.58-.2,1.16-1.9,2.55.08,3.33,1.66.66,3.14-.16,4.15-1.83,1.08-1.79,1.48-3.78,2.81-5.62,5.39-7.48,11.23-14.57,17.08-21.67,4.78-5.8,8.02-12.83,14.66-17.85Zm-66.42-.19c1.39-.09,2.17-.66,2.37-1.76.59-3.37,3.89-4.75,5.39-7.5,1.38-2.55,2.89-1.41,3.96.51,1.82,3.26-1.91,4.19-2.53,6.08-2.49,7.63-6.58,14.42-9.89,21.61-.37.8-.61,2.08.72,2.49.91.28,1.81-.36,1.93-1.16.77-5.12,5.2-8.29,6.66-13.19,1.95-6.53,7.22-11.07,11.83-15.85.91-.95,2.33-1.41,1.98-3.01-.42-1.9-2.08-1.87-3.58-1.97-1.96-.13-3.9.02-5.33-1.96-2.31-3.19-4.66-2.33-6.62.46-2.5,3.55-4.62,7.36-7.49,10.67-1.31,1.52-.95,3.32.62,4.59Zm27.91,25.07c-3.48,7.88-13.15,10.22-15.94,18.63-.42,1.26-3.76,1.17-1.98,3.02,1.64,1.71,3.22-.21,4.46-1.6,2.94-3.32,6.19-6.42,8.8-9.98,2.13-2.91,5.9-5.06,4.66-10.07Zm22.49,36.8c5.17,1.14,9.66-.91,13.25,2.48.68.64,2.71.54,3.49-.84.55-.96,1.13-2.3.86-3.23-.41-1.42-1.97-.68-3.04-.66-1.16.02-2.15.06-3.25-.69-2.18-1.49-3.67-5.16-6.05-4.68-3.06.61-1.91,5.26-5.26,7.63Zm-61.94-80.87c-8.8,3.19-13.49,9.39-17.71,16.09,6.76-4.03,13.22-8.37,17.71-16.09Zm55.22,19.17c1.01.07,7.47-5.21,7.58-6.2.17-1.58-.83-1.96-2.1-2.02-1.96-.1-6.88,4.76-6.86,6.73.01.95.31,1.57,1.39,1.5Zm49.17,49.29c1.41-1.57,2.97-3.04,4.18-4.75.72-1.02,1.23-2.85-.41-3.32-1.32-.37-3.85-.74-3.87,1.68-.01,2.07-.83,4,.1,6.39Zm-2.99,4.22c-4.46,1.99-4.37,5.82-6.82,7.65-.52.39-.03,2.02,1.01,2.43,1.15.45,1.05-.87,1.55-1.39,2.02-2.12,1.89-5.17,4.27-8.7Zm-91.92-7.15c1.3-.84,3.04-1.28,3.29-3.21.16-1.24-.61-1.71-1.72-1.85-1.72-.22-2.95.22-2.9,2.23.02,1.09-.19,2.34,1.33,2.83Z"/>
  <path d="m356.93,358.4c-.32,8.02-.34,7.78-8.34,8.35-4.9.35-9.82.51-14.73,1.53-4.08.85-8.13-2.07-10.72-4.49-1.62-1.52-4.27-3.15-5.22-5.92-.52-1.51-3.21-1.72-3.79-.49-1.12,2.35-4.32,2.59-4.8,4.13-1.31,4.18-5.91,4.47-7.9,8.17-2.56,4.77-11.93,3.97-15.15-.52-.69-.96-.9-2.22-.3-3.33,5.17-9.68,9.28-19.8,20.11-25.56,4.72-2.51,9.65-6.04,13.45-10.68,2.07-2.52,6.42-2.26,9.53.18.77.6,1.66,2.05,2.31,1.43,3.2-3.05,5.93-.23,8.96.09,3.03.32,4.71,1.97,5.83,3.9,2.83,4.87,6.34,9.14,9.77,13.55,1.95,2.51,1.57,6.33.98,9.66Zm-42.39-9.91c5.48-4.9,6.65.25,8.94,2.49,1.25,1.22,1.16,3.14,2.88,4.42,5.91,4.44,12.41,2.22,18.71,2.24,1.61,0,1.37-1.41,1.7-2.52,1.65-5.54-3.17-7.84-5.77-11.01-.95-1.17-1.01-3.99-3.46-3.56-3.61.63-6.77-.13-9.87-1.99-.86-.51-2.88-.58-3.34-.01-2.72,3.39-7.89,4.01-9.78,9.93Z"/>
  <path d="m364.97,738.64c-8.74-.37-17.43,1.44-26.24.14-3.69-.55-7,1.93-10.15,3.6-11.84,6.27-24.44,4.88-37.06,4.46-8.27-.28-16.55-.82-24.88-.54-2.62.09-6.76-1.28-9.01-.77-3.36.76-6.35-2.65-9.63.18-2.1,1.81-5.47,1.53-8.13,1.05-7.71-1.37-15.14.46-22.68,1.23-3.12.32-6.18.89-9.29-.62-2.74-1.33-2.74-3.62-2.53-5.8.22-2.41,2.47-1.39,3.99-1.72,13.8-3,27.82-1.82,41.71-1.77,10.94.04,21.87-1.32,32.83-.23,4.74.47,9.52-.31,14.33.45,2.99.47,5.49,1.47,7.84,3.18,1.17-4.04,4.63-2.46,7.23-2.93,5.72-1.03,10.4-4.6,15.81-6.53,4.56-1.63,8.7-2.67,13.33-1.96,8.33,1.28,16.57-.55,24.87-.67,5.26-.08,6.8,4.49,10.34,6.44,1.53.85,0,2.85-2.21,2.82-3.49-.04-6.98,0-10.47,0Z"/>
  <path d="m272.93,805.69c5.47,1.1,8.74-2.48,12-4.62,7.37-4.83,15.41-6.57,23.84-7.38,4.12-.4,8.26-.04,12.39-.99,3.01-.69,5.77.24,7.28,3.56,1.32,2.89,2.99,5.64,3.62,8.79.61,3.05,2.5,3.74,5.15,2.92,1.57-.48,3.27-.98,4.54-1.95,2.25-1.73,3.86-3.85,6.48-.08,1.18,1.7,3.78.27,5.39-.95,3.89-2.96,8.57-3.4,13.11-4.21,1.06-.19,2.55-.02,3.35.62,5.15,4.12,8.75.78,12.62-2.22,2.82-2.19,5.94-3.99,8.84-6.09,4.67-3.38,9.03-1.27,13.39.64,1.5.66,2.13,2.4,1.9,3.68-.3,1.7-2.46,2.91-3.73,2.81-9.01-.69-14.24,6.21-20.96,10.06-4.25,2.43-8.48,1.61-12.31-.42-2.51-1.33-4.18-1.12-6.24.41-3.17,2.36-7.8,1.47-10.65,4.76-.64.74-1.38-.43-2.05-.86-1.85-1.19-3.91-1.19-5.7-.16-6.73,3.88-12.67,2.76-18.49-2.1-2.21-1.84-3.74-4.02-3.98-6.54-.41-4.2-2.39-4.63-5.98-4.06-5.01.8-10.11,1.51-15.15,1.42-5.78-.11-9.46,3.74-13.38,6.59-4.84,3.52-9.69,4.52-15.34,3.95-3.39-.34-4.91-2.65-4.81-5.33.15-3.69,3.58-1.62,4.86-2.25Z"/>
  <path d="m768.63,709.2c-3.86,3.53-14.5,4.92-19.02,1.74-4.15-2.92-8.87-2.54-13.13-2.24-5.05.35-9.81,1.04-14.55-1.34-2.67-1.34-6.55,1.08-8.61-3.01-.54-1.08-2.76-.36-3.06,1.73-.43,3.03-2.27,3.32-5.04,3.11-8.43-.63-16.88-.91-25.32-1.24-4.4-.17-8.66-.41-12.02,3.72-1.82,2.23-10.7-1.62-11.51-4.68-.28-1.05-.18-2.07,1.11-2.32,8.65-1.7,16.86-7.27,25.91-4.67,5.64,1.62,11.05,1.47,16.65,1.65,4.41.14,8.3-1.89,12.54-2.5,4.76-.68,8.64-.04,12.76,1.92,4.08,1.94,8.5,1.53,12.71.5,2.93-.72,5.49-1.11,8.32.52,1.64.95,3.79,1.15,5.75,1.39,5.83.72,12.22-.48,16.51,5.72Z"/>
  <path d="m408.28,749.95c-2.48-.19-3.63-.32-4.78-.35-2.46-.07-4.26-1.48-4.5-3.65-.25-2.29,2.25-2.04,3.71-2.22,5.19-.63,8.73-4.88,13.86-5.88,3.61-.7,6.82-.58,10.14.6,2.29.81,2.45,2.83.68,3.59-6.71,2.89-13.18,6.45-19.11,7.9Z"/>
  <path d="m363.84,659.31c-1.36.35-3.02.69-2.34-1.54.76-2.5-1.05-6.45,3.31-7.08,2.4-.35,7.19,5.01,7.21,7.75.03,2.79-2.05,2.12-3.53,1.84-1.55-.3-2.83-1.85-4.66-.96Z"/>
  <path d="m368.86,510.91c-1.29.5-1.95.05-2.13-.85-.15-.75-.25-1.75.12-2.32.66-1.02,1.34-.23,1.9.37.31.34.85.99.94.94,1.14-.69,2.74-3.08,2.95.35.2,3.38-3.38-.69-3.78,1.51Z"/>
</svg>